<svg width="24" height="24" viewBox="0 0 24 24" fill="none" xmlns="http://www.w3.org/2000/svg">
<path d="M16 8.25C15.8661 8.25 15.75 8.13386 15.75 8V4.5C15.75 3.8555 15.548 3.28088 15.1336 2.86645C14.7191 2.45202 14.1445 2.25 13.5 2.25H10.5C9.8555 2.25 9.28088 2.45202 8.86645 2.86645C8.45202 3.28088 8.25 3.8555 8.25 4.5V8C8.25 8.13386 8.13386 8.25 8 8.25C7.86614 8.25 7.75 8.13386 7.75 8V4.5C7.75 3.66505 8.04084 2.98376 8.5123 2.5123C8.98376 2.04084 9.66505 1.75 10.5 1.75H13.5C14.335 1.75 15.0162 2.04084 15.4877 2.5123C15.9592 2.98376 16.25 3.66505 16.25 4.5V8C16.25 8.13386 16.1339 8.25 16 8.25Z" fill="#3E1C01" stroke="#3E1C01"/>
<path d="M4.92628 10.0896L4.92637 10.0889C5.04369 9.09925 5.18005 8.3686 5.60861 7.8595C6.01034 7.38227 6.76648 7 8.39984 7H15.5998C17.233 7 17.9896 7.38217 18.3927 7.85994C18.8227 8.36961 18.961 9.10041 19.0835 10.0902C19.0835 10.0906 19.0836 10.091 19.0836 10.0914L19.7625 15.7717C19.7626 15.7747 19.7621 15.7762 19.7619 15.777C19.7615 15.7782 19.7608 15.7792 19.7602 15.78C19.7601 15.78 19.76 15.78 19.7598 15.78H7.99984C7.31806 15.78 6.74984 16.3295 6.74984 17.03C6.74984 17.7161 7.3137 18.28 7.99984 18.28H20.0298C20.03 18.28 20.0302 18.28 20.0304 18.28C20.0509 19.2659 19.8407 20.0455 19.3463 20.5807C18.8538 21.1139 17.99 21.5 16.4898 21.5H7.50984C5.84563 21.5 4.96245 21.0267 4.4984 20.3923C4.017 19.7342 3.88692 18.7724 4.02635 17.589C4.02637 17.5889 4.02639 17.5887 4.02641 17.5885L4.92628 10.0896Z" fill="#3E1C01" stroke="#3E1C01"/>
</svg>
