<svg width="100" height="22" viewBox="0 0 100 22" fill="none" xmlns="http://www.w3.org/2000/svg">
<path d="M1.625 16.7158H7.20312C7.95898 16.7158 8.32812 16.3408 8.32812 15.5205V11.2197C8.32812 10.4814 8.02344 10.1006 7.39648 10.0361V8.55957C7.39648 6.35059 5.94922 5.28418 4.41406 5.28418C2.87891 5.28418 1.43164 6.35059 1.43164 8.55957V10.0654C0.857422 10.1533 0.5 10.5283 0.5 11.2197V15.5205C0.5 16.3408 0.869141 16.7158 1.625 16.7158ZM2.375 8.43652C2.375 6.96582 3.31836 6.18652 4.41406 6.18652C5.50977 6.18652 6.45312 6.96582 6.45312 8.43652V10.0303L2.375 10.0361V8.43652Z" fill="#3C3C43" fill-opacity="0.6"/>
<path d="M15.0591 12.308C15.0591 11.356 15.2518 10.523 15.6371 9.809C16.0225 9.08367 16.5495 8.52267 17.2181 8.126C17.8981 7.72933 18.6518 7.531 19.4791 7.531C20.2951 7.531 21.0035 7.70667 21.6041 8.058C22.2048 8.40933 22.6525 8.85133 22.9471 9.384V7.684H24.5111V17H22.9471V15.266C22.6411 15.81 22.1821 16.2633 21.5701 16.626C20.9695 16.9773 20.2668 17.153 19.4621 17.153C18.6348 17.153 17.8868 16.949 17.2181 16.541C16.5495 16.133 16.0225 15.5607 15.6371 14.824C15.2518 14.0873 15.0591 13.2487 15.0591 12.308ZM22.9471 12.325C22.9471 11.6223 22.8055 11.0103 22.5221 10.489C22.2388 9.96767 21.8535 9.571 21.3661 9.299C20.8901 9.01567 20.3631 8.874 19.7851 8.874C19.2071 8.874 18.6801 9.01 18.2041 9.282C17.7281 9.554 17.3485 9.95067 17.0651 10.472C16.7818 10.9933 16.6401 11.6053 16.6401 12.308C16.6401 13.022 16.7818 13.6453 17.0651 14.178C17.3485 14.6993 17.7281 15.1017 18.2041 15.385C18.6801 15.657 19.2071 15.793 19.7851 15.793C20.3631 15.793 20.8901 15.657 21.3661 15.385C21.8535 15.1017 22.2388 14.6993 22.5221 14.178C22.8055 13.6453 22.9471 13.0277 22.9471 12.325ZM28.2644 4.42V17H26.7174V4.42H28.2644ZM32.38 8.959V14.45C32.38 14.9033 32.4763 15.2263 32.669 15.419C32.8617 15.6003 33.196 15.691 33.672 15.691H34.811V17H33.417C32.5557 17 31.9097 16.8017 31.479 16.405C31.0483 16.0083 30.833 15.3567 30.833 14.45V8.959H29.626V7.684H30.833V5.338H32.38V7.684H34.811V8.959H32.38ZM37.0764 6.171C36.7817 6.171 36.5324 6.069 36.3284 5.865C36.1244 5.661 36.0224 5.41167 36.0224 5.117C36.0224 4.82233 36.1244 4.573 36.3284 4.369C36.5324 4.165 36.7817 4.063 37.0764 4.063C37.3597 4.063 37.5977 4.165 37.7904 4.369C37.9944 4.573 38.0964 4.82233 38.0964 5.117C38.0964 5.41167 37.9944 5.661 37.7904 5.865C37.5977 6.069 37.3597 6.171 37.0764 6.171ZM37.8244 7.684V17H36.2774V7.684H37.8244ZM41.6 9.197C41.872 8.66433 42.2573 8.25067 42.756 7.956C43.266 7.66133 43.8836 7.514 44.609 7.514V9.112H44.201C42.467 9.112 41.6 10.0527 41.6 11.934V17H40.053V7.684H41.6V9.197ZM54.4868 11.985C54.4868 12.2797 54.4698 12.5913 54.4358 12.92H46.9898C47.0464 13.838 47.3581 14.5577 47.9248 15.079C48.5028 15.589 49.1998 15.844 50.0158 15.844C50.6844 15.844 51.2398 15.691 51.6818 15.385C52.1351 15.0677 52.4524 14.6483 52.6338 14.127H54.2998C54.0504 15.0223 53.5518 15.7533 52.8038 16.32C52.0558 16.8753 51.1264 17.153 50.0158 17.153C49.1318 17.153 48.3384 16.9547 47.6358 16.558C46.9444 16.1613 46.4004 15.6003 46.0038 14.875C45.6071 14.1383 45.4088 13.2883 45.4088 12.325C45.4088 11.3617 45.6014 10.5173 45.9868 9.792C46.3721 9.06667 46.9104 8.51133 47.6018 8.126C48.3044 7.72933 49.1091 7.531 50.0158 7.531C50.8998 7.531 51.6818 7.72367 52.3618 8.109C53.0418 8.49433 53.5631 9.027 53.9258 9.707C54.2998 10.3757 54.4868 11.135 54.4868 11.985ZM52.8888 11.662C52.8888 11.0727 52.7584 10.5683 52.4978 10.149C52.2371 9.71833 51.8801 9.39533 51.4268 9.18C50.9848 8.95333 50.4918 8.84 49.9478 8.84C49.1658 8.84 48.4971 9.08933 47.9418 9.588C47.3978 10.0867 47.0861 10.778 47.0068 11.662H52.8888ZM56.6138 17.102C56.3191 17.102 56.0698 17 55.8658 16.796C55.6618 16.592 55.5598 16.3427 55.5598 16.048C55.5598 15.7533 55.6618 15.504 55.8658 15.3C56.0698 15.096 56.3191 14.994 56.6138 14.994C56.8971 14.994 57.1351 15.096 57.3278 15.3C57.5318 15.504 57.6338 15.7533 57.6338 16.048C57.6338 16.3427 57.5318 16.592 57.3278 16.796C57.1351 17 56.8971 17.102 56.6138 17.102ZM58.7041 12.325C58.7041 11.3617 58.8968 10.523 59.2821 9.809C59.6674 9.08367 60.2001 8.52267 60.8801 8.126C61.5714 7.72933 62.3591 7.531 63.2431 7.531C64.3878 7.531 65.3284 7.80867 66.0651 8.364C66.8131 8.91933 67.3061 9.69 67.5441 10.676H65.8781C65.7194 10.1093 65.4078 9.66167 64.9431 9.333C64.4898 9.00433 63.9231 8.84 63.2431 8.84C62.3591 8.84 61.6451 9.146 61.1011 9.758C60.5571 10.3587 60.2851 11.2143 60.2851 12.325C60.2851 13.447 60.5571 14.314 61.1011 14.926C61.6451 15.538 62.3591 15.844 63.2431 15.844C63.9231 15.844 64.4898 15.6853 64.9431 15.368C65.3964 15.0507 65.7081 14.5973 65.8781 14.008H67.5441C67.2948 14.96 66.7961 15.725 66.0481 16.303C65.3001 16.8697 64.3651 17.153 63.2431 17.153C62.3591 17.153 61.5714 16.9547 60.8801 16.558C60.2001 16.1613 59.6674 15.6003 59.2821 14.875C58.8968 14.1497 58.7041 13.2997 58.7041 12.325ZM70.7473 4.42V17H69.2003V4.42H70.7473ZM77.0389 17.153C76.1662 17.153 75.3729 16.9547 74.6589 16.558C73.9562 16.1613 73.4009 15.6003 72.9929 14.875C72.5962 14.1383 72.3979 13.2883 72.3979 12.325C72.3979 11.373 72.6019 10.5343 73.0099 9.809C73.4292 9.07233 73.9959 8.51133 74.7099 8.126C75.4239 7.72933 76.2229 7.531 77.1069 7.531C77.9909 7.531 78.7899 7.72933 79.5039 8.126C80.2179 8.51133 80.7789 9.06667 81.1869 9.792C81.6062 10.5173 81.8159 11.3617 81.8159 12.325C81.8159 13.2883 81.6005 14.1383 81.1699 14.875C80.7505 15.6003 80.1782 16.1613 79.4529 16.558C78.7275 16.9547 77.9229 17.153 77.0389 17.153ZM77.0389 15.793C77.5942 15.793 78.1155 15.6627 78.6029 15.402C79.0902 15.1413 79.4812 14.7503 79.7759 14.229C80.0819 13.7077 80.2349 13.073 80.2349 12.325C80.2349 11.577 80.0875 10.9423 79.7929 10.421C79.4982 9.89967 79.1129 9.51433 78.6369 9.265C78.1609 9.00433 77.6452 8.874 77.0899 8.874C76.5232 8.874 76.0019 9.00433 75.5259 9.265C75.0612 9.51433 74.6872 9.89967 74.4039 10.421C74.1205 10.9423 73.9789 11.577 73.9789 12.325C73.9789 13.0843 74.1149 13.7247 74.3869 14.246C74.6702 14.7673 75.0442 15.1583 75.5089 15.419C75.9735 15.6683 76.4835 15.793 77.0389 15.793ZM85.3289 8.959V14.45C85.3289 14.9033 85.4252 15.2263 85.6179 15.419C85.8106 15.6003 86.1449 15.691 86.6209 15.691H87.7599V17H86.3659C85.5046 17 84.8586 16.8017 84.4279 16.405C83.9972 16.0083 83.7819 15.3567 83.7819 14.45V8.959H82.5749V7.684H83.7819V5.338H85.3289V7.684H87.7599V8.959H85.3289ZM93.8503 7.514C94.5529 7.514 95.1876 7.667 95.7543 7.973C96.3209 8.26767 96.7629 8.71533 97.0803 9.316C97.4089 9.91667 97.5733 10.6477 97.5733 11.509V17H96.0433V11.73C96.0433 10.8007 95.8109 10.0923 95.3463 9.605C94.8816 9.10633 94.2469 8.857 93.4423 8.857C92.6263 8.857 91.9746 9.112 91.4873 9.622C91.0113 10.132 90.7733 10.8743 90.7733 11.849V17H89.2263V4.42H90.7733V9.01C91.0793 8.534 91.4986 8.16567 92.0313 7.905C92.5753 7.64433 93.1816 7.514 93.8503 7.514Z" fill="black"/>
</svg>
