<svg width="109" height="38" viewBox="0 0 109 38" fill="none" xmlns="http://www.w3.org/2000/svg">
<path fill-rule="evenodd" clip-rule="evenodd" d="M594.755 -119.421H-60.2412V310H594.755V-119.421ZM-34.1427 70.1693V17.0722V-36.025H48.673H131.489V17.0722V70.1693H48.673H-34.1427ZM37.8141 35.1124V17.5839C37.8141 7.94328 37.7259 0.0631561 37.6178 0.0723648C37.5098 0.0815735 36.0379 0.559837 34.3471 1.13482L31.2726 2.18039V18.6464V35.1124H34.5433H37.8141ZM48.8038 10.8029V6.96451C48.8038 4.85342 48.7157 3.13998 48.6076 3.15661C48.4995 3.1735 48.0581 3.32063 47.6264 3.48338C47.1946 3.64638 45.8701 4.10263 44.6827 4.49747L42.524 5.21524V14.8759C42.524 23.7767 42.5643 24.6565 43.0363 26.0623C44.7973 31.3089 49.1317 34.8281 54.6648 35.5042L56.1303 35.683V32.455C56.1303 29.4181 56.1 29.2269 55.617 29.2269C55.3344 29.2269 54.422 28.9787 53.5891 28.6755C52.0272 28.1066 50.4628 26.7942 49.7581 25.4613C49.1754 24.3594 48.8038 21.9709 48.8038 19.3281V16.9442H52.4671H56.1303V13.8735V10.8029H52.4671H48.8038ZM64.7651 35.1124V22.5738C64.7651 15.6776 64.7356 10.0434 64.6997 10.0534C64.6639 10.0633 63.192 10.5436 61.429 11.1207L58.2236 12.1701V23.6411V35.1124H61.4944H64.7651ZM83.3431 16.6302V13.4605V10.2911L82.4927 10.3172C78.1352 10.4518 73.0813 13.5214 70.8802 17.3705C69.0925 20.4967 68.9517 21.3171 68.9517 28.61V35.1124H72.2225H75.4932L75.4959 28.9071C75.4982 22.9269 75.5207 22.6546 76.1155 21.4057C77.3445 18.8245 79.5076 17.1927 82.2292 16.7935L83.3431 16.6302ZM27.4445 34.5367C27.7142 33.5525 27.6305 11.9139 27.3542 11.2033C27.1006 10.5511 27.0797 10.547 24.0834 10.547H21.0678V11.2166C21.0678 11.4527 21.0742 11.6137 20.9971 11.6996C20.8314 11.8839 20.2801 11.7216 18.4512 11.2107C16.4764 10.6593 13.1387 10.6859 11.3363 11.2673C7.48549 12.5096 4.71319 15.123 3.20864 18.9289C2.37761 21.0305 2.37761 25.1406 3.20864 27.2422C4.25868 29.8984 5.63712 31.6016 8.10484 33.292C10.9562 35.2452 15.0608 35.9072 18.4512 34.9604C20.9618 34.259 21.0678 34.2485 21.0678 34.6986C21.0678 35.0566 21.488 35.1124 24.1771 35.1124C27.1807 35.1124 27.2919 35.0927 27.4445 34.5367ZM106.408 19.4263C105.028 15.3344 101.915 12.3945 97.7721 11.2711C91.6464 9.61015 85.1428 12.8338 82.7753 18.705C81.9034 20.867 81.916 25.1688 82.8004 27.3078C84.5203 31.467 88.0791 34.3104 92.5669 35.1111C95.5297 35.6398 98.7036 34.9404 101.458 33.1523C102.427 32.5236 103.291 31.8948 103.379 31.7551C103.519 31.5348 99.6087 27.7054 99.0152 27.481C98.8949 27.4354 98.4103 27.6826 97.9385 28.0304C96.6192 29.0023 94.5233 29.3306 92.812 28.8336C91.5228 28.4593 89.3613 26.9237 89.3613 26.3825C89.3613 26.256 93.2271 26.1562 98.1269 26.1562H106.893V23.5091C106.893 21.6206 106.754 20.4504 106.408 19.4263ZM89.3613 19.7982C89.3613 19.2165 91.1638 17.7526 92.4185 17.315C94.5594 16.5683 97.1907 17.1231 98.8465 18.6704C100.221 19.9553 100.027 20.0149 94.4637 20.0149C91.6573 20.0149 89.3613 19.9174 89.3613 19.7982ZM9.03138 23.0856C9.03138 20.9205 10.566 18.5637 12.5491 17.6827C13.8151 17.1205 16.2744 17.0517 17.4783 17.545C19.8267 18.5077 21.162 20.5159 21.162 23.0856C21.162 25.4955 20.2943 26.9692 18.0822 28.3167C16.96 29.0005 14.2853 29.1461 12.831 28.6028C10.7228 27.8154 9.03138 25.3594 9.03138 23.0856Z" fill="white"/>
</svg>
