<svg width="22" height="52" viewBox="0 0 22 52" fill="none" xmlns="http://www.w3.org/2000/svg">
<path d="M11 12.8957C10.5829 12.8957 10.2038 12.7441 9.90048 12.4407L0.421911 2.58303C-0.146803 1.9764 -0.146803 1.02854 0.459826 0.421911C1.06645 -0.146803 2.01431 -0.146803 2.62094 0.459826L11 9.18011L19.3791 0.459826C19.9478 -0.146803 20.9335 -0.146803 21.5402 0.421911C22.1468 0.990626 22.1468 1.9764 21.5781 2.58303L12.0995 12.4407C11.7962 12.7441 11.4171 12.8957 11 12.8957Z" fill="#3E1C01"/>
<path d="M11 31.8957C10.5829 31.8957 10.2038 31.7441 9.90048 31.4407L0.421911 21.583C-0.146803 20.9764 -0.146803 20.0285 0.459826 19.4219C1.06645 18.8532 2.01431 18.8532 2.62094 19.4598L11 28.1801L19.3791 19.4598C19.9478 18.8532 20.9335 18.8532 21.5402 19.4219C22.1468 19.9906 22.1468 20.9764 21.5781 21.583L12.0995 31.4407C11.7962 31.7441 11.4171 31.8957 11 31.8957Z" fill="#3E1C01"/>
<path d="M11 51.8957C10.5829 51.8957 10.2038 51.7441 9.90048 51.4407L0.421911 41.583C-0.146803 40.9764 -0.146803 40.0285 0.459826 39.4219C1.06645 38.8532 2.01431 38.8532 2.62094 39.4598L11 48.1801L19.3791 39.4598C19.9478 38.8532 20.9335 38.8532 21.5402 39.4219C22.1468 39.9906 22.1468 40.9764 21.5781 41.583L12.0995 51.4407C11.7962 51.7441 11.4171 51.8957 11 51.8957Z" fill="#3E1C01"/>
</svg>
