<svg width="9" height="10" viewBox="0 0 9 10" fill="none" xmlns="http://www.w3.org/2000/svg">
<path fill-rule="evenodd" clip-rule="evenodd" d="M4.52703 0.0060997C4.34559 -0.0228205 4.15243 0.0382099 4.02056 0.189141L0.137207 4.63358C-0.0646756 4.86464 -0.041029 5.2156 0.190023 5.41748C0.421075 5.61936 0.772037 5.59572 0.97392 5.36466L3.88885 2.02856L3.88885 9.44444C3.88885 9.75127 4.13759 10 4.44441 10C4.75124 10 4.99997 9.75127 4.99997 9.44444L4.99997 2.03796L7.9155 5.36525C8.11771 5.59602 8.4687 5.61917 8.69947 5.41696C8.93024 5.21476 8.95339 4.86376 8.75118 4.63299L4.90125 0.239328C4.81582 0.11615 4.68185 0.0291824 4.52703 0.0060997Z" fill="#33CC33"/>
</svg>
