<svg width="24" height="32" viewBox="0 0 24 32" fill="none" xmlns="http://www.w3.org/2000/svg">
<path d="M6.5 18C7.60457 18 8.5 17.1046 8.5 16C8.5 14.8954 7.60457 14 6.5 14C5.39543 14 4.5 14.8954 4.5 16C4.5 17.1046 5.39543 18 6.5 18Z" fill="#495057"/>
<path d="M12.5 18C13.6046 18 14.5 17.1046 14.5 16C14.5 14.8954 13.6046 14 12.5 14C11.3954 14 10.5 14.8954 10.5 16C10.5 17.1046 11.3954 18 12.5 18Z" fill="#495057"/>
<path d="M18.5 18C19.6046 18 20.5 17.1046 20.5 16C20.5 14.8954 19.6046 14 18.5 14C17.3954 14 16.5 14.8954 16.5 16C16.5 17.1046 17.3954 18 18.5 18Z" fill="#495057"/>
</svg>
