<svg width="24" height="25" viewBox="0 0 24 25" fill="none" xmlns="http://www.w3.org/2000/svg">
<rect y="0.643066" width="24" height="24" rx="4" fill="#ACB5BD"/>
<path fill-rule="evenodd" clip-rule="evenodd" d="M16 9.64307C15.72 9.64307 15.47 9.75307 15.29 9.93307L11 14.2331L8.71 11.9331C8.53 11.7531 8.28 11.6431 8 11.6431C7.45 11.6431 7 12.0931 7 12.6431C7 12.9231 7.11 13.1731 7.29 13.3531L10.29 16.3531C10.47 16.5331 10.72 16.6431 11 16.6431C11.28 16.6431 11.53 16.5331 11.71 16.3531L16.71 11.3531C16.89 11.1731 17 10.9231 17 10.6431C17 10.0931 16.55 9.64307 16 9.64307Z" fill="white"/>
</svg>
