<svg width="24" height="24" viewBox="0 0 24 24" fill="none" xmlns="http://www.w3.org/2000/svg">
<path d="M20.499 13.4021C20.4987 13.4022 20.4985 13.4024 20.4983 13.4025L20.4982 13.4025L16.5682 12.1825L16.5661 12.1818C15.3135 11.7991 13.9602 12.1227 13.0364 13.0464C12.1057 13.9772 11.7669 15.3406 12.1628 16.5992C12.1629 16.5995 12.163 16.5998 12.1631 16.6001L13.3725 20.4982L13.3725 20.4983C13.3724 20.4985 13.3722 20.4987 13.3721 20.499C13.3717 20.4994 13.3714 20.4997 13.3712 20.5C13.3709 20.5 13.3705 20.5 13.37 20.5H7.52C5.8946 20.5 4.65361 20.0167 3.81957 19.1837C2.98564 18.3509 2.5 17.1101 2.5 15.48V7.52C2.5 5.88993 2.98564 4.64912 3.81957 3.81629C4.65361 2.98334 5.8946 2.5 7.52 2.5H15.48C17.1054 2.5 18.3464 2.98334 19.1804 3.81629C20.0144 4.64912 20.5 5.88993 20.5 7.52V13.4C20.5 13.4005 20.5 13.4009 20.5 13.4012C20.4997 13.4014 20.4994 13.4017 20.499 13.4021Z" fill="#FFB020" stroke="#FFB020"/>
<path d="M21.9597 18.84L20.3297 19.39C19.8797 19.54 19.5197 19.89 19.3697 20.35L18.8197 21.98C18.3497 23.39 16.3697 23.36 15.9297 21.95L14.0797 16C13.7197 14.82 14.8097 13.72 15.9797 14.09L21.9397 15.94C23.3397 16.38 23.3597 18.37 21.9597 18.84Z" fill="#FFB020"/>
</svg>
