<svg width="16" height="20" viewBox="0 0 16 20" fill="none" xmlns="http://www.w3.org/2000/svg">
<path d="M14.3931 4.74414H9.57715V6.31265H11.1704V7.38023H9.57715V8.42363H11.1541V9.47491H9.57715V10.5262H11.1541V11.5775H9.57715V12.6288H11.1541V13.68H9.57715V15.257H14.3931C14.6354 15.257 14.8336 15.0514 14.8336 14.7997V5.20145C14.8336 4.94967 14.6354 4.74414 14.3931 4.74414ZM13.7823 13.68H11.6797V12.6288H13.7823V13.68ZM13.7823 11.5775H11.6797V10.5262H13.7823V11.5775ZM13.7823 9.47491H11.6797V8.42363H13.7823V9.47491ZM13.7823 7.37235H11.6797V6.32106H13.7823V7.37235Z" fill="white"/>
<path d="M1.16699 4.68557V15.3156L9.05161 16.8337V3.16699L1.16699 4.68557ZM6.15427 12.6706L5.23703 10.9365C5.20234 10.8718 5.16659 10.753 5.12927 10.5801H5.11508C5.09774 10.6616 5.05674 10.7856 4.99208 10.9517L4.07168 12.6706H2.64247L4.33924 10.0087L2.78702 7.34636H4.2462L5.00733 8.94274C5.06672 9.06889 5.11981 9.2187 5.16712 9.39163H5.18184C5.2118 9.28756 5.26752 9.13302 5.34899 8.92749L6.19527 7.34584H7.53145L5.93508 9.98561L7.57613 12.6701L6.15427 12.6706Z" fill="white"/>
</svg>
