<svg width="32" height="32" viewBox="0 0 32 32" fill="none" xmlns="http://www.w3.org/2000/svg">
<g filter="url(#filter0_b_2036_4361)">
<rect width="32" height="32" rx="8" fill="url(#paint0_linear_2036_4361)"/>
<rect x="0.25" y="0.25" width="31.5" height="31.5" rx="7.75" stroke="white" stroke-width="0.5"/>
</g>
<path d="M20.4237 12.616C20.3677 12.608 20.3117 12.608 20.2557 12.616C19.0157 12.576 18.0317 11.56 18.0317 10.312C18.0317 9.04 19.0637 8 20.3437 8C21.6157 8 22.6557 9.032 22.6557 10.312C22.6477 11.56 21.6637 12.576 20.4237 12.616Z" fill="white"/>
<path d="M23.0317 18.1603C22.1357 18.7603 20.8797 18.9843 19.7197 18.8323C20.0237 18.1763 20.1837 17.4483 20.1917 16.6803C20.1917 15.8803 20.0157 15.1203 19.6797 14.4563C20.8637 14.2963 22.1197 14.5203 23.0237 15.1203C24.2877 15.9523 24.2877 17.3203 23.0317 18.1603Z" fill="white"/>
<path d="M11.5521 12.616C11.6081 12.608 11.6641 12.608 11.7201 12.616C12.9601 12.576 13.9441 11.56 13.9441 10.312C13.9441 9.032 12.9121 8 11.6321 8C10.3601 8 9.32812 9.032 9.32812 10.312C9.32812 11.56 10.3121 12.576 11.5521 12.616Z" fill="white"/>
<path d="M11.6401 16.6805C11.6401 17.4565 11.8081 18.1925 12.1121 18.8565C10.9841 18.9765 9.80809 18.7365 8.94409 18.1685C7.68009 17.3285 7.68009 15.9605 8.94409 15.1205C9.80009 14.5445 11.0081 14.3125 12.1441 14.4405C11.8161 15.1125 11.6401 15.8725 11.6401 16.6805Z" fill="white"/>
<path d="M16.0957 19.0966C16.0317 19.0886 15.9597 19.0886 15.8877 19.0966C14.4157 19.0486 13.2397 17.8406 13.2397 16.3526C13.2477 14.8326 14.4717 13.6006 15.9997 13.6006C17.5197 13.6006 18.7517 14.8326 18.7517 16.3526C18.7437 17.8406 17.5757 19.0486 16.0957 19.0966Z" fill="white"/>
<path d="M13.4958 20.7525C12.2878 21.5605 12.2878 22.8885 13.4958 23.6885C14.8718 24.6085 17.1278 24.6085 18.5038 23.6885C19.7118 22.8805 19.7118 21.5525 18.5038 20.7525C17.1358 19.8325 14.8798 19.8325 13.4958 20.7525Z" fill="white"/>
<defs>
<filter id="filter0_b_2036_4361" x="-32" y="-32" width="96" height="96" filterUnits="userSpaceOnUse" color-interpolation-filters="sRGB">
<feFlood flood-opacity="0" result="BackgroundImageFix"/>
<feGaussianBlur in="BackgroundImageFix" stdDeviation="16"/>
<feComposite in2="SourceAlpha" operator="in" result="effect1_backgroundBlur_2036_4361"/>
<feBlend mode="normal" in="SourceGraphic" in2="effect1_backgroundBlur_2036_4361" result="shape"/>
</filter>
<linearGradient id="paint0_linear_2036_4361" x1="0" y1="0" x2="32" y2="32" gradientUnits="userSpaceOnUse">
<stop stop-color="white" stop-opacity="0.6"/>
<stop offset="1" stop-color="white" stop-opacity="0.2"/>
</linearGradient>
</defs>
</svg>
