<svg width="48" height="48" viewBox="0 0 48 48" fill="none" xmlns="http://www.w3.org/2000/svg">
<rect width="48" height="48" rx="8" fill="#FF9E57"/>
<path d="M16.84 15.94L16.64 18.39C16.6 18.86 16.97 19.25 17.44 19.25H32.75C33.17 19.25 33.52 18.93 33.55 18.51C33.68 16.74 32.33 15.3 30.56 15.3H18.27C18.17 14.86 17.97 14.44 17.66 14.09C17.16 13.56 16.46 13.25 15.74 13.25H14C13.59 13.25 13.25 13.59 13.25 14C13.25 14.41 13.59 14.75 14 14.75H15.74C16.05 14.75 16.34 14.88 16.55 15.1C16.76 15.33 16.86 15.63 16.84 15.94Z" fill="white"/>
<path d="M32.5101 20.75H17.1701C16.7501 20.75 16.4101 21.07 16.3701 21.48L16.0101 25.83C15.8701 27.54 17.2101 29 18.9201 29H30.0401C31.5401 29 32.8601 27.77 32.9701 26.27L33.3001 21.6C33.3401 21.14 32.9801 20.75 32.5101 20.75Z" fill="white"/>
<path d="M19.5 27C17.625 27 15.93 27.885 14.835 29.235C13.995 30.27 13.5 31.575 13.5 33C13.5 36.315 16.2 39 19.5 39C22.11 39 24.345 37.335 25.155 34.995C25.38 34.38 25.5 33.705 25.5 33C25.5 29.7 22.815 27 19.5 27ZM23.04 35.61C23.01 35.7 22.95 35.79 22.89 35.85L21.81 36.915C21.675 37.065 21.495 37.125 21.3 37.125C21.105 37.125 20.91 37.065 20.775 36.915C20.535 36.69 20.505 36.33 20.655 36.06H17.64C16.68 36.06 15.9 35.28 15.9 34.305V34.155C15.9 33.735 16.23 33.42 16.635 33.42C17.04 33.42 17.37 33.735 17.37 34.155V34.305C17.37 34.47 17.49 34.605 17.655 34.605H20.67C20.52 34.32 20.55 33.975 20.79 33.735C21.075 33.45 21.54 33.45 21.81 33.735L22.89 34.815C22.95 34.875 23.01 34.965 23.055 35.055C23.115 35.22 23.115 35.43 23.04 35.61ZM23.1 31.845C23.1 32.265 22.77 32.58 22.365 32.58C21.96 32.58 21.63 32.265 21.63 31.845V31.695C21.63 31.53 21.51 31.395 21.345 31.395H18.345C18.495 31.68 18.465 32.025 18.225 32.265C18.09 32.4 17.91 32.475 17.7 32.475C17.52 32.475 17.325 32.4 17.19 32.265L16.11 31.185C16.05 31.125 15.99 31.035 15.945 30.945C15.885 30.765 15.885 30.57 15.945 30.39C15.99 30.315 16.035 30.21 16.11 30.15L17.19 29.085C17.475 28.785 17.94 28.785 18.21 29.085C18.45 29.31 18.48 29.67 18.33 29.94H21.345C22.305 29.94 23.085 30.72 23.085 31.695V31.845H23.1Z" fill="#F8F9FA"/>
</svg>
