<svg width="24" height="24" viewBox="0 0 24 24" fill="none" xmlns="http://www.w3.org/2000/svg">
<path d="M17.5499 7.26883C17.4667 7.26039 17.3832 7.26039 17.3 7.26883C16.0377 7.20924 15.04 6.16893 15.04 4.89C15.04 3.57502 16.1072 2.5 17.43 2.5C18.7444 2.5 19.8191 3.56642 19.82 4.88843C19.8109 6.16964 18.8112 7.20927 17.5499 7.26883Z" fill="#ACB5BD" stroke="#ACB5BD"/>
<path d="M20.512 14.2848L20.5118 14.2849C19.6717 14.8475 18.5183 15.1269 17.3658 15.0957C17.6062 14.3892 17.7318 13.6358 17.7399 12.8556L17.74 12.8556V12.8504C17.74 12.0328 17.6029 11.2414 17.3352 10.5108C18.5035 10.475 19.6561 10.7546 20.5035 11.317L20.5035 11.317L20.5051 11.318C21.1906 11.7693 21.4654 12.3155 21.4662 12.7976C21.4671 13.2802 21.1938 13.8288 20.512 14.2848Z" fill="#ACB5BD" stroke="#ACB5BD"/>
<path d="M6.66992 7.26883C6.58671 7.26039 6.50324 7.26039 6.42003 7.26883C5.15772 7.20924 4.15997 6.16893 4.15997 4.89C4.15997 3.56501 5.22724 2.5 6.53997 2.5C7.86383 2.5 8.92997 3.56614 8.92997 4.89C8.92997 6.16893 7.93223 7.20924 6.66992 7.26883Z" fill="#ACB5BD" stroke="#ACB5BD"/>
<path d="M3.45674 11.316L3.45674 11.3161L3.45913 11.3144C4.24936 10.7827 5.33857 10.5012 6.44635 10.5069C6.18615 11.2379 6.05 12.0271 6.05 12.8496C6.05 13.6384 6.17923 14.3974 6.41934 15.1073C5.32727 15.1061 4.25974 14.8207 3.4557 14.2925C2.76965 13.8362 2.495 13.2876 2.495 12.8046C2.495 12.3214 2.76993 11.7725 3.45674 11.316Z" fill="#ACB5BD" stroke="#ACB5BD"/>
<path d="M12.1372 15.369C12.0409 15.3601 11.9416 15.3606 11.8449 15.3691C10.2898 15.3019 9.05068 14.0204 9.04999 12.4413C9.05925 10.8146 10.368 9.5 12 9.5C13.6234 9.5 14.9393 10.8154 14.94 12.4386C14.9308 14.0207 13.6996 15.3009 12.1372 15.369Z" fill="#ACB5BD" stroke="#ACB5BD"/>
<path d="M8.86999 17.9396C7.35999 18.9496 7.35999 20.6096 8.86999 21.6096C10.59 22.7596 13.41 22.7596 15.13 21.6096C16.64 20.5996 16.64 18.9396 15.13 17.9396C13.42 16.7896 10.6 16.7896 8.86999 17.9396Z" fill="#ACB5BD"/>
</svg>
