<svg width="24" height="24" viewBox="0 0 24 24" fill="none" xmlns="http://www.w3.org/2000/svg">
<path d="M17.5499 7.26883C17.4667 7.26039 17.3832 7.26039 17.3 7.26883C16.0377 7.20924 15.04 6.16893 15.04 4.89C15.04 3.57502 16.1072 2.5 17.43 2.5C18.7444 2.5 19.8191 3.56642 19.82 4.88843C19.8109 6.16964 18.8112 7.20927 17.5499 7.26883Z" fill="#3E1C01" stroke="#3E1C01"/>
<path d="M20.512 14.2848L20.5118 14.2849C19.6717 14.8475 18.5183 15.1269 17.3658 15.0957C17.6062 14.3892 17.7318 13.6358 17.7399 12.8556L17.74 12.8556V12.8504C17.74 12.0328 17.6029 11.2414 17.3352 10.5108C18.5035 10.475 19.6561 10.7546 20.5035 11.317L20.5035 11.317L20.5051 11.318C21.1906 11.7693 21.4654 12.3155 21.4662 12.7976C21.4671 13.2802 21.1938 13.8288 20.512 14.2848Z" fill="#3E1C01" stroke="#3E1C01"/>
<path d="M6.43997 7.77C6.50997 7.76 6.57997 7.76 6.64997 7.77C8.19997 7.72 9.42997 6.45 9.42997 4.89C9.42997 3.29 8.13997 2 6.53997 2C4.94997 2 3.65997 3.29 3.65997 4.89C3.65997 6.45 4.88997 7.72 6.43997 7.77Z" fill="#3E1C01"/>
<path d="M6.55 12.8496C6.55 13.8196 6.75999 14.7396 7.14 15.5696C5.73 15.7196 4.26 15.4196 3.18 14.7096C1.6 13.6596 1.6 11.9496 3.18 10.8996C4.25 10.1796 5.75999 9.88962 7.18 10.0496C6.77 10.8896 6.55 11.8396 6.55 12.8496Z" fill="#3E1C01"/>
<path d="M12.12 15.87C12.04 15.86 11.95 15.86 11.86 15.87C10.02 15.81 8.54999 14.3 8.54999 12.44C8.55999 10.54 10.09 9 12 9C13.9 9 15.44 10.54 15.44 12.44C15.43 14.3 13.97 15.81 12.12 15.87Z" fill="#3E1C01"/>
<path d="M8.86999 17.9396C7.35999 18.9496 7.35999 20.6096 8.86999 21.6096C10.59 22.7596 13.41 22.7596 15.13 21.6096C16.64 20.5996 16.64 18.9396 15.13 17.9396C13.42 16.7896 10.6 16.7896 8.86999 17.9396Z" fill="#3E1C01"/>
</svg>
