<svg width="24" height="24" viewBox="0 0 24 24" fill="none" xmlns="http://www.w3.org/2000/svg">
<path d="M16.77 2.5H18.67C19.6761 2.5 20.3623 2.76443 20.7989 3.20105C21.2356 3.63768 21.5 4.32387 21.5 5.33V7.23C21.5 8.23613 21.2356 8.92232 20.7989 9.35895C20.3623 9.79557 19.6761 10.06 18.67 10.06H16.77C15.7639 10.06 15.0777 9.79557 14.6411 9.35895C14.2044 8.92232 13.94 8.23613 13.94 7.23V5.33C13.94 4.32387 14.2044 3.63768 14.6411 3.20105C15.0777 2.76443 15.7639 2.5 16.77 2.5Z" fill="#ACB5BD" stroke="#ACB5BD"/>
<path d="M10.06 16.7678V16.7701V18.6701C10.06 19.6762 9.79557 20.3624 9.35895 20.799C8.92232 21.2356 8.23613 21.5001 7.23 21.5001H5.33C4.32387 21.5001 3.63797 21.2356 3.20145 20.7981C2.76474 20.3605 2.5 19.6718 2.5 18.6601V16.7601C2.5 15.7539 2.76441 15.068 3.20191 14.6315C3.63959 14.1948 4.32828 13.9301 5.34 13.9301H7.24C8.24631 13.9301 8.93184 14.1945 9.36691 14.6316C9.80196 15.0686 10.0646 15.7565 10.06 16.7678Z" fill="#ACB5BD" stroke="#ACB5BD"/>
<path d="M10.08 6.29C10.08 8.38316 8.38316 10.08 6.29 10.08C4.19684 10.08 2.5 8.38316 2.5 6.29C2.5 4.19684 4.19684 2.5 6.29 2.5C8.38316 2.5 10.08 4.19684 10.08 6.29Z" fill="#ACB5BD" stroke="#ACB5BD"/>
<path d="M21.5 17.71C21.5 19.8032 19.8032 21.5 17.71 21.5C15.6169 21.5 13.92 19.8032 13.92 17.71C13.92 15.6169 15.6169 13.92 17.71 13.92C19.8032 13.92 21.5 15.6169 21.5 17.71Z" fill="#ACB5BD" stroke="#ACB5BD"/>
</svg>
