<svg width="16" height="16" viewBox="0 0 16 16" fill="none" xmlns="http://www.w3.org/2000/svg">
<path d="M14.3931 2.74365H9.57715V4.31217H11.1704V5.37974H9.57715V6.42314H11.1541V7.47442H9.57715V8.5257H11.1541V9.57699H9.57715V10.6283H11.1541V11.6796H9.57715V13.2565H14.3931C14.6354 13.2565 14.8336 13.0509 14.8336 12.7992V3.20096C14.8336 2.94918 14.6354 2.74365 14.3931 2.74365ZM13.7823 11.6796H11.6797V10.6283H13.7823V11.6796ZM13.7823 9.57699H11.6797V8.5257H13.7823V9.57699ZM13.7823 7.47442H11.6797V6.42314H13.7823V7.47442ZM13.7823 5.37186H11.6797V4.32058H13.7823V5.37186Z" fill="#3E1C01"/>
<path d="M1.16675 2.68508V13.3151L9.05136 14.8332V1.1665L1.16675 2.68508ZM6.15403 10.6701L5.23679 8.936C5.20209 8.87135 5.16635 8.75255 5.12903 8.57962H5.11484C5.09749 8.66109 5.05649 8.78515 4.99184 8.95125L4.07144 10.6701H2.64222L4.33899 8.00825L2.78677 5.34588H4.24595L5.00708 6.94225C5.06648 7.0684 5.11957 7.21821 5.16688 7.39114H5.18159C5.21156 7.28707 5.26727 7.13253 5.34875 6.927L6.19503 5.34535H7.53121L5.93484 7.98512L7.57589 10.6696L6.15403 10.6701Z" fill="#3E1C01"/>
</svg>
