<svg width="18" height="12" viewBox="0 0 18 12" fill="none" xmlns="http://www.w3.org/2000/svg">
<path d="M0.885864 6C1.59086 2.58667 4.95611 0 9.00011 0C13.0441 0 16.4086 2.58667 17.1144 6C16.4094 9.41333 13.0441 12 9.00011 12C4.95611 12 1.59161 9.41333 0.885864 6ZM9.00011 9.33333C9.99468 9.33333 10.9485 8.98215 11.6518 8.35702C12.355 7.7319 12.7501 6.88406 12.7501 6C12.7501 5.11595 12.355 4.2681 11.6518 3.64298C10.9485 3.01786 9.99468 2.66667 9.00011 2.66667C8.00555 2.66667 7.05172 3.01786 6.34846 3.64298C5.6452 4.2681 5.25011 5.11595 5.25011 6C5.25011 6.88406 5.6452 7.7319 6.34846 8.35702C7.05172 8.98215 8.00555 9.33333 9.00011 9.33333ZM9.00011 8C8.40338 8 7.83108 7.78929 7.40912 7.41421C6.98717 7.03914 6.75011 6.53043 6.75011 6C6.75011 5.46957 6.98717 4.96086 7.40912 4.58579C7.83108 4.21071 8.40338 4 9.00011 4C9.59685 4 10.1691 4.21071 10.5911 4.58579C11.0131 4.96086 11.2501 5.46957 11.2501 6C11.2501 6.53043 11.0131 7.03914 10.5911 7.41421C10.1691 7.78929 9.59685 8 9.00011 8Z" fill="#33CC33"/>
</svg>
