<svg width="72" height="45" viewBox="0 0 72 45" fill="none" xmlns="http://www.w3.org/2000/svg">
<path d="M15.7269 5.35328L15.7269 5.3533C12.3157 9.76466 9.27784 12.9457 6.93526 15.1989L6.93464 15.1995C6.81473 15.3144 6.69287 15.4305 6.56945 15.5481C4.69466 17.3343 2.46123 19.4623 1.26986 23.0203L1.26912 23.0225C1.12523 23.4457 0.436099 25.5832 0.504795 28.1078L0.504807 28.1082C0.61638 32.3437 2.81448 36.78 5.66197 39.986C7.08246 41.5853 8.64554 42.8564 10.1585 43.6373C11.6782 44.4216 13.0941 44.6857 14.258 44.3691C15.3182 44.08 16.1095 43.2925 16.6588 42.5017C17.1995 41.7232 17.4664 40.9974 17.4995 40.9066C18.1308 39.1151 17.7135 37.1516 17.0285 35.5008C16.3477 33.86 15.4364 32.6104 15.1992 32.2969L15.1972 32.2942C14.5146 31.3797 13.8677 30.7663 13.294 30.2223C13.1233 30.0604 12.959 29.9046 12.8022 29.7489C12.1212 29.0725 11.5765 28.3847 11.5442 27.2741C11.5228 26.6027 11.7232 26.0099 12.081 25.3722C12.4232 24.7626 12.9326 24.0733 13.5707 23.2098L13.6142 23.1508L14.0164 23.4479L13.6143 23.1508L13.6449 23.1093C14.4448 22.0268 15.2374 20.9541 15.9768 20.1886C16.3515 19.8006 16.7358 19.4663 17.124 19.2486C17.5131 19.0303 17.9569 18.9018 18.4139 19.0187L18.4148 19.0189C18.8874 19.1407 19.1832 19.4758 19.3772 19.8716C19.5634 20.2513 19.6831 20.7396 19.789 21.2766C19.8486 21.5793 19.9057 21.9064 19.9671 22.2587C20.1306 23.1966 20.3252 24.3125 20.6824 25.617C20.6824 25.617 20.6825 25.617 20.6825 25.6171L20.6949 25.6622C20.9478 26.5822 21.5581 28.8026 22.5211 30.8603C23.0112 31.9073 23.5817 32.8881 24.2258 33.6284C24.8732 34.3726 25.5522 34.8255 26.2554 34.9203L26.257 34.9205C27.0667 35.0323 27.5952 34.6575 28.6389 33.9172L28.7092 33.8673C29.7736 33.1128 31.2087 32.1454 33.6971 31.5107L33.698 31.5104C33.7508 31.4971 33.8035 31.4837 33.8559 31.4704C35.1859 31.1328 36.389 30.8275 37.9454 30.9731C40.205 31.1813 41.7529 32.2006 42.9486 33.0171C42.9869 33.0433 43.0248 33.0692 43.0621 33.0947C43.6203 33.4763 44.0687 33.7829 44.4947 33.9688C44.9256 34.1569 45.2795 34.1963 45.6457 34.0658C45.9414 33.9582 46.2065 33.7213 46.5191 33.189C46.8374 32.6472 47.1608 31.878 47.6099 30.7913L47.6101 30.7908C48.7087 28.1401 49.1621 25.8207 49.3713 24.2951L49.3823 24.2148L49.4182 24.1421C50.0031 22.955 50.6873 21.1738 50.8157 18.9423C50.8494 18.3147 50.808 17.7487 50.7716 17.2499C50.7622 17.1224 50.7532 16.9993 50.7459 16.8807C50.7289 16.6053 50.7186 16.3228 50.7544 16.0873C50.7884 15.8635 50.8897 15.5192 51.2426 15.3601L51.2444 15.3593C51.6046 15.1985 51.9538 15.3508 52.1675 15.4804C52.4023 15.6229 52.642 15.8393 52.8734 16.0764C53.2772 16.4904 53.735 17.0521 54.1943 17.6158C54.2639 17.7012 54.3335 17.7867 54.403 17.8716C56.7603 20.7409 58.0714 22.0047 58.8256 22.7153C58.867 22.7543 58.9074 22.7922 58.9467 22.8291C59.2548 23.1184 59.4992 23.3479 59.6744 23.5752C59.8977 23.8646 60.0109 24.1477 60.0932 24.5329L15.7269 5.35328ZM15.7269 5.35328C17.0175 3.68402 18.6463 2.29807 20.5312 1.39381C21.3644 0.996703 22.1658 0.714866 22.8823 0.613661C23.5978 0.512602 24.1878 0.596628 24.6468 0.879586L24.6468 0.879605L24.6508 0.88207C25.2231 1.22737 25.4417 1.76325 25.6616 2.86422C25.7036 3.07404 25.745 3.3008 25.7895 3.54451C25.9735 4.55192 26.2105 5.84909 26.7544 7.43756C26.8906 7.84577 27.7105 10.1697 29.1044 12.4597C29.8025 13.6066 30.6561 14.7642 31.6552 15.6694C32.6536 16.5739 33.8269 17.2525 35.1583 17.3797L15.7269 5.35328ZM70.6727 26.9981L70.6728 26.9941L70.6732 26.9836C70.6909 26.4529 70.7688 24.1249 69.6613 21.4071C68.8455 19.4125 67.9369 18.2857 66.5869 16.9639C66.1914 16.5766 65.7536 16.169 65.2678 15.7167C64.0903 14.6203 62.6311 13.2616 60.8102 11.2956L70.6727 26.9981ZM70.6727 26.9981C70.5704 31.022 68.7002 33.7947 66.2057 37.3404L70.6727 26.9981Z" fill="white" stroke="black"/>
</svg>
