<svg width="209" height="186" viewBox="0 0 209 186" fill="none" xmlns="http://www.w3.org/2000/svg">
<rect width="209" height="209" rx="12" fill="#DB6516"/>
<rect width="209" height="209" rx="12" fill="url(#paint0_linear_376_54873)"/>
<path d="M84.872 78.784H62.408V93.376C63.3893 92.0107 64.84 90.9013 66.76 90.048C68.68 89.152 70.7493 88.704 72.968 88.704C76.5093 88.704 79.3893 89.4507 81.608 90.944C83.8267 92.3947 85.4053 94.2933 86.344 96.64C87.3253 98.944 87.816 101.397 87.816 104C87.816 107.072 87.24 109.824 86.088 112.256C84.936 114.688 83.1653 116.608 80.776 118.016C78.4293 119.424 75.5067 120.128 72.008 120.128C67.528 120.128 63.9013 118.976 61.128 116.672C58.3547 114.368 56.6693 111.296 56.072 107.456H61.768C62.3227 109.888 63.496 111.787 65.288 113.152C67.08 114.517 69.3413 115.2 72.072 115.2C75.4427 115.2 77.9813 114.197 79.688 112.192C81.3947 110.144 82.248 107.456 82.248 104.128C82.248 100.8 81.3947 98.24 79.688 96.448C77.9813 94.6133 75.464 93.696 72.136 93.696C69.8747 93.696 67.8907 94.2507 66.184 95.36C64.52 96.4267 63.304 97.8987 62.536 99.776H57.032V73.664H84.872V78.784ZM93.1555 96.384C93.1555 89.0453 94.3502 83.328 96.7395 79.232C99.1288 75.0933 103.31 73.024 109.284 73.024C115.214 73.024 119.374 75.0933 121.764 79.232C124.153 83.328 125.347 89.0453 125.347 96.384C125.347 103.851 124.153 109.653 121.764 113.792C119.374 117.931 115.214 120 109.284 120C103.31 120 99.1288 117.931 96.7395 113.792C94.3502 109.653 93.1555 103.851 93.1555 96.384ZM119.588 96.384C119.588 92.672 119.332 89.536 118.82 86.976C118.35 84.3733 117.348 82.2827 115.812 80.704C114.318 79.1253 112.142 78.336 109.284 78.336C106.382 78.336 104.164 79.1253 102.628 80.704C101.134 82.2827 100.132 84.3733 99.6195 86.976C99.1502 89.536 98.9155 92.672 98.9155 96.384C98.9155 100.224 99.1502 103.445 99.6195 106.048C100.132 108.651 101.134 110.741 102.628 112.32C104.164 113.899 106.382 114.688 109.284 114.688C112.142 114.688 114.318 113.899 115.812 112.32C117.348 110.741 118.35 108.651 118.82 106.048C119.332 103.445 119.588 100.224 119.588 96.384ZM150.207 120L141.887 106.944L133.887 120H127.807L139.135 102.592L127.807 84.928H134.399L142.719 97.92L150.655 84.928H156.735L145.471 102.272L156.799 120H150.207Z" fill="white"/>
<path d="M30 151H28.908L24.516 144.34V151H23.424V142.624H24.516L28.908 149.272V142.624H30V151ZM37.8615 147.46C37.8615 147.668 37.8495 147.888 37.8255 148.12H32.5695C32.6095 148.768 32.8295 149.276 33.2295 149.644C33.6375 150.004 34.1295 150.184 34.7055 150.184C35.1775 150.184 35.5695 150.076 35.8815 149.86C36.2015 149.636 36.4255 149.34 36.5535 148.972H37.7295C37.5535 149.604 37.2015 150.12 36.6735 150.52C36.1455 150.912 35.4895 151.108 34.7055 151.108C34.0815 151.108 33.5215 150.968 33.0255 150.688C32.5375 150.408 32.1535 150.012 31.8735 149.5C31.5935 148.98 31.4535 148.38 31.4535 147.7C31.4535 147.02 31.5895 146.424 31.8615 145.912C32.1335 145.4 32.5135 145.008 33.0015 144.736C33.4975 144.456 34.0655 144.316 34.7055 144.316C35.3295 144.316 35.8815 144.452 36.3615 144.724C36.8415 144.996 37.2095 145.372 37.4655 145.852C37.7295 146.324 37.8615 146.86 37.8615 147.46ZM36.7335 147.232C36.7335 146.816 36.6415 146.46 36.4575 146.164C36.2735 145.86 36.0215 145.632 35.7015 145.48C35.3895 145.32 35.0415 145.24 34.6575 145.24C34.1055 145.24 33.6335 145.416 33.2415 145.768C32.8575 146.12 32.6375 146.608 32.5815 147.232H36.7335ZM48.0629 144.424L46.0109 151H44.8829L43.2989 145.78L41.7149 151H40.5869L38.5229 144.424H39.6389L41.1509 149.944L42.7829 144.424H43.8989L45.4949 149.956L46.9829 144.424H48.0629ZM51.9379 146.812C51.9379 145.996 52.1219 145.264 52.4899 144.616C52.8579 143.96 53.3579 143.448 53.9899 143.08C54.6299 142.712 55.3379 142.528 56.1139 142.528C57.0259 142.528 57.8219 142.748 58.5019 143.188C59.1819 143.628 59.6779 144.252 59.9899 145.06H58.6819C58.4499 144.556 58.1139 144.168 57.6739 143.896C57.2419 143.624 56.7219 143.488 56.1139 143.488C55.5299 143.488 55.0059 143.624 54.5419 143.896C54.0779 144.168 53.7139 144.556 53.4499 145.06C53.1859 145.556 53.0539 146.14 53.0539 146.812C53.0539 147.476 53.1859 148.06 53.4499 148.564C53.7139 149.06 54.0779 149.444 54.5419 149.716C55.0059 149.988 55.5299 150.124 56.1139 150.124C56.7219 150.124 57.2419 149.992 57.6739 149.728C58.1139 149.456 58.4499 149.068 58.6819 148.564H59.9899C59.6779 149.364 59.1819 149.984 58.5019 150.424C57.8219 150.856 57.0259 151.072 56.1139 151.072C55.3379 151.072 54.6299 150.892 53.9899 150.532C53.3579 150.164 52.8579 149.656 52.4899 149.008C52.1219 148.36 51.9379 147.628 51.9379 146.812ZM67.4474 144.424V151H66.3554V150.028C66.1474 150.364 65.8554 150.628 65.4794 150.82C65.1114 151.004 64.7034 151.096 64.2554 151.096C63.7434 151.096 63.2834 150.992 62.8754 150.784C62.4674 150.568 62.1434 150.248 61.9034 149.824C61.6714 149.4 61.5554 148.884 61.5554 148.276V144.424H62.6354V148.132C62.6354 148.78 62.7994 149.28 63.1274 149.632C63.4554 149.976 63.9034 150.148 64.4714 150.148C65.0554 150.148 65.5154 149.968 65.8514 149.608C66.1874 149.248 66.3554 148.724 66.3554 148.036V144.424H67.4474ZM71.6192 151.108C71.1152 151.108 70.6632 151.024 70.2632 150.856C69.8632 150.68 69.5472 150.44 69.3152 150.136C69.0832 149.824 68.9552 149.468 68.9312 149.068H70.0592C70.0912 149.396 70.2432 149.664 70.5152 149.872C70.7952 150.08 71.1592 150.184 71.6072 150.184C72.0232 150.184 72.3512 150.092 72.5912 149.908C72.8312 149.724 72.9512 149.492 72.9512 149.212C72.9512 148.924 72.8232 148.712 72.5672 148.576C72.3112 148.432 71.9152 148.292 71.3792 148.156C70.8912 148.028 70.4912 147.9 70.1792 147.772C69.8752 147.636 69.6112 147.44 69.3872 147.184C69.1712 146.92 69.0632 146.576 69.0632 146.152C69.0632 145.816 69.1632 145.508 69.3632 145.228C69.5632 144.948 69.8472 144.728 70.2152 144.568C70.5832 144.4 71.0032 144.316 71.4752 144.316C72.2032 144.316 72.7912 144.5 73.2392 144.868C73.6872 145.236 73.9272 145.74 73.9592 146.38H72.8672C72.8432 146.036 72.7032 145.76 72.4472 145.552C72.1992 145.344 71.8632 145.24 71.4392 145.24C71.0472 145.24 70.7352 145.324 70.5032 145.492C70.2712 145.66 70.1552 145.88 70.1552 146.152C70.1552 146.368 70.2232 146.548 70.3592 146.692C70.5032 146.828 70.6792 146.94 70.8872 147.028C71.1032 147.108 71.3992 147.2 71.7752 147.304C72.2472 147.432 72.6312 147.56 72.9272 147.688C73.2232 147.808 73.4752 147.992 73.6832 148.24C73.8992 148.488 74.0112 148.812 74.0192 149.212C74.0192 149.572 73.9192 149.896 73.7192 150.184C73.5192 150.472 73.2352 150.7 72.8672 150.868C72.5072 151.028 72.0912 151.108 71.6192 151.108ZM76.8927 145.324V149.2C76.8927 149.52 76.9607 149.748 77.0967 149.884C77.2327 150.012 77.4687 150.076 77.8047 150.076H78.6087V151H77.6247C77.0167 151 76.5607 150.86 76.2567 150.58C75.9527 150.3 75.8007 149.84 75.8007 149.2V145.324H74.9487V144.424H75.8007V142.768H76.8927V144.424H78.6087V145.324H76.8927ZM82.7998 151.108C82.1838 151.108 81.6238 150.968 81.1198 150.688C80.6238 150.408 80.2318 150.012 79.9438 149.5C79.6638 148.98 79.5238 148.38 79.5238 147.7C79.5238 147.028 79.6678 146.436 79.9558 145.924C80.2518 145.404 80.6518 145.008 81.1558 144.736C81.6598 144.456 82.2238 144.316 82.8478 144.316C83.4718 144.316 84.0358 144.456 84.5398 144.736C85.0438 145.008 85.4398 145.4 85.7278 145.912C86.0238 146.424 86.1718 147.02 86.1718 147.7C86.1718 148.38 86.0198 148.98 85.7158 149.5C85.4198 150.012 85.0158 150.408 84.5038 150.688C83.9918 150.968 83.4238 151.108 82.7998 151.108ZM82.7998 150.148C83.1918 150.148 83.5598 150.056 83.9038 149.872C84.2478 149.688 84.5238 149.412 84.7318 149.044C84.9478 148.676 85.0558 148.228 85.0558 147.7C85.0558 147.172 84.9518 146.724 84.7438 146.356C84.5358 145.988 84.2638 145.716 83.9278 145.54C83.5918 145.356 83.2278 145.264 82.8358 145.264C82.4358 145.264 82.0678 145.356 81.7318 145.54C81.4038 145.716 81.1398 145.988 80.9398 146.356C80.7398 146.724 80.6398 147.172 80.6398 147.7C80.6398 148.236 80.7358 148.688 80.9278 149.056C81.1278 149.424 81.3918 149.7 81.7198 149.884C82.0478 150.06 82.4078 150.148 82.7998 150.148ZM95.5156 144.304C96.0276 144.304 96.4836 144.412 96.8836 144.628C97.2836 144.836 97.5996 145.152 97.8316 145.576C98.0636 146 98.1796 146.516 98.1796 147.124V151H97.0996V147.28C97.0996 146.624 96.9356 146.124 96.6076 145.78C96.2876 145.428 95.8516 145.252 95.2996 145.252C94.7316 145.252 94.2796 145.436 93.9436 145.804C93.6076 146.164 93.4396 146.688 93.4396 147.376V151H92.3596V147.28C92.3596 146.624 92.1956 146.124 91.8676 145.78C91.5476 145.428 91.1116 145.252 90.5596 145.252C89.9916 145.252 89.5396 145.436 89.2036 145.804C88.8676 146.164 88.6996 146.688 88.6996 147.376V151H87.6076V144.424H88.6996V145.372C88.9156 145.028 89.2036 144.764 89.5636 144.58C89.9316 144.396 90.3356 144.304 90.7756 144.304C91.3276 144.304 91.8156 144.428 92.2396 144.676C92.6636 144.924 92.9796 145.288 93.1876 145.768C93.3716 145.304 93.6756 144.944 94.0996 144.688C94.5236 144.432 94.9956 144.304 95.5156 144.304ZM105.971 147.46C105.971 147.668 105.959 147.888 105.935 148.12H100.679C100.719 148.768 100.939 149.276 101.339 149.644C101.747 150.004 102.239 150.184 102.815 150.184C103.287 150.184 103.679 150.076 103.991 149.86C104.311 149.636 104.535 149.34 104.663 148.972H105.839C105.663 149.604 105.311 150.12 104.783 150.52C104.255 150.912 103.599 151.108 102.815 151.108C102.191 151.108 101.631 150.968 101.135 150.688C100.647 150.408 100.263 150.012 99.9829 149.5C99.7029 148.98 99.5629 148.38 99.5629 147.7C99.5629 147.02 99.6989 146.424 99.9709 145.912C100.243 145.4 100.623 145.008 101.111 144.736C101.607 144.456 102.175 144.316 102.815 144.316C103.439 144.316 103.991 144.452 104.471 144.724C104.951 144.996 105.319 145.372 105.575 145.852C105.839 146.324 105.971 146.86 105.971 147.46ZM104.843 147.232C104.843 146.816 104.751 146.46 104.567 146.164C104.383 145.86 104.131 145.632 103.811 145.48C103.499 145.32 103.151 145.24 102.767 145.24C102.215 145.24 101.743 145.416 101.351 145.768C100.967 146.12 100.747 146.608 100.691 147.232H104.843ZM108.504 145.492C108.696 145.116 108.968 144.824 109.32 144.616C109.68 144.408 110.116 144.304 110.628 144.304V145.432H110.34C109.116 145.432 108.504 146.096 108.504 147.424V151H107.412V144.424H108.504V145.492ZM114.217 151.108C113.713 151.108 113.261 151.024 112.861 150.856C112.461 150.68 112.145 150.44 111.913 150.136C111.681 149.824 111.553 149.468 111.529 149.068H112.657C112.689 149.396 112.841 149.664 113.113 149.872C113.393 150.08 113.757 150.184 114.205 150.184C114.621 150.184 114.949 150.092 115.189 149.908C115.429 149.724 115.549 149.492 115.549 149.212C115.549 148.924 115.421 148.712 115.165 148.576C114.909 148.432 114.513 148.292 113.977 148.156C113.489 148.028 113.089 147.9 112.777 147.772C112.473 147.636 112.209 147.44 111.985 147.184C111.769 146.92 111.661 146.576 111.661 146.152C111.661 145.816 111.761 145.508 111.961 145.228C112.161 144.948 112.445 144.728 112.813 144.568C113.181 144.4 113.601 144.316 114.073 144.316C114.801 144.316 115.389 144.5 115.837 144.868C116.285 145.236 116.525 145.74 116.557 146.38H115.465C115.441 146.036 115.301 145.76 115.045 145.552C114.797 145.344 114.461 145.24 114.037 145.24C113.645 145.24 113.333 145.324 113.101 145.492C112.869 145.66 112.753 145.88 112.753 146.152C112.753 146.368 112.821 146.548 112.957 146.692C113.101 146.828 113.277 146.94 113.485 147.028C113.701 147.108 113.997 147.2 114.373 147.304C114.845 147.432 115.229 147.56 115.525 147.688C115.821 147.808 116.073 147.992 116.281 148.24C116.497 148.488 116.609 148.812 116.617 149.212C116.617 149.572 116.517 149.896 116.317 150.184C116.117 150.472 115.833 150.7 115.465 150.868C115.105 151.028 114.689 151.108 114.217 151.108ZM122.45 143.524V146.32H125.498V147.22H122.45V150.1H125.858V151H121.358V142.624H125.858V143.524H122.45ZM129.958 149.992L131.998 144.424H133.162L130.582 151H129.31L126.73 144.424H127.906L129.958 149.992ZM140.237 147.46C140.237 147.668 140.225 147.888 140.201 148.12H134.945C134.985 148.768 135.205 149.276 135.605 149.644C136.013 150.004 136.505 150.184 137.081 150.184C137.553 150.184 137.945 150.076 138.257 149.86C138.577 149.636 138.801 149.34 138.929 148.972H140.105C139.929 149.604 139.577 150.12 139.049 150.52C138.521 150.912 137.865 151.108 137.081 151.108C136.457 151.108 135.897 150.968 135.401 150.688C134.913 150.408 134.529 150.012 134.249 149.5C133.969 148.98 133.829 148.38 133.829 147.7C133.829 147.02 133.965 146.424 134.237 145.912C134.509 145.4 134.889 145.008 135.377 144.736C135.873 144.456 136.441 144.316 137.081 144.316C137.705 144.316 138.257 144.452 138.737 144.724C139.217 144.996 139.585 145.372 139.841 145.852C140.105 146.324 140.237 146.86 140.237 147.46ZM139.109 147.232C139.109 146.816 139.017 146.46 138.833 146.164C138.649 145.86 138.397 145.632 138.077 145.48C137.765 145.32 137.417 145.24 137.033 145.24C136.481 145.24 136.009 145.416 135.617 145.768C135.233 146.12 135.013 146.608 134.957 147.232H139.109ZM142.77 145.492C142.962 145.116 143.234 144.824 143.586 144.616C143.946 144.408 144.382 144.304 144.894 144.304V145.432H144.606C143.382 145.432 142.77 146.096 142.77 147.424V151H141.678V144.424H142.77V145.492ZM151.818 144.424L147.858 154.096H146.73L148.026 150.928L145.374 144.424H146.586L148.65 149.752L150.69 144.424H151.818ZM164.875 144.424L162.823 151H161.695L160.111 145.78L158.527 151H157.399L155.335 144.424H156.451L157.963 149.944L159.595 144.424H160.711L162.307 149.956L163.795 144.424H164.875ZM171.959 147.46C171.959 147.668 171.947 147.888 171.923 148.12H166.667C166.707 148.768 166.927 149.276 167.327 149.644C167.735 150.004 168.227 150.184 168.803 150.184C169.275 150.184 169.667 150.076 169.979 149.86C170.299 149.636 170.523 149.34 170.651 148.972H171.827C171.651 149.604 171.299 150.12 170.771 150.52C170.243 150.912 169.587 151.108 168.803 151.108C168.179 151.108 167.619 150.968 167.123 150.688C166.635 150.408 166.251 150.012 165.971 149.5C165.691 148.98 165.551 148.38 165.551 147.7C165.551 147.02 165.687 146.424 165.959 145.912C166.231 145.4 166.611 145.008 167.099 144.736C167.595 144.456 168.163 144.316 168.803 144.316C169.427 144.316 169.979 144.452 170.459 144.724C170.939 144.996 171.307 145.372 171.563 145.852C171.827 146.324 171.959 146.86 171.959 147.46ZM170.831 147.232C170.831 146.816 170.739 146.46 170.555 146.164C170.371 145.86 170.119 145.632 169.799 145.48C169.487 145.32 169.139 145.24 168.755 145.24C168.203 145.24 167.731 145.416 167.339 145.768C166.955 146.12 166.735 146.608 166.679 147.232H170.831ZM179.401 147.46C179.401 147.668 179.389 147.888 179.365 148.12H174.109C174.149 148.768 174.369 149.276 174.769 149.644C175.177 150.004 175.669 150.184 176.245 150.184C176.717 150.184 177.109 150.076 177.421 149.86C177.741 149.636 177.965 149.34 178.093 148.972H179.269C179.093 149.604 178.741 150.12 178.213 150.52C177.685 150.912 177.029 151.108 176.245 151.108C175.621 151.108 175.061 150.968 174.565 150.688C174.077 150.408 173.693 150.012 173.413 149.5C173.133 148.98 172.993 148.38 172.993 147.7C172.993 147.02 173.129 146.424 173.401 145.912C173.673 145.4 174.053 145.008 174.541 144.736C175.037 144.456 175.605 144.316 176.245 144.316C176.869 144.316 177.421 144.452 177.901 144.724C178.381 144.996 178.749 145.372 179.005 145.852C179.269 146.324 179.401 146.86 179.401 147.46ZM178.273 147.232C178.273 146.816 178.181 146.46 177.997 146.164C177.813 145.86 177.561 145.632 177.241 145.48C176.929 145.32 176.581 145.24 176.197 145.24C175.645 145.24 175.173 145.416 174.781 145.768C174.397 146.12 174.177 146.608 174.121 147.232H178.273ZM184.514 151L181.934 148.096V151H180.842V142.12H181.934V147.34L184.466 144.424H185.99L182.894 147.7L186.002 151H184.514Z" fill="white"/>
<defs>
<linearGradient id="paint0_linear_376_54873" x1="104.5" y1="0" x2="104.5" y2="209" gradientUnits="userSpaceOnUse">
<stop stop-opacity="0"/>
<stop offset="1"/>
</linearGradient>
</defs>
</svg>
