<svg width="152" height="152" viewBox="0 0 152 152" fill="none" xmlns="http://www.w3.org/2000/svg">
<path opacity="0.4" d="M76.0001 139.397C110.978 139.397 139.333 111.042 139.333 76.0634C139.333 41.0854 110.978 12.7301 76.0001 12.7301C41.022 12.7301 12.6667 41.0854 12.6667 76.0634C12.6667 111.042 41.022 139.397 76.0001 139.397Z" fill="#292D32"/>
<path d="M76 43.953C62.89 43.953 52.25 54.593 52.25 67.7028C52.25 80.5594 62.32 91.0094 75.6833 91.3894C75.8734 91.3894 76.1267 91.3894 76.2534 91.3894C76.38 91.3894 76.57 91.3894 76.6967 91.3894C76.76 91.3894 76.8234 91.3894 76.8234 91.3894C89.6167 90.9461 99.6867 80.5594 99.75 67.7028C99.75 54.593 89.11 43.953 76 43.953ZM118.944 122.613C107.671 133 92.5978 139.397 76.0045 139.397C59.4111 139.397 44.3378 133 33.0645 122.613C34.5845 116.85 38.7011 111.593 44.7178 107.54C62.0078 96.0134 90.1278 96.0134 107.291 107.54C113.371 111.593 117.424 116.85 118.944 122.613Z" fill="#292D32"/>
</svg>
