<svg width="333" height="139" viewBox="0 0 333 139" fill="none" xmlns="http://www.w3.org/2000/svg">
<g filter="url(#filter0_d_376_54829)">
<rect x="10" y="6" width="313" height="119" rx="10" fill="white" shape-rendering="crispEdges"/>
<path d="M141.576 31.084C141.024 31.084 140.528 30.988 140.088 30.796C139.656 30.596 139.316 30.324 139.068 29.98C138.82 29.628 138.692 29.224 138.684 28.768H139.848C139.888 29.16 140.048 29.492 140.328 29.764C140.616 30.028 141.032 30.16 141.576 30.16C142.096 30.16 142.504 30.032 142.8 29.776C143.104 29.512 143.256 29.176 143.256 28.768C143.256 28.448 143.168 28.188 142.992 27.988C142.816 27.788 142.596 27.636 142.332 27.532C142.068 27.428 141.712 27.316 141.264 27.196C140.712 27.052 140.268 26.908 139.932 26.764C139.604 26.62 139.32 26.396 139.08 26.092C138.848 25.78 138.732 25.364 138.732 24.844C138.732 24.388 138.848 23.984 139.08 23.632C139.312 23.28 139.636 23.008 140.052 22.816C140.476 22.624 140.96 22.528 141.504 22.528C142.288 22.528 142.928 22.724 143.424 23.116C143.928 23.508 144.212 24.028 144.276 24.676H143.076C143.036 24.356 142.868 24.076 142.572 23.836C142.276 23.588 141.884 23.464 141.396 23.464C140.94 23.464 140.568 23.584 140.28 23.824C139.992 24.056 139.848 24.384 139.848 24.808C139.848 25.112 139.932 25.36 140.1 25.552C140.276 25.744 140.488 25.892 140.736 25.996C140.992 26.092 141.348 26.204 141.804 26.332C142.356 26.484 142.8 26.636 143.136 26.788C143.472 26.932 143.76 27.16 144 27.472C144.24 27.776 144.36 28.192 144.36 28.72C144.36 29.128 144.252 29.512 144.036 29.872C143.82 30.232 143.5 30.524 143.076 30.748C142.652 30.972 142.152 31.084 141.576 31.084ZM145.559 27.688C145.559 27.016 145.695 26.428 145.967 25.924C146.239 25.412 146.611 25.016 147.083 24.736C147.563 24.456 148.095 24.316 148.679 24.316C149.255 24.316 149.755 24.44 150.179 24.688C150.603 24.936 150.919 25.248 151.127 25.624V24.424H152.231V31H151.127V29.776C150.911 30.16 150.587 30.48 150.155 30.736C149.731 30.984 149.235 31.108 148.667 31.108C148.083 31.108 147.555 30.964 147.083 30.676C146.611 30.388 146.239 29.984 145.967 29.464C145.695 28.944 145.559 28.352 145.559 27.688ZM151.127 27.7C151.127 27.204 151.027 26.772 150.827 26.404C150.627 26.036 150.355 25.756 150.011 25.564C149.675 25.364 149.303 25.264 148.895 25.264C148.487 25.264 148.115 25.36 147.779 25.552C147.443 25.744 147.175 26.024 146.975 26.392C146.775 26.76 146.675 27.192 146.675 27.688C146.675 28.192 146.775 28.632 146.975 29.008C147.175 29.376 147.443 29.66 147.779 29.86C148.115 30.052 148.487 30.148 148.895 30.148C149.303 30.148 149.675 30.052 150.011 29.86C150.355 29.66 150.627 29.376 150.827 29.008C151.027 28.632 151.127 28.196 151.127 27.7ZM155.168 22.12V31H154.076V22.12H155.168ZM163.029 27.46C163.029 27.668 163.017 27.888 162.993 28.12H157.737C157.777 28.768 157.997 29.276 158.397 29.644C158.805 30.004 159.297 30.184 159.873 30.184C160.345 30.184 160.737 30.076 161.049 29.86C161.369 29.636 161.593 29.34 161.721 28.972H162.897C162.721 29.604 162.369 30.12 161.841 30.52C161.313 30.912 160.657 31.108 159.873 31.108C159.249 31.108 158.689 30.968 158.193 30.688C157.705 30.408 157.321 30.012 157.041 29.5C156.761 28.98 156.621 28.38 156.621 27.7C156.621 27.02 156.757 26.424 157.029 25.912C157.301 25.4 157.681 25.008 158.169 24.736C158.665 24.456 159.233 24.316 159.873 24.316C160.497 24.316 161.049 24.452 161.529 24.724C162.009 24.996 162.377 25.372 162.633 25.852C162.897 26.324 163.029 26.86 163.029 27.46ZM161.901 27.232C161.901 26.816 161.809 26.46 161.625 26.164C161.441 25.86 161.189 25.632 160.869 25.48C160.557 25.32 160.209 25.24 159.825 25.24C159.273 25.24 158.801 25.416 158.409 25.768C158.025 26.12 157.805 26.608 157.749 27.232H161.901ZM166.799 31.108C166.295 31.108 165.843 31.024 165.443 30.856C165.043 30.68 164.727 30.44 164.495 30.136C164.263 29.824 164.135 29.468 164.111 29.068H165.239C165.271 29.396 165.423 29.664 165.695 29.872C165.975 30.08 166.339 30.184 166.787 30.184C167.203 30.184 167.531 30.092 167.771 29.908C168.011 29.724 168.131 29.492 168.131 29.212C168.131 28.924 168.003 28.712 167.747 28.576C167.491 28.432 167.095 28.292 166.559 28.156C166.071 28.028 165.671 27.9 165.359 27.772C165.055 27.636 164.791 27.44 164.567 27.184C164.351 26.92 164.243 26.576 164.243 26.152C164.243 25.816 164.343 25.508 164.543 25.228C164.743 24.948 165.027 24.728 165.395 24.568C165.763 24.4 166.183 24.316 166.655 24.316C167.383 24.316 167.971 24.5 168.419 24.868C168.867 25.236 169.107 25.74 169.139 26.38H168.047C168.023 26.036 167.883 25.76 167.627 25.552C167.379 25.344 167.043 25.24 166.619 25.24C166.227 25.24 165.915 25.324 165.683 25.492C165.451 25.66 165.335 25.88 165.335 26.152C165.335 26.368 165.403 26.548 165.539 26.692C165.683 26.828 165.859 26.94 166.067 27.028C166.283 27.108 166.579 27.2 166.955 27.304C167.427 27.432 167.811 27.56 168.107 27.688C168.403 27.808 168.655 27.992 168.863 28.24C169.079 28.488 169.191 28.812 169.199 29.212C169.199 29.572 169.099 29.896 168.899 30.184C168.699 30.472 168.415 30.7 168.047 30.868C167.687 31.028 167.271 31.108 166.799 31.108ZM178.128 26.692C178.432 26.74 178.708 26.864 178.956 27.064C179.212 27.264 179.412 27.512 179.556 27.808C179.708 28.104 179.784 28.42 179.784 28.756C179.784 29.18 179.676 29.564 179.46 29.908C179.244 30.244 178.928 30.512 178.512 30.712C178.104 30.904 177.62 31 177.06 31H173.94V22.636H176.94C177.508 22.636 177.992 22.732 178.392 22.924C178.792 23.108 179.092 23.36 179.292 23.68C179.492 24 179.592 24.36 179.592 24.76C179.592 25.256 179.456 25.668 179.184 25.996C178.92 26.316 178.568 26.548 178.128 26.692ZM175.032 26.248H176.868C177.38 26.248 177.776 26.128 178.056 25.888C178.336 25.648 178.476 25.316 178.476 24.892C178.476 24.468 178.336 24.136 178.056 23.896C177.776 23.656 177.372 23.536 176.844 23.536H175.032V26.248ZM176.964 30.1C177.508 30.1 177.932 29.972 178.236 29.716C178.54 29.46 178.692 29.104 178.692 28.648C178.692 28.184 178.532 27.82 178.212 27.556C177.892 27.284 177.464 27.148 176.928 27.148H175.032V30.1H176.964ZM186.963 24.424L183.003 34.096H181.875L183.171 30.928L180.519 24.424H181.731L183.795 29.752L185.835 24.424H186.963ZM196.852 25.084C196.852 25.78 196.612 26.36 196.132 26.824C195.66 27.28 194.936 27.508 193.96 27.508H192.352V31H191.26V22.636H193.96C194.904 22.636 195.62 22.864 196.108 23.32C196.604 23.776 196.852 24.364 196.852 25.084ZM193.96 26.608C194.568 26.608 195.016 26.476 195.304 26.212C195.592 25.948 195.736 25.572 195.736 25.084C195.736 24.052 195.144 23.536 193.96 23.536H192.352V26.608H193.96ZM199.301 25.492C199.493 25.116 199.765 24.824 200.117 24.616C200.477 24.408 200.913 24.304 201.425 24.304V25.432H201.137C199.913 25.432 199.301 26.096 199.301 27.424V31H198.209V24.424H199.301V25.492ZM205.554 31.108C204.938 31.108 204.378 30.968 203.874 30.688C203.378 30.408 202.986 30.012 202.698 29.5C202.418 28.98 202.278 28.38 202.278 27.7C202.278 27.028 202.422 26.436 202.71 25.924C203.006 25.404 203.406 25.008 203.91 24.736C204.414 24.456 204.978 24.316 205.602 24.316C206.226 24.316 206.79 24.456 207.294 24.736C207.798 25.008 208.194 25.4 208.482 25.912C208.778 26.424 208.926 27.02 208.926 27.7C208.926 28.38 208.774 28.98 208.47 29.5C208.174 30.012 207.77 30.408 207.258 30.688C206.746 30.968 206.178 31.108 205.554 31.108ZM205.554 30.148C205.946 30.148 206.314 30.056 206.658 29.872C207.002 29.688 207.278 29.412 207.486 29.044C207.702 28.676 207.81 28.228 207.81 27.7C207.81 27.172 207.706 26.724 207.498 26.356C207.29 25.988 207.018 25.716 206.682 25.54C206.346 25.356 205.982 25.264 205.59 25.264C205.19 25.264 204.822 25.356 204.486 25.54C204.158 25.716 203.894 25.988 203.694 26.356C203.494 26.724 203.394 27.172 203.394 27.7C203.394 28.236 203.49 28.688 203.682 29.056C203.882 29.424 204.146 29.7 204.474 29.884C204.802 30.06 205.162 30.148 205.554 30.148ZM209.954 27.688C209.954 27.016 210.09 26.428 210.362 25.924C210.634 25.412 211.006 25.016 211.478 24.736C211.958 24.456 212.494 24.316 213.086 24.316C213.598 24.316 214.074 24.436 214.514 24.676C214.954 24.908 215.29 25.216 215.522 25.6V22.12H216.626V31H215.522V29.764C215.306 30.156 214.986 30.48 214.562 30.736C214.138 30.984 213.642 31.108 213.074 31.108C212.49 31.108 211.958 30.964 211.478 30.676C211.006 30.388 210.634 29.984 210.362 29.464C210.09 28.944 209.954 28.352 209.954 27.688ZM215.522 27.7C215.522 27.204 215.422 26.772 215.222 26.404C215.022 26.036 214.75 25.756 214.406 25.564C214.07 25.364 213.698 25.264 213.29 25.264C212.882 25.264 212.51 25.36 212.174 25.552C211.838 25.744 211.57 26.024 211.37 26.392C211.17 26.76 211.07 27.192 211.07 27.688C211.07 28.192 211.17 28.632 211.37 29.008C211.57 29.376 211.838 29.66 212.174 29.86C212.51 30.052 212.882 30.148 213.29 30.148C213.698 30.148 214.07 30.052 214.406 29.86C214.75 29.66 215.022 29.376 215.222 29.008C215.422 28.632 215.522 28.196 215.522 27.7ZM224.303 24.424V31H223.211V30.028C223.003 30.364 222.711 30.628 222.335 30.82C221.967 31.004 221.559 31.096 221.111 31.096C220.599 31.096 220.139 30.992 219.731 30.784C219.323 30.568 218.999 30.248 218.759 29.824C218.527 29.4 218.411 28.884 218.411 28.276V24.424H219.491V28.132C219.491 28.78 219.655 29.28 219.983 29.632C220.311 29.976 220.759 30.148 221.327 30.148C221.911 30.148 222.371 29.968 222.707 29.608C223.043 29.248 223.211 28.724 223.211 28.036V24.424H224.303ZM225.739 27.7C225.739 27.02 225.875 26.428 226.147 25.924C226.419 25.412 226.795 25.016 227.275 24.736C227.763 24.456 228.319 24.316 228.943 24.316C229.751 24.316 230.415 24.512 230.935 24.904C231.463 25.296 231.811 25.84 231.979 26.536H230.803C230.691 26.136 230.471 25.82 230.143 25.588C229.823 25.356 229.423 25.24 228.943 25.24C228.319 25.24 227.815 25.456 227.431 25.888C227.047 26.312 226.855 26.916 226.855 27.7C226.855 28.492 227.047 29.104 227.431 29.536C227.815 29.968 228.319 30.184 228.943 30.184C229.423 30.184 229.823 30.072 230.143 29.848C230.463 29.624 230.683 29.304 230.803 28.888H231.979C231.803 29.56 231.451 30.1 230.923 30.508C230.395 30.908 229.735 31.108 228.943 31.108C228.319 31.108 227.763 30.968 227.275 30.688C226.795 30.408 226.419 30.012 226.147 29.5C225.875 28.988 225.739 28.388 225.739 27.7ZM234.768 25.324V29.2C234.768 29.52 234.836 29.748 234.972 29.884C235.108 30.012 235.344 30.076 235.68 30.076H236.484V31H235.5C234.892 31 234.436 30.86 234.132 30.58C233.828 30.3 233.676 29.84 233.676 29.2V25.324H232.824V24.424H233.676V22.768H234.768V24.424H236.484V25.324H234.768ZM240.598 26.812C240.598 25.996 240.782 25.264 241.15 24.616C241.518 23.96 242.018 23.448 242.65 23.08C243.29 22.712 243.998 22.528 244.774 22.528C245.686 22.528 246.482 22.748 247.162 23.188C247.842 23.628 248.338 24.252 248.65 25.06H247.342C247.11 24.556 246.774 24.168 246.334 23.896C245.902 23.624 245.382 23.488 244.774 23.488C244.19 23.488 243.666 23.624 243.202 23.896C242.738 24.168 242.374 24.556 242.11 25.06C241.846 25.556 241.714 26.14 241.714 26.812C241.714 27.476 241.846 28.06 242.11 28.564C242.374 29.06 242.738 29.444 243.202 29.716C243.666 29.988 244.19 30.124 244.774 30.124C245.382 30.124 245.902 29.992 246.334 29.728C246.774 29.456 247.11 29.068 247.342 28.564H248.65C248.338 29.364 247.842 29.984 247.162 30.424C246.482 30.856 245.686 31.072 244.774 31.072C243.998 31.072 243.29 30.892 242.65 30.532C242.018 30.164 241.518 29.656 241.15 29.008C240.782 28.36 240.598 27.628 240.598 26.812ZM249.868 27.688C249.868 27.016 250.004 26.428 250.276 25.924C250.548 25.412 250.92 25.016 251.392 24.736C251.872 24.456 252.404 24.316 252.988 24.316C253.564 24.316 254.064 24.44 254.488 24.688C254.912 24.936 255.228 25.248 255.436 25.624V24.424H256.54V31H255.436V29.776C255.22 30.16 254.896 30.48 254.464 30.736C254.04 30.984 253.544 31.108 252.976 31.108C252.392 31.108 251.864 30.964 251.392 30.676C250.92 30.388 250.548 29.984 250.276 29.464C250.004 28.944 249.868 28.352 249.868 27.688ZM255.436 27.7C255.436 27.204 255.336 26.772 255.136 26.404C254.936 26.036 254.664 25.756 254.32 25.564C253.984 25.364 253.612 25.264 253.204 25.264C252.796 25.264 252.424 25.36 252.088 25.552C251.752 25.744 251.484 26.024 251.284 26.392C251.084 26.76 250.984 27.192 250.984 27.688C250.984 28.192 251.084 28.632 251.284 29.008C251.484 29.376 251.752 29.66 252.088 29.86C252.424 30.052 252.796 30.148 253.204 30.148C253.612 30.148 253.984 30.052 254.32 29.86C254.664 29.66 254.936 29.376 255.136 29.008C255.336 28.632 255.436 28.196 255.436 27.7ZM259.717 25.324V29.2C259.717 29.52 259.785 29.748 259.921 29.884C260.057 30.012 260.293 30.076 260.629 30.076H261.433V31H260.449C259.841 31 259.385 30.86 259.081 30.58C258.777 30.3 258.625 29.84 258.625 29.2V25.324H257.773V24.424H258.625V22.768H259.717V24.424H261.433V25.324H259.717ZM268.756 27.46C268.756 27.668 268.744 27.888 268.72 28.12H263.464C263.504 28.768 263.724 29.276 264.124 29.644C264.532 30.004 265.024 30.184 265.6 30.184C266.072 30.184 266.464 30.076 266.776 29.86C267.096 29.636 267.32 29.34 267.448 28.972H268.624C268.448 29.604 268.096 30.12 267.568 30.52C267.04 30.912 266.384 31.108 265.6 31.108C264.976 31.108 264.416 30.968 263.92 30.688C263.432 30.408 263.048 30.012 262.768 29.5C262.488 28.98 262.348 28.38 262.348 27.7C262.348 27.02 262.484 26.424 262.756 25.912C263.028 25.4 263.408 25.008 263.896 24.736C264.392 24.456 264.96 24.316 265.6 24.316C266.224 24.316 266.776 24.452 267.256 24.724C267.736 24.996 268.104 25.372 268.36 25.852C268.624 26.324 268.756 26.86 268.756 27.46ZM267.628 27.232C267.628 26.816 267.536 26.46 267.352 26.164C267.168 25.86 266.916 25.632 266.596 25.48C266.284 25.32 265.936 25.24 265.552 25.24C265 25.24 264.528 25.416 264.136 25.768C263.752 26.12 263.532 26.608 263.476 27.232H267.628ZM272.909 24.316C273.477 24.316 273.973 24.44 274.397 24.688C274.829 24.936 275.149 25.248 275.357 25.624V24.424H276.461V31.144C276.461 31.744 276.333 32.276 276.077 32.74C275.821 33.212 275.453 33.58 274.973 33.844C274.501 34.108 273.949 34.24 273.317 34.24C272.453 34.24 271.733 34.036 271.157 33.628C270.581 33.22 270.241 32.664 270.137 31.96H271.217C271.337 32.36 271.585 32.68 271.961 32.92C272.337 33.168 272.789 33.292 273.317 33.292C273.917 33.292 274.405 33.104 274.781 32.728C275.165 32.352 275.357 31.824 275.357 31.144V29.764C275.141 30.148 274.821 30.468 274.397 30.724C273.973 30.98 273.477 31.108 272.909 31.108C272.325 31.108 271.793 30.964 271.313 30.676C270.841 30.388 270.469 29.984 270.197 29.464C269.925 28.944 269.789 28.352 269.789 27.688C269.789 27.016 269.925 26.428 270.197 25.924C270.469 25.412 270.841 25.016 271.313 24.736C271.793 24.456 272.325 24.316 272.909 24.316ZM275.357 27.7C275.357 27.204 275.257 26.772 275.057 26.404C274.857 26.036 274.585 25.756 274.241 25.564C273.905 25.364 273.533 25.264 273.125 25.264C272.717 25.264 272.345 25.36 272.009 25.552C271.673 25.744 271.405 26.024 271.205 26.392C271.005 26.76 270.905 27.192 270.905 27.688C270.905 28.192 271.005 28.632 271.205 29.008C271.405 29.376 271.673 29.66 272.009 29.86C272.345 30.052 272.717 30.148 273.125 30.148C273.533 30.148 273.905 30.052 274.241 29.86C274.585 29.66 274.857 29.376 275.057 29.008C275.257 28.632 275.357 28.196 275.357 27.7ZM281.175 31.108C280.559 31.108 279.999 30.968 279.495 30.688C278.999 30.408 278.607 30.012 278.319 29.5C278.039 28.98 277.899 28.38 277.899 27.7C277.899 27.028 278.043 26.436 278.331 25.924C278.627 25.404 279.027 25.008 279.531 24.736C280.035 24.456 280.599 24.316 281.223 24.316C281.847 24.316 282.411 24.456 282.915 24.736C283.419 25.008 283.815 25.4 284.103 25.912C284.399 26.424 284.547 27.02 284.547 27.7C284.547 28.38 284.395 28.98 284.091 29.5C283.795 30.012 283.391 30.408 282.879 30.688C282.367 30.968 281.799 31.108 281.175 31.108ZM281.175 30.148C281.567 30.148 281.935 30.056 282.279 29.872C282.623 29.688 282.899 29.412 283.107 29.044C283.323 28.676 283.431 28.228 283.431 27.7C283.431 27.172 283.327 26.724 283.119 26.356C282.911 25.988 282.639 25.716 282.303 25.54C281.967 25.356 281.603 25.264 281.211 25.264C280.811 25.264 280.443 25.356 280.107 25.54C279.779 25.716 279.515 25.988 279.315 26.356C279.115 26.724 279.015 27.172 279.015 27.7C279.015 28.236 279.111 28.688 279.303 29.056C279.503 29.424 279.767 29.7 280.095 29.884C280.423 30.06 280.783 30.148 281.175 30.148ZM287.075 25.492C287.267 25.116 287.539 24.824 287.891 24.616C288.251 24.408 288.687 24.304 289.199 24.304V25.432H288.911C287.687 25.432 287.075 26.096 287.075 27.424V31H285.983V24.424H287.075V25.492ZM296.123 24.424L292.163 34.096H291.035L292.331 30.928L289.679 24.424H290.891L292.955 29.752L294.995 24.424H296.123Z" fill="#495057"/>
<path d="M79.0704 19.8619C73.9267 19.854 68.8179 20.7063 63.9554 22.3835L69.9917 39.8837C72.9032 38.8794 75.9622 38.3691 79.0421 38.3738L79.0704 19.8619Z" fill="#3E1C01"/>
<path d="M63.9617 22.3813C53.6005 25.9535 44.8492 33.0973 39.275 42.5335L55.2138 51.9488C58.5515 46.2987 63.7915 42.0212 69.9955 39.8824L63.9617 22.3813Z" fill="#3E1C01"/>
<path d="M39.3907 42.3386C36.1741 47.7232 34.0892 53.707 33.2634 59.9245C32.4375 66.142 32.888 72.4626 34.5874 78.5002L52.4071 73.4845C51.3895 69.8694 51.1198 66.0849 51.6143 62.362C52.1088 58.6392 53.3571 55.0562 55.2831 51.8322L39.3907 42.3386Z" fill="#3E1C01"/>
<path d="M34.5451 78.3488C36.7934 86.4421 41.2084 93.768 47.3141 99.5365C53.4198 105.305 60.9844 109.297 69.1922 111.083L73.1273 92.994C68.2128 91.9249 63.6833 89.5344 60.0274 86.0804C56.3715 82.6264 53.7279 78.2399 52.3817 73.3939L34.5451 78.3488Z" fill="#5E2709"/>
<path d="M68.4813 110.922C75.9446 112.67 83.7256 112.53 91.1215 110.516C98.5173 108.503 105.295 104.678 110.842 99.3879L98.0658 85.9915C94.7444 89.1589 90.6862 91.449 86.2578 92.6548C81.8295 93.8607 77.1704 93.9442 72.7017 92.8979L68.4813 110.922Z" fill="#BE7D42"/>
<path d="M123.423 53.5385C120.706 43.852 114.897 35.3191 106.882 29.2395C98.8659 23.1598 89.0828 19.8668 79.0223 19.8619L79.0133 38.3738C85.0371 38.3767 90.895 40.3485 95.6945 43.9888C100.494 47.6291 103.972 52.7383 105.599 58.5383L123.423 53.5385Z" fill="#F6E9DD"/>
<path d="M110.84 99.3897C116.929 93.5834 121.315 86.2224 123.522 78.1034C125.729 69.9843 125.674 61.4162 123.363 53.3261L105.563 58.4111C106.947 63.2552 106.98 68.3855 105.658 73.2469C104.337 78.1084 101.711 82.5158 98.0647 85.9925L110.84 99.3897Z" fill="#BE7D42"/>
<circle cx="209" cy="80.5" r="5" fill="#F6E9DD"/>
<path d="M223.89 82.45H220.85L220.29 84H219.33L221.85 77.07H222.9L225.41 84H224.45L223.89 82.45ZM223.63 81.71L222.37 78.19L221.11 81.71H223.63ZM227.418 79.54C227.605 79.2133 227.878 78.9467 228.238 78.74C228.598 78.5333 229.008 78.43 229.468 78.43C229.962 78.43 230.405 78.5467 230.798 78.78C231.192 79.0133 231.502 79.3433 231.728 79.77C231.955 80.19 232.068 80.68 232.068 81.24C232.068 81.7933 231.955 82.2867 231.728 82.72C231.502 83.1533 231.188 83.49 230.788 83.73C230.395 83.97 229.955 84.09 229.468 84.09C228.995 84.09 228.578 83.9867 228.218 83.78C227.865 83.5733 227.598 83.31 227.418 82.99V84H226.508V76.6H227.418V79.54ZM231.138 81.24C231.138 80.8267 231.055 80.4667 230.888 80.16C230.722 79.8533 230.495 79.62 230.208 79.46C229.928 79.3 229.618 79.22 229.278 79.22C228.945 79.22 228.635 79.3033 228.348 79.47C228.068 79.63 227.842 79.8667 227.668 80.18C227.502 80.4867 227.418 80.8433 227.418 81.25C227.418 81.6633 227.502 82.0267 227.668 82.34C227.842 82.6467 228.068 82.8833 228.348 83.05C228.635 83.21 228.945 83.29 229.278 83.29C229.618 83.29 229.928 83.21 230.208 83.05C230.495 82.8833 230.722 82.6467 230.888 82.34C231.055 82.0267 231.138 81.66 231.138 81.24ZM235.526 78.43C235.999 78.43 236.413 78.5333 236.766 78.74C237.126 78.9467 237.393 79.2067 237.566 79.52V78.52H238.486V84.12C238.486 84.62 238.379 85.0633 238.166 85.45C237.953 85.8433 237.646 86.15 237.246 86.37C236.853 86.59 236.393 86.7 235.866 86.7C235.146 86.7 234.546 86.53 234.066 86.19C233.586 85.85 233.303 85.3867 233.216 84.8H234.116C234.216 85.1333 234.423 85.4 234.736 85.6C235.049 85.8067 235.426 85.91 235.866 85.91C236.366 85.91 236.773 85.7533 237.086 85.44C237.406 85.1267 237.566 84.6867 237.566 84.12V82.97C237.386 83.29 237.119 83.5567 236.766 83.77C236.413 83.9833 235.999 84.09 235.526 84.09C235.039 84.09 234.596 83.97 234.196 83.73C233.803 83.49 233.493 83.1533 233.266 82.72C233.039 82.2867 232.926 81.7933 232.926 81.24C232.926 80.68 233.039 80.19 233.266 79.77C233.493 79.3433 233.803 79.0133 234.196 78.78C234.596 78.5467 235.039 78.43 235.526 78.43ZM237.566 81.25C237.566 80.8367 237.483 80.4767 237.316 80.17C237.149 79.8633 236.923 79.63 236.636 79.47C236.356 79.3033 236.046 79.22 235.706 79.22C235.366 79.22 235.056 79.3 234.776 79.46C234.496 79.62 234.273 79.8533 234.106 80.16C233.939 80.4667 233.856 80.8267 233.856 81.24C233.856 81.66 233.939 82.0267 234.106 82.34C234.273 82.6467 234.496 82.8833 234.776 83.05C235.056 83.21 235.366 83.29 235.706 83.29C236.046 83.29 236.356 83.21 236.636 83.05C236.923 82.8833 237.149 82.6467 237.316 82.34C237.483 82.0267 237.566 81.6633 237.566 81.25ZM239.684 81.24C239.684 80.68 239.797 80.19 240.024 79.77C240.251 79.3433 240.561 79.0133 240.954 78.78C241.354 78.5467 241.797 78.43 242.284 78.43C242.764 78.43 243.181 78.5333 243.534 78.74C243.887 78.9467 244.151 79.2067 244.324 79.52V78.52H245.244V84H244.324V82.98C244.144 83.3 243.874 83.5667 243.514 83.78C243.161 83.9867 242.747 84.09 242.274 84.09C241.787 84.09 241.347 83.97 240.954 83.73C240.561 83.49 240.251 83.1533 240.024 82.72C239.797 82.2867 239.684 81.7933 239.684 81.24ZM244.324 81.25C244.324 80.8367 244.241 80.4767 244.074 80.17C243.907 79.8633 243.681 79.63 243.394 79.47C243.114 79.3033 242.804 79.22 242.464 79.22C242.124 79.22 241.814 79.3 241.534 79.46C241.254 79.62 241.031 79.8533 240.864 80.16C240.697 80.4667 240.614 80.8267 240.614 81.24C240.614 81.66 240.697 82.0267 240.864 82.34C241.031 82.6467 241.254 82.8833 241.534 83.05C241.814 83.21 242.124 83.29 242.464 83.29C242.804 83.29 243.114 83.21 243.394 83.05C243.681 82.8833 243.907 82.6467 244.074 82.34C244.241 82.0267 244.324 81.6633 244.324 81.25ZM246.442 81.24C246.442 80.68 246.555 80.19 246.782 79.77C247.008 79.3433 247.318 79.0133 247.712 78.78C248.112 78.5467 248.558 78.43 249.052 78.43C249.478 78.43 249.875 78.53 250.242 78.73C250.608 78.9233 250.888 79.18 251.082 79.5V76.6H252.002V84H251.082V82.97C250.902 83.2967 250.635 83.5667 250.282 83.78C249.928 83.9867 249.515 84.09 249.042 84.09C248.555 84.09 248.112 83.97 247.712 83.73C247.318 83.49 247.008 83.1533 246.782 82.72C246.555 82.2867 246.442 81.7933 246.442 81.24ZM251.082 81.25C251.082 80.8367 250.998 80.4767 250.832 80.17C250.665 79.8633 250.438 79.63 250.152 79.47C249.872 79.3033 249.562 79.22 249.222 79.22C248.882 79.22 248.572 79.3 248.292 79.46C248.012 79.62 247.788 79.8533 247.622 80.16C247.455 80.4667 247.372 80.8267 247.372 81.24C247.372 81.66 247.455 82.0267 247.622 82.34C247.788 82.6467 248.012 82.8833 248.292 83.05C248.572 83.21 248.882 83.29 249.222 83.29C249.562 83.29 249.872 83.21 250.152 83.05C250.438 82.8833 250.665 82.6467 250.832 82.34C250.998 82.0267 251.082 81.6633 251.082 81.25ZM253.2 81.24C253.2 80.68 253.313 80.19 253.54 79.77C253.766 79.3433 254.076 79.0133 254.47 78.78C254.87 78.5467 255.313 78.43 255.8 78.43C256.28 78.43 256.696 78.5333 257.05 78.74C257.403 78.9467 257.666 79.2067 257.84 79.52V78.52H258.76V84H257.84V82.98C257.66 83.3 257.39 83.5667 257.03 83.78C256.676 83.9867 256.263 84.09 255.79 84.09C255.303 84.09 254.863 83.97 254.47 83.73C254.076 83.49 253.766 83.1533 253.54 82.72C253.313 82.2867 253.2 81.7933 253.2 81.24ZM257.84 81.25C257.84 80.8367 257.756 80.4767 257.59 80.17C257.423 79.8633 257.196 79.63 256.91 79.47C256.63 79.3033 256.32 79.22 255.98 79.22C255.64 79.22 255.33 79.3 255.05 79.46C254.77 79.62 254.546 79.8533 254.38 80.16C254.213 80.4667 254.13 80.8267 254.13 81.24C254.13 81.66 254.213 82.0267 254.38 82.34C254.546 82.6467 254.77 82.8833 255.05 83.05C255.33 83.21 255.64 83.29 255.98 83.29C256.32 83.29 256.63 83.21 256.91 83.05C257.196 82.8833 257.423 82.6467 257.59 82.34C257.756 82.0267 257.84 81.6633 257.84 81.25Z" fill="#495057"/>
<circle cx="143" cy="80.5" r="5" fill="#BE7D42"/>
<path d="M153.43 80.51C153.43 79.83 153.583 79.22 153.89 78.68C154.197 78.1333 154.613 77.7067 155.14 77.4C155.673 77.0933 156.263 76.94 156.91 76.94C157.67 76.94 158.333 77.1233 158.9 77.49C159.467 77.8567 159.88 78.3767 160.14 79.05H159.05C158.857 78.63 158.577 78.3067 158.21 78.08C157.85 77.8533 157.417 77.74 156.91 77.74C156.423 77.74 155.987 77.8533 155.6 78.08C155.213 78.3067 154.91 78.63 154.69 79.05C154.47 79.4633 154.36 79.95 154.36 80.51C154.36 81.0633 154.47 81.55 154.69 81.97C154.91 82.3833 155.213 82.7033 155.6 82.93C155.987 83.1567 156.423 83.27 156.91 83.27C157.417 83.27 157.85 83.16 158.21 82.94C158.577 82.7133 158.857 82.39 159.05 81.97H160.14C159.88 82.6367 159.467 83.1533 158.9 83.52C158.333 83.88 157.67 84.06 156.91 84.06C156.263 84.06 155.673 83.91 155.14 83.61C154.613 83.3033 154.197 82.88 153.89 82.34C153.583 81.8 153.43 81.19 153.43 80.51ZM161.155 81.24C161.155 80.68 161.268 80.19 161.495 79.77C161.721 79.3433 162.031 79.0133 162.425 78.78C162.825 78.5467 163.268 78.43 163.755 78.43C164.235 78.43 164.651 78.5333 165.005 78.74C165.358 78.9467 165.621 79.2067 165.795 79.52V78.52H166.715V84H165.795V82.98C165.615 83.3 165.345 83.5667 164.985 83.78C164.631 83.9867 164.218 84.09 163.745 84.09C163.258 84.09 162.818 83.97 162.425 83.73C162.031 83.49 161.721 83.1533 161.495 82.72C161.268 82.2867 161.155 81.7933 161.155 81.24ZM165.795 81.25C165.795 80.8367 165.711 80.4767 165.545 80.17C165.378 79.8633 165.151 79.63 164.865 79.47C164.585 79.3033 164.275 79.22 163.935 79.22C163.595 79.22 163.285 79.3 163.005 79.46C162.725 79.62 162.501 79.8533 162.335 80.16C162.168 80.4667 162.085 80.8267 162.085 81.24C162.085 81.66 162.168 82.0267 162.335 82.34C162.501 82.6467 162.725 82.8833 163.005 83.05C163.285 83.21 163.595 83.29 163.935 83.29C164.275 83.29 164.585 83.21 164.865 83.05C165.151 82.8833 165.378 82.6467 165.545 82.34C165.711 82.0267 165.795 81.6633 165.795 81.25ZM169.162 79.41C169.322 79.0967 169.549 78.8533 169.842 78.68C170.142 78.5067 170.506 78.42 170.932 78.42V79.36H170.692C169.672 79.36 169.162 79.9133 169.162 81.02V84H168.252V78.52H169.162V79.41ZM174.243 78.43C174.716 78.43 175.13 78.5333 175.483 78.74C175.843 78.9467 176.11 79.2067 176.283 79.52V78.52H177.203V84.12C177.203 84.62 177.096 85.0633 176.883 85.45C176.67 85.8433 176.363 86.15 175.963 86.37C175.57 86.59 175.11 86.7 174.583 86.7C173.863 86.7 173.263 86.53 172.783 86.19C172.303 85.85 172.02 85.3867 171.933 84.8H172.833C172.933 85.1333 173.14 85.4 173.453 85.6C173.766 85.8067 174.143 85.91 174.583 85.91C175.083 85.91 175.49 85.7533 175.803 85.44C176.123 85.1267 176.283 84.6867 176.283 84.12V82.97C176.103 83.29 175.836 83.5567 175.483 83.77C175.13 83.9833 174.716 84.09 174.243 84.09C173.756 84.09 173.313 83.97 172.913 83.73C172.52 83.49 172.21 83.1533 171.983 82.72C171.756 82.2867 171.643 81.7933 171.643 81.24C171.643 80.68 171.756 80.19 171.983 79.77C172.21 79.3433 172.52 79.0133 172.913 78.78C173.313 78.5467 173.756 78.43 174.243 78.43ZM176.283 81.25C176.283 80.8367 176.2 80.4767 176.033 80.17C175.866 79.8633 175.64 79.63 175.353 79.47C175.073 79.3033 174.763 79.22 174.423 79.22C174.083 79.22 173.773 79.3 173.493 79.46C173.213 79.62 172.99 79.8533 172.823 80.16C172.656 80.4667 172.573 80.8267 172.573 81.24C172.573 81.66 172.656 82.0267 172.823 82.34C172.99 82.6467 173.213 82.8833 173.493 83.05C173.773 83.21 174.083 83.29 174.423 83.29C174.763 83.29 175.073 83.21 175.353 83.05C175.64 82.8833 175.866 82.6467 176.033 82.34C176.2 82.0267 176.283 81.6633 176.283 81.25ZM181.131 84.09C180.617 84.09 180.151 83.9733 179.731 83.74C179.317 83.5067 178.991 83.1767 178.751 82.75C178.517 82.3167 178.401 81.8167 178.401 81.25C178.401 80.69 178.521 80.1967 178.761 79.77C179.007 79.3367 179.341 79.0067 179.761 78.78C180.181 78.5467 180.651 78.43 181.171 78.43C181.691 78.43 182.161 78.5467 182.581 78.78C183.001 79.0067 183.331 79.3333 183.571 79.76C183.817 80.1867 183.941 80.6833 183.941 81.25C183.941 81.8167 183.814 82.3167 183.561 82.75C183.314 83.1767 182.977 83.5067 182.551 83.74C182.124 83.9733 181.651 84.09 181.131 84.09ZM181.131 83.29C181.457 83.29 181.764 83.2133 182.051 83.06C182.337 82.9067 182.567 82.6767 182.741 82.37C182.921 82.0633 183.011 81.69 183.011 81.25C183.011 80.81 182.924 80.4367 182.751 80.13C182.577 79.8233 182.351 79.5967 182.071 79.45C181.791 79.2967 181.487 79.22 181.161 79.22C180.827 79.22 180.521 79.2967 180.241 79.45C179.967 79.5967 179.747 79.8233 179.581 80.13C179.414 80.4367 179.331 80.81 179.331 81.25C179.331 81.6967 179.411 82.0733 179.571 82.38C179.737 82.6867 179.957 82.9167 180.231 83.07C180.504 83.2167 180.804 83.29 181.131 83.29ZM187.297 84.06C187.124 84.06 186.977 84 186.857 83.88C186.737 83.76 186.677 83.6133 186.677 83.44C186.677 83.2667 186.737 83.12 186.857 83C186.977 82.88 187.124 82.82 187.297 82.82C187.464 82.82 187.604 82.88 187.717 83C187.837 83.12 187.897 83.2667 187.897 83.44C187.897 83.6133 187.837 83.76 187.717 83.88C187.604 84 187.464 84.06 187.297 84.06ZM189.177 84.06C189.004 84.06 188.857 84 188.737 83.88C188.617 83.76 188.557 83.6133 188.557 83.44C188.557 83.2667 188.617 83.12 188.737 83C188.857 82.88 189.004 82.82 189.177 82.82C189.344 82.82 189.484 82.88 189.597 83C189.717 83.12 189.777 83.2667 189.777 83.44C189.777 83.6133 189.717 83.76 189.597 83.88C189.484 84 189.344 84.06 189.177 84.06ZM185.427 84.06C185.254 84.06 185.107 84 184.987 83.88C184.867 83.76 184.807 83.6133 184.807 83.44C184.807 83.2667 184.867 83.12 184.987 83C185.107 82.88 185.254 82.82 185.427 82.82C185.594 82.82 185.734 82.88 185.847 83C185.967 83.12 186.027 83.2667 186.027 83.44C186.027 83.6133 185.967 83.76 185.847 83.88C185.734 84 185.594 84.06 185.427 84.06Z" fill="#495057"/>
<circle cx="209" cy="52.5" r="5" fill="#634833"/>
<path d="M223.55 56L220.68 52.82V56H219.77V49.03H220.68V52.26L223.56 49.03H224.71L221.55 52.52L224.74 56H223.55ZM225.416 53.24C225.416 52.68 225.53 52.19 225.756 51.77C225.983 51.3433 226.293 51.0133 226.686 50.78C227.086 50.5467 227.53 50.43 228.016 50.43C228.496 50.43 228.913 50.5333 229.266 50.74C229.62 50.9467 229.883 51.2067 230.056 51.52V50.52H230.976V56H230.056V54.98C229.876 55.3 229.606 55.5667 229.246 55.78C228.893 55.9867 228.48 56.09 228.006 56.09C227.52 56.09 227.08 55.97 226.686 55.73C226.293 55.49 225.983 55.1533 225.756 54.72C225.53 54.2867 225.416 53.7933 225.416 53.24ZM230.056 53.25C230.056 52.8367 229.973 52.4767 229.806 52.17C229.64 51.8633 229.413 51.63 229.126 51.47C228.846 51.3033 228.536 51.22 228.196 51.22C227.856 51.22 227.546 51.3 227.266 51.46C226.986 51.62 226.763 51.8533 226.596 52.16C226.43 52.4667 226.346 52.8267 226.346 53.24C226.346 53.66 226.43 54.0267 226.596 54.34C226.763 54.6467 226.986 54.8833 227.266 55.05C227.546 55.21 227.856 55.29 228.196 55.29C228.536 55.29 228.846 55.21 229.126 55.05C229.413 54.8833 229.64 54.6467 229.806 54.34C229.973 54.0267 230.056 53.6633 230.056 53.25ZM234.744 51.27H233.594V56H232.684V51.27H231.974V50.52H232.684V50.13C232.684 49.5167 232.841 49.07 233.154 48.79C233.474 48.5033 233.984 48.36 234.684 48.36V49.12C234.284 49.12 234.001 49.2 233.834 49.36C233.674 49.5133 233.594 49.77 233.594 50.13V50.52H234.744V51.27ZM236.915 51.27V54.5C236.915 54.7667 236.972 54.9567 237.085 55.07C237.198 55.1767 237.395 55.23 237.675 55.23H238.345V56H237.525C237.018 56 236.638 55.8833 236.385 55.65C236.132 55.4167 236.005 55.0333 236.005 54.5V51.27H235.295V50.52H236.005V49.14H236.915V50.52H238.345V51.27H236.915ZM239.108 53.24C239.108 52.68 239.221 52.19 239.448 51.77C239.674 51.3433 239.984 51.0133 240.378 50.78C240.778 50.5467 241.221 50.43 241.708 50.43C242.188 50.43 242.604 50.5333 242.958 50.74C243.311 50.9467 243.574 51.2067 243.748 51.52V50.52H244.668V56H243.748V54.98C243.568 55.3 243.298 55.5667 242.938 55.78C242.584 55.9867 242.171 56.09 241.698 56.09C241.211 56.09 240.771 55.97 240.378 55.73C239.984 55.49 239.674 55.1533 239.448 54.72C239.221 54.2867 239.108 53.7933 239.108 53.24ZM243.748 53.25C243.748 52.8367 243.664 52.4767 243.498 52.17C243.331 51.8633 243.104 51.63 242.818 51.47C242.538 51.3033 242.228 51.22 241.888 51.22C241.548 51.22 241.238 51.3 240.958 51.46C240.678 51.62 240.454 51.8533 240.288 52.16C240.121 52.4667 240.038 52.8267 240.038 53.24C240.038 53.66 240.121 54.0267 240.288 54.34C240.454 54.6467 240.678 54.8833 240.958 55.05C241.238 55.21 241.548 55.29 241.888 55.29C242.228 55.29 242.538 55.21 242.818 55.05C243.104 54.8833 243.331 54.6467 243.498 54.34C243.664 54.0267 243.748 53.6633 243.748 53.25ZM248.876 50.42C249.542 50.42 250.082 50.6233 250.496 51.03C250.909 51.43 251.116 52.01 251.116 52.77V56H250.216V52.9C250.216 52.3533 250.079 51.9367 249.806 51.65C249.532 51.3567 249.159 51.21 248.686 51.21C248.206 51.21 247.822 51.36 247.536 51.66C247.256 51.96 247.116 52.3967 247.116 52.97V56H246.206V50.52H247.116V51.3C247.296 51.02 247.539 50.8033 247.846 50.65C248.159 50.4967 248.502 50.42 248.876 50.42Z" fill="#5E2709"/>
<circle cx="143" cy="52.5" r="5" fill="#3E1C01"/>
<path d="M155.98 56.07C155.52 56.07 155.107 55.99 154.74 55.83C154.38 55.6633 154.097 55.4367 153.89 55.15C153.683 54.8567 153.577 54.52 153.57 54.14H154.54C154.573 54.4667 154.707 54.7433 154.94 54.97C155.18 55.19 155.527 55.3 155.98 55.3C156.413 55.3 156.753 55.1933 157 54.98C157.253 54.76 157.38 54.48 157.38 54.14C157.38 53.8733 157.307 53.6567 157.16 53.49C157.013 53.3233 156.83 53.1967 156.61 53.11C156.39 53.0233 156.093 52.93 155.72 52.83C155.26 52.71 154.89 52.59 154.61 52.47C154.337 52.35 154.1 52.1633 153.9 51.91C153.707 51.65 153.61 51.3033 153.61 50.87C153.61 50.49 153.707 50.1533 153.9 49.86C154.093 49.5667 154.363 49.34 154.71 49.18C155.063 49.02 155.467 48.94 155.92 48.94C156.573 48.94 157.107 49.1033 157.52 49.43C157.94 49.7567 158.177 50.19 158.23 50.73H157.23C157.197 50.4633 157.057 50.23 156.81 50.03C156.563 49.8233 156.237 49.72 155.83 49.72C155.45 49.72 155.14 49.82 154.9 50.02C154.66 50.2133 154.54 50.4867 154.54 50.84C154.54 51.0933 154.61 51.3 154.75 51.46C154.897 51.62 155.073 51.7433 155.28 51.83C155.493 51.91 155.79 52.0033 156.17 52.11C156.63 52.2367 157 52.3633 157.28 52.49C157.56 52.61 157.8 52.8 158 53.06C158.2 53.3133 158.3 53.66 158.3 54.1C158.3 54.44 158.21 54.76 158.03 55.06C157.85 55.36 157.583 55.6033 157.23 55.79C156.877 55.9767 156.46 56.07 155.98 56.07ZM164.499 50.52V56H163.589V55.19C163.416 55.47 163.172 55.69 162.859 55.85C162.552 56.0033 162.212 56.08 161.839 56.08C161.412 56.08 161.029 55.9933 160.689 55.82C160.349 55.64 160.079 55.3733 159.879 55.02C159.686 54.6667 159.589 54.2367 159.589 53.73V50.52H160.489V53.61C160.489 54.15 160.626 54.5667 160.899 54.86C161.172 55.1467 161.546 55.29 162.019 55.29C162.506 55.29 162.889 55.14 163.169 54.84C163.449 54.54 163.589 54.1033 163.589 53.53V50.52H164.499ZM166.506 49.63C166.332 49.63 166.186 49.57 166.066 49.45C165.946 49.33 165.886 49.1833 165.886 49.01C165.886 48.8367 165.946 48.69 166.066 48.57C166.186 48.45 166.332 48.39 166.506 48.39C166.672 48.39 166.812 48.45 166.926 48.57C167.046 48.69 167.106 48.8367 167.106 49.01C167.106 49.1833 167.046 49.33 166.926 49.45C166.812 49.57 166.672 49.63 166.506 49.63ZM166.946 50.52V56H166.036V50.52H166.946ZM169.607 51.27V54.5C169.607 54.7667 169.663 54.9567 169.777 55.07C169.89 55.1767 170.087 55.23 170.367 55.23H171.037V56H170.217C169.71 56 169.33 55.8833 169.077 55.65C168.823 55.4167 168.697 55.0333 168.697 54.5V51.27H167.987V50.52H168.697V49.14H169.607V50.52H171.037V51.27H169.607ZM177.139 53.05C177.139 53.2233 177.129 53.4067 177.109 53.6H172.729C172.762 54.14 172.946 54.5633 173.279 54.87C173.619 55.17 174.029 55.32 174.509 55.32C174.902 55.32 175.229 55.23 175.489 55.05C175.756 54.8633 175.942 54.6167 176.049 54.31H177.029C176.882 54.8367 176.589 55.2667 176.149 55.6C175.709 55.9267 175.162 56.09 174.509 56.09C173.989 56.09 173.522 55.9733 173.109 55.74C172.702 55.5067 172.382 55.1767 172.149 54.75C171.916 54.3167 171.799 53.8167 171.799 53.25C171.799 52.6833 171.912 52.1867 172.139 51.76C172.366 51.3333 172.682 51.0067 173.089 50.78C173.502 50.5467 173.976 50.43 174.509 50.43C175.029 50.43 175.489 50.5433 175.889 50.77C176.289 50.9967 176.596 51.31 176.809 51.71C177.029 52.1033 177.139 52.55 177.139 53.05ZM176.199 52.86C176.199 52.5133 176.122 52.2167 175.969 51.97C175.816 51.7167 175.606 51.5267 175.339 51.4C175.079 51.2667 174.789 51.2 174.469 51.2C174.009 51.2 173.616 51.3467 173.289 51.64C172.969 51.9333 172.786 52.34 172.739 52.86H176.199Z" fill="#495057"/>
</g>
<defs>
<filter id="filter0_d_376_54829" x="0" y="0" width="333" height="139" filterUnits="userSpaceOnUse" color-interpolation-filters="sRGB">
<feFlood flood-opacity="0" result="BackgroundImageFix"/>
<feColorMatrix in="SourceAlpha" type="matrix" values="0 0 0 0 0 0 0 0 0 0 0 0 0 0 0 0 0 0 127 0" result="hardAlpha"/>
<feOffset dy="4"/>
<feGaussianBlur stdDeviation="5"/>
<feComposite in2="hardAlpha" operator="out"/>
<feColorMatrix type="matrix" values="0 0 0 0 0 0 0 0 0 0 0 0 0 0 0 0 0 0 0.05 0"/>
<feBlend mode="normal" in2="BackgroundImageFix" result="effect1_dropShadow_376_54829"/>
<feBlend mode="normal" in="SourceGraphic" in2="effect1_dropShadow_376_54829" result="shape"/>
</filter>
</defs>
</svg>
