<svg width="366" height="115" viewBox="0 0 366 115" fill="none" xmlns="http://www.w3.org/2000/svg">
<g filter="url(#filter0_d_376_54649)">
<rect x="4" width="358" height="298" rx="12" fill="white" shape-rendering="crispEdges"/>
<path d="M31.516 28.098C30.592 28.098 29.7427 27.8833 28.968 27.454C28.2027 27.0247 27.5913 26.4273 27.134 25.662C26.686 24.8873 26.462 24.0193 26.462 23.058C26.462 22.0967 26.686 21.2333 27.134 20.468C27.5913 19.7027 28.2027 19.1053 28.968 18.676C29.7427 18.2467 30.592 18.032 31.516 18.032C32.44 18.032 33.2847 18.2467 34.05 18.676C34.8247 19.1053 35.4313 19.7027 35.87 20.468C36.318 21.2333 36.542 22.0967 36.542 23.058C36.542 24.0193 36.318 24.8873 35.87 25.662C35.422 26.4273 34.8153 27.0247 34.05 27.454C33.2847 27.8833 32.44 28.098 31.516 28.098ZM31.516 25.914C32.3 25.914 32.9253 25.6527 33.392 25.13C33.868 24.6073 34.106 23.9167 34.106 23.058C34.106 22.19 33.868 21.4993 33.392 20.986C32.9253 20.4633 32.3 20.202 31.516 20.202C30.7227 20.202 30.088 20.4587 29.612 20.972C29.1453 21.4853 28.912 22.1807 28.912 23.058C28.912 23.926 29.1453 24.6213 29.612 25.144C30.088 25.6573 30.7227 25.914 31.516 25.914ZM40.2679 21.49C40.5479 21.0607 40.8979 20.7247 41.3179 20.482C41.7379 20.23 42.2045 20.104 42.7179 20.104V22.638H42.0599C41.4625 22.638 41.0145 22.7687 40.7159 23.03C40.4172 23.282 40.2679 23.73 40.2679 24.374V28H37.8739V20.188H40.2679V21.49ZM43.3861 24.08C43.3861 23.2773 43.5355 22.5727 43.8341 21.966C44.1421 21.3593 44.5575 20.8927 45.0801 20.566C45.6028 20.2393 46.1861 20.076 46.8301 20.076C47.3435 20.076 47.8101 20.1833 48.2301 20.398C48.6595 20.6127 48.9955 20.902 49.2381 21.266V17.64H51.6321V28H49.2381V26.88C49.0141 27.2533 48.6921 27.552 48.2721 27.776C47.8615 28 47.3808 28.112 46.8301 28.112C46.1861 28.112 45.6028 27.9487 45.0801 27.622C44.5575 27.286 44.1421 26.8147 43.8341 26.208C43.5355 25.592 43.3861 24.8827 43.3861 24.08ZM49.2381 24.094C49.2381 23.4967 49.0701 23.0253 48.7341 22.68C48.4075 22.3347 48.0061 22.162 47.5301 22.162C47.0541 22.162 46.6481 22.3347 46.3121 22.68C45.9855 23.016 45.8221 23.4827 45.8221 24.08C45.8221 24.6773 45.9855 25.1533 46.3121 25.508C46.6481 25.8533 47.0541 26.026 47.5301 26.026C48.0061 26.026 48.4075 25.8533 48.7341 25.508C49.0701 25.1627 49.2381 24.6913 49.2381 24.094ZM60.7281 23.968C60.7281 24.192 60.7141 24.4253 60.6861 24.668H55.2681C55.3054 25.1533 55.4594 25.5267 55.7301 25.788C56.0101 26.04 56.3508 26.166 56.7521 26.166C57.3494 26.166 57.7648 25.914 57.9981 25.41H60.5461C60.4154 25.9233 60.1774 26.3853 59.8321 26.796C59.4961 27.2067 59.0714 27.5287 58.5581 27.762C58.0448 27.9953 57.4708 28.112 56.8361 28.112C56.0708 28.112 55.3894 27.9487 54.7921 27.622C54.1948 27.2953 53.7281 26.8287 53.3921 26.222C53.0561 25.6153 52.8881 24.906 52.8881 24.094C52.8881 23.282 53.0514 22.5727 53.3781 21.966C53.7141 21.3593 54.1808 20.8927 54.7781 20.566C55.3754 20.2393 56.0614 20.076 56.8361 20.076C57.5921 20.076 58.2641 20.2347 58.8521 20.552C59.4401 20.8693 59.8974 21.322 60.2241 21.91C60.5601 22.498 60.7281 23.184 60.7281 23.968ZM58.2781 23.338C58.2781 22.9273 58.1381 22.6007 57.8581 22.358C57.5781 22.1153 57.2281 21.994 56.8081 21.994C56.4068 21.994 56.0661 22.1107 55.7861 22.344C55.5154 22.5773 55.3474 22.9087 55.2821 23.338H58.2781ZM64.385 21.49C64.665 21.0607 65.015 20.7247 65.435 20.482C65.855 20.23 66.3217 20.104 66.835 20.104V22.638H66.177C65.5797 22.638 65.1317 22.7687 64.833 23.03C64.5344 23.282 64.385 23.73 64.385 24.374V28H61.991V20.188H64.385V21.49ZM70.5401 23.072C70.5401 22.1013 70.7501 21.238 71.1701 20.482C71.5901 19.7167 72.1735 19.124 72.9201 18.704C73.6761 18.2747 74.5301 18.06 75.4821 18.06C76.6488 18.06 77.6475 18.368 78.4781 18.984C79.3088 19.6 79.8641 20.44 80.1441 21.504H77.5121C77.3161 21.0933 77.0361 20.7807 76.6721 20.566C76.3175 20.3513 75.9115 20.244 75.4541 20.244C74.7168 20.244 74.1195 20.5007 73.6621 21.014C73.2048 21.5273 72.9761 22.2133 72.9761 23.072C72.9761 23.9307 73.2048 24.6167 73.6621 25.13C74.1195 25.6433 74.7168 25.9 75.4541 25.9C75.9115 25.9 76.3175 25.7927 76.6721 25.578C77.0361 25.3633 77.3161 25.0507 77.5121 24.64H80.1441C79.8641 25.704 79.3088 26.544 78.4781 27.16C77.6475 27.7667 76.6488 28.07 75.4821 28.07C74.5301 28.07 73.6761 27.86 72.9201 27.44C72.1735 27.0107 71.5901 26.418 71.1701 25.662C70.7501 24.906 70.5401 24.0427 70.5401 23.072ZM85.1662 28.112C84.4009 28.112 83.7102 27.9487 83.0942 27.622C82.4875 27.2953 82.0069 26.8287 81.6522 26.222C81.3069 25.6153 81.1342 24.906 81.1342 24.094C81.1342 23.2913 81.3115 22.5867 81.6662 21.98C82.0209 21.364 82.5062 20.8927 83.1222 20.566C83.7382 20.2393 84.4289 20.076 85.1942 20.076C85.9595 20.076 86.6502 20.2393 87.2662 20.566C87.8822 20.8927 88.3675 21.364 88.7222 21.98C89.0769 22.5867 89.2542 23.2913 89.2542 24.094C89.2542 24.8967 89.0722 25.606 88.7082 26.222C88.3535 26.8287 87.8635 27.2953 87.2382 27.622C86.6222 27.9487 85.9315 28.112 85.1662 28.112ZM85.1662 26.04C85.6235 26.04 86.0109 25.872 86.3282 25.536C86.6549 25.2 86.8182 24.7193 86.8182 24.094C86.8182 23.4687 86.6595 22.988 86.3422 22.652C86.0342 22.316 85.6515 22.148 85.1942 22.148C84.7275 22.148 84.3402 22.316 84.0322 22.652C83.7242 22.9787 83.5702 23.4593 83.5702 24.094C83.5702 24.7193 83.7195 25.2 84.0182 25.536C84.3262 25.872 84.7089 26.04 85.1662 26.04ZM98.2383 20.188V28H95.8443V26.936C95.6016 27.2813 95.2703 27.5613 94.8503 27.776C94.4396 27.9813 93.9823 28.084 93.4783 28.084C92.8809 28.084 92.3536 27.9533 91.8963 27.692C91.4389 27.4213 91.0843 27.034 90.8323 26.53C90.5803 26.026 90.4543 25.4333 90.4543 24.752V20.188H92.8343V24.43C92.8343 24.9527 92.9696 25.3587 93.2403 25.648C93.5109 25.9373 93.8749 26.082 94.3323 26.082C94.7989 26.082 95.1676 25.9373 95.4383 25.648C95.7089 25.3587 95.8443 24.9527 95.8443 24.43V20.188H98.2383ZM104.718 20.104C105.633 20.104 106.361 20.4027 106.902 21C107.453 21.588 107.728 22.4 107.728 23.436V28H105.348V23.758C105.348 23.2353 105.213 22.8293 104.942 22.54C104.671 22.2507 104.307 22.106 103.85 22.106C103.393 22.106 103.029 22.2507 102.758 22.54C102.487 22.8293 102.352 23.2353 102.352 23.758V28H99.9578V20.188H102.352V21.224C102.595 20.8787 102.921 20.608 103.332 20.412C103.743 20.2067 104.205 20.104 104.718 20.104ZM113.745 25.97V28H112.527C111.659 28 110.983 27.79 110.497 27.37C110.012 26.9407 109.769 26.2453 109.769 25.284V22.176H108.817V20.188H109.769V18.284H112.163V20.188H113.731V22.176H112.163V25.312C112.163 25.5453 112.219 25.7133 112.331 25.816C112.443 25.9187 112.63 25.97 112.891 25.97H113.745Z" fill="#535353"/>
<path d="M30.7633 55.49C30.6166 54.75 30.1599 54.38 29.3933 54.38C28.7999 54.38 28.3566 54.61 28.0633 55.07C27.7699 55.5233 27.6266 56.2733 27.6333 57.32C27.7866 56.9733 28.0399 56.7033 28.3933 56.51C28.7533 56.31 29.1533 56.21 29.5933 56.21C30.2799 56.21 30.8266 56.4233 31.2333 56.85C31.6466 57.2767 31.8533 57.8667 31.8533 58.62C31.8533 59.0733 31.7633 59.48 31.5833 59.84C31.4099 60.2 31.1433 60.4867 30.7833 60.7C30.4299 60.9133 29.9999 61.02 29.4933 61.02C28.8066 61.02 28.2699 60.8667 27.8833 60.56C27.4966 60.2533 27.2266 59.83 27.0733 59.29C26.9199 58.75 26.8433 58.0833 26.8433 57.29C26.8433 54.8433 27.6966 53.62 29.4033 53.62C30.0566 53.62 30.5699 53.7967 30.9433 54.15C31.3166 54.5033 31.5366 54.95 31.6033 55.49H30.7633ZM29.4033 56.98C29.1166 56.98 28.8466 57.04 28.5933 57.16C28.3399 57.2733 28.1333 57.45 27.9733 57.69C27.8199 57.9233 27.7433 58.21 27.7433 58.55C27.7433 59.0567 27.8899 59.47 28.1833 59.79C28.4766 60.1033 28.8966 60.26 29.4433 60.26C29.9099 60.26 30.2799 60.1167 30.5533 59.83C30.8333 59.5367 30.9733 59.1433 30.9733 58.65C30.9733 58.13 30.8399 57.7233 30.5733 57.43C30.3066 57.13 29.9166 56.98 29.4033 56.98ZM33.0809 57.31C33.0809 56.1633 33.2676 55.27 33.6409 54.63C34.0143 53.9833 34.6676 53.66 35.6009 53.66C36.5276 53.66 37.1776 53.9833 37.5509 54.63C37.9243 55.27 38.1109 56.1633 38.1109 57.31C38.1109 58.4767 37.9243 59.3833 37.5509 60.03C37.1776 60.6767 36.5276 61 35.6009 61C34.6676 61 34.0143 60.6767 33.6409 60.03C33.2676 59.3833 33.0809 58.4767 33.0809 57.31ZM37.2109 57.31C37.2109 56.73 37.1709 56.24 37.0909 55.84C37.0176 55.4333 36.8609 55.1067 36.6209 54.86C36.3876 54.6133 36.0476 54.49 35.6009 54.49C35.1476 54.49 34.8009 54.6133 34.5609 54.86C34.3276 55.1067 34.1709 55.4333 34.0909 55.84C34.0176 56.24 33.9809 56.73 33.9809 57.31C33.9809 57.91 34.0176 58.4133 34.0909 58.82C34.1709 59.2267 34.3276 59.5533 34.5609 59.8C34.8009 60.0467 35.1476 60.17 35.6009 60.17C36.0476 60.17 36.3876 60.0467 36.6209 59.8C36.8609 59.5533 37.0176 59.2267 37.0909 58.82C37.1709 58.4133 37.2109 57.91 37.2109 57.31ZM42.5702 61L40.4202 58.58V61H39.5102V53.6H40.4202V57.95L42.5302 55.52H43.8002L41.2202 58.25L43.8102 61H42.5702Z" fill="black"/>
<path d="M31.3775 85.867H27.8675V88.147C28.0208 87.9337 28.2475 87.7603 28.5475 87.627C28.8475 87.487 29.1708 87.417 29.5175 87.417C30.0708 87.417 30.5208 87.5337 30.8675 87.767C31.2141 87.9937 31.4608 88.2903 31.6075 88.657C31.7608 89.017 31.8375 89.4003 31.8375 89.807C31.8375 90.287 31.7475 90.717 31.5675 91.097C31.3875 91.477 31.1108 91.777 30.7375 91.997C30.3708 92.217 29.9141 92.327 29.3675 92.327C28.6675 92.327 28.1008 92.147 27.6675 91.787C27.2341 91.427 26.9708 90.947 26.8775 90.347H27.7675C27.8541 90.727 28.0375 91.0237 28.3175 91.237C28.5975 91.4503 28.9508 91.557 29.3775 91.557C29.9041 91.557 30.3008 91.4003 30.5675 91.087C30.8341 90.767 30.9675 90.347 30.9675 89.827C30.9675 89.307 30.8341 88.907 30.5675 88.627C30.3008 88.3403 29.9075 88.197 29.3875 88.197C29.0341 88.197 28.7241 88.2837 28.4575 88.457C28.1975 88.6237 28.0075 88.8537 27.8875 89.147H27.0275V85.067H31.3775V85.867ZM33.0468 88.617C33.0468 87.4703 33.2334 86.577 33.6068 85.937C33.9801 85.2903 34.6334 84.967 35.5668 84.967C36.4934 84.967 37.1434 85.2903 37.5168 85.937C37.8901 86.577 38.0768 87.4703 38.0768 88.617C38.0768 89.7837 37.8901 90.6903 37.5168 91.337C37.1434 91.9837 36.4934 92.307 35.5668 92.307C34.6334 92.307 33.9801 91.9837 33.6068 91.337C33.2334 90.6903 33.0468 89.7837 33.0468 88.617ZM37.1768 88.617C37.1768 88.037 37.1368 87.547 37.0568 87.147C36.9834 86.7403 36.8268 86.4137 36.5868 86.167C36.3534 85.9203 36.0134 85.797 35.5668 85.797C35.1134 85.797 34.7668 85.9203 34.5268 86.167C34.2934 86.4137 34.1368 86.7403 34.0568 87.147C33.9834 87.547 33.9468 88.037 33.9468 88.617C33.9468 89.217 33.9834 89.7203 34.0568 90.127C34.1368 90.5337 34.2934 90.8603 34.5268 91.107C34.7668 91.3537 35.1134 91.477 35.5668 91.477C36.0134 91.477 36.3534 91.3537 36.5868 91.107C36.8268 90.8603 36.9834 90.5337 37.0568 90.127C37.1368 89.7203 37.1768 89.217 37.1768 88.617ZM42.5361 92.307L40.3861 89.887V92.307H39.4761V84.907H40.3861V89.257L42.4961 86.827H43.7661L41.1861 89.557L43.7761 92.307H42.5361Z" fill="black"/>
<line x1="48" y1="89.6739" x2="330" y2="89.6739" stroke="#D8D8D8" stroke-width="0.652278"/>
<line x1="48" y1="58.6739" x2="330" y2="58.6739" stroke="#D8D8D8" stroke-width="0.652278"/>
<path d="M176 92.5012C176 88.3584 179.358 85 183.501 85C187.644 85 191.002 88.3584 191.002 92.5012V245.46H176V92.5012Z" fill="#3E1C01"/>
</g>
<defs>
<filter id="filter0_d_376_54649" x="0" y="0" width="366" height="306" filterUnits="userSpaceOnUse" color-interpolation-filters="sRGB">
<feFlood flood-opacity="0" result="BackgroundImageFix"/>
<feColorMatrix in="SourceAlpha" type="matrix" values="0 0 0 0 0 0 0 0 0 0 0 0 0 0 0 0 0 0 127 0" result="hardAlpha"/>
<feOffset dy="4"/>
<feGaussianBlur stdDeviation="2"/>
<feComposite in2="hardAlpha" operator="out"/>
<feColorMatrix type="matrix" values="0 0 0 0 0 0 0 0 0 0 0 0 0 0 0 0 0 0 0.1 0"/>
<feBlend mode="normal" in2="BackgroundImageFix" result="effect1_dropShadow_376_54649"/>
<feBlend mode="normal" in="SourceGraphic" in2="effect1_dropShadow_376_54649" result="shape"/>
</filter>
</defs>
</svg>
