<svg width="28" height="27" viewBox="0 0 28 27" fill="none" xmlns="http://www.w3.org/2000/svg">
<path d="M16.8692 10.4394C16.8078 10.7149 16.6536 10.909 16.4694 10.909C16.2869 10.909 16.1227 10.7099 16.0596 10.4378L12.7715 11.4184L13.0967 14.0317L13.7304 14.4962L16.7299 14.2639L17.7352 11.279L17.5643 10.3979L16.8692 10.4394Z" fill="url(#paint0_linear_6265_27816)"/>
<path d="M16.6392 11.4483C16.6708 11.3205 16.7023 11.1828 16.7371 11.0368C17.2896 8.62927 18.2003 3.73957 18.4343 3.11737C18.6815 2.45701 19.1559 2.02395 20.1463 2.20978C21.1368 2.39561 21.4453 3.40608 21.0953 4.62227C20.7452 5.83847 19.8992 10.4992 19.8992 12.0871C19.8992 13.6749 20.4964 16.8092 20.4964 16.8092L16.042 15.1599L16.6392 11.4483Z" fill="url(#paint1_linear_6265_27816)"/>
<path d="M7.1327 17.1611C7.1327 17.9194 7.5043 18.2595 7.69013 18.3823C7.7515 18.4238 7.79297 18.4403 7.79297 18.4403L11.257 20.9458L17.5976 19.6466L17.4035 15.6346C13.9827 15.1966 10.892 13.549 7.34173 13.2603C6.95187 14.5312 7.1327 16.2767 7.1327 17.1611Z" fill="url(#paint2_linear_6265_27816)"/>
<path d="M15.2552 12.7157C15.2552 12.7157 8.19616 11.4779 7.54586 12.7472C7.46456 12.9048 7.3982 13.0774 7.3418 13.2583C10.892 13.5486 13.9827 15.1946 17.4035 15.6326L17.3189 13.8904L15.2552 12.7157Z" fill="url(#paint3_linear_6265_27816)"/>
<path d="M12.432 2.31289C11.216 2.80734 11.3387 4.00363 11.8132 5.2829C12.2877 6.56213 13.215 12.1703 13.215 12.1703H16.4733C16.4733 12.1703 16.3688 11.7273 16.2029 11.037C15.7151 8.99453 14.7015 4.78677 14.3282 3.48927C13.8969 1.98271 12.432 2.31289 12.432 2.31289Z" fill="url(#paint4_linear_6265_27816)"/>
<path d="M13.885 17.2787C15.4461 17.1144 16.4382 18.392 16.5609 19.0573L17.0719 18.8715L16.8397 16.3196L15.1856 15.2528L12.9742 14.6953L10.7313 13.5206L10.3032 12.1799C10.2916 12.1799 10.1838 12.1782 10.1722 12.1782L8.02046 12.3973C7.78819 12.4835 7.62063 12.5964 7.54433 12.7457C7.25899 13.3032 7.14949 14.0283 7.11133 14.7517C7.44643 15.427 8.2013 15.7771 8.85989 15.7771C9.63299 15.7771 10.0975 15.1897 10.3762 14.6936C10.3762 14.6936 10.4277 15.5913 11.6702 15.9314C11.6702 15.933 12.5926 17.4147 13.885 17.2787Z" fill="url(#paint5_linear_6265_27816)"/>
<path d="M14.1951 14.0169C13.9164 13.1508 14.0906 13.7846 13.8998 12.0673C13.6891 10.1675 13.0869 9.34453 12.6174 6.62343C12.3204 4.89787 11.6087 3.73473 12.0932 2.49365C11.2487 3.06276 11.3881 4.13793 11.8128 5.2828C12.1728 6.25343 12.7932 9.7129 13.072 11.329L12.7717 11.4186L13.0968 14.0318L13.7306 14.4964L14.1171 14.4665C14.2166 14.3587 14.2581 14.2143 14.1951 14.0169Z" fill="url(#paint6_linear_6265_27816)"/>
<path d="M20.2972 15.6793C20.123 14.6224 19.8974 13.066 19.8974 12.0871C19.8974 10.4992 20.7435 5.83847 21.0935 4.62227C21.2843 3.9619 21.2727 3.36791 21.0703 2.92822C20.8314 4.6986 19.8012 7.2123 19.7315 9.56177C19.6021 13.9802 18.6316 13.8923 17.9746 14.264C18.8655 14.629 19.7066 15.0786 20.2972 15.6793Z" fill="url(#paint7_linear_6265_27816)"/>
<path d="M19.5752 2.17676C18.9647 2.22653 18.6263 2.59986 18.4322 3.11753C18.3791 3.26188 18.2878 3.6319 18.175 4.1479C17.8349 5.6943 17.2841 8.53983 16.8677 10.443C16.8229 10.6421 16.6786 10.9109 16.4696 10.9092C16.4696 10.9092 16.4712 10.9092 16.4696 10.9092C16.2871 10.9092 16.1228 10.7101 16.0598 10.438C15.5389 8.26277 14.6679 4.67057 14.3278 3.4892C14.0889 2.65627 13.5348 2.38582 13.0869 2.31115C14.5186 2.59322 15.0744 9.85227 16.4547 11.5347C16.4547 11.5347 17.4882 11.5015 18.2513 5.08867C18.4853 3.12251 19.2384 2.23649 19.5752 2.17676Z" fill="url(#paint8_linear_6265_27816)"/>
<path d="M8.84228 15.4703C7.93148 15.4703 7.17664 14.7286 7.05221 13.3365C7.04061 13.2038 6.78178 10.4595 8.33958 10.4595C9.78458 10.4595 10.1927 11.017 10.2872 12.872C10.3818 14.727 9.78625 15.4703 8.84228 15.4703Z" fill="url(#paint9_linear_6265_27816)"/>
<path d="M12.2945 15.6861C11.1697 15.6861 10.6073 15.1917 10.4514 13.7847C10.2954 12.3776 9.61856 9.84069 11.684 9.70465C13.6632 9.57522 13.7014 10.7997 13.7014 12.8406C13.7014 14.8814 13.2634 15.6861 12.2945 15.6861Z" fill="url(#paint10_linear_6265_27816)"/>
<path d="M12.2308 13.7379C11.3714 14.171 10.7941 14.1793 10.4258 13.5886C10.4341 13.655 10.444 13.723 10.4507 13.7844C10.6066 15.193 11.169 15.6858 12.2938 15.6858C13.0851 15.6858 13.5215 15.1482 13.6542 13.8391C13.4335 13.4592 12.7368 13.4824 12.2308 13.7379Z" fill="url(#paint11_linear_6265_27816)"/>
<path d="M8.81203 13.6748C8.0456 13.6748 7.4102 13.1986 7.3057 12.3043C7.34883 12.6693 7.02533 10.4575 8.389 10.4575C9.60503 10.4575 9.94843 10.8143 10.0281 12.0073C10.1077 13.1986 9.60503 13.6748 8.81203 13.6748Z" fill="url(#paint12_linear_6265_27816)"/>
<path d="M12.1385 13.5818C11.2161 13.5818 10.7997 13.0957 10.6438 12.0985C10.5625 11.5858 10.0382 9.79716 11.7337 9.70093C13.3578 9.608 13.3578 10.796 13.3927 11.8031C13.4408 13.255 12.9331 13.5818 12.1385 13.5818Z" fill="url(#paint13_linear_6265_27816)"/>
<path d="M11.624 15.6031C11.8215 15.6579 12.0421 15.6877 12.2959 15.6877C13.2648 15.6877 13.7028 14.883 13.7028 12.8422C13.7028 10.8744 13.6629 9.66975 11.8862 9.70129C12.5846 10.1178 13.1536 11.0668 13.1536 12.7808C13.1536 15.2182 12.6062 15.5981 11.624 15.6031Z" fill="url(#paint14_linear_6265_27816)"/>
<path d="M11.6704 14.9341C11.6704 14.1095 12.2544 14.083 13.8155 13.9436C14.932 13.844 16.1447 13.552 17.6926 14.1493C19.4577 14.8313 21.1151 15.8202 21.1366 17.5939C21.1549 19.1817 19.9206 24.833 14.5173 24.833C9.11393 24.833 7.30067 21.946 7.13477 17.1608L16.5628 19.0573C16.5628 19.0573 16.7635 17.3715 15.6089 16.8721C15.1162 16.6581 14.0627 16.8306 13.3609 16.8306C12.6592 16.8306 11.6704 16.0475 11.6704 14.9341Z" fill="url(#paint15_linear_6265_27816)"/>
<path d="M8.85143 14.6044C7.92573 14.6044 7.15927 13.8677 7 12.4922C7.00663 12.7693 7.02653 13.0547 7.0531 13.3367C7.17917 14.7288 7.93237 15.4705 8.84313 15.4705C9.7274 15.4705 10.2997 14.8051 10.2898 13.1907C10.1007 14.1813 9.57477 14.6044 8.85143 14.6044Z" fill="url(#paint16_linear_6265_27816)"/>
<path d="M10.288 12.8719C10.1985 11.1032 9.82187 10.5158 8.53613 10.4644C9.2097 10.5755 10.5137 13.1705 8.71863 15.4569C8.7601 15.4603 8.79993 15.4702 8.84307 15.4702C9.78537 15.4702 10.3809 14.7269 10.288 12.8719Z" fill="url(#paint17_linear_6265_27816)"/>
<path d="M17.1131 17.4081C17.0716 16.4175 15.8556 15.4286 14.8453 15.5315C13.9726 15.6211 12.3933 15.7389 11.6865 15.0918C11.7761 16.1188 12.6935 16.8306 13.3605 16.8306C14.0622 16.8306 15.1157 16.6581 15.6084 16.8721C16.7631 17.3716 16.5623 19.0573 16.5623 19.0573C16.5623 19.0573 17.1546 18.3986 17.1131 17.4081Z" fill="url(#paint18_linear_6265_27816)"/>
<path d="M21.1328 17.5939C21.1129 15.8202 19.4539 14.8329 17.6887 14.1493C16.1425 13.552 14.9282 13.844 13.8117 13.9436C12.6205 14.0498 12.0017 14.0929 11.7744 14.4712C13.2426 14.1079 14.6163 13.9602 16.3118 14.1543C18.5199 14.4065 20.1905 15.7687 20.4941 16.8091C20.7944 17.8378 20.7496 19.7542 20.7496 19.8006C21.035 18.8781 21.1395 18.0601 21.1328 17.5939Z" fill="url(#paint19_linear_6265_27816)"/>
<path d="M16.5606 19.0574C16.5888 18.6559 16.5556 18.2461 16.4279 17.8661C16.3051 17.4895 16.0629 17.1328 15.7062 16.9569C15.3595 16.7628 14.9331 16.7993 14.5383 16.8076C14.1368 16.8241 13.737 16.8706 13.3272 16.8689C12.4878 16.7959 11.8059 16.0808 11.6517 15.2728C11.6135 15.0704 11.6035 14.8613 11.645 14.6506C11.6882 14.4398 11.8507 14.2474 12.0482 14.1694C12.438 14.0035 12.8495 13.9836 13.2493 13.9354C14.0555 13.8857 14.8485 13.7413 15.6631 13.7363C16.4777 13.7247 17.2889 13.9139 18.0272 14.2441C18.7687 14.5593 19.502 14.931 20.1125 15.4702C20.723 16.0012 21.1461 16.7793 21.1311 17.5957C21.1245 16.7777 20.6882 16.0227 20.0744 15.5134C19.4672 14.9874 18.7372 14.624 17.9973 14.3171C17.2607 13.9952 16.4661 13.8193 15.6631 13.8359C14.8635 13.8458 14.0622 13.9985 13.2592 14.0533C12.8627 14.0964 12.4496 14.118 12.093 14.2673C11.9138 14.3403 11.7894 14.4896 11.7446 14.6738C11.7047 14.8596 11.7114 15.0621 11.7462 15.2545C11.8789 16.0194 12.5425 16.718 13.3272 16.7893C13.7254 16.7959 14.1285 16.7511 14.5333 16.7379C14.9298 16.7345 15.3628 16.6947 15.7311 16.9054C16.0994 17.0996 16.3383 17.4729 16.4528 17.8562C16.5755 18.2461 16.5988 18.6576 16.5606 19.0574Z" fill="#975500"/>
<path d="M10.229 12.1782C10.3036 12.7673 10.3783 13.3679 10.287 13.9669C10.2456 14.2639 10.1726 14.5625 10.0282 14.833C9.88891 15.1068 9.64504 15.3324 9.35304 15.4452C8.76081 15.6394 8.07231 15.4569 7.66751 14.9956C7.24448 14.5459 7.08688 13.9254 7.05371 13.3364C7.13334 13.9204 7.31914 14.5161 7.72558 14.9425C8.12044 15.3756 8.77408 15.5249 9.31324 15.3357C9.87398 15.1466 10.1294 14.5244 10.2107 13.9569C10.3036 13.3712 10.2588 12.7722 10.229 12.1782Z" fill="#975500"/>
<path d="M11.851 15.6493C11.6602 15.7124 11.4877 15.6278 11.3284 15.5448C11.1675 15.4602 11.0232 15.344 10.9054 15.2063C10.6665 14.9309 10.5421 14.5841 10.4658 14.2423C10.3977 13.8939 10.3878 13.5488 10.3397 13.2053C10.2982 12.8618 10.2601 12.5151 10.2451 12.1699C10.2899 12.5134 10.3496 12.8552 10.406 13.197C10.4724 13.5371 10.5006 13.8872 10.5819 14.2174C10.6582 14.5476 10.7826 14.8728 11.0049 15.1217C11.1144 15.2461 11.2455 15.349 11.3931 15.4237C11.5391 15.5033 11.7 15.5216 11.851 15.6493Z" fill="#975500"/>
<path d="M12.6162 9.771C12.807 9.8191 12.9928 9.89876 13.1504 10.0249C13.308 10.1526 13.4175 10.3285 13.4987 10.511C13.6613 10.881 13.7045 11.2825 13.7393 11.6758C13.7575 12.0707 13.7592 12.4656 13.7509 12.8588C13.7476 13.0546 13.7526 13.252 13.7426 13.4495C13.736 13.549 13.7343 13.6486 13.7127 13.7481C13.6945 13.8344 13.6497 13.9804 13.5303 13.9705C13.6281 13.9356 13.6248 13.8228 13.648 13.7365C13.6597 13.6419 13.6713 13.5457 13.6696 13.4478C13.6729 13.252 13.6613 13.0579 13.6563 12.8588C13.6447 12.4656 13.6497 12.0723 13.6232 11.6824C13.6016 11.2942 13.5767 10.8993 13.434 10.5392C13.3013 10.1709 12.9928 9.8888 12.6162 9.771Z" fill="#975500"/>
<path d="M13.8849 17.279C12.5926 17.415 11.6685 15.9334 11.6685 15.9334C10.4259 15.5932 10.3745 14.6956 10.3745 14.6956C10.0958 15.19 9.63292 15.779 8.85818 15.779C8.19955 15.779 7.44638 15.429 7.10962 14.7537C7.11792 14.6043 7.13118 14.4533 7.14612 14.3057H7.14112C7.09965 14.7138 7.08805 15.1286 7.09135 15.5268C7.75662 16.2901 8.79845 16.3979 9.46372 16.2005C9.64455 16.1474 10.4856 15.5119 11.136 16.1507C11.8411 16.8426 12.6606 17.7286 14.0674 17.6971C15.4743 17.6656 16.5592 19.0577 16.5592 19.0577C16.4381 18.394 15.4477 17.1147 13.8849 17.279Z" fill="url(#paint20_linear_6265_27816)"/>
<path opacity="0.5" d="M8.12857 17.3237C7.6325 17.9211 9.14053 21.3606 10.6287 22.2267C12.1168 23.0928 13.9831 22.8274 14.3465 22.1388C14.7098 21.4502 13.1619 20.38 11.8978 19.1953C9.7129 17.1512 8.6246 16.7264 8.12857 17.3237Z" fill="url(#paint21_radial_6265_27816)"/>
<path opacity="0.5" d="M20.2606 17.7649C20.5243 17.4099 19.2054 15.2081 18.1536 14.6141C17.1018 14.0201 15.0281 14.3735 14.8605 14.79C14.6929 15.2064 16.6887 15.676 17.6277 16.4625C19.2469 17.8164 19.9968 18.12 20.2606 17.7649Z" fill="url(#paint22_radial_6265_27816)"/>
<path opacity="0.5" d="M11.8691 3.46586C11.7961 3.19873 12.3303 2.74079 12.682 2.64787C13.0337 2.55661 13.3771 2.69765 13.4517 2.96478C13.5247 3.23191 13.1763 3.48079 12.8711 3.70314C12.3452 4.0864 11.9421 3.733 11.8691 3.46586Z" fill="url(#paint23_radial_6265_27816)"/>
<path opacity="0.5" d="M19.2022 2.55668C19.2918 2.27793 19.9637 2.38578 20.2889 2.62471C20.614 2.86364 20.8048 3.28342 20.7152 3.56217C20.6256 3.8409 20.2159 3.7314 19.8542 3.63683C19.2321 3.47589 19.1126 2.83543 19.2022 2.55668Z" fill="url(#paint24_radial_6265_27816)"/>
<path d="M20.4833 15.8853C20.5861 18.1285 20.2461 19.8873 18.3714 21.2545C16.0472 22.9502 16.2363 23.8926 14.0696 23.8926C11.903 23.8926 10.5061 22.7461 9.51572 21.7572C8.52695 20.7683 7.69415 19.1191 7.28602 17.863C7.24455 17.7369 7.19975 17.6241 7.15332 17.5146C7.39552 22.0841 9.24862 24.8334 14.5143 24.8334C19.9159 24.8334 21.1519 19.1821 21.1336 17.5959C21.127 16.9189 20.8814 16.3598 20.4833 15.8853Z" fill="url(#paint25_linear_6265_27816)"/>
<defs>
<linearGradient id="paint0_linear_6265_27816" x1="15.2545" y1="17.4185" x2="15.2545" y2="10.7368" gradientUnits="userSpaceOnUse">
<stop offset="0.00132565" stop-color="#D2A374"/>
<stop offset="1" stop-color="#DEBA94"/>
</linearGradient>
<linearGradient id="paint1_linear_6265_27816" x1="18.6367" y1="17.4186" x2="18.6367" y2="10.7369" gradientUnits="userSpaceOnUse">
<stop offset="0.00132565" stop-color="#D2A374"/>
<stop offset="1" stop-color="#DEBA94"/>
</linearGradient>
<linearGradient id="paint2_linear_6265_27816" x1="7.4878" y1="17.102" x2="20.5683" y2="17.102" gradientUnits="userSpaceOnUse">
<stop offset="0.00132565" stop-color="#D2A374"/>
<stop offset="1" stop-color="#DEBA94"/>
</linearGradient>
<linearGradient id="paint3_linear_6265_27816" x1="12.3726" y1="17.4183" x2="12.3726" y2="10.7367" gradientUnits="userSpaceOnUse">
<stop offset="0.00132565" stop-color="#D2A374"/>
<stop offset="1" stop-color="#DEBA94"/>
</linearGradient>
<linearGradient id="paint4_linear_6265_27816" x1="13.9748" y1="17.4188" x2="13.9748" y2="10.7371" gradientUnits="userSpaceOnUse">
<stop offset="0.00132565" stop-color="#D2A374"/>
<stop offset="1" stop-color="#DEBA94"/>
</linearGradient>
<linearGradient id="paint5_linear_6265_27816" x1="8.41313" y1="24.4797" x2="12.4567" y2="15.4788" gradientUnits="userSpaceOnUse">
<stop stop-color="#D2A374" stop-opacity="0"/>
<stop offset="1" stop-color="#B88653"/>
</linearGradient>
<linearGradient id="paint6_linear_6265_27816" x1="11.37" y1="4.21377" x2="15.5613" y2="18.0548" gradientUnits="userSpaceOnUse">
<stop stop-color="#D2A374" stop-opacity="0"/>
<stop offset="1" stop-color="#B88653"/>
</linearGradient>
<linearGradient id="paint7_linear_6265_27816" x1="10.0326" y1="-12.4112" x2="45.4507" y2="65.9708" gradientUnits="userSpaceOnUse">
<stop stop-color="#D2A374" stop-opacity="0"/>
<stop offset="1" stop-color="#B88653"/>
</linearGradient>
<linearGradient id="paint8_linear_6265_27816" x1="16.3313" y1="-1.05961" x2="16.3313" y2="26.6295" gradientUnits="userSpaceOnUse">
<stop stop-color="#D2A374" stop-opacity="0"/>
<stop offset="1" stop-color="#B88653"/>
</linearGradient>
<linearGradient id="paint9_linear_6265_27816" x1="8.66358" y1="12.5312" x2="8.66358" y2="18.2622" gradientUnits="userSpaceOnUse">
<stop offset="0.00132565" stop-color="#D2A374"/>
<stop offset="1" stop-color="#DEBA94"/>
</linearGradient>
<linearGradient id="paint10_linear_6265_27816" x1="11.9608" y1="12.5313" x2="11.9608" y2="18.2623" gradientUnits="userSpaceOnUse">
<stop offset="0.00132565" stop-color="#D2A374"/>
<stop offset="1" stop-color="#DEBA94"/>
</linearGradient>
<linearGradient id="paint11_linear_6265_27816" x1="12.0408" y1="12.3881" x2="12.0408" y2="19.9822" gradientUnits="userSpaceOnUse">
<stop stop-color="#D2A374" stop-opacity="0"/>
<stop offset="1" stop-color="#B88653"/>
</linearGradient>
<linearGradient id="paint12_linear_6265_27816" x1="8.66793" y1="13.3661" x2="8.66793" y2="8.96665" gradientUnits="userSpaceOnUse">
<stop offset="0.00132565" stop-color="#D2A374"/>
<stop offset="1" stop-color="#DEBA94"/>
</linearGradient>
<linearGradient id="paint13_linear_6265_27816" x1="11.9497" y1="13.3661" x2="11.9497" y2="8.96666" gradientUnits="userSpaceOnUse">
<stop offset="0.00132565" stop-color="#D2A374"/>
<stop offset="1" stop-color="#DEBA94"/>
</linearGradient>
<linearGradient id="paint14_linear_6265_27816" x1="9.74323" y1="11.3152" x2="23.8727" y2="19.3408" gradientUnits="userSpaceOnUse">
<stop stop-color="#D2A374" stop-opacity="0"/>
<stop offset="1" stop-color="#B88653"/>
</linearGradient>
<linearGradient id="paint15_linear_6265_27816" x1="7.4882" y1="19.3082" x2="20.5687" y2="19.3082" gradientUnits="userSpaceOnUse">
<stop offset="0.00132565" stop-color="#D2A374"/>
<stop offset="1" stop-color="#DEBA94"/>
</linearGradient>
<linearGradient id="paint16_linear_6265_27816" x1="8.61353" y1="12.3863" x2="9.00563" y2="18.8861" gradientUnits="userSpaceOnUse">
<stop stop-color="#D2A374" stop-opacity="0"/>
<stop offset="1" stop-color="#B88653"/>
</linearGradient>
<linearGradient id="paint17_linear_6265_27816" x1="5.17753" y1="10.5777" x2="26.9833" y2="24.422" gradientUnits="userSpaceOnUse">
<stop stop-color="#D2A374" stop-opacity="0"/>
<stop offset="1" stop-color="#B88653"/>
</linearGradient>
<linearGradient id="paint18_linear_6265_27816" x1="13.4955" y1="19.1668" x2="15.778" y2="12.4381" gradientUnits="userSpaceOnUse">
<stop stop-color="#D2A374" stop-opacity="0"/>
<stop offset="1" stop-color="#B88653"/>
</linearGradient>
<linearGradient id="paint19_linear_6265_27816" x1="14.3513" y1="13.4512" x2="23.992" y2="22.7366" gradientUnits="userSpaceOnUse">
<stop offset="0.3118" stop-color="#F0C492" stop-opacity="0"/>
<stop offset="1" stop-color="#E6AF74"/>
</linearGradient>
<linearGradient id="paint20_linear_6265_27816" x1="10.9079" y1="19.5634" x2="13.9088" y2="10.4074" gradientUnits="userSpaceOnUse">
<stop stop-color="#D2A374" stop-opacity="0"/>
<stop offset="1" stop-color="#B88653"/>
</linearGradient>
<radialGradient id="paint21_radial_6265_27816" cx="0" cy="0" r="1" gradientUnits="userSpaceOnUse" gradientTransform="translate(11.0753 20.2942) rotate(-138.963) scale(4.33457 1.9778)">
<stop stop-color="#E9CDB1"/>
<stop offset="1" stop-color="#E9CDB1" stop-opacity="0"/>
</radialGradient>
<radialGradient id="paint22_radial_6265_27816" cx="0" cy="0" r="1" gradientUnits="userSpaceOnUse" gradientTransform="translate(17.7282 15.6236) rotate(38.2192) scale(3.3423 1.23066)">
<stop stop-color="#E9CDB1"/>
<stop offset="1" stop-color="#E9CDB1" stop-opacity="0"/>
</radialGradient>
<radialGradient id="paint23_radial_6265_27816" cx="0" cy="0" r="1" gradientUnits="userSpaceOnUse" gradientTransform="translate(12.6587 3.24466) rotate(165.356) scale(0.824395 0.48402)">
<stop stop-color="#E9CDB1"/>
<stop offset="1" stop-color="#E9CDB1" stop-opacity="0"/>
</radialGradient>
<radialGradient id="paint24_radial_6265_27816" cx="0" cy="0" r="1" gradientUnits="userSpaceOnUse" gradientTransform="translate(19.9458 3.07505) rotate(-143.693) scale(0.915984 0.486877)">
<stop stop-color="#E9CDB1"/>
<stop offset="1" stop-color="#E9CDB1" stop-opacity="0"/>
</radialGradient>
<linearGradient id="paint25_linear_6265_27816" x1="14.1444" y1="14.0916" x2="14.1444" y2="46.3246" gradientUnits="userSpaceOnUse">
<stop stop-color="#D2A374" stop-opacity="0"/>
<stop offset="1" stop-color="#B88653"/>
</linearGradient>
</defs>
</svg>
