<svg width="40" height="40" viewBox="0 0 40 40" fill="none" xmlns="http://www.w3.org/2000/svg">
<path fill-rule="evenodd" clip-rule="evenodd" d="M22 12.75C21.3096 12.75 20.75 13.3096 20.75 14C20.75 14.6904 21.3096 15.25 22 15.25C22.6904 15.25 23.25 14.6904 23.25 14C23.25 13.3096 22.6904 12.75 22 12.75ZM19.25 14C19.25 12.4812 20.4812 11.25 22 11.25C23.5188 11.25 24.75 12.4812 24.75 14C24.75 15.5188 23.5188 16.75 22 16.75C20.4812 16.75 19.25 15.5188 19.25 14Z" fill="#121212"/>
<path fill-rule="evenodd" clip-rule="evenodd" d="M11.25 14C11.25 13.5858 11.5858 13.25 12 13.25H20C20.4142 13.25 20.75 13.5858 20.75 14C20.75 14.4142 20.4142 14.75 20 14.75H12C11.5858 14.75 11.25 14.4142 11.25 14Z" fill="#121212"/>
<path fill-rule="evenodd" clip-rule="evenodd" d="M23.25 14C23.25 13.5858 23.5858 13.25 24 13.25H28C28.4142 13.25 28.75 13.5858 28.75 14C28.75 14.4142 28.4142 14.75 28 14.75H24C23.5858 14.75 23.25 14.4142 23.25 14Z" fill="#121212"/>
<path fill-rule="evenodd" clip-rule="evenodd" d="M16 18.75C15.3096 18.75 14.75 19.3096 14.75 20C14.75 20.6904 15.3096 21.25 16 21.25C16.6904 21.25 17.25 20.6904 17.25 20C17.25 19.3096 16.6904 18.75 16 18.75ZM13.25 20C13.25 18.4812 14.4812 17.25 16 17.25C17.5188 17.25 18.75 18.4812 18.75 20C18.75 21.5188 17.5188 22.75 16 22.75C14.4812 22.75 13.25 21.5188 13.25 20Z" fill="#121212"/>
<path fill-rule="evenodd" clip-rule="evenodd" d="M11.25 20C11.25 19.5858 11.5858 19.25 12 19.25H14C14.4142 19.25 14.75 19.5858 14.75 20C14.75 20.4142 14.4142 20.75 14 20.75H12C11.5858 20.75 11.25 20.4142 11.25 20Z" fill="#121212"/>
<path fill-rule="evenodd" clip-rule="evenodd" d="M17.25 20C17.25 19.5858 17.5858 19.25 18 19.25H28C28.4142 19.25 28.75 19.5858 28.75 20C28.75 20.4142 28.4142 20.75 28 20.75H18C17.5858 20.75 17.25 20.4142 17.25 20Z" fill="#121212"/>
<path fill-rule="evenodd" clip-rule="evenodd" d="M25 24.75C24.3096 24.75 23.75 25.3096 23.75 26C23.75 26.6904 24.3096 27.25 25 27.25C25.6904 27.25 26.25 26.6904 26.25 26C26.25 25.3096 25.6904 24.75 25 24.75ZM22.25 26C22.25 24.4812 23.4812 23.25 25 23.25C26.5188 23.25 27.75 24.4812 27.75 26C27.75 27.5188 26.5188 28.75 25 28.75C23.4812 28.75 22.25 27.5188 22.25 26Z" fill="#121212"/>
<path fill-rule="evenodd" clip-rule="evenodd" d="M11.25 26C11.25 25.5858 11.5858 25.25 12 25.25H23C23.4142 25.25 23.75 25.5858 23.75 26C23.75 26.4142 23.4142 26.75 23 26.75H12C11.5858 26.75 11.25 26.4142 11.25 26Z" fill="#121212"/>
<path fill-rule="evenodd" clip-rule="evenodd" d="M26.25 26C26.25 25.5858 26.5858 25.25 27 25.25H28C28.4142 25.25 28.75 25.5858 28.75 26C28.75 26.4142 28.4142 26.75 28 26.75H27C26.5858 26.75 26.25 26.4142 26.25 26Z" fill="#121212"/>
</svg>
