<svg width="44" height="30" viewBox="0 0 44 30" fill="none" xmlns="http://www.w3.org/2000/svg">
<rect x="0.75" y="0.563965" width="42.5" height="28.5" rx="6.25" stroke="#DDE2E5" stroke-width="0.5"/>
<path d="M30.0674 18.9475L27.4591 12.8558C26.5758 10.7892 24.9508 10.7058 23.8591 12.6725L22.2841 15.5142C21.4841 16.9558 19.9924 17.0808 18.9591 15.7892L18.7758 15.5558C17.7008 14.2058 16.1841 14.3725 15.4091 15.9142L13.9758 18.7892C12.9674 20.7892 14.4258 23.1475 16.6591 23.1475H27.2924C29.4591 23.1475 30.9174 20.9392 30.0674 18.9475Z" stroke="#292D32" stroke-width="1.5" stroke-linecap="round" stroke-linejoin="round"/>
<path d="M17.8086 11.4805C19.1893 11.4805 20.3086 10.3612 20.3086 8.98047C20.3086 7.59976 19.1893 6.48047 17.8086 6.48047C16.4279 6.48047 15.3086 7.59976 15.3086 8.98047C15.3086 10.3612 16.4279 11.4805 17.8086 11.4805Z" stroke="#292D32" stroke-width="1.5" stroke-linecap="round" stroke-linejoin="round"/>
</svg>
