<svg width="32" height="33" viewBox="0 0 32 33" fill="none" xmlns="http://www.w3.org/2000/svg">
<path fill-rule="evenodd" clip-rule="evenodd" d="M2.66675 16.4991C2.66675 9.14044 8.64008 3.16577 16.0001 3.16577C23.3734 3.16577 29.3334 9.14044 29.3334 16.4991C29.3334 23.8604 23.3734 29.8324 16.0001 29.8324C8.64008 29.8324 2.66675 23.8604 2.66675 16.4991ZM14.8267 11.4458C14.8267 10.8071 15.3601 10.2724 16.0001 10.2724C16.6401 10.2724 17.1601 10.8071 17.1601 11.4458V17.3391C17.1601 17.9804 16.6401 18.4991 16.0001 18.4991C15.3601 18.4991 14.8267 17.9804 14.8267 17.3391V11.4458ZM16.0134 22.7404C15.3601 22.7404 14.8401 22.2071 14.8401 21.5671C14.8401 20.9271 15.3601 20.4071 16.0001 20.4071C16.6534 20.4071 17.1734 20.9271 17.1734 21.5671C17.1734 22.2071 16.6534 22.7404 16.0134 22.7404Z" fill="#FFB020"/>
</svg>
