<svg width="109" height="38" viewBox="0 0 109 38" fill="none" xmlns="http://www.w3.org/2000/svg">
<path fill-rule="evenodd" clip-rule="evenodd" d="M36.8137 37.3911V18.6865C36.8137 8.39903 36.7215 -0.00982151 36.6086 8.60995e-06C36.4957 0.00983873 34.9576 0.520188 33.1907 1.13375L29.9778 2.24947V37.3911H36.8137ZM48.2979 11.4505V7.35458C48.2979 5.10185 48.2057 3.27344 48.0928 3.29119C47.9799 3.30921 47.5186 3.46622 47.0674 3.63989C46.6162 3.81382 45.2321 4.30069 43.9913 4.72202L41.7355 5.48795V15.7967C41.7355 25.2948 41.7776 26.2336 42.2708 27.7338C44.1111 33.3323 48.6405 37.0877 54.4225 37.8091L55.954 38V34.5554C55.954 31.3147 55.9223 31.1107 55.4175 31.1107C55.1222 31.1107 54.1687 30.8458 53.2984 30.5223C51.6663 29.9153 50.0314 28.5147 49.2951 27.0924C48.6861 25.9166 48.2979 23.3679 48.2979 20.5477V18.0039H55.954V11.4505H48.2979ZM64.9773 37.3911V24.0112C64.9773 16.6522 64.9464 10.64 64.9089 10.6507C64.8715 10.6613 63.3334 11.1739 61.491 11.7896L58.1414 12.9094V37.3911H64.9773ZM84.391 17.6688V10.9043L83.5024 10.9322C78.9489 11.0758 73.6675 14.3514 71.3674 18.4588C69.4993 21.7948 69.3522 22.6702 69.3522 30.4524V37.3911H76.188L76.1908 30.7694C76.1932 24.388 76.2167 24.0975 76.8382 22.7647C78.1226 20.0103 80.383 18.269 83.227 17.8431L84.391 17.6688ZM25.9775 36.7767C26.2594 35.7265 26.1719 12.6361 25.8832 11.8778C25.6182 11.1818 25.5963 11.1774 22.4653 11.1774H19.3139V11.892C19.3139 12.1461 19.3208 12.3188 19.2379 12.4098C19.0621 12.6026 18.4829 12.4285 16.5796 11.8857C14.516 11.2973 11.0281 11.3257 9.1447 11.9461C5.12058 13.2718 2.22356 16.0605 0.651318 20.1217C-0.217106 22.3644 -0.217106 26.7502 0.651318 28.9929C1.7486 31.8272 3.18905 33.6447 5.7678 35.4485C8.7474 37.5328 13.0367 38.2392 16.5796 37.2289C19.2032 36.4804 19.3139 36.4692 19.3139 36.9495C19.3139 37.3316 19.7531 37.3911 22.5632 37.3911C25.7019 37.3911 25.8181 37.3701 25.9775 36.7767ZM108.494 20.6526C107.052 16.2861 103.798 13.1489 99.4692 11.9502C93.0679 10.1777 86.2717 13.6177 83.7977 19.8828C82.8866 22.1899 82.8997 26.7803 83.8239 29.0628C85.6212 33.5011 89.3402 36.5353 94.0298 37.3897C97.1259 37.9538 100.443 37.2076 103.321 35.2994C104.333 34.6285 105.237 33.9576 105.329 33.8085C105.474 33.5734 101.388 29.4871 100.768 29.2476C100.643 29.199 100.136 29.4628 99.6431 29.8339C98.2645 30.871 96.0743 31.2213 94.286 30.691C92.9388 30.2915 90.68 28.6529 90.68 28.0754C90.68 27.9405 94.7197 27.834 99.84 27.834H109V25.0092C109 22.994 108.855 21.7453 108.494 20.6526ZM90.68 21.0493C90.68 20.4286 92.5637 18.8665 93.8748 18.3995C96.112 17.6028 98.8616 18.1948 100.592 19.8459C102.029 21.217 101.825 21.2806 96.0119 21.2806C93.0794 21.2806 90.68 21.1766 90.68 21.0493ZM6.73603 24.5573C6.73603 22.2469 8.33971 19.7321 10.4121 18.7919C11.7349 18.192 14.3049 18.1186 15.563 18.645C18.0171 19.6723 19.4124 21.8152 19.4124 24.5573C19.4124 27.129 18.5057 28.7015 16.1941 30.1394C15.0213 30.8691 12.2263 31.0244 10.7065 30.4447C8.5035 29.6045 6.73603 26.9837 6.73603 24.5573Z" fill="#3E1C01"/>
</svg>
