<svg width="20" height="20" viewBox="0 0 20 20" fill="none" xmlns="http://www.w3.org/2000/svg">
<path d="M10.0353 11.1315L9.99992 11.0961L9.96456 11.1315L5.88123 15.2148C5.73874 15.3573 5.55746 15.4293 5.33325 15.4293C5.10905 15.4293 4.92776 15.3573 4.78527 15.2148C4.64279 15.0723 4.57075 14.891 4.57075 14.6668C4.57075 14.4426 4.64279 14.2613 4.78527 14.1189L8.86861 10.0355L8.90396 10.0002L8.86861 9.96481L4.78527 5.88147C4.64279 5.73899 4.57075 5.5577 4.57075 5.3335C4.57075 5.10929 4.64279 4.928 4.78527 4.78552C4.92776 4.64303 5.10905 4.571 5.33325 4.571C5.55746 4.571 5.73875 4.64303 5.88123 4.78552L9.96456 8.86885L9.99992 8.90421L10.0353 8.86885L14.1186 4.78552C14.2611 4.64303 14.4424 4.571 14.6666 4.571C14.8908 4.571 15.0721 4.64303 15.2146 4.78552C15.357 4.928 15.4291 5.10929 15.4291 5.3335C15.4291 5.5577 15.357 5.73899 15.2146 5.88147L11.1312 9.96481L11.0959 10.0002L11.1312 10.0355L15.2146 14.1189C15.357 14.2613 15.4291 14.4426 15.4291 14.6668C15.4291 14.891 15.357 15.0723 15.2146 15.2148C15.0721 15.3573 14.8908 15.4293 14.6666 15.4293C14.4424 15.4293 14.2611 15.3573 14.1186 15.2148L10.0353 11.1315Z" fill="#ffffff" stroke="#F2F2F2" stroke-width="0.1"/>
</svg>
