<svg width="20" height="20" viewBox="0 0 20 20" fill="none" xmlns="http://www.w3.org/2000/svg">
<path d="M17.1992 6.59996H2.79922C2.47122 6.59996 2.19922 6.32796 2.19922 5.99996C2.19922 5.67196 2.47122 5.39996 2.79922 5.39996H17.1992C17.5272 5.39996 17.7992 5.67196 17.7992 5.99996C17.7992 6.32796 17.5272 6.59996 17.1992 6.59996Z" fill="white"/>
<path d="M17.1992 10.6H2.79922C2.47122 10.6 2.19922 10.328 2.19922 9.99996C2.19922 9.67196 2.47122 9.39996 2.79922 9.39996H17.1992C17.5272 9.39996 17.7992 9.67196 17.7992 9.99996C17.7992 10.328 17.5272 10.6 17.1992 10.6Z" fill="white"/>
<path d="M17.1992 14.6H2.79922C2.47122 14.6 2.19922 14.328 2.19922 14C2.19922 13.672 2.47122 13.4 2.79922 13.4H17.1992C17.5272 13.4 17.7992 13.672 17.7992 14C17.7992 14.328 17.5272 14.6 17.1992 14.6Z" fill="white"/>
</svg>
