<svg width="20" height="20" viewBox="0 0 20 20" fill="none" xmlns="http://www.w3.org/2000/svg">
<path d="M7.7998 4.39922C7.7998 3.18322 8.7838 2.19922 9.9998 2.19922C11.2158 2.19922 12.1998 3.18322 12.1998 4.39922C12.1998 5.61522 11.2158 6.59922 9.9998 6.59922C8.7838 6.59922 7.7998 5.61522 7.7998 4.39922ZM10.9998 4.39922C10.9998 3.84722 10.5518 3.39922 9.9998 3.39922C9.4478 3.39922 8.9998 3.84722 8.9998 4.39922C8.9998 4.95122 9.4478 5.39922 9.9998 5.39922C10.5518 5.39922 10.9998 4.95122 10.9998 4.39922Z" fill="#25396F"/>
<path d="M7.7998 15.5994C7.7998 14.3834 8.7838 13.3994 9.9998 13.3994C11.2158 13.3994 12.1998 14.3834 12.1998 15.5994C12.1998 16.8154 11.2158 17.7994 9.9998 17.7994C8.7838 17.7994 7.7998 16.8154 7.7998 15.5994ZM10.9998 15.5994C10.9998 15.0474 10.5518 14.5994 9.9998 14.5994C9.4478 14.5994 8.9998 15.0474 8.9998 15.5994C8.9998 16.1514 9.4478 16.5994 9.9998 16.5994C10.5518 16.5994 10.9998 16.1514 10.9998 15.5994Z" fill="#25396F"/>
<path d="M7.7998 9.9998C7.7998 8.7838 8.7838 7.7998 9.9998 7.7998C11.2158 7.7998 12.1998 8.7838 12.1998 9.9998C12.1998 11.2158 11.2158 12.1998 9.9998 12.1998C8.7838 12.1998 7.7998 11.2158 7.7998 9.9998ZM10.9998 9.9998C10.9998 9.4478 10.5518 8.9998 9.9998 8.9998C9.4478 8.9998 8.9998 9.4478 8.9998 9.9998C8.9998 10.5518 9.4478 10.9998 9.9998 10.9998C10.5518 10.9998 10.9998 10.5518 10.9998 9.9998Z" fill="#25396F"/>
</svg>
