<svg width="25" height="24" viewBox="0 0 25 24" fill="none" xmlns="http://www.w3.org/2000/svg">
<path d="M12.437 6.43994V9.76994" stroke="#121212" stroke-width="1.5" stroke-miterlimit="10" stroke-linecap="round"/>
<path d="M12.4575 2C8.67933 2 5.61983 4.98 5.61983 8.66V10.76C5.61983 11.44 5.33236 12.46 4.97302 13.04L3.66914 15.16C2.86833 16.47 3.42274 17.93 4.90115 18.41C9.80868 20 15.1166 20 20.0241 18.41C21.4101 17.96 22.0056 16.38 21.2561 15.16L19.9523 13.04C19.5929 12.46 19.3055 11.43 19.3055 10.76V8.66C19.2952 5 16.2152 2 12.4575 2Z" stroke="#121212" stroke-width="1.5" stroke-miterlimit="10" stroke-linecap="round"/>
<path d="M15.856 18.8199C15.856 20.6499 14.316 22.1499 12.4372 22.1499C11.5029 22.1499 10.6405 21.7699 10.0245 21.1699C9.40845 20.5699 9.01831 19.7299 9.01831 18.8199" stroke="#121212" stroke-width="1.5" stroke-miterlimit="10"/>
</svg>
