<svg width="204" height="43" viewBox="0 0 204 43" fill="none" xmlns="http://www.w3.org/2000/svg">
<g clip-path="url(#clip0_6600_69814)">
<path fill-rule="evenodd" clip-rule="evenodd" d="M92.2665 0.728124C92.0873 1.00043 91.5259 1.40287 91.0189 1.62274C90.5116 1.84239 90.0674 2.04077 90.0315 2.0633C89.9957 2.08605 90.1021 2.42848 90.2684 2.82419C90.5645 3.53011 90.5089 3.7127 87.3738 12.3238L84.1772 21.1037H83.171C82.6174 21.1037 82.1646 21.1985 82.1646 21.3143C82.1646 21.4447 83.2926 21.5249 85.1259 21.5249C88.3536 21.5249 89.2835 21.1612 86.3162 21.0593L84.5453 20.9984L85.9712 17.1024L87.3973 13.2064L90.7818 13.1487L94.1662 13.091L95.6539 17.0447L97.1415 20.9984L95.6816 21.0604C94.8786 21.0943 94.2216 21.2128 94.2216 21.3236C94.2216 21.4449 95.9066 21.5249 98.4646 21.5249C101.239 21.5249 102.662 21.4521 102.576 21.3143C102.505 21.1985 102.042 21.1037 101.549 21.1037H100.653L96.7686 10.8372C94.6322 5.19066 92.8185 0.494572 92.7382 0.40191C92.658 0.309037 92.4456 0.455823 92.2665 0.728124ZM2.84184 0.639252C2.84184 0.745393 3.29472 0.891968 3.84849 0.965255L4.85494 1.09814L5.3973 2.49608L5.93944 3.89402L4.71047 12.3408C4.03443 16.9868 3.48023 20.859 3.47874 20.9458C3.47748 21.0326 2.8577 21.1037 2.10149 21.1037C1.32582 21.1037 0.726562 21.1956 0.726562 21.3143C0.726562 21.4462 2.03507 21.5249 4.22924 21.5249C6.51056 21.5249 7.68644 21.4514 7.6012 21.3143C7.52928 21.1985 6.6544 21.1037 5.65705 21.1037H3.84384L3.95214 20.314C5.21898 11.0886 6.14568 4.88782 6.25716 4.88782C6.33457 4.88782 6.55097 5.33787 6.73774 5.88816C8.00458 9.61951 12.6736 21.7159 12.7957 21.5831C12.9503 21.4144 19.0283 3.42649 19.184 2.67656C19.2456 2.38046 19.3099 2.47439 19.401 2.99246C19.5375 3.76998 21.2593 20.3888 21.25 20.8405C21.2464 21.0254 20.8073 21.1037 19.7765 21.1037C18.9689 21.1037 18.2643 21.1747 18.2104 21.2617C18.1564 21.3485 21.625 21.4316 25.9186 21.4464C30.212 21.4611 33.7248 21.3937 33.7248 21.2964C33.7248 21.1991 32.8914 21.0924 31.8729 21.0591L30.021 20.9984L31.1854 12.7338L32.3499 4.46916L35.4995 12.9444C37.2319 17.6057 38.7177 21.4963 38.8015 21.59C39.0392 21.8566 45.4807 2.82966 45.3176 2.34255C45.2808 2.23283 44.1709 5.37304 42.851 9.32088C41.5312 13.2687 40.4167 16.4641 40.3742 16.422C40.2481 16.2962 34.7825 1.66865 34.7825 1.45678C34.7825 1.34959 35.0145 1.32011 35.2984 1.39087C35.582 1.46184 35.8663 1.43573 35.93 1.33317C35.9939 1.2304 35.2144 1.08277 34.198 1.00485C33.1814 0.926927 31.5958 0.774244 30.674 0.665576C28.4098 0.39854 28.1872 0.574809 30.2268 1.01959C31.012 1.1908 31.0985 1.28684 31.5867 2.52956L32.1079 3.85695L30.8591 12.4866L29.61 21.1164L27.1817 21.0574L24.7533 20.9984L23.6468 11.6269C23.0385 6.47256 22.5346 2.0016 22.5272 1.69139C22.5147 1.16343 22.5881 1.11815 23.6773 0.982735C24.3171 0.903129 24.8407 0.745814 24.8407 0.633145C24.8407 0.514368 24.5069 0.481094 24.0475 0.55396C23.1379 0.698219 18.6429 1.09267 17.8778 1.09519C17.5967 1.09625 17.4343 1.16427 17.5168 1.2464C17.5993 1.32854 18.0433 1.36876 18.5033 1.3357C19.122 1.29126 19.3162 1.34833 19.2485 1.55492C17.2335 7.69655 14.394 16.2025 14.3119 16.3428C14.2281 16.4862 9.29955 3.73207 8.63239 1.64506C8.52028 1.29442 8.58544 1.26157 9.16354 1.37655C9.54048 1.45173 9.82224 1.41993 9.82224 1.30242C9.82224 1.18954 9.60796 1.09709 9.3463 1.09688C8.65566 1.09667 4.3367 0.700325 3.5293 0.563016C3.15109 0.498784 2.84184 0.533111 2.84184 0.639252ZM48.849 0.683056C48.0346 0.772981 46.5288 0.911764 45.5024 0.991791C44.4761 1.07182 43.696 1.19649 43.7688 1.26894C43.8413 1.34138 44.2193 1.37318 44.6087 1.3397C45.2799 1.2822 45.3235 1.32095 45.4464 2.0831C45.5433 2.68393 47.4741 20.7438 47.4741 21.0486C47.4741 21.0789 46.7602 21.1037 45.8876 21.1037C45.0151 21.1037 44.3012 21.1878 44.3012 21.2905C44.3012 21.3935 46.3365 21.474 48.8423 21.47C51.3398 21.466 53.3332 21.3819 53.2718 21.2832C53.2105 21.1846 52.6425 21.1037 52.0094 21.1037C51.1011 21.1037 50.8585 21.0336 50.8585 20.7708C50.8585 20.3416 48.7864 2.43901 48.6495 1.68591C48.5489 1.13078 48.5781 1.11288 49.8081 0.974311C50.5021 0.895969 51.0701 0.749605 51.0701 0.648729C51.0701 0.446556 50.984 0.44782 48.849 0.683056ZM63.6559 0.886492C63.7278 1.00232 64.4948 1.09709 65.3606 1.09709H66.9346V11.1004V21.1037H65.3606C64.4948 21.1037 63.7278 21.1985 63.6559 21.3143C63.5696 21.4533 66.4375 21.5249 72.1005 21.5249H80.6758L80.782 21.0511C81.1685 19.3274 81.762 15.7891 81.6787 15.7062C81.6235 15.6512 80.7112 16.7855 79.6512 18.2268C78.5912 19.6683 77.5729 20.9052 77.3887 20.9757C77.2042 21.046 75.538 21.1037 73.6861 21.1037H70.319V13.0282C70.319 8.58653 70.3808 4.08503 70.4565 3.02489L70.5938 1.09709H72.1363C72.9845 1.09709 73.7373 1.00232 73.8092 0.886492C73.8951 0.748341 72.1502 0.675896 68.7326 0.675896C65.3149 0.675896 63.57 0.748341 63.6559 0.886492ZM103.528 0.883965C103.528 1.0099 104.22 1.09709 105.221 1.09709H106.913V11.1004V21.1037H105.221C104.29 21.1037 103.528 21.1888 103.528 21.2926C103.528 21.399 105.884 21.4835 108.924 21.486C112.147 21.4885 114.271 21.4125 114.2 21.2971C114.134 21.1907 113.229 21.1037 112.188 21.1037H110.297V16.1547V11.2057H113.669H117.04L117.159 12.1007C117.224 12.5931 117.309 13.3748 117.348 13.8382C117.386 14.3015 117.42 13.0221 117.422 10.9951C117.424 8.96813 117.392 7.59399 117.351 7.94148C117.31 8.28896 117.222 9.07069 117.156 9.6789L117.036 10.7845H113.666H110.297V5.94081V1.09709H113.378C115.133 1.09709 116.639 1.1927 116.876 1.31906C117.105 1.4412 118.064 2.50745 119.006 3.68827C119.949 4.86929 120.801 5.86689 120.9 5.90501C121 5.94333 121.03 5.70641 120.968 5.37851C120.905 5.05083 120.689 3.88223 120.488 2.78186L120.122 0.781194L111.825 0.726018C106.335 0.689584 103.528 0.743076 103.528 0.883965ZM122.037 0.886492C122.109 1.00232 122.876 1.09709 123.742 1.09709H125.316V11.1004V21.1037H123.742C122.876 21.1037 122.109 21.1985 122.037 21.3143C121.951 21.4533 124.815 21.5249 130.471 21.5249C138.447 21.5249 139.044 21.4997 139.143 21.1564C139.413 20.2203 140.16 15.8064 140.065 15.711C140.005 15.652 139.125 16.7499 138.108 18.151C137.09 19.5519 136.087 20.7893 135.878 20.9009C135.668 21.0123 133.967 21.1037 132.098 21.1037H128.7L128.701 14.1014C128.701 10.25 128.764 5.74874 128.839 4.09809L128.977 1.09709H130.519C131.366 1.09709 132.118 1.00232 132.19 0.886492C132.276 0.748341 130.531 0.675896 127.114 0.675896C123.696 0.675896 121.951 0.748341 122.037 0.886492ZM140.651 0.886492C140.723 1.00232 141.49 1.09709 142.356 1.09709H143.93V11.1004V21.1037H142.356C141.49 21.1037 140.723 21.1985 140.651 21.3143C140.565 21.4533 143.457 21.5249 149.169 21.5249H157.818L158.299 18.8794C158.565 17.4244 158.736 16.1893 158.681 16.1345C158.626 16.08 157.842 17.0097 156.939 18.2009C156.035 19.392 155.108 20.5326 154.878 20.7352C154.515 21.0553 153.989 21.1037 150.887 21.1037H147.314V16.1547V11.2057H150.593H153.872L153.887 11.9954C153.896 12.4299 153.979 13.2116 154.073 13.7329C154.187 14.3758 154.243 13.4953 154.244 10.9951C154.246 8.51746 154.189 7.58578 154.071 8.15207C153.975 8.61539 153.891 9.39733 153.884 9.88949L153.872 10.7845H150.593H147.314V5.94081V1.09709H150.459C153.287 1.09709 153.658 1.13963 154.143 1.51996C154.545 1.83438 156.844 4.58309 157.826 5.92333C158.082 6.27187 158.034 5.47602 157.676 3.40101C157.447 2.07594 157.258 0.92082 157.258 0.833843C157.257 0.746867 153.491 0.675896 148.888 0.675896C143.364 0.675896 140.565 0.747499 140.651 0.886492ZM159.16 0.886492C159.16 1.00927 159.86 1.09709 160.836 1.09709H162.512L162.588 8.73121C162.663 16.1646 162.678 16.3986 163.164 17.6289C163.829 19.3118 165.207 20.679 166.881 21.3143C167.891 21.698 168.603 21.8006 170.371 21.8175C173.064 21.8429 174.341 21.4653 175.757 20.2243C177.922 18.327 178.189 16.9868 178.194 7.99413L178.197 1.09709H179.784C180.7 1.09709 181.37 1.00822 181.37 0.886492C181.37 0.754659 180.066 0.675896 177.88 0.675896C175.694 0.675896 174.39 0.754659 174.39 0.886492C174.39 1.00927 175.095 1.09709 176.082 1.09709H177.774V8.00845C177.774 13.5197 177.71 15.1342 177.459 15.9772C176.97 17.6165 176.336 18.3974 174.926 19.0987C173.794 19.6616 173.457 19.7264 171.647 19.7304C169.881 19.7342 169.515 19.6694 168.698 19.2084C168.185 18.9188 167.484 18.3338 167.14 17.9082C166.075 16.5883 165.936 15.4372 165.932 7.88883L165.929 1.09709H167.621C168.608 1.09709 169.313 1.00927 169.313 0.886492C169.313 0.751921 167.48 0.675896 164.237 0.675896C160.993 0.675896 159.16 0.751921 159.16 0.886492ZM182.31 0.866696C182.393 1 183.116 1.09709 184.027 1.09709H185.601V11.1004V21.1037H184.027C183.161 21.1037 182.4 21.1895 182.335 21.2941C182.266 21.4055 184.365 21.4845 187.399 21.4845C190.432 21.4845 192.532 21.4055 192.463 21.2941C192.398 21.1895 191.637 21.1037 190.771 21.1037H189.197V16.1547C189.197 13.274 189.278 11.2057 189.392 11.2057C189.499 11.2057 189.999 11.517 190.502 11.8973C191.358 12.5434 192.565 14.2115 195.398 18.6615C195.958 19.5413 196.656 20.5455 196.95 20.8929L197.484 21.5249H200.122C201.826 21.5249 202.713 21.4504 202.629 21.3143C202.557 21.1985 202.294 21.1037 202.045 21.1037C201.334 21.1037 199.416 18.9458 197.67 16.181C195.805 13.2291 195.045 12.242 194.107 11.5545L193.413 11.0448L194.169 10.9035C196.112 10.5404 197.834 9.31836 198.442 7.8705C198.827 6.95209 198.828 4.72145 198.444 3.80683C198.014 2.78544 196.591 1.59894 195.291 1.17985C194.37 0.882702 193.087 0.801201 188.167 0.727071C183.858 0.661996 182.207 0.701378 182.31 0.866696ZM192.739 1.42098C194.5 2.15386 195.116 3.33173 195.099 5.94081C195.076 9.44492 194.089 10.5602 190.73 10.8763L189.197 11.0206V6.05895V1.09709H190.579C191.343 1.09709 192.308 1.24177 192.739 1.42098ZM92.4105 8.46797L93.979 12.5746L90.8979 12.6331C89.2033 12.6651 87.7791 12.6538 87.7328 12.6076C87.6865 12.5615 88.163 11.1139 88.7917 9.39038C89.4204 7.66686 90.1059 5.73548 90.3151 5.09842C90.5243 4.46137 90.7284 4.03491 90.7689 4.15074C90.809 4.26656 91.5479 6.20932 92.4105 8.46797ZM57.7332 18.1394C56.4775 18.6644 56.0822 20.2439 56.9706 21.1855C57.9273 22.1993 59.4616 22.0451 60.0699 20.874C60.5175 20.0122 60.4504 19.5047 59.7956 18.7979C59.1582 18.1103 58.3895 17.865 57.7332 18.1394ZM114.311 32.1592C113.208 32.5069 112.153 33.4514 111.5 34.6761C111.144 35.3447 111.045 35.8946 111.045 37.2144C111.045 39.119 111.432 40.0892 112.658 41.2555C113.568 42.1204 114.272 42.374 115.766 42.374C118.09 42.374 119.734 41.0338 120.348 38.6393C120.877 36.5771 120.375 34.5221 119.042 33.2897C117.723 32.0708 115.941 31.6449 114.311 32.1592ZM66.3 37.2024V42.1634H67.1408H67.9817L68.0398 38.7425L68.098 35.3215L70.2133 38.7351L72.3285 42.1487L73.2275 42.156L74.1265 42.1634V37.2144V32.2654H73.2855H72.4445L72.3865 35.7265L72.3285 39.1875L70.1966 35.7792L68.0646 32.3707L67.1823 32.306L66.3 32.2411V37.2024ZM75.6072 37.2144V42.1634H79.4274H83.2478L83.182 41.3737L83.1164 40.5839L80.3137 40.5252L77.511 40.4664V39.1036V37.7409H79.9435H82.3761V37.0038V36.2667H79.9435H77.511V35.0031V33.7395H80.155H82.7991V33.0025V32.2654H79.2032H75.6072V37.2144ZM84.4901 32.4233C84.4892 32.5101 84.9381 34.7373 85.4874 37.3723L86.4863 42.1634H87.5866H88.6868L88.8966 41.1631C89.0119 40.6128 89.3248 39.0954 89.5917 37.791C89.8589 36.4866 90.1402 35.5389 90.2172 35.685C90.2942 35.8312 90.6275 37.3485 90.9582 39.0571L91.5589 42.1634H92.6787C93.2947 42.1634 93.7986 42.1207 93.7986 42.0682C93.7986 42.0158 94.2745 39.8222 94.8562 37.1935C95.4379 34.5649 95.9138 32.3808 95.9138 32.3397C95.9138 32.2988 95.4961 32.2654 94.9854 32.2654H94.0568L93.5151 35.1611C93.2171 36.7538 92.9097 38.4165 92.8317 38.8564C92.7538 39.2961 92.6576 39.6236 92.618 39.584C92.5552 39.5215 91.0487 32.5787 91.0487 32.3515C91.0487 32.3041 90.6396 32.2654 90.1396 32.2654H89.2304L88.5099 35.9531C88.1135 37.9814 87.7279 39.5213 87.6528 39.3753C87.5778 39.2292 87.2465 37.5699 86.9167 35.6876L86.3173 32.2654H85.4043C84.9021 32.2654 84.4907 32.3365 84.4901 32.4233ZM102.496 32.7392C102.634 32.9999 103.399 34.3734 104.195 35.7918L105.644 38.3706V40.267V42.1634H106.49H107.336V40.2289V38.2941L108.531 36.1749C109.189 35.0092 109.959 33.6528 110.244 33.1604L110.76 32.2654H109.685H108.609L107.661 34.1445C107.14 35.1781 106.634 36.0727 106.537 36.1323C106.44 36.1919 105.914 35.3464 105.369 34.253L104.377 32.2654H103.311C102.271 32.2654 102.251 32.2774 102.496 32.7392ZM122.354 37.2144V42.1634H123.2H124.046V40.3733V38.5833H124.996H125.946L126.801 40.2773C127.272 41.2092 127.785 42.0206 127.943 42.0806C128.1 42.1409 128.609 42.1602 129.074 42.124L129.92 42.0581L128.893 40.268C128.328 39.2835 127.864 38.3832 127.861 38.2674C127.859 38.1515 128.146 37.8931 128.499 37.6931C129.719 37.0015 130.095 34.9216 129.236 33.6161C128.5 32.4977 127.767 32.267 124.945 32.2662L122.354 32.2654V37.2144ZM131.661 37.2144V42.1634H132.613H133.565L133.566 40.7419C133.566 39.3966 133.61 39.27 134.38 38.3813L135.193 37.4422L136.521 39.8028L137.848 42.1634H138.88C139.447 42.1634 139.911 42.1276 139.911 42.0836C139.911 42.0398 139.145 40.6574 138.208 39.0116C136.75 36.4489 136.544 35.9691 136.777 35.6692C136.927 35.4765 137.657 34.632 138.4 33.7922L139.751 32.2654L138.615 32.2713L137.478 32.2774L135.575 34.481L133.671 36.6847L133.611 34.4749L133.551 32.2654H132.606H131.661V37.2144ZM117.235 34.0874C118.322 34.7738 118.927 36.5449 118.644 38.2141C118.537 38.8455 118.258 39.3412 117.698 39.8989C116.989 40.605 116.79 40.6892 115.829 40.6892C114.002 40.6892 112.84 39.2801 112.837 37.0606C112.833 34.3825 115.184 32.7933 117.235 34.0874ZM127.456 34.3503C128.033 35.0598 127.967 35.9369 127.297 36.4619C126.865 36.7997 126.435 36.8985 125.393 36.8985H124.046V35.2952V33.6919L125.553 33.7768C126.814 33.8478 127.123 33.9409 127.456 34.3503Z" fill="#1F1E2C"/>
</g>
<defs>
<clipPath id="clip0_6600_69814">
<rect width="203" height="42" fill="white" transform="translate(0.5 0.374023)"/>
</clipPath>
</defs>
</svg>
