<svg width="16" height="16" viewBox="0 0 16 16" fill="none" xmlns="http://www.w3.org/2000/svg">
<rect width="16" height="16" rx="4" fill="#3E1C01"/>
<path fill-rule="evenodd" clip-rule="evenodd" d="M10.666 6C10.4793 6 10.3127 6.07333 10.1927 6.19333L7.33268 9.06L5.80602 7.52667C5.68602 7.40667 5.51935 7.33333 5.33268 7.33333C4.96602 7.33333 4.66602 7.63333 4.66602 8C4.66602 8.18667 4.73935 8.35333 4.85935 8.47333L6.85935 10.4733C6.97935 10.5933 7.14602 10.6667 7.33268 10.6667C7.51935 10.6667 7.68602 10.5933 7.80602 10.4733L11.1393 7.14C11.2593 7.02 11.3327 6.85333 11.3327 6.66667C11.3327 6.3 11.0327 6 10.666 6Z" fill="white"/>
</svg>
