<svg width="80" height="80" viewBox="0 0 80 80" fill="none" xmlns="http://www.w3.org/2000/svg">
<rect x="0.25" y="0.25" width="79.5" height="79.5" rx="3.75" fill="#F1F1F1"/>
<rect x="0.25" y="0.25" width="79.5" height="79.5" rx="3.75" stroke="#CDCDCD" stroke-width="0.5"/>
<path d="M22.6075 41.1578L21.764 40.6505C21.026 41.4931 20.2846 42.3304 19.5434 43.1674C19.2564 43.4915 18.9694 43.8156 18.6827 44.1399C17.2515 42.9806 15.8205 41.8234 14.3896 40.6662L14.3894 40.6661C12.9826 39.5284 11.576 38.391 10.1695 37.2516C13.4528 34.1587 16.7276 31.0747 20.0112 27.9908C21.4934 27.5072 22.9745 27.0251 24.4549 26.5432C26.592 25.8474 28.7275 25.1522 30.8624 24.4542C32.0855 26.0171 33.3086 27.5778 34.5316 29.1384L34.533 29.1401C35.8275 30.7921 37.122 32.4439 38.4164 34.0981L38.7926 34.5789L39.1898 34.1154C40.66 32.4002 42.1276 30.6851 43.5951 28.9701C44.9932 27.3361 46.3912 25.7024 47.7913 24.0686C49.514 24.5591 51.2386 25.0475 52.9628 25.5358L52.9639 25.5361C54.7479 26.0413 56.5315 26.5463 58.3127 27.0537C60.501 29.3405 62.6917 31.6273 64.8822 33.9139L64.8841 33.9159L64.8936 33.9258C66.9802 36.104 69.0668 38.2821 71.1512 40.4601C70.4965 40.9313 69.842 41.4022 69.1878 41.8729C66.436 43.8529 63.6882 45.8299 60.9407 47.812C59.6469 45.7437 58.361 43.6752 57.0748 41.606L56.1511 41.9006C56.186 42.4694 56.2184 43.0358 56.251 43.6034L56.251 43.6036C56.2818 44.1415 56.3126 44.6804 56.3457 45.2217C54.9964 49.726 53.6566 54.2302 52.3172 58.7339C51.0411 58.8374 48.681 58.8325 46.0975 57.655L46.096 57.6544C43.7991 56.6164 42.3569 55.1166 41.636 54.242L41.3287 53.8691L40.9455 54.1636C39.7626 55.0727 38.2298 56.0586 36.3172 56.8587C31.7339 58.7762 27.5046 58.5705 25.132 58.2479C23.6955 54.1306 22.2589 50.0042 20.8222 45.8775C21.1106 45.1186 21.3969 44.3597 21.683 43.6015C21.9905 42.7864 22.2978 41.972 22.6075 41.1578Z" fill="white" stroke="black"/>
<path d="M19.4507 44.2974C19.3525 44.5604 19.1622 44.8679 18.7785 45.1775L8.74359 37.5185C9.58268 36.6258 10.4219 35.7384 11.2616 34.8511C14.1023 36.6473 16.3408 38.4876 17.7772 40.1573C18.5246 41.0262 19.0393 41.831 19.316 42.5431C19.5919 43.2534 19.6182 43.8347 19.4507 44.2974Z" fill="#FFF9F7" stroke="black"/>
<path d="M60.5913 48.0132L60.5913 48.0132L60.5898 48.009C60.3996 47.487 60.4317 46.8346 60.7411 46.0443C61.0507 45.2532 61.6245 44.3618 62.4544 43.4022C64.056 41.5504 66.5527 39.5115 69.7193 37.5287C70.4034 38.2435 71.0841 38.9609 71.7668 39.6803C72.0382 39.9665 72.31 40.2529 72.5825 40.5396C70.7411 41.9365 68.8996 43.3315 67.058 44.7266C65.1653 46.1604 63.2725 47.5943 61.3795 49.0304C60.9174 48.6708 60.6997 48.3193 60.5913 48.0132Z" fill="#FFF9F7" stroke="black"/>
<path d="M31.9989 31.2919C30.7226 30.3871 29.4464 29.4824 28.1703 28.5758C28.7099 27.6418 29.2512 26.7061 29.7925 25.7702L29.793 25.7695C30.2751 24.936 30.7572 24.1025 31.2382 23.2701C33.5955 26.8387 35.953 30.407 38.3105 33.9667C38.3429 34.4097 38.3771 34.8543 38.4112 35.2978L38.4112 35.2982C38.4227 35.4475 38.4342 35.5968 38.4456 35.7458C38.2101 35.5913 37.9747 35.4366 37.7393 35.2819L37.7392 35.2819C37.2245 34.9437 36.7093 34.6052 36.1915 34.2667C34.7941 33.2735 33.3968 32.2829 31.9997 31.2925L31.9989 31.2919Z" fill="#FFF9F7" stroke="black"/>
<path d="M40.6298 34.5683L40.4872 34.6813L40.4507 34.8595L39.6107 38.9545L39.3215 40.3643C38.968 38.1528 38.6145 35.9399 38.2611 33.7224C41.3782 30.1501 44.4867 26.5694 47.5863 22.9884C47.8269 23.7026 48.0665 24.418 48.3064 25.1338L48.3066 25.1345C48.6017 26.0154 48.897 26.8969 49.1941 27.7769C47.8113 28.8737 46.4306 29.9684 45.0498 31.0632C43.5773 32.2307 42.1048 33.3982 40.6298 34.5683Z" fill="#FFF9F7" stroke="black"/>
<path d="M41.4735 55.7064L41.1986 55.416L40.8548 55.6204C38.6187 56.9502 35.2737 58.5829 30.9466 59.409C28.7094 59.8342 26.6812 59.9641 24.9602 59.9456C24.7782 59.5376 24.5414 59.1486 24.3252 58.7934L24.3088 58.7664C24.1543 58.5126 24.0106 58.2752 23.8883 58.046C26.1711 57.7943 29.0762 57.3384 31.7969 56.6239C35.4364 55.6777 38.5217 54.4457 41.0258 53.2545C42.0262 54.3651 43.5653 55.8085 45.7466 57.0267C48.3931 58.5048 50.8942 59.0379 52.5946 59.2362C52.4831 59.4437 52.3716 59.6509 52.2601 59.8583L52.2595 59.8594C52.0836 60.1863 51.9075 60.5136 51.7314 60.8421C49.833 60.5913 46.9496 59.9163 44.1041 57.9584C43.0359 57.2203 42.1622 56.4338 41.4735 55.7064Z" fill="#FFF9F7" stroke="black"/>
<path d="M39.9648 60.6214C39.6268 61.9928 39.1823 63.1829 38.7451 63.9959C38.5246 64.4059 38.3196 64.694 38.1496 64.8624C38.091 64.9203 38.0472 64.9543 38.017 64.9741C37.9993 64.9425 37.9759 64.8919 37.9506 64.813C37.8775 64.5852 37.8288 64.2353 37.8229 63.7701C37.8111 62.8474 37.968 61.586 38.306 60.2096C38.644 58.838 39.0885 57.6476 39.5258 56.8345C39.7463 56.4245 39.9513 56.1364 40.1213 55.968C40.1777 55.9122 40.2204 55.8786 40.2504 55.8586C40.2677 55.8906 40.2899 55.9406 40.314 56.0167C40.3864 56.2461 40.4345 56.5979 40.4405 57.0641C40.4523 57.9887 40.2977 59.2503 39.9648 60.6214Z" fill="#FFF9F7" stroke="black"/>
<path d="M44.7285 59.422L44.7288 59.4226C45.2656 60.7089 45.534 61.9407 45.549 62.8817C45.5565 63.3537 45.4998 63.7262 45.4013 63.9889C45.3034 64.2499 45.1833 64.3576 45.0856 64.3995C44.9852 64.4414 44.8242 64.4517 44.5712 64.3399C44.3158 64.227 44.0114 64.0068 43.6808 63.6699C43.0219 62.9982 42.3334 61.9389 41.7914 60.647C41.2548 59.3609 40.9864 58.1292 40.9714 57.1883C40.9638 56.7163 41.0206 56.3438 41.1191 56.0811C41.2164 55.8218 41.3355 55.7137 41.433 55.6714C41.5342 55.6308 41.6969 55.6221 41.9504 55.7343C42.2074 55.848 42.513 56.0684 42.8439 56.4046C43.5038 57.0748 44.1919 58.1312 44.7285 59.422Z" fill="#FFF9F7" stroke="black"/>
<mask id="path-10-inside-1_2293_42198" fill="white">
<path d="M40.21 51.1501C40.03 51.1501 39.87 51.0201 39.84 50.8301L38.84 44.4301C38.81 44.2301 38.95 44.0301 39.15 44.0001C39.36 43.9701 39.55 44.1101 39.58 44.3101L40.58 50.7101C40.61 50.9101 40.47 51.1101 40.27 51.1401C40.24 51.1501 40.22 51.1501 40.21 51.1501Z"/>
</mask>
<path d="M40.21 51.1501C40.03 51.1501 39.87 51.0201 39.84 50.8301L38.84 44.4301C38.81 44.2301 38.95 44.0301 39.15 44.0001C39.36 43.9701 39.55 44.1101 39.58 44.3101L40.58 50.7101C40.61 50.9101 40.47 51.1101 40.27 51.1401C40.24 51.1501 40.22 51.1501 40.21 51.1501Z" fill="#231C1A"/>
<path d="M39.84 50.8301L38.852 50.9845L38.8522 50.9861L39.84 50.8301ZM38.84 44.4301L37.851 44.5785L37.852 44.5845L38.84 44.4301ZM39.15 44.0001L39.0086 43.0102L39.0016 43.0112L39.15 44.0001ZM39.58 44.3101L38.591 44.4585L38.592 44.4645L39.58 44.3101ZM40.58 50.7101L41.5689 50.5618L41.568 50.5558L40.58 50.7101ZM40.27 51.1401L40.1216 50.1512L40.036 50.1641L39.9538 50.1915L40.27 51.1401ZM40.21 50.1501C40.5165 50.1501 40.7801 50.3727 40.8278 50.6742L38.8522 50.9861C38.9598 51.6676 39.5434 52.1501 40.21 52.1501V50.1501ZM40.828 50.6758L39.828 44.2758L37.852 44.5845L38.852 50.9845L40.828 50.6758ZM39.8289 44.2818C39.8763 44.5974 39.6746 44.9326 39.2983 44.9891L39.0016 43.0112C38.2254 43.1276 37.7437 43.8629 37.8511 44.5785L39.8289 44.2818ZM39.2914 44.9901C38.9801 45.0346 38.6459 44.8244 38.591 44.4585L40.5689 44.1618C40.454 43.3959 39.7398 42.9057 39.0086 43.0102L39.2914 44.9901ZM38.592 44.4645L39.592 50.8645L41.568 50.5558L40.568 44.1558L38.592 44.4645ZM39.591 50.8585C39.5437 50.5429 39.7454 50.2076 40.1216 50.1512L40.4183 52.1291C41.1946 52.0126 41.6763 51.2774 41.5689 50.5618L39.591 50.8585ZM39.9538 50.1915C40.0034 50.1749 40.0554 50.1633 40.1084 50.1566C40.1343 50.1534 40.1577 50.1517 40.1777 50.1509C40.1967 50.1501 40.2119 50.1501 40.21 50.1501V52.1501C40.2727 52.1501 40.4128 52.1466 40.5862 52.0888L39.9538 50.1915Z" fill="black" mask="url(#path-10-inside-1_2293_42198)"/>
<mask id="path-12-inside-2_2293_42198" fill="white">
<path d="M22.1399 41.3599C22.0599 41.3599 21.9799 41.3299 21.9099 41.2799C21.7499 41.1499 21.7199 40.9199 21.8399 40.7499L24.6499 37.1199C24.7799 36.9599 25.01 36.9299 25.18 37.0499C25.34 37.1799 25.37 37.4099 25.25 37.5799L22.44 41.2099C22.36 41.3099 22.2499 41.3599 22.1399 41.3599Z"/>
</mask>
<path d="M22.1399 41.3599C22.0599 41.3599 21.9799 41.3299 21.9099 41.2799C21.7499 41.1499 21.7199 40.9199 21.8399 40.7499L24.6499 37.1199C24.7799 36.9599 25.01 36.9299 25.18 37.0499C25.34 37.1799 25.37 37.4099 25.25 37.5799L22.44 41.2099C22.36 41.3099 22.2499 41.3599 22.1399 41.3599Z" fill="#231C1A"/>
<path d="M21.9099 41.2799L21.2793 42.056L21.3034 42.0756L21.3287 42.0936L21.9099 41.2799ZM21.8399 40.7499L21.0492 40.1378L21.0357 40.1552L21.023 40.1732L21.8399 40.7499ZM24.6499 37.1199L23.8738 36.4893L23.8664 36.4984L23.8592 36.5078L24.6499 37.1199ZM25.18 37.0499L25.8106 36.2738L25.7843 36.2524L25.7566 36.2329L25.18 37.0499ZM25.25 37.5799L26.0407 38.192L26.0542 38.1746L26.0669 38.1566L25.25 37.5799ZM22.44 41.2099L23.2208 41.8346L23.2258 41.8283L23.2307 41.822L22.44 41.2099ZM22.1399 40.3599C22.3095 40.3599 22.4285 40.4214 22.4912 40.4662L21.3287 42.0936C21.5314 42.2384 21.8103 42.3599 22.1399 42.3599V40.3599ZM22.5405 40.5038C22.7974 40.7125 22.8339 41.0759 22.6569 41.3266L21.023 40.1732C20.606 40.7639 20.7025 41.5873 21.2793 42.056L22.5405 40.5038ZM22.6307 41.362L25.4407 37.732L23.8592 36.5078L21.0492 40.1378L22.6307 41.362ZM25.426 37.7505C25.2173 38.0074 24.8539 38.0438 24.6033 37.8669L25.7566 36.2329C25.166 35.816 24.3425 35.9124 23.8738 36.4893L25.426 37.7505ZM24.5494 37.826C24.2925 37.6173 24.256 37.2539 24.433 37.0032L26.0669 38.1566C26.4839 37.5659 26.3874 36.7425 25.8106 36.2738L24.5494 37.826ZM24.4592 36.9678L21.6492 40.5978L23.2307 41.822L26.0407 38.192L24.4592 36.9678ZM21.6591 40.5852C21.7635 40.4546 21.9377 40.3599 22.1399 40.3599V42.3599C22.5621 42.3599 22.9564 42.1652 23.2208 41.8346L21.6591 40.5852Z" fill="black" mask="url(#path-12-inside-2_2293_42198)"/>
<mask id="path-14-inside-3_2293_42198" fill="white">
<path d="M56.9105 41.7698C56.7905 41.7698 56.6705 41.7098 56.6005 41.6098L54.2104 38.0898C54.0904 37.9198 54.1405 37.6898 54.3105 37.5698C54.4805 37.4498 54.7104 37.4998 54.8304 37.6698L57.2204 41.1898C57.3404 41.3598 57.2905 41.5898 57.1205 41.7098C57.0505 41.7498 56.9805 41.7698 56.9105 41.7698Z"/>
</mask>
<path d="M56.9105 41.7698C56.7905 41.7698 56.6705 41.7098 56.6005 41.6098L54.2104 38.0898C54.0904 37.9198 54.1405 37.6898 54.3105 37.5698C54.4805 37.4498 54.7104 37.4998 54.8304 37.6698L57.2204 41.1898C57.3404 41.3598 57.2905 41.5898 57.1205 41.7098C57.0505 41.7498 56.9805 41.7698 56.9105 41.7698Z" fill="#231C1A"/>
<path d="M56.6005 41.6098L55.7731 42.1716L55.7771 42.1775L55.7812 42.1833L56.6005 41.6098ZM54.2104 38.0898L55.0378 37.5281L55.0326 37.5206L55.0274 37.5131L54.2104 38.0898ZM54.8304 37.6698L55.6578 37.1081L55.6526 37.1006L55.6474 37.0931L54.8304 37.6698ZM57.2204 41.1898L56.3931 41.7516L56.3982 41.7591L56.4035 41.7665L57.2204 41.1898ZM57.1205 41.7098L57.6166 42.5781L57.6581 42.5544L57.6972 42.5268L57.1205 41.7098ZM56.9105 40.7698C57.106 40.7698 57.2965 40.8603 57.4197 41.0364L55.7812 42.1833C56.0444 42.5593 56.4749 42.7698 56.9105 42.7698V40.7698ZM57.4278 41.0481L55.0378 37.5281L53.3831 38.6516L55.7731 42.1716L57.4278 41.0481ZM55.0274 37.5131C55.2546 37.835 55.1266 38.2178 54.8872 38.3868L53.7338 36.7529C53.1544 37.1619 52.9263 38.0047 53.3935 38.6665L55.0274 37.5131ZM54.8872 38.3868C54.5654 38.6139 54.1826 38.4861 54.0135 38.2465L55.6474 37.0931C55.2383 36.5136 54.3955 36.2857 53.7338 36.7529L54.8872 38.3868ZM54.0031 38.2316L56.3931 41.7516L58.0478 40.6281L55.6578 37.1081L54.0031 38.2316ZM56.4035 41.7665C56.1765 41.4449 56.3041 41.062 56.5438 40.8929L57.6972 42.5268C58.2768 42.1176 58.5044 41.2748 58.0374 40.6131L56.4035 41.7665ZM56.6243 40.8416C56.6823 40.8085 56.7815 40.7698 56.9105 40.7698V42.7698C57.1794 42.7698 57.4187 42.6912 57.6166 42.5781L56.6243 40.8416Z" fill="black" mask="url(#path-14-inside-3_2293_42198)"/>
<path d="M36.7797 41.9699C36.7797 42.0086 36.7483 42.0399 36.7097 42.0399C36.671 42.0399 36.6396 42.0086 36.6396 41.9699C36.6396 41.9313 36.671 41.8999 36.7097 41.8999C36.7483 41.8999 36.7797 41.9313 36.7797 41.9699Z" fill="#231C1A" stroke="black"/>
<path d="M37.5198 47.2502C37.5198 47.2889 37.4885 47.3202 37.4499 47.3202C37.4112 47.3202 37.3799 47.2888 37.3799 47.2502C37.3799 47.2115 37.4112 47.1802 37.4499 47.1802C37.4885 47.1802 37.5198 47.2115 37.5198 47.2502Z" fill="#231C1A" stroke="black"/>
<path d="M38.3698 51.51H38.3779L38.3859 51.5098C38.3929 51.5096 38.4043 51.5116 38.4175 51.5249C38.431 51.5383 38.4398 51.5575 38.4398 51.58C38.4398 51.6182 38.4094 51.65 38.3698 51.65C38.3316 51.65 38.2998 51.6196 38.2998 51.58C38.2998 51.5419 38.3302 51.51 38.3698 51.51Z" fill="#231C1A" stroke="black"/>
<mask id="path-19-inside-4_2293_42198" fill="white">
<path d="M39.9797 61.75C39.9197 61.75 39.8497 61.73 39.7897 61.7C39.6097 61.6 39.5497 61.37 39.6597 61.19C40.0497 60.52 40.2897 59.75 40.3497 58.98C40.3997 58.28 40.3097 57.58 40.0697 56.91C39.9997 56.71 40.0997 56.5 40.2997 56.43C40.4997 56.36 40.7097 56.46 40.7797 56.66C41.0497 57.43 41.1597 58.23 41.0997 59.03C41.0297 59.91 40.7597 60.79 40.3097 61.56C40.2297 61.68 40.1097 61.75 39.9797 61.75Z"/>
</mask>
<path d="M39.9797 61.75C39.9197 61.75 39.8497 61.73 39.7897 61.7C39.6097 61.6 39.5497 61.37 39.6597 61.19C40.0497 60.52 40.2897 59.75 40.3497 58.98C40.3997 58.28 40.3097 57.58 40.0697 56.91C39.9997 56.71 40.0997 56.5 40.2997 56.43C40.4997 56.36 40.7097 56.46 40.7797 56.66C41.0497 57.43 41.1597 58.23 41.0997 59.03C41.0297 59.91 40.7597 60.79 40.3097 61.56C40.2297 61.68 40.1097 61.75 39.9797 61.75Z" fill="#231C1A"/>
<path d="M39.7897 61.7L39.3041 62.5741L39.3231 62.5847L39.3425 62.5944L39.7897 61.7ZM39.6597 61.19L40.513 61.7114L40.5186 61.7023L40.5239 61.6931L39.6597 61.19ZM40.3497 58.98L41.3467 59.0577L41.3472 59.0512L40.3497 58.98ZM40.0697 56.91L39.1259 57.2403L39.1283 57.2472L40.0697 56.91ZM40.7797 56.66L39.8358 56.9903L39.836 56.9909L40.7797 56.66ZM41.0997 59.03L42.0966 59.1093L42.0969 59.1048L41.0997 59.03ZM40.3097 61.56L41.1418 62.1147L41.1582 62.0901L41.1731 62.0646L40.3097 61.56ZM39.9797 60.75C40.056 60.75 40.1123 60.7619 40.1447 60.7706C40.1792 60.7799 40.2093 60.7918 40.2369 60.8056L39.3425 62.5944C39.5006 62.6735 39.7246 62.75 39.9797 62.75V60.75ZM40.2753 60.8258C40.6028 61.0078 40.6932 61.4166 40.513 61.7114L38.8064 60.6685C38.4062 61.3234 38.6166 62.1922 39.3041 62.5741L40.2753 60.8258ZM40.5239 61.6931C40.9896 60.8931 41.275 59.9777 41.3467 59.0577L39.3527 58.9023C39.3044 59.5223 39.1098 60.1469 38.7955 60.6869L40.5239 61.6931ZM41.3472 59.0512C41.4067 58.2175 41.2996 57.3781 41.0112 56.5728L39.1283 57.2472C39.3198 57.7819 39.3927 58.3424 39.3522 58.9087L41.3472 59.0512ZM41.0136 56.5796C41.1244 56.8962 40.9561 57.2597 40.6301 57.3738L39.9694 55.4861C39.2434 55.7402 38.8751 56.5238 39.1259 57.2403L41.0136 56.5796ZM40.6301 57.3738C40.3134 57.4847 39.9499 57.3162 39.8358 56.9903L41.7236 56.3296C41.4695 55.6037 40.686 55.2353 39.9694 55.4861L40.6301 57.3738ZM39.836 56.9909C40.0621 57.6355 40.1518 58.2976 40.1025 58.9552L42.0969 59.1048C42.1676 58.1624 42.0373 57.2245 41.7234 56.3291L39.836 56.9909ZM40.1029 58.9507C40.0445 59.6845 39.8185 60.4186 39.4464 61.0554L41.1731 62.0646C41.7009 61.1614 42.0149 60.1355 42.0966 59.1093L40.1029 58.9507ZM39.4777 61.0053C39.5551 60.8892 39.7277 60.75 39.9797 60.75V62.75C40.4917 62.75 40.9044 62.4708 41.1418 62.1147L39.4777 61.0053Z" fill="black" mask="url(#path-19-inside-4_2293_42198)"/>
<mask id="path-21-inside-5_2293_42198" fill="white">
<path d="M40.6497 56.76C39.6797 56.76 38.8896 55.91 38.8896 54.87C38.8896 53.83 39.6797 52.98 40.6497 52.98C41.6197 52.98 42.4097 53.83 42.4097 54.87C42.4097 55.91 41.6197 56.76 40.6497 56.76ZM40.6497 53.72C40.0897 53.72 39.6396 54.23 39.6396 54.86C39.6396 55.49 40.0897 56 40.6497 56C41.1997 56 41.6597 55.49 41.6597 54.86C41.6597 54.24 41.2097 53.72 40.6497 53.72Z"/>
</mask>
<path d="M40.6497 56.76C39.6797 56.76 38.8896 55.91 38.8896 54.87C38.8896 53.83 39.6797 52.98 40.6497 52.98C41.6197 52.98 42.4097 53.83 42.4097 54.87C42.4097 55.91 41.6197 56.76 40.6497 56.76ZM40.6497 53.72C40.0897 53.72 39.6396 54.23 39.6396 54.86C39.6396 55.49 40.0897 56 40.6497 56C41.1997 56 41.6597 55.49 41.6597 54.86C41.6597 54.24 41.2097 53.72 40.6497 53.72Z" fill="#231C1A"/>
<path d="M40.6497 55.76C40.2984 55.76 39.8896 55.4266 39.8896 54.87H37.8896C37.8896 56.3934 39.0609 57.76 40.6497 57.76V55.76ZM39.8896 54.87C39.8896 54.3134 40.2984 53.98 40.6497 53.98V51.98C39.0609 51.98 37.8896 53.3466 37.8896 54.87H39.8896ZM40.6497 53.98C41.0009 53.98 41.4097 54.3134 41.4097 54.87H43.4097C43.4097 53.3466 42.2384 51.98 40.6497 51.98V53.98ZM41.4097 54.87C41.4097 55.4266 41.0009 55.76 40.6497 55.76V57.76C42.2384 57.76 43.4097 56.3934 43.4097 54.87H41.4097ZM40.6497 52.72C39.4259 52.72 38.6396 53.7962 38.6396 54.86H40.6396C40.6396 54.7822 40.6673 54.7347 40.6836 54.7164C40.6912 54.7078 40.6933 54.7087 40.6859 54.7122C40.6773 54.7163 40.6639 54.72 40.6497 54.72V52.72ZM38.6396 54.86C38.6396 55.9238 39.4259 57 40.6497 57V55C40.6639 55 40.6773 55.0037 40.6859 55.0078C40.6933 55.0113 40.6912 55.0121 40.6836 55.0036C40.6673 54.9852 40.6396 54.9377 40.6396 54.86H38.6396ZM40.6497 57C41.8574 57 42.6597 55.9305 42.6597 54.86H40.6597C40.6597 54.9318 40.6334 54.9795 40.6143 55.001C40.5954 55.0222 40.6041 55 40.6497 55V57ZM42.6597 54.86C42.6597 53.8122 41.8787 52.72 40.6497 52.72V54.72C40.6323 54.72 40.6172 54.7155 40.6087 54.7113C40.6015 54.7079 40.6048 54.7077 40.6138 54.7179C40.6337 54.7406 40.6597 54.79 40.6597 54.86H42.6597Z" fill="black" mask="url(#path-21-inside-5_2293_42198)"/>
</svg>
