<svg width="64" height="59" viewBox="0 0 64 59" fill="none" xmlns="http://www.w3.org/2000/svg">
<path d="M16.682 15.8636L17.5396 16.3379C16.9773 18.1262 16.3374 20.78 16.2671 24.0262C16.2469 24.9932 16.2879 25.3974 16.4148 26.6496C16.4824 27.316 16.5744 28.2225 16.6944 29.5818C16.6944 29.582 16.6944 29.5821 16.6944 29.5823L16.1964 29.6262C16.3218 31.0325 16.4208 32.2919 16.509 33.4129C16.8901 38.2596 17.0681 40.5222 18.2943 40.903L16.682 15.8636ZM16.682 15.8636C15.9454 16.7281 15.2089 17.5931 14.4723 18.4583C12.8718 20.3381 11.2706 22.2188 9.66541 24.096L9.46974 24.3249L9.58047 24.6049C11.4921 29.4383 13.4037 34.2793 15.3153 39.1206C14.7374 39.6233 14.1595 40.1272 13.5819 40.6309L13.579 40.6334L13.5773 40.635C13.0098 41.1298 12.4426 41.6244 11.8755 42.1177C10.0123 40.7589 7.39143 38.4995 5.10547 35.0632L5.10519 35.0628C3.01335 31.925 1.9596 28.9511 1.4054 26.8748L1.37079 26.7451L1.27587 26.6502C1.11402 26.4883 0.60028 25.9321 0.513951 25.0554L0.513675 25.0528C0.407354 24.0294 0.954885 23.2966 1.07767 23.1398L1.08745 23.1273L1.09641 23.1142C3.56009 19.5177 6.32488 15.8022 9.42252 12.0312L9.42358 12.0299C10.6451 10.5325 11.8752 9.09701 13.0988 7.70732C14.2276 6.65051 15.726 5.43401 17.6402 4.31801C20.1342 2.86443 22.4748 2.0744 24.2723 1.62385C25.6068 3.19256 26.9413 4.75954 28.2757 6.32641L28.2805 6.33208C29.6832 7.97911 31.0857 9.626 32.4882 11.2749L33.0238 11.9045L33.3328 11.1378C34.4762 8.301 35.6148 5.45926 36.7522 2.62074C36.9905 2.02597 37.2287 1.43134 37.467 0.83692M16.682 15.8636L37.467 0.83692M37.467 0.83692C38.6158 1.78819 39.6557 2.38151 40.4216 2.75382C41.9226 3.49076 43.1771 3.78508 44.3277 4.05499C44.4123 4.07486 44.4965 4.0946 44.5801 4.11437C45.7947 4.40156 46.9104 4.697 48.2066 5.49582L48.2077 5.49646C49.3762 6.21267 50.1863 7.02713 50.6748 7.583C54.6727 12.6792 58.6707 17.7833 62.6688 22.8875C62.8236 23.4496 62.9709 24.2476 62.8874 25.2027C62.8439 25.673 62.7504 26.0948 62.6489 26.439C61.5406 29.3749 59.7433 33.1689 56.7808 37.0639L56.7807 37.0641C55.0832 39.298 53.3443 41.1196 51.7568 42.5803C50.5264 41.5256 49.3013 40.4706 48.0767 39.4101L54.4558 25.2784L54.5889 24.9833L54.3743 24.7411C52.9836 23.1716 51.5909 21.6021 50.1984 20.0328L50.1979 20.0322C48.8052 18.4627 47.4126 16.8933 46.022 15.3239L44.7694 13.9102L45.1585 15.7585C45.3165 16.5089 46.0695 20.2584 46.5683 23.457C46.6704 24.1164 46.7729 24.8278 46.6839 25.7635C46.6321 26.2876 46.5427 26.6539 46.4332 27.0416C46.4118 27.1172 46.3894 27.1945 46.3662 27.2745C46.2697 27.6074 46.1597 27.9867 46.0567 28.4812C46.0523 28.5016 46.0479 28.522 46.0434 28.5425C45.9131 29.1428 45.768 29.8111 45.7995 31.6058C45.8158 32.5358 45.8923 33.436 45.9691 34.2796C45.9766 34.362 45.9841 34.4439 45.9916 34.5251C46.0609 35.2813 46.1253 35.9842 46.1454 36.6408C46.1903 38.1074 46.0054 39.1974 45.2901 39.966C45.2672 39.9904 45.2405 40.0178 45.2107 40.0483C44.9615 40.304 44.4985 40.7792 44.2709 41.538L37.467 0.83692ZM18.9277 40.4201C18.7064 40.4794 18.5552 40.4577 18.4387 40.4242L44.2709 41.5381C44.0062 42.4175 44.1598 43.2753 44.4105 43.9711C44.6532 44.6449 45.0034 45.21 45.211 45.5451L45.2289 45.574C45.2292 45.5745 45.2295 45.5749 45.2298 45.5754C45.7472 46.4231 46.6468 47.8998 47.3808 49.4049C47.7481 50.158 48.0679 50.9063 48.2774 51.5776C48.4908 52.2618 48.5711 52.8093 48.515 53.1856C48.4276 53.7462 47.9209 54.5588 45.907 55.4052C43.9506 56.2274 40.6918 57.027 35.3852 57.662C35.2178 57.2405 35.0508 56.8193 34.8838 56.3984C34.5292 55.504 34.175 54.6108 33.8181 53.7185L33.2519 52.303L32.8698 53.7789C32.4935 55.2323 32.1104 56.6928 31.7266 58.1477C26.8863 58.6472 22.6591 58.6007 19.5476 58.1022C17.9531 57.8467 16.6774 57.4764 15.7676 57.017C14.8474 56.5523 14.3822 56.0392 14.2474 55.5385L14.2467 55.5359C14.2471 55.5369 14.2427 55.5162 14.2419 55.4622C14.241 55.4032 14.2445 55.3222 14.2543 55.2148C14.2741 54.9995 14.3165 54.7084 14.3824 54.3283C14.4955 53.6761 14.6711 52.797 14.9002 51.6507C14.938 51.4617 14.9772 51.2654 15.0178 51.0616L15.0179 51.0615C15.4339 48.9733 15.6345 47.9666 15.8862 47.1734L15.8862 47.1733C16.3374 45.7509 17.2666 43.5936 19.4257 41.2411L20.5879 39.9746L18.9277 40.4201Z" fill="white" stroke="black"/>
<mask id="path-2-inside-1_6155_12409" fill="white">
<path d="M32.5675 11.7773C32.5277 11.7773 32.488 11.7694 32.4483 11.7535L23.6828 7.98665C23.5715 7.93897 23.5 7.82771 23.5 7.70851L23.5318 1.88339C23.5318 1.71651 23.6669 1.58936 23.8338 1.58936C24.0006 1.58936 24.1357 1.72445 24.1357 1.89134L24.104 7.51778L32.6867 11.2052C32.8377 11.2687 32.9092 11.4436 32.8456 11.5946C32.79 11.7138 32.6787 11.7773 32.5675 11.7773Z"/>
</mask>
<path d="M32.5675 11.7773C32.5277 11.7773 32.488 11.7694 32.4483 11.7535L23.6828 7.98665C23.5715 7.93897 23.5 7.82771 23.5 7.70851L23.5318 1.88339C23.5318 1.71651 23.6669 1.58936 23.8338 1.58936C24.0006 1.58936 24.1357 1.72445 24.1357 1.89134L24.104 7.51778L32.6867 11.2052C32.8377 11.2687 32.9092 11.4436 32.8456 11.5946C32.79 11.7138 32.6787 11.7773 32.5675 11.7773Z" fill="#231C1A"/>
<path d="M32.4483 11.7535L32.0535 12.6723L32.0651 12.6773L32.0769 12.682L32.4483 11.7535ZM23.6828 7.98665L24.0776 7.0679L24.0767 7.06751L23.6828 7.98665ZM23.5 7.70851L22.5 7.70305V7.70851H23.5ZM23.5318 1.88339L24.5318 1.88885V1.88339H23.5318ZM24.1357 1.89134L25.1357 1.89699V1.89134H24.1357ZM24.104 7.51778L23.104 7.51214L23.1002 8.17494L23.7092 8.43658L24.104 7.51778ZM32.6867 11.2052L32.2919 12.124L32.2986 12.1268L32.6867 11.2052ZM32.8456 11.5946L33.7518 12.0175L33.7599 12.0002L33.7673 11.9826L32.8456 11.5946ZM32.5675 10.7773C32.6645 10.7773 32.7505 10.7973 32.8197 10.825L32.0769 12.682C32.2256 12.7415 32.391 12.7773 32.5675 12.7773V10.7773ZM32.8431 10.8348L24.0776 7.0679L23.288 8.90541L32.0535 12.6723L32.8431 10.8348ZM24.0767 7.06751C24.3396 7.18017 24.5 7.43474 24.5 7.70851H22.5C22.5 8.22069 22.8035 8.69778 23.2889 8.9058L24.0767 7.06751ZM24.5 7.71397L24.5318 1.88885L22.5318 1.87793L22.5 7.70305L24.5 7.71397ZM24.5318 1.88339C24.5318 2.3033 24.184 2.58936 23.8338 2.58936V0.589355C23.1497 0.589355 22.5318 1.12971 22.5318 1.88339H24.5318ZM23.8338 2.58936C23.4484 2.58936 23.1357 2.27676 23.1357 1.89134H25.1357C25.1357 1.17215 24.5529 0.589355 23.8338 0.589355V2.58936ZM23.1358 1.88569L23.104 7.51214L25.104 7.52343L25.1357 1.89699L23.1358 1.88569ZM23.7092 8.43658L32.2919 12.124L33.0814 10.2864L24.4987 6.59899L23.7092 8.43658ZM32.2986 12.1268C31.9422 11.9767 31.7726 11.5661 31.924 11.2065L33.7673 11.9826C34.0458 11.321 33.7331 10.5608 33.0747 10.2835L32.2986 12.1268ZM31.9394 11.1717C32.0501 10.9345 32.295 10.7773 32.5675 10.7773V12.7773C33.0625 12.7773 33.5299 12.493 33.7518 12.0175L31.9394 11.1717Z" fill="black" mask="url(#path-2-inside-1_6155_12409)"/>
<mask id="path-4-inside-2_6155_12409" fill="white">
<path d="M33.1884 14.3441C33.1328 14.3441 33.0692 14.3283 33.0215 14.2965C32.8864 14.2011 32.8467 14.0183 32.942 13.8832L39.0294 4.92701L38.346 1.6767C38.3142 1.51776 38.4175 1.35882 38.5764 1.32704C38.7433 1.29525 38.8943 1.39856 38.9261 1.5575L39.6334 4.93495C39.6492 5.01442 39.6334 5.09389 39.5857 5.16541L33.4268 14.2249C33.3712 14.3044 33.2837 14.3441 33.1884 14.3441Z"/>
</mask>
<path d="M33.1884 14.3441C33.1328 14.3441 33.0692 14.3283 33.0215 14.2965C32.8864 14.2011 32.8467 14.0183 32.942 13.8832L39.0294 4.92701L38.346 1.6767C38.3142 1.51776 38.4175 1.35882 38.5764 1.32704C38.7433 1.29525 38.8943 1.39856 38.9261 1.5575L39.6334 4.93495C39.6492 5.01442 39.6334 5.09389 39.5857 5.16541L33.4268 14.2249C33.3712 14.3044 33.2837 14.3441 33.1884 14.3441Z" fill="#231C1A"/>
<path d="M33.0215 14.2965L32.4448 15.1134L32.4557 15.1211L32.4668 15.1285L33.0215 14.2965ZM32.942 13.8832L33.759 14.4599L33.7641 14.4527L33.7691 14.4454L32.942 13.8832ZM39.0294 4.92701L39.8565 5.48913L40.0955 5.13741L40.008 4.72123L39.0294 4.92701ZM38.346 1.6767L37.3653 1.87283L37.3674 1.88247L38.346 1.6767ZM38.5764 1.32704L38.3893 0.344655L38.3803 0.346455L38.5764 1.32704ZM38.9261 1.5575L37.9455 1.75362L37.9473 1.76246L38.9261 1.5575ZM39.6334 4.93495L40.614 4.73883L40.6121 4.72999L39.6334 4.93495ZM39.5857 5.16541L40.4127 5.72765L40.4177 5.72011L39.5857 5.16541ZM33.4268 14.2249L34.2461 14.7985L34.2538 14.7872L33.4268 14.2249ZM33.1884 13.3441C33.2522 13.3441 33.3118 13.3528 33.3679 13.3682C33.4231 13.3835 33.4966 13.4114 33.5762 13.4644L32.4668 15.1285C32.7063 15.2882 32.9713 15.3441 33.1884 15.3441V13.3441ZM33.5982 13.4795C33.8727 13.6732 34.0107 14.1033 33.759 14.4599L32.1251 13.3065C31.6826 13.9334 31.9002 14.729 32.4448 15.1134L33.5982 13.4795ZM33.7691 14.4454L39.8565 5.48913L38.2024 4.36488L32.115 13.3211L33.7691 14.4454ZM40.008 4.72123L39.3246 1.47093L37.3674 1.88247L38.0508 5.13278L40.008 4.72123ZM39.3265 1.48058C39.4004 1.8498 39.1685 2.22843 38.7725 2.30762L38.3803 0.346455C37.6665 0.489217 37.228 1.18573 37.3654 1.87282L39.3265 1.48058ZM38.7635 2.30937C38.3999 2.37864 38.023 2.14116 37.9455 1.75361L39.9067 1.36138C39.7656 0.655957 39.0867 0.211856 38.3893 0.344697L38.7635 2.30937ZM37.9473 1.76246L38.6546 5.13992L40.6121 4.72999L39.9049 1.35253L37.9473 1.76246ZM38.6528 5.13107C38.6147 4.94064 38.6598 4.75138 38.7536 4.61071L40.4177 5.72011C40.6069 5.4364 40.6838 5.08821 40.6139 4.73884L38.6528 5.13107ZM38.7587 4.6032L32.5998 13.6627L34.2538 14.7872L40.4127 5.72762L38.7587 4.6032ZM32.6076 13.6515C32.761 13.4322 32.9977 13.3441 33.1884 13.3441V15.3441C33.5698 15.3441 33.9813 15.1766 34.246 14.7984L32.6076 13.6515Z" fill="black" mask="url(#path-4-inside-2_6155_12409)"/>
<mask id="path-6-inside-3_6155_12409" fill="white">
<path d="M33.1069 52.7122C33.091 52.7122 33.0751 52.7122 33.0513 52.7043C32.8924 52.6725 32.7811 52.5215 32.8129 52.3626C33.1785 50.2725 33.3612 48.1269 33.3612 45.9812C33.3533 43.9626 33.1784 42.707 32.9957 41.3799C32.8129 40.0289 32.6221 38.6382 32.5745 36.3415C32.5347 34.3468 32.638 33.2978 32.7255 32.4555C32.8208 31.5416 32.8924 30.8263 32.7334 29.3085C32.5268 27.2899 32.1374 26.1058 31.7718 24.9615C31.454 23.984 31.1281 22.9668 30.9295 21.4648C30.5639 18.6834 30.8579 15.743 31.8036 12.7073C31.8513 12.5483 32.0182 12.4609 32.1771 12.5086C32.3361 12.5563 32.4235 12.7232 32.3758 12.8821C31.4539 15.8304 31.1679 18.6913 31.5255 21.3853C31.7162 22.8317 32.0182 23.7694 32.344 24.7708C32.7255 25.9469 33.1149 27.1548 33.3294 29.2369C33.4963 30.8184 33.4168 31.5654 33.3215 32.5111C33.2341 33.3376 33.1308 34.3707 33.1705 36.3256C33.2182 38.5905 33.401 39.9653 33.5837 41.3004C33.7665 42.6514 33.9414 43.9309 33.9493 45.9812C33.9572 48.1586 33.7665 50.3361 33.393 52.4659C33.3692 52.6089 33.25 52.7122 33.1069 52.7122Z"/>
</mask>
<path d="M33.1069 52.7122C33.091 52.7122 33.0751 52.7122 33.0513 52.7043C32.8924 52.6725 32.7811 52.5215 32.8129 52.3626C33.1785 50.2725 33.3612 48.1269 33.3612 45.9812C33.3533 43.9626 33.1784 42.707 32.9957 41.3799C32.8129 40.0289 32.6221 38.6382 32.5745 36.3415C32.5347 34.3468 32.638 33.2978 32.7255 32.4555C32.8208 31.5416 32.8924 30.8263 32.7334 29.3085C32.5268 27.2899 32.1374 26.1058 31.7718 24.9615C31.454 23.984 31.1281 22.9668 30.9295 21.4648C30.5639 18.6834 30.8579 15.743 31.8036 12.7073C31.8513 12.5483 32.0182 12.4609 32.1771 12.5086C32.3361 12.5563 32.4235 12.7232 32.3758 12.8821C31.4539 15.8304 31.1679 18.6913 31.5255 21.3853C31.7162 22.8317 32.0182 23.7694 32.344 24.7708C32.7255 25.9469 33.1149 27.1548 33.3294 29.2369C33.4963 30.8184 33.4168 31.5654 33.3215 32.5111C33.2341 33.3376 33.1308 34.3707 33.1705 36.3256C33.2182 38.5905 33.401 39.9653 33.5837 41.3004C33.7665 42.6514 33.9414 43.9309 33.9493 45.9812C33.9572 48.1586 33.7665 50.3361 33.393 52.4659C33.3692 52.6089 33.25 52.7122 33.1069 52.7122Z" fill="#231C1A"/>
<path d="M33.0513 52.7043L33.3675 51.7556L33.3085 51.7359L33.2474 51.7237L33.0513 52.7043ZM32.8129 52.3626L33.7935 52.5587L33.7958 52.5468L33.7979 52.5349L32.8129 52.3626ZM33.3612 45.9812H34.3612L34.3612 45.9772L33.3612 45.9812ZM32.9957 41.3799L32.0047 41.514L32.005 41.5163L32.9957 41.3799ZM32.5745 36.3415L31.5747 36.3614L31.5747 36.3623L32.5745 36.3415ZM32.7255 32.4555L31.7309 32.3517L31.7308 32.3522L32.7255 32.4555ZM32.7334 29.3085L31.7386 29.4103L31.7389 29.4126L32.7334 29.3085ZM31.7718 24.9615L32.7244 24.6572L32.7228 24.6522L31.7718 24.9615ZM30.9295 21.4648L29.938 21.5951L29.9381 21.596L30.9295 21.4648ZM31.8036 12.7073L32.7584 13.0047L32.7614 12.9946L31.8036 12.7073ZM32.3758 12.8821L33.3303 13.1805L33.3336 13.1695L32.3758 12.8821ZM31.5255 21.3853L32.5169 21.2546L32.5168 21.2538L31.5255 21.3853ZM32.344 24.7708L33.2952 24.4622L33.2949 24.4613L32.344 24.7708ZM33.3294 29.2369L32.3347 29.3395L32.335 29.3419L33.3294 29.2369ZM33.3215 32.5111L34.3159 32.6163L34.3164 32.6114L33.3215 32.5111ZM33.1705 36.3256L32.1707 36.3459L32.1707 36.3467L33.1705 36.3256ZM33.5837 41.3004L34.5747 41.1663L34.5745 41.1648L33.5837 41.3004ZM33.9493 45.9812L34.9493 45.9775L34.9493 45.9773L33.9493 45.9812ZM33.393 52.4659L32.408 52.2932L32.4066 52.3015L33.393 52.4659ZM33.1069 51.7122C33.0949 51.7122 33.1391 51.7114 33.1925 51.7174C33.2534 51.7241 33.3125 51.7373 33.3675 51.7556L32.7351 53.653C32.9152 53.713 33.0618 53.7122 33.1069 53.7122V51.7122ZM33.2474 51.7237C33.5753 51.7893 33.8806 52.1229 33.7935 52.5587L31.8323 52.1665C31.6816 52.9201 32.2094 53.5557 32.8552 53.6849L33.2474 51.7237ZM33.7979 52.5349C34.1737 50.3866 34.3612 48.1832 34.3612 45.9812H32.3612C32.3612 48.0705 32.1832 50.1585 31.8278 52.1903L33.7979 52.5349ZM34.3612 45.9772C34.353 43.8902 34.1706 42.5813 33.9863 41.2435L32.005 41.5163C32.1863 42.8328 32.3536 44.0351 32.3612 45.9851L34.3612 45.9772ZM33.9866 41.2458C33.8054 39.9061 33.6207 38.56 33.5743 36.3208L31.5747 36.3623C31.6236 38.7164 31.8204 40.1517 32.0047 41.514L33.9866 41.2458ZM33.5743 36.3216C33.5356 34.38 33.6355 33.3741 33.7201 32.5587L31.7308 32.3522C31.6406 33.2216 31.5339 34.3137 31.5747 36.3614L33.5743 36.3216ZM33.7201 32.5592C33.8195 31.6066 33.8968 30.8162 33.728 29.2043L31.7389 29.4126C31.8879 30.8364 31.8222 31.4765 31.7309 32.3517L33.7201 32.5592ZM33.7282 29.2066C33.5107 27.0815 33.0949 25.817 32.7244 24.6572L30.8193 25.2658C31.1799 26.3947 31.5429 27.4984 31.7386 29.4103L33.7282 29.2066ZM32.7228 24.6522C32.4092 23.6878 32.1071 22.7416 31.9208 21.3337L29.9381 21.596C30.1492 23.192 30.4987 24.2802 30.8209 25.2707L32.7228 24.6522ZM31.9209 21.3345C31.5766 18.7148 31.8499 15.9209 32.7584 13.0047L30.8489 12.4099C29.8659 15.5652 29.5512 18.652 29.938 21.5951L31.9209 21.3345ZM32.7614 12.9946C32.6466 13.3774 32.2471 13.5736 31.8898 13.4664L32.4645 11.5508C31.7893 11.3482 31.056 11.7193 30.8458 12.4199L32.7614 12.9946ZM31.8898 13.4664C31.507 13.3516 31.3108 12.952 31.418 12.5948L33.3336 13.1695C33.5362 12.4943 33.1651 11.761 32.4645 11.5508L31.8898 13.4664ZM31.4214 12.5837C30.462 15.6519 30.155 18.6601 30.5342 21.5169L32.5168 21.2538C32.1808 18.7226 32.4459 16.0089 33.3302 13.1805L31.4214 12.5837ZM30.5341 21.5161C30.7373 23.0571 31.0632 24.0664 31.3931 25.0802L33.2949 24.4613C32.9732 23.4725 32.6951 22.6063 32.5169 21.2546L30.5341 21.5161ZM31.3928 25.0793C31.7665 26.2314 32.1308 27.3613 32.3347 29.3395L34.3242 29.1344C34.0989 26.9484 33.6845 25.6624 33.2952 24.4622L31.3928 25.0793ZM32.335 29.3419C32.4917 30.8268 32.4186 31.4975 32.3265 32.4108L34.3164 32.6114C34.4151 31.6333 34.501 30.81 34.3239 29.132L32.335 29.3419ZM32.327 32.4059C32.2367 33.2599 32.1299 34.3369 32.1707 36.3459L34.1703 36.3053C34.1316 34.4044 34.2314 33.4152 34.3159 32.6163L32.327 32.4059ZM32.1707 36.3467C32.2196 38.6674 32.4081 40.0855 32.593 41.4361L34.5745 41.1648C34.3938 39.8452 34.2168 38.5137 34.1703 36.3046L32.1707 36.3467ZM32.5928 41.4345C32.7741 42.775 32.9416 44.0021 32.9493 45.9851L34.9493 45.9773C34.9411 43.8597 34.7589 42.5278 34.5747 41.1663L32.5928 41.4345ZM32.9493 45.9848C32.957 48.1018 32.7716 50.2202 32.408 52.2932L34.378 52.6386C34.7614 50.452 34.9575 48.2155 34.9493 45.9775L32.9493 45.9848ZM32.4066 52.3015C32.4605 51.978 32.7454 51.7122 33.1069 51.7122V53.7122C33.7545 53.7122 34.2778 53.2398 34.3794 52.6303L32.4066 52.3015Z" fill="black" mask="url(#path-6-inside-3_6155_12409)"/>
<mask id="path-8-inside-4_6155_12409" fill="white">
<path d="M17.0634 16.1482C16.9283 16.1482 16.8012 16.0529 16.7694 15.9098L16.0223 12.4052C15.9906 12.2463 16.0939 12.0873 16.2528 12.0556C16.4197 12.0238 16.5707 12.1271 16.6104 12.286L17.3574 15.7906C17.3892 15.9496 17.2859 16.1085 17.127 16.1403C17.1031 16.1482 17.0793 16.1482 17.0634 16.1482Z"/>
</mask>
<path d="M17.0634 16.1482C16.9283 16.1482 16.8012 16.0529 16.7694 15.9098L16.0223 12.4052C15.9906 12.2463 16.0939 12.0873 16.2528 12.0556C16.4197 12.0238 16.5707 12.1271 16.6104 12.286L17.3574 15.7906C17.3892 15.9496 17.2859 16.1085 17.127 16.1403C17.1031 16.1482 17.0793 16.1482 17.0634 16.1482Z" fill="#231C1A"/>
<path d="M16.7694 15.9098L15.7913 16.1183L15.7932 16.1268L16.7694 15.9098ZM16.0223 12.4052L15.0417 12.6013L15.0443 12.6137L16.0223 12.4052ZM16.2528 12.0556L16.0657 11.0732L16.0567 11.075L16.2528 12.0556ZM16.6104 12.286L17.5884 12.0775L17.5848 12.0604L17.5806 12.0435L16.6104 12.286ZM17.3574 15.7906L18.3381 15.5945L18.3355 15.5822L17.3574 15.7906ZM17.127 16.1403L16.9309 15.1597L16.8698 15.1719L16.8108 15.1916L17.127 16.1403ZM17.0634 15.1482C17.3868 15.1482 17.6735 15.3685 17.7456 15.6929L15.7932 16.1268C15.9288 16.7372 16.4698 17.1482 17.0634 17.1482V15.1482ZM17.7474 15.7014L17.0004 12.1967L15.0443 12.6137L15.7913 16.1183L17.7474 15.7014ZM17.0029 12.2091C17.0768 12.5783 16.8449 12.9569 16.4489 13.0361L16.0567 11.075C15.3429 11.2177 14.9043 11.9142 15.0418 12.6013L17.0029 12.2091ZM16.4399 13.0379C16.0645 13.1094 15.7238 12.8626 15.6403 12.5285L17.5806 12.0435C17.4176 11.3916 16.7749 10.9381 16.0657 11.0732L16.4399 13.0379ZM15.6324 12.4945L16.3794 15.9991L18.3355 15.5822L17.5884 12.0775L15.6324 12.4945ZM16.3768 15.9867C16.303 15.6176 16.5348 15.2389 16.9309 15.1597L17.3231 17.1209C18.037 16.9781 18.4754 16.2815 18.338 15.5945L16.3768 15.9867ZM16.8108 15.1916C16.8921 15.1645 16.9603 15.1551 17.0017 15.1513C17.0414 15.1477 17.0731 15.1482 17.0634 15.1482V17.1482C17.0714 17.1482 17.2469 17.1544 17.4432 17.089L16.8108 15.1916Z" fill="black" mask="url(#path-8-inside-4_6155_12409)"/>
<mask id="path-10-inside-5_6155_12409" fill="white">
<path d="M17.8733 14.3999C17.7064 14.3999 17.5713 14.2648 17.5713 14.0979V13.1443C17.5713 12.9774 17.7064 12.8423 17.8733 12.8423C18.0401 12.8423 18.1752 12.9774 18.1752 13.1443V14.0979C18.1752 14.2648 18.0401 14.3999 17.8733 14.3999Z"/>
</mask>
<path d="M17.8733 14.3999C17.7064 14.3999 17.5713 14.2648 17.5713 14.0979V13.1443C17.5713 12.9774 17.7064 12.8423 17.8733 12.8423C18.0401 12.8423 18.1752 12.9774 18.1752 13.1443V14.0979C18.1752 14.2648 18.0401 14.3999 17.8733 14.3999Z" fill="#231C1A"/>
<path d="M17.8733 13.3999C18.2587 13.3999 18.5713 13.7126 18.5713 14.0979H16.5713C16.5713 14.817 17.154 15.3999 17.8733 15.3999V13.3999ZM18.5713 14.0979V13.1443H16.5713V14.0979H18.5713ZM18.5713 13.1443C18.5713 13.5296 18.2587 13.8423 17.8733 13.8423V11.8423C17.154 11.8423 16.5713 12.4252 16.5713 13.1443H18.5713ZM17.8733 13.8423C17.4879 13.8423 17.1752 13.5297 17.1752 13.1443H19.1752C19.1752 12.4251 18.5924 11.8423 17.8733 11.8423V13.8423ZM17.1752 13.1443V14.0979H19.1752V13.1443H17.1752ZM17.1752 14.0979C17.1752 13.7125 17.4879 13.3999 17.8733 13.3999V15.3999C18.5924 15.3999 19.1752 14.8171 19.1752 14.0979H17.1752Z" fill="black" mask="url(#path-10-inside-5_6155_12409)"/>
<mask id="path-12-inside-6_6155_12409" fill="white">
<path d="M45.8705 15.8065C45.8546 15.8065 45.8387 15.8065 45.8228 15.8065C45.6639 15.7827 45.5526 15.6237 45.5765 15.4648L45.8784 13.6529C45.9023 13.4939 46.0533 13.3747 46.2202 13.4065C46.3791 13.4304 46.4904 13.5893 46.4665 13.7482L46.1645 15.5601C46.1407 15.7032 46.0135 15.8065 45.8705 15.8065Z"/>
</mask>
<path d="M45.8705 15.8065C45.8546 15.8065 45.8387 15.8065 45.8228 15.8065C45.6639 15.7827 45.5526 15.6237 45.5765 15.4648L45.8784 13.6529C45.9023 13.4939 46.0533 13.3747 46.2202 13.4065C46.3791 13.4304 46.4904 13.5893 46.4665 13.7482L46.1645 15.5601C46.1407 15.7032 46.0135 15.8065 45.8705 15.8065Z" fill="#231C1A"/>
<path d="M45.8228 15.8065L45.6745 16.7954L45.7482 16.8065H45.8228V15.8065ZM45.5765 15.4648L44.5901 15.3004L44.5887 15.3084L44.5875 15.3164L45.5765 15.4648ZM45.8784 13.6529L46.8648 13.8173L46.8662 13.8093L46.8674 13.8012L45.8784 13.6529ZM46.2202 13.4065L46.033 14.3889L46.0524 14.3925L46.0718 14.3955L46.2202 13.4065ZM46.4665 13.7482L47.4529 13.9126L47.4542 13.9046L47.4555 13.8966L46.4665 13.7482ZM46.1645 15.5601L45.1781 15.3957L45.1781 15.3957L46.1645 15.5601ZM45.8705 14.8065C45.8705 14.8065 45.8704 14.8065 45.8704 14.8065C45.8704 14.8065 45.8703 14.8065 45.8703 14.8065C45.8703 14.8065 45.8702 14.8065 45.8702 14.8065C45.8702 14.8065 45.8702 14.8065 45.8701 14.8065C45.8701 14.8065 45.8701 14.8065 45.87 14.8065C45.87 14.8065 45.87 14.8065 45.8699 14.8065C45.8699 14.8065 45.8699 14.8065 45.8698 14.8065C45.8698 14.8065 45.8698 14.8065 45.8697 14.8065C45.8697 14.8065 45.8697 14.8065 45.8697 14.8065C45.8696 14.8065 45.8696 14.8065 45.8696 14.8065C45.8695 14.8065 45.8695 14.8065 45.8695 14.8065C45.8694 14.8065 45.8694 14.8065 45.8694 14.8065C45.8693 14.8065 45.8693 14.8065 45.8693 14.8065C45.8693 14.8065 45.8692 14.8065 45.8692 14.8065C45.8692 14.8065 45.8691 14.8065 45.8691 14.8065C45.8691 14.8065 45.869 14.8065 45.869 14.8065C45.869 14.8065 45.8689 14.8065 45.8689 14.8065C45.8689 14.8065 45.8688 14.8065 45.8688 14.8065C45.8688 14.8065 45.8688 14.8065 45.8687 14.8065C45.8687 14.8065 45.8687 14.8065 45.8686 14.8065C45.8686 14.8065 45.8686 14.8065 45.8685 14.8065C45.8685 14.8065 45.8685 14.8065 45.8684 14.8065C45.8684 14.8065 45.8684 14.8065 45.8684 14.8065C45.8683 14.8065 45.8683 14.8065 45.8683 14.8065C45.8682 14.8065 45.8682 14.8065 45.8682 14.8065C45.8681 14.8065 45.8681 14.8065 45.8681 14.8065C45.868 14.8065 45.868 14.8065 45.868 14.8065C45.8679 14.8065 45.8679 14.8065 45.8679 14.8065C45.8679 14.8065 45.8678 14.8065 45.8678 14.8065C45.8678 14.8065 45.8677 14.8065 45.8677 14.8065C45.8677 14.8065 45.8676 14.8065 45.8676 14.8065C45.8676 14.8065 45.8675 14.8065 45.8675 14.8065C45.8675 14.8065 45.8675 14.8065 45.8674 14.8065C45.8674 14.8065 45.8674 14.8065 45.8673 14.8065C45.8673 14.8065 45.8673 14.8065 45.8672 14.8065C45.8672 14.8065 45.8672 14.8065 45.8671 14.8065C45.8671 14.8065 45.8671 14.8065 45.867 14.8065C45.867 14.8065 45.867 14.8065 45.867 14.8065C45.8669 14.8065 45.8669 14.8065 45.8669 14.8065C45.8668 14.8065 45.8668 14.8065 45.8668 14.8065C45.8667 14.8065 45.8667 14.8065 45.8667 14.8065C45.8666 14.8065 45.8666 14.8065 45.8666 14.8065C45.8666 14.8065 45.8665 14.8065 45.8665 14.8065C45.8665 14.8065 45.8664 14.8065 45.8664 14.8065C45.8664 14.8065 45.8663 14.8065 45.8663 14.8065C45.8663 14.8065 45.8662 14.8065 45.8662 14.8065C45.8662 14.8065 45.8661 14.8065 45.8661 14.8065C45.8661 14.8065 45.8661 14.8065 45.866 14.8065C45.866 14.8065 45.866 14.8065 45.8659 14.8065C45.8659 14.8065 45.8659 14.8065 45.8658 14.8065C45.8658 14.8065 45.8658 14.8065 45.8657 14.8065C45.8657 14.8065 45.8657 14.8065 45.8657 14.8065C45.8656 14.8065 45.8656 14.8065 45.8656 14.8065C45.8655 14.8065 45.8655 14.8065 45.8655 14.8065C45.8654 14.8065 45.8654 14.8065 45.8654 14.8065C45.8653 14.8065 45.8653 14.8065 45.8653 14.8065C45.8652 14.8065 45.8652 14.8065 45.8652 14.8065C45.8652 14.8065 45.8651 14.8065 45.8651 14.8065C45.8651 14.8065 45.865 14.8065 45.865 14.8065C45.865 14.8065 45.8649 14.8065 45.8649 14.8065C45.8649 14.8065 45.8648 14.8065 45.8648 14.8065C45.8648 14.8065 45.8648 14.8065 45.8647 14.8065C45.8647 14.8065 45.8647 14.8065 45.8646 14.8065C45.8646 14.8065 45.8646 14.8065 45.8645 14.8065C45.8645 14.8065 45.8645 14.8065 45.8644 14.8065C45.8644 14.8065 45.8644 14.8065 45.8643 14.8065C45.8643 14.8065 45.8643 14.8065 45.8643 14.8065C45.8642 14.8065 45.8642 14.8065 45.8642 14.8065C45.8641 14.8065 45.8641 14.8065 45.8641 14.8065C45.864 14.8065 45.864 14.8065 45.864 14.8065C45.8639 14.8065 45.8639 14.8065 45.8639 14.8065C45.8639 14.8065 45.8638 14.8065 45.8638 14.8065C45.8638 14.8065 45.8637 14.8065 45.8637 14.8065C45.8637 14.8065 45.8636 14.8065 45.8636 14.8065C45.8636 14.8065 45.8635 14.8065 45.8635 14.8065C45.8635 14.8065 45.8634 14.8065 45.8634 14.8065C45.8634 14.8065 45.8634 14.8065 45.8633 14.8065C45.8633 14.8065 45.8633 14.8065 45.8632 14.8065C45.8632 14.8065 45.8632 14.8065 45.8631 14.8065C45.8631 14.8065 45.8631 14.8065 45.863 14.8065C45.863 14.8065 45.863 14.8065 45.863 14.8065C45.8629 14.8065 45.8629 14.8065 45.8629 14.8065C45.8628 14.8065 45.8628 14.8065 45.8628 14.8065C45.8627 14.8065 45.8627 14.8065 45.8627 14.8065C45.8626 14.8065 45.8626 14.8065 45.8626 14.8065C45.8625 14.8065 45.8625 14.8065 45.8625 14.8065C45.8625 14.8065 45.8624 14.8065 45.8624 14.8065C45.8624 14.8065 45.8623 14.8065 45.8623 14.8065C45.8623 14.8065 45.8622 14.8065 45.8622 14.8065C45.8622 14.8065 45.8621 14.8065 45.8621 14.8065C45.8621 14.8065 45.8621 14.8065 45.862 14.8065C45.862 14.8065 45.862 14.8065 45.8619 14.8065C45.8619 14.8065 45.8619 14.8065 45.8618 14.8065C45.8618 14.8065 45.8618 14.8065 45.8617 14.8065C45.8617 14.8065 45.8617 14.8065 45.8616 14.8065C45.8616 14.8065 45.8616 14.8065 45.8616 14.8065C45.8615 14.8065 45.8615 14.8065 45.8615 14.8065C45.8614 14.8065 45.8614 14.8065 45.8614 14.8065C45.8613 14.8065 45.8613 14.8065 45.8613 14.8065C45.8612 14.8065 45.8612 14.8065 45.8612 14.8065C45.8612 14.8065 45.8611 14.8065 45.8611 14.8065C45.8611 14.8065 45.861 14.8065 45.861 14.8065C45.861 14.8065 45.8609 14.8065 45.8609 14.8065C45.8609 14.8065 45.8608 14.8065 45.8608 14.8065C45.8608 14.8065 45.8607 14.8065 45.8607 14.8065C45.8607 14.8065 45.8607 14.8065 45.8606 14.8065C45.8606 14.8065 45.8606 14.8065 45.8605 14.8065C45.8605 14.8065 45.8605 14.8065 45.8604 14.8065C45.8604 14.8065 45.8604 14.8065 45.8603 14.8065C45.8603 14.8065 45.8603 14.8065 45.8602 14.8065C45.8602 14.8065 45.8602 14.8065 45.8602 14.8065C45.8601 14.8065 45.8601 14.8065 45.8601 14.8065C45.86 14.8065 45.86 14.8065 45.86 14.8065C45.8599 14.8065 45.8599 14.8065 45.8599 14.8065C45.8598 14.8065 45.8598 14.8065 45.8598 14.8065C45.8598 14.8065 45.8597 14.8065 45.8597 14.8065C45.8597 14.8065 45.8596 14.8065 45.8596 14.8065C45.8596 14.8065 45.8595 14.8065 45.8595 14.8065C45.8595 14.8065 45.8594 14.8065 45.8594 14.8065C45.8594 14.8065 45.8593 14.8065 45.8593 14.8065C45.8593 14.8065 45.8593 14.8065 45.8592 14.8065C45.8592 14.8065 45.8592 14.8065 45.8591 14.8065C45.8591 14.8065 45.8591 14.8065 45.859 14.8065C45.859 14.8065 45.859 14.8065 45.8589 14.8065C45.8589 14.8065 45.8589 14.8065 45.8589 14.8065C45.8588 14.8065 45.8588 14.8065 45.8588 14.8065C45.8587 14.8065 45.8587 14.8065 45.8587 14.8065C45.8586 14.8065 45.8586 14.8065 45.8586 14.8065C45.8585 14.8065 45.8585 14.8065 45.8585 14.8065C45.8584 14.8065 45.8584 14.8065 45.8584 14.8065C45.8584 14.8065 45.8583 14.8065 45.8583 14.8065C45.8583 14.8065 45.8582 14.8065 45.8582 14.8065C45.8582 14.8065 45.8581 14.8065 45.8581 14.8065C45.8581 14.8065 45.858 14.8065 45.858 14.8065C45.858 14.8065 45.858 14.8065 45.8579 14.8065C45.8579 14.8065 45.8579 14.8065 45.8578 14.8065C45.8578 14.8065 45.8578 14.8065 45.8577 14.8065C45.8577 14.8065 45.8577 14.8065 45.8576 14.8065C45.8576 14.8065 45.8576 14.8065 45.8575 14.8065C45.8575 14.8065 45.8575 14.8065 45.8575 14.8065C45.8574 14.8065 45.8574 14.8065 45.8574 14.8065C45.8573 14.8065 45.8573 14.8065 45.8573 14.8065C45.8572 14.8065 45.8572 14.8065 45.8572 14.8065C45.8571 14.8065 45.8571 14.8065 45.8571 14.8065C45.8571 14.8065 45.857 14.8065 45.857 14.8065C45.857 14.8065 45.8569 14.8065 45.8569 14.8065C45.8569 14.8065 45.8568 14.8065 45.8568 14.8065C45.8568 14.8065 45.8567 14.8065 45.8567 14.8065C45.8567 14.8065 45.8566 14.8065 45.8566 14.8065C45.8566 14.8065 45.8566 14.8065 45.8565 14.8065C45.8565 14.8065 45.8565 14.8065 45.8564 14.8065C45.8564 14.8065 45.8564 14.8065 45.8563 14.8065C45.8563 14.8065 45.8563 14.8065 45.8562 14.8065C45.8562 14.8065 45.8562 14.8065 45.8562 14.8065C45.8561 14.8065 45.8561 14.8065 45.8561 14.8065C45.856 14.8065 45.856 14.8065 45.856 14.8065C45.8559 14.8065 45.8559 14.8065 45.8559 14.8065C45.8558 14.8065 45.8558 14.8065 45.8558 14.8065C45.8557 14.8065 45.8557 14.8065 45.8557 14.8065C45.8557 14.8065 45.8556 14.8065 45.8556 14.8065C45.8556 14.8065 45.8555 14.8065 45.8555 14.8065C45.8555 14.8065 45.8554 14.8065 45.8554 14.8065C45.8554 14.8065 45.8553 14.8065 45.8553 14.8065C45.8553 14.8065 45.8553 14.8065 45.8552 14.8065C45.8552 14.8065 45.8552 14.8065 45.8551 14.8065C45.8551 14.8065 45.8551 14.8065 45.855 14.8065C45.855 14.8065 45.855 14.8065 45.8549 14.8065C45.8549 14.8065 45.8549 14.8065 45.8548 14.8065C45.8548 14.8065 45.8548 14.8065 45.8548 14.8065C45.8547 14.8065 45.8547 14.8065 45.8547 14.8065C45.8546 14.8065 45.8546 14.8065 45.8546 14.8065C45.8545 14.8065 45.8545 14.8065 45.8545 14.8065C45.8544 14.8065 45.8544 14.8065 45.8544 14.8065C45.8544 14.8065 45.8543 14.8065 45.8543 14.8065C45.8543 14.8065 45.8542 14.8065 45.8542 14.8065C45.8542 14.8065 45.8541 14.8065 45.8541 14.8065C45.8541 14.8065 45.854 14.8065 45.854 14.8065C45.854 14.8065 45.8539 14.8065 45.8539 14.8065C45.8539 14.8065 45.8539 14.8065 45.8538 14.8065C45.8538 14.8065 45.8538 14.8065 45.8537 14.8065C45.8537 14.8065 45.8537 14.8065 45.8536 14.8065C45.8536 14.8065 45.8536 14.8065 45.8535 14.8065C45.8535 14.8065 45.8535 14.8065 45.8535 14.8065C45.8534 14.8065 45.8534 14.8065 45.8534 14.8065C45.8533 14.8065 45.8533 14.8065 45.8533 14.8065C45.8532 14.8065 45.8532 14.8065 45.8532 14.8065C45.8531 14.8065 45.8531 14.8065 45.8531 14.8065C45.853 14.8065 45.853 14.8065 45.853 14.8065C45.853 14.8065 45.8529 14.8065 45.8529 14.8065C45.8529 14.8065 45.8528 14.8065 45.8528 14.8065C45.8528 14.8065 45.8527 14.8065 45.8527 14.8065C45.8527 14.8065 45.8526 14.8065 45.8526 14.8065C45.8526 14.8065 45.8526 14.8065 45.8525 14.8065C45.8525 14.8065 45.8525 14.8065 45.8524 14.8065C45.8524 14.8065 45.8524 14.8065 45.8523 14.8065C45.8523 14.8065 45.8523 14.8065 45.8522 14.8065C45.8522 14.8065 45.8522 14.8065 45.8521 14.8065C45.8521 14.8065 45.8521 14.8065 45.8521 14.8065C45.852 14.8065 45.852 14.8065 45.852 14.8065C45.8519 14.8065 45.8519 14.8065 45.8519 14.8065C45.8518 14.8065 45.8518 14.8065 45.8518 14.8065C45.8517 14.8065 45.8517 14.8065 45.8517 14.8065C45.8517 14.8065 45.8516 14.8065 45.8516 14.8065C45.8516 14.8065 45.8515 14.8065 45.8515 14.8065C45.8515 14.8065 45.8514 14.8065 45.8514 14.8065C45.8514 14.8065 45.8513 14.8065 45.8513 14.8065C45.8513 14.8065 45.8512 14.8065 45.8512 14.8065C45.8512 14.8065 45.8512 14.8065 45.8511 14.8065C45.8511 14.8065 45.8511 14.8065 45.851 14.8065C45.851 14.8065 45.851 14.8065 45.8509 14.8065C45.8509 14.8065 45.8509 14.8065 45.8508 14.8065C45.8508 14.8065 45.8508 14.8065 45.8508 14.8065C45.8507 14.8065 45.8507 14.8065 45.8507 14.8065C45.8506 14.8065 45.8506 14.8065 45.8506 14.8065C45.8505 14.8065 45.8505 14.8065 45.8505 14.8065C45.8504 14.8065 45.8504 14.8065 45.8504 14.8065C45.8503 14.8065 45.8503 14.8065 45.8503 14.8065C45.8503 14.8065 45.8502 14.8065 45.8502 14.8065C45.8502 14.8065 45.8501 14.8065 45.8501 14.8065C45.8501 14.8065 45.85 14.8065 45.85 14.8065C45.85 14.8065 45.8499 14.8065 45.8499 14.8065C45.8499 14.8065 45.8499 14.8065 45.8498 14.8065C45.8498 14.8065 45.8498 14.8065 45.8497 14.8065C45.8497 14.8065 45.8497 14.8065 45.8496 14.8065C45.8496 14.8065 45.8496 14.8065 45.8495 14.8065C45.8495 14.8065 45.8495 14.8065 45.8494 14.8065C45.8494 14.8065 45.8494 14.8065 45.8494 14.8065C45.8493 14.8065 45.8493 14.8065 45.8493 14.8065C45.8492 14.8065 45.8492 14.8065 45.8492 14.8065C45.8491 14.8065 45.8491 14.8065 45.8491 14.8065C45.849 14.8065 45.849 14.8065 45.849 14.8065C45.849 14.8065 45.8489 14.8065 45.8489 14.8065C45.8489 14.8065 45.8488 14.8065 45.8488 14.8065C45.8488 14.8065 45.8487 14.8065 45.8487 14.8065C45.8487 14.8065 45.8486 14.8065 45.8486 14.8065C45.8486 14.8065 45.8485 14.8065 45.8485 14.8065C45.8485 14.8065 45.8485 14.8065 45.8484 14.8065C45.8484 14.8065 45.8484 14.8065 45.8483 14.8065C45.8483 14.8065 45.8483 14.8065 45.8482 14.8065C45.8482 14.8065 45.8482 14.8065 45.8481 14.8065C45.8481 14.8065 45.8481 14.8065 45.8481 14.8065C45.848 14.8065 45.848 14.8065 45.848 14.8065C45.8479 14.8065 45.8479 14.8065 45.8479 14.8065C45.8478 14.8065 45.8478 14.8065 45.8478 14.8065C45.8477 14.8065 45.8477 14.8065 45.8477 14.8065C45.8476 14.8065 45.8476 14.8065 45.8476 14.8065C45.8476 14.8065 45.8475 14.8065 45.8475 14.8065C45.8475 14.8065 45.8474 14.8065 45.8474 14.8065C45.8474 14.8065 45.8473 14.8065 45.8473 14.8065C45.8473 14.8065 45.8472 14.8065 45.8472 14.8065C45.8472 14.8065 45.8472 14.8065 45.8471 14.8065C45.8471 14.8065 45.8471 14.8065 45.847 14.8065C45.847 14.8065 45.847 14.8065 45.8469 14.8065C45.8469 14.8065 45.8469 14.8065 45.8468 14.8065C45.8468 14.8065 45.8468 14.8065 45.8467 14.8065C45.8467 14.8065 45.8467 14.8065 45.8467 14.8065C45.8466 14.8065 45.8466 14.8065 45.8466 14.8065C45.8465 14.8065 45.8465 14.8065 45.8465 14.8065C45.8464 14.8065 45.8464 14.8065 45.8464 14.8065C45.8463 14.8065 45.8463 14.8065 45.8463 14.8065C45.8463 14.8065 45.8462 14.8065 45.8462 14.8065C45.8462 14.8065 45.8461 14.8065 45.8461 14.8065C45.8461 14.8065 45.846 14.8065 45.846 14.8065C45.846 14.8065 45.8459 14.8065 45.8459 14.8065C45.8459 14.8065 45.8458 14.8065 45.8458 14.8065C45.8458 14.8065 45.8458 14.8065 45.8457 14.8065C45.8457 14.8065 45.8457 14.8065 45.8456 14.8065C45.8456 14.8065 45.8456 14.8065 45.8455 14.8065C45.8455 14.8065 45.8455 14.8065 45.8454 14.8065C45.8454 14.8065 45.8454 14.8065 45.8454 14.8065C45.8453 14.8065 45.8453 14.8065 45.8453 14.8065C45.8452 14.8065 45.8452 14.8065 45.8452 14.8065C45.8451 14.8065 45.8451 14.8065 45.8451 14.8065C45.845 14.8065 45.845 14.8065 45.845 14.8065C45.8449 14.8065 45.8449 14.8065 45.8449 14.8065C45.8449 14.8065 45.8448 14.8065 45.8448 14.8065C45.8448 14.8065 45.8447 14.8065 45.8447 14.8065C45.8447 14.8065 45.8446 14.8065 45.8446 14.8065C45.8446 14.8065 45.8445 14.8065 45.8445 14.8065C45.8445 14.8065 45.8445 14.8065 45.8444 14.8065C45.8444 14.8065 45.8444 14.8065 45.8443 14.8065C45.8443 14.8065 45.8443 14.8065 45.8442 14.8065C45.8442 14.8065 45.8442 14.8065 45.8441 14.8065C45.8441 14.8065 45.8441 14.8065 45.844 14.8065C45.844 14.8065 45.844 14.8065 45.844 14.8065C45.8439 14.8065 45.8439 14.8065 45.8439 14.8065C45.8438 14.8065 45.8438 14.8065 45.8438 14.8065C45.8437 14.8065 45.8437 14.8065 45.8437 14.8065C45.8436 14.8065 45.8436 14.8065 45.8436 14.8065C45.8435 14.8065 45.8435 14.8065 45.8435 14.8065C45.8435 14.8065 45.8434 14.8065 45.8434 14.8065C45.8434 14.8065 45.8433 14.8065 45.8433 14.8065C45.8433 14.8065 45.8432 14.8065 45.8432 14.8065C45.8432 14.8065 45.8431 14.8065 45.8431 14.8065C45.8431 14.8065 45.8431 14.8065 45.843 14.8065C45.843 14.8065 45.843 14.8065 45.8429 14.8065C45.8429 14.8065 45.8429 14.8065 45.8428 14.8065C45.8428 14.8065 45.8428 14.8065 45.8427 14.8065C45.8427 14.8065 45.8427 14.8065 45.8426 14.8065C45.8426 14.8065 45.8426 14.8065 45.8426 14.8065C45.8425 14.8065 45.8425 14.8065 45.8425 14.8065C45.8424 14.8065 45.8424 14.8065 45.8424 14.8065C45.8423 14.8065 45.8423 14.8065 45.8423 14.8065C45.8422 14.8065 45.8422 14.8065 45.8422 14.8065C45.8422 14.8065 45.8421 14.8065 45.8421 14.8065C45.8421 14.8065 45.842 14.8065 45.842 14.8065C45.842 14.8065 45.8419 14.8065 45.8419 14.8065C45.8419 14.8065 45.8418 14.8065 45.8418 14.8065C45.8418 14.8065 45.8417 14.8065 45.8417 14.8065C45.8417 14.8065 45.8417 14.8065 45.8416 14.8065C45.8416 14.8065 45.8416 14.8065 45.8415 14.8065C45.8415 14.8065 45.8415 14.8065 45.8414 14.8065C45.8414 14.8065 45.8414 14.8065 45.8413 14.8065C45.8413 14.8065 45.8413 14.8065 45.8413 14.8065C45.8412 14.8065 45.8412 14.8065 45.8412 14.8065C45.8411 14.8065 45.8411 14.8065 45.8411 14.8065C45.841 14.8065 45.841 14.8065 45.841 14.8065C45.8409 14.8065 45.8409 14.8065 45.8409 14.8065C45.8408 14.8065 45.8408 14.8065 45.8408 14.8065C45.8408 14.8065 45.8407 14.8065 45.8407 14.8065C45.8407 14.8065 45.8406 14.8065 45.8406 14.8065C45.8406 14.8065 45.8405 14.8065 45.8405 14.8065C45.8405 14.8065 45.8404 14.8065 45.8404 14.8065C45.8404 14.8065 45.8404 14.8065 45.8403 14.8065C45.8403 14.8065 45.8403 14.8065 45.8402 14.8065C45.8402 14.8065 45.8402 14.8065 45.8401 14.8065C45.8401 14.8065 45.8401 14.8065 45.84 14.8065C45.84 14.8065 45.84 14.8065 45.8399 14.8065C45.8399 14.8065 45.8399 14.8065 45.8399 14.8065C45.8398 14.8065 45.8398 14.8065 45.8398 14.8065C45.8397 14.8065 45.8397 14.8065 45.8397 14.8065C45.8396 14.8065 45.8396 14.8065 45.8396 14.8065C45.8395 14.8065 45.8395 14.8065 45.8395 14.8065C45.8395 14.8065 45.8394 14.8065 45.8394 14.8065C45.8394 14.8065 45.8393 14.8065 45.8393 14.8065C45.8393 14.8065 45.8392 14.8065 45.8392 14.8065C45.8392 14.8065 45.8391 14.8065 45.8391 14.8065C45.8391 14.8065 45.839 14.8065 45.839 14.8065C45.839 14.8065 45.839 14.8065 45.8389 14.8065C45.8389 14.8065 45.8389 14.8065 45.8388 14.8065C45.8388 14.8065 45.8388 14.8065 45.8387 14.8065C45.8387 14.8065 45.8387 14.8065 45.8386 14.8065C45.8386 14.8065 45.8386 14.8065 45.8386 14.8065C45.8385 14.8065 45.8385 14.8065 45.8385 14.8065C45.8384 14.8065 45.8384 14.8065 45.8384 14.8065C45.8383 14.8065 45.8383 14.8065 45.8383 14.8065C45.8382 14.8065 45.8382 14.8065 45.8382 14.8065C45.8381 14.8065 45.8381 14.8065 45.8381 14.8065C45.8381 14.8065 45.838 14.8065 45.838 14.8065C45.838 14.8065 45.8379 14.8065 45.8379 14.8065C45.8379 14.8065 45.8378 14.8065 45.8378 14.8065C45.8378 14.8065 45.8377 14.8065 45.8377 14.8065C45.8377 14.8065 45.8377 14.8065 45.8376 14.8065C45.8376 14.8065 45.8376 14.8065 45.8375 14.8065C45.8375 14.8065 45.8375 14.8065 45.8374 14.8065C45.8374 14.8065 45.8374 14.8065 45.8373 14.8065C45.8373 14.8065 45.8373 14.8065 45.8372 14.8065C45.8372 14.8065 45.8372 14.8065 45.8372 14.8065C45.8371 14.8065 45.8371 14.8065 45.8371 14.8065C45.837 14.8065 45.837 14.8065 45.837 14.8065C45.8369 14.8065 45.8369 14.8065 45.8369 14.8065C45.8368 14.8065 45.8368 14.8065 45.8368 14.8065C45.8368 14.8065 45.8367 14.8065 45.8367 14.8065C45.8367 14.8065 45.8366 14.8065 45.8366 14.8065C45.8366 14.8065 45.8365 14.8065 45.8365 14.8065C45.8365 14.8065 45.8364 14.8065 45.8364 14.8065C45.8364 14.8065 45.8363 14.8065 45.8363 14.8065C45.8363 14.8065 45.8363 14.8065 45.8362 14.8065C45.8362 14.8065 45.8362 14.8065 45.8361 14.8065C45.8361 14.8065 45.8361 14.8065 45.836 14.8065C45.836 14.8065 45.836 14.8065 45.8359 14.8065C45.8359 14.8065 45.8359 14.8065 45.8359 14.8065C45.8358 14.8065 45.8358 14.8065 45.8358 14.8065C45.8357 14.8065 45.8357 14.8065 45.8357 14.8065C45.8356 14.8065 45.8356 14.8065 45.8356 14.8065C45.8355 14.8065 45.8355 14.8065 45.8355 14.8065C45.8354 14.8065 45.8354 14.8065 45.8354 14.8065C45.8354 14.8065 45.8353 14.8065 45.8353 14.8065C45.8353 14.8065 45.8352 14.8065 45.8352 14.8065C45.8352 14.8065 45.8351 14.8065 45.8351 14.8065C45.8351 14.8065 45.835 14.8065 45.835 14.8065C45.835 14.8065 45.835 14.8065 45.8349 14.8065C45.8349 14.8065 45.8349 14.8065 45.8348 14.8065C45.8348 14.8065 45.8348 14.8065 45.8347 14.8065C45.8347 14.8065 45.8347 14.8065 45.8346 14.8065C45.8346 14.8065 45.8346 14.8065 45.8345 14.8065C45.8345 14.8065 45.8345 14.8065 45.8345 14.8065C45.8344 14.8065 45.8344 14.8065 45.8344 14.8065C45.8343 14.8065 45.8343 14.8065 45.8343 14.8065C45.8342 14.8065 45.8342 14.8065 45.8342 14.8065C45.8341 14.8065 45.8341 14.8065 45.8341 14.8065C45.8341 14.8065 45.834 14.8065 45.834 14.8065C45.834 14.8065 45.8339 14.8065 45.8339 14.8065C45.8339 14.8065 45.8338 14.8065 45.8338 14.8065C45.8338 14.8065 45.8337 14.8065 45.8337 14.8065C45.8337 14.8065 45.8336 14.8065 45.8336 14.8065C45.8336 14.8065 45.8336 14.8065 45.8335 14.8065C45.8335 14.8065 45.8335 14.8065 45.8334 14.8065C45.8334 14.8065 45.8334 14.8065 45.8333 14.8065C45.8333 14.8065 45.8333 14.8065 45.8332 14.8065C45.8332 14.8065 45.8332 14.8065 45.8332 14.8065C45.8331 14.8065 45.8331 14.8065 45.8331 14.8065C45.833 14.8065 45.833 14.8065 45.833 14.8065C45.8329 14.8065 45.8329 14.8065 45.8329 14.8065C45.8328 14.8065 45.8328 14.8065 45.8328 14.8065C45.8327 14.8065 45.8327 14.8065 45.8327 14.8065C45.8327 14.8065 45.8326 14.8065 45.8326 14.8065C45.8326 14.8065 45.8325 14.8065 45.8325 14.8065C45.8325 14.8065 45.8324 14.8065 45.8324 14.8065C45.8324 14.8065 45.8323 14.8065 45.8323 14.8065C45.8323 14.8065 45.8323 14.8065 45.8322 14.8065C45.8322 14.8065 45.8322 14.8065 45.8321 14.8065C45.8321 14.8065 45.8321 14.8065 45.832 14.8065C45.832 14.8065 45.832 14.8065 45.8319 14.8065C45.8319 14.8065 45.8319 14.8065 45.8318 14.8065C45.8318 14.8065 45.8318 14.8065 45.8318 14.8065C45.8317 14.8065 45.8317 14.8065 45.8317 14.8065C45.8316 14.8065 45.8316 14.8065 45.8316 14.8065C45.8315 14.8065 45.8315 14.8065 45.8315 14.8065C45.8314 14.8065 45.8314 14.8065 45.8314 14.8065C45.8314 14.8065 45.8313 14.8065 45.8313 14.8065C45.8313 14.8065 45.8312 14.8065 45.8312 14.8065C45.8312 14.8065 45.8311 14.8065 45.8311 14.8065C45.8311 14.8065 45.831 14.8065 45.831 14.8065C45.831 14.8065 45.8309 14.8065 45.8309 14.8065C45.8309 14.8065 45.8309 14.8065 45.8308 14.8065C45.8308 14.8065 45.8308 14.8065 45.8307 14.8065C45.8307 14.8065 45.8307 14.8065 45.8306 14.8065C45.8306 14.8065 45.8306 14.8065 45.8305 14.8065C45.8305 14.8065 45.8305 14.8065 45.8305 14.8065C45.8304 14.8065 45.8304 14.8065 45.8304 14.8065C45.8303 14.8065 45.8303 14.8065 45.8303 14.8065C45.8302 14.8065 45.8302 14.8065 45.8302 14.8065C45.8301 14.8065 45.8301 14.8065 45.8301 14.8065C45.83 14.8065 45.83 14.8065 45.83 14.8065C45.83 14.8065 45.8299 14.8065 45.8299 14.8065C45.8299 14.8065 45.8298 14.8065 45.8298 14.8065C45.8298 14.8065 45.8297 14.8065 45.8297 14.8065C45.8297 14.8065 45.8296 14.8065 45.8296 14.8065C45.8296 14.8065 45.8296 14.8065 45.8295 14.8065C45.8295 14.8065 45.8295 14.8065 45.8294 14.8065C45.8294 14.8065 45.8294 14.8065 45.8293 14.8065C45.8293 14.8065 45.8293 14.8065 45.8292 14.8065C45.8292 14.8065 45.8292 14.8065 45.8291 14.8065C45.8291 14.8065 45.8291 14.8065 45.8291 14.8065C45.829 14.8065 45.829 14.8065 45.829 14.8065C45.8289 14.8065 45.8289 14.8065 45.8289 14.8065C45.8288 14.8065 45.8288 14.8065 45.8288 14.8065C45.8287 14.8065 45.8287 14.8065 45.8287 14.8065C45.8287 14.8065 45.8286 14.8065 45.8286 14.8065C45.8286 14.8065 45.8285 14.8065 45.8285 14.8065C45.8285 14.8065 45.8284 14.8065 45.8284 14.8065C45.8284 14.8065 45.8283 14.8065 45.8283 14.8065C45.8283 14.8065 45.8282 14.8065 45.8282 14.8065C45.8282 14.8065 45.8282 14.8065 45.8281 14.8065C45.8281 14.8065 45.8281 14.8065 45.828 14.8065C45.828 14.8065 45.828 14.8065 45.8279 14.8065C45.8279 14.8065 45.8279 14.8065 45.8278 14.8065C45.8278 14.8065 45.8278 14.8065 45.8277 14.8065C45.8277 14.8065 45.8277 14.8065 45.8277 14.8065C45.8276 14.8065 45.8276 14.8065 45.8276 14.8065C45.8275 14.8065 45.8275 14.8065 45.8275 14.8065C45.8274 14.8065 45.8274 14.8065 45.8274 14.8065C45.8273 14.8065 45.8273 14.8065 45.8273 14.8065C45.8273 14.8065 45.8272 14.8065 45.8272 14.8065C45.8272 14.8065 45.8271 14.8065 45.8271 14.8065C45.8271 14.8065 45.827 14.8065 45.827 14.8065C45.827 14.8065 45.8269 14.8065 45.8269 14.8065C45.8269 14.8065 45.8268 14.8065 45.8268 14.8065C45.8268 14.8065 45.8268 14.8065 45.8267 14.8065C45.8267 14.8065 45.8267 14.8065 45.8266 14.8065C45.8266 14.8065 45.8266 14.8065 45.8265 14.8065C45.8265 14.8065 45.8265 14.8065 45.8264 14.8065C45.8264 14.8065 45.8264 14.8065 45.8264 14.8065C45.8263 14.8065 45.8263 14.8065 45.8263 14.8065C45.8262 14.8065 45.8262 14.8065 45.8262 14.8065C45.8261 14.8065 45.8261 14.8065 45.8261 14.8065C45.826 14.8065 45.826 14.8065 45.826 14.8065C45.8259 14.8065 45.8259 14.8065 45.8259 14.8065C45.8259 14.8065 45.8258 14.8065 45.8258 14.8065C45.8258 14.8065 45.8257 14.8065 45.8257 14.8065C45.8257 14.8065 45.8256 14.8065 45.8256 14.8065C45.8256 14.8065 45.8255 14.8065 45.8255 14.8065C45.8255 14.8065 45.8255 14.8065 45.8254 14.8065C45.8254 14.8065 45.8254 14.8065 45.8253 14.8065C45.8253 14.8065 45.8253 14.8065 45.8252 14.8065C45.8252 14.8065 45.8252 14.8065 45.8251 14.8065C45.8251 14.8065 45.8251 14.8065 45.825 14.8065C45.825 14.8065 45.825 14.8065 45.825 14.8065C45.8249 14.8065 45.8249 14.8065 45.8249 14.8065C45.8248 14.8065 45.8248 14.8065 45.8248 14.8065C45.8247 14.8065 45.8247 14.8065 45.8247 14.8065C45.8246 14.8065 45.8246 14.8065 45.8246 14.8065C45.8246 14.8065 45.8245 14.8065 45.8245 14.8065C45.8245 14.8065 45.8244 14.8065 45.8244 14.8065C45.8244 14.8065 45.8243 14.8065 45.8243 14.8065C45.8243 14.8065 45.8242 14.8065 45.8242 14.8065C45.8242 14.8065 45.8241 14.8065 45.8241 14.8065C45.8241 14.8065 45.8241 14.8065 45.824 14.8065C45.824 14.8065 45.824 14.8065 45.8239 14.8065C45.8239 14.8065 45.8239 14.8065 45.8238 14.8065C45.8238 14.8065 45.8238 14.8065 45.8237 14.8065C45.8237 14.8065 45.8237 14.8065 45.8237 14.8065C45.8236 14.8065 45.8236 14.8065 45.8236 14.8065C45.8235 14.8065 45.8235 14.8065 45.8235 14.8065C45.8234 14.8065 45.8234 14.8065 45.8234 14.8065C45.8233 14.8065 45.8233 14.8065 45.8233 14.8065C45.8232 14.8065 45.8232 14.8065 45.8232 14.8065C45.8232 14.8065 45.8231 14.8065 45.8231 14.8065C45.8231 14.8065 45.823 14.8065 45.823 14.8065C45.823 14.8065 45.8229 14.8065 45.8229 14.8065C45.8229 14.8065 45.8228 14.8065 45.8228 14.8065V16.8065C45.8228 16.8065 45.8229 16.8065 45.8229 16.8065C45.8229 16.8065 45.823 16.8065 45.823 16.8065C45.823 16.8065 45.8231 16.8065 45.8231 16.8065C45.8231 16.8065 45.8232 16.8065 45.8232 16.8065C45.8232 16.8065 45.8232 16.8065 45.8233 16.8065C45.8233 16.8065 45.8233 16.8065 45.8234 16.8065C45.8234 16.8065 45.8234 16.8065 45.8235 16.8065C45.8235 16.8065 45.8235 16.8065 45.8236 16.8065C45.8236 16.8065 45.8236 16.8065 45.8237 16.8065C45.8237 16.8065 45.8237 16.8065 45.8237 16.8065C45.8238 16.8065 45.8238 16.8065 45.8238 16.8065C45.8239 16.8065 45.8239 16.8065 45.8239 16.8065C45.824 16.8065 45.824 16.8065 45.824 16.8065C45.8241 16.8065 45.8241 16.8065 45.8241 16.8065C45.8241 16.8065 45.8242 16.8065 45.8242 16.8065C45.8242 16.8065 45.8243 16.8065 45.8243 16.8065C45.8243 16.8065 45.8244 16.8065 45.8244 16.8065C45.8244 16.8065 45.8245 16.8065 45.8245 16.8065C45.8245 16.8065 45.8246 16.8065 45.8246 16.8065C45.8246 16.8065 45.8246 16.8065 45.8247 16.8065C45.8247 16.8065 45.8247 16.8065 45.8248 16.8065C45.8248 16.8065 45.8248 16.8065 45.8249 16.8065C45.8249 16.8065 45.8249 16.8065 45.825 16.8065C45.825 16.8065 45.825 16.8065 45.825 16.8065C45.8251 16.8065 45.8251 16.8065 45.8251 16.8065C45.8252 16.8065 45.8252 16.8065 45.8252 16.8065C45.8253 16.8065 45.8253 16.8065 45.8253 16.8065C45.8254 16.8065 45.8254 16.8065 45.8254 16.8065C45.8255 16.8065 45.8255 16.8065 45.8255 16.8065C45.8255 16.8065 45.8256 16.8065 45.8256 16.8065C45.8256 16.8065 45.8257 16.8065 45.8257 16.8065C45.8257 16.8065 45.8258 16.8065 45.8258 16.8065C45.8258 16.8065 45.8259 16.8065 45.8259 16.8065C45.8259 16.8065 45.8259 16.8065 45.826 16.8065C45.826 16.8065 45.826 16.8065 45.8261 16.8065C45.8261 16.8065 45.8261 16.8065 45.8262 16.8065C45.8262 16.8065 45.8262 16.8065 45.8263 16.8065C45.8263 16.8065 45.8263 16.8065 45.8264 16.8065C45.8264 16.8065 45.8264 16.8065 45.8264 16.8065C45.8265 16.8065 45.8265 16.8065 45.8265 16.8065C45.8266 16.8065 45.8266 16.8065 45.8266 16.8065C45.8267 16.8065 45.8267 16.8065 45.8267 16.8065C45.8268 16.8065 45.8268 16.8065 45.8268 16.8065C45.8268 16.8065 45.8269 16.8065 45.8269 16.8065C45.8269 16.8065 45.827 16.8065 45.827 16.8065C45.827 16.8065 45.8271 16.8065 45.8271 16.8065C45.8271 16.8065 45.8272 16.8065 45.8272 16.8065C45.8272 16.8065 45.8273 16.8065 45.8273 16.8065C45.8273 16.8065 45.8273 16.8065 45.8274 16.8065C45.8274 16.8065 45.8274 16.8065 45.8275 16.8065C45.8275 16.8065 45.8275 16.8065 45.8276 16.8065C45.8276 16.8065 45.8276 16.8065 45.8277 16.8065C45.8277 16.8065 45.8277 16.8065 45.8277 16.8065C45.8278 16.8065 45.8278 16.8065 45.8278 16.8065C45.8279 16.8065 45.8279 16.8065 45.8279 16.8065C45.828 16.8065 45.828 16.8065 45.828 16.8065C45.8281 16.8065 45.8281 16.8065 45.8281 16.8065C45.8282 16.8065 45.8282 16.8065 45.8282 16.8065C45.8282 16.8065 45.8283 16.8065 45.8283 16.8065C45.8283 16.8065 45.8284 16.8065 45.8284 16.8065C45.8284 16.8065 45.8285 16.8065 45.8285 16.8065C45.8285 16.8065 45.8286 16.8065 45.8286 16.8065C45.8286 16.8065 45.8287 16.8065 45.8287 16.8065C45.8287 16.8065 45.8287 16.8065 45.8288 16.8065C45.8288 16.8065 45.8288 16.8065 45.8289 16.8065C45.8289 16.8065 45.8289 16.8065 45.829 16.8065C45.829 16.8065 45.829 16.8065 45.8291 16.8065C45.8291 16.8065 45.8291 16.8065 45.8291 16.8065C45.8292 16.8065 45.8292 16.8065 45.8292 16.8065C45.8293 16.8065 45.8293 16.8065 45.8293 16.8065C45.8294 16.8065 45.8294 16.8065 45.8294 16.8065C45.8295 16.8065 45.8295 16.8065 45.8295 16.8065C45.8296 16.8065 45.8296 16.8065 45.8296 16.8065C45.8296 16.8065 45.8297 16.8065 45.8297 16.8065C45.8297 16.8065 45.8298 16.8065 45.8298 16.8065C45.8298 16.8065 45.8299 16.8065 45.8299 16.8065C45.8299 16.8065 45.83 16.8065 45.83 16.8065C45.83 16.8065 45.83 16.8065 45.8301 16.8065C45.8301 16.8065 45.8301 16.8065 45.8302 16.8065C45.8302 16.8065 45.8302 16.8065 45.8303 16.8065C45.8303 16.8065 45.8303 16.8065 45.8304 16.8065C45.8304 16.8065 45.8304 16.8065 45.8305 16.8065C45.8305 16.8065 45.8305 16.8065 45.8305 16.8065C45.8306 16.8065 45.8306 16.8065 45.8306 16.8065C45.8307 16.8065 45.8307 16.8065 45.8307 16.8065C45.8308 16.8065 45.8308 16.8065 45.8308 16.8065C45.8309 16.8065 45.8309 16.8065 45.8309 16.8065C45.8309 16.8065 45.831 16.8065 45.831 16.8065C45.831 16.8065 45.8311 16.8065 45.8311 16.8065C45.8311 16.8065 45.8312 16.8065 45.8312 16.8065C45.8312 16.8065 45.8313 16.8065 45.8313 16.8065C45.8313 16.8065 45.8314 16.8065 45.8314 16.8065C45.8314 16.8065 45.8314 16.8065 45.8315 16.8065C45.8315 16.8065 45.8315 16.8065 45.8316 16.8065C45.8316 16.8065 45.8316 16.8065 45.8317 16.8065C45.8317 16.8065 45.8317 16.8065 45.8318 16.8065C45.8318 16.8065 45.8318 16.8065 45.8318 16.8065C45.8319 16.8065 45.8319 16.8065 45.8319 16.8065C45.832 16.8065 45.832 16.8065 45.832 16.8065C45.8321 16.8065 45.8321 16.8065 45.8321 16.8065C45.8322 16.8065 45.8322 16.8065 45.8322 16.8065C45.8323 16.8065 45.8323 16.8065 45.8323 16.8065C45.8323 16.8065 45.8324 16.8065 45.8324 16.8065C45.8324 16.8065 45.8325 16.8065 45.8325 16.8065C45.8325 16.8065 45.8326 16.8065 45.8326 16.8065C45.8326 16.8065 45.8327 16.8065 45.8327 16.8065C45.8327 16.8065 45.8327 16.8065 45.8328 16.8065C45.8328 16.8065 45.8328 16.8065 45.8329 16.8065C45.8329 16.8065 45.8329 16.8065 45.833 16.8065C45.833 16.8065 45.833 16.8065 45.8331 16.8065C45.8331 16.8065 45.8331 16.8065 45.8332 16.8065C45.8332 16.8065 45.8332 16.8065 45.8332 16.8065C45.8333 16.8065 45.8333 16.8065 45.8333 16.8065C45.8334 16.8065 45.8334 16.8065 45.8334 16.8065C45.8335 16.8065 45.8335 16.8065 45.8335 16.8065C45.8336 16.8065 45.8336 16.8065 45.8336 16.8065C45.8336 16.8065 45.8337 16.8065 45.8337 16.8065C45.8337 16.8065 45.8338 16.8065 45.8338 16.8065C45.8338 16.8065 45.8339 16.8065 45.8339 16.8065C45.8339 16.8065 45.834 16.8065 45.834 16.8065C45.834 16.8065 45.8341 16.8065 45.8341 16.8065C45.8341 16.8065 45.8341 16.8065 45.8342 16.8065C45.8342 16.8065 45.8342 16.8065 45.8343 16.8065C45.8343 16.8065 45.8343 16.8065 45.8344 16.8065C45.8344 16.8065 45.8344 16.8065 45.8345 16.8065C45.8345 16.8065 45.8345 16.8065 45.8345 16.8065C45.8346 16.8065 45.8346 16.8065 45.8346 16.8065C45.8347 16.8065 45.8347 16.8065 45.8347 16.8065C45.8348 16.8065 45.8348 16.8065 45.8348 16.8065C45.8349 16.8065 45.8349 16.8065 45.8349 16.8065C45.835 16.8065 45.835 16.8065 45.835 16.8065C45.835 16.8065 45.8351 16.8065 45.8351 16.8065C45.8351 16.8065 45.8352 16.8065 45.8352 16.8065C45.8352 16.8065 45.8353 16.8065 45.8353 16.8065C45.8353 16.8065 45.8354 16.8065 45.8354 16.8065C45.8354 16.8065 45.8354 16.8065 45.8355 16.8065C45.8355 16.8065 45.8355 16.8065 45.8356 16.8065C45.8356 16.8065 45.8356 16.8065 45.8357 16.8065C45.8357 16.8065 45.8357 16.8065 45.8358 16.8065C45.8358 16.8065 45.8358 16.8065 45.8359 16.8065C45.8359 16.8065 45.8359 16.8065 45.8359 16.8065C45.836 16.8065 45.836 16.8065 45.836 16.8065C45.8361 16.8065 45.8361 16.8065 45.8361 16.8065C45.8362 16.8065 45.8362 16.8065 45.8362 16.8065C45.8363 16.8065 45.8363 16.8065 45.8363 16.8065C45.8363 16.8065 45.8364 16.8065 45.8364 16.8065C45.8364 16.8065 45.8365 16.8065 45.8365 16.8065C45.8365 16.8065 45.8366 16.8065 45.8366 16.8065C45.8366 16.8065 45.8367 16.8065 45.8367 16.8065C45.8367 16.8065 45.8368 16.8065 45.8368 16.8065C45.8368 16.8065 45.8368 16.8065 45.8369 16.8065C45.8369 16.8065 45.8369 16.8065 45.837 16.8065C45.837 16.8065 45.837 16.8065 45.8371 16.8065C45.8371 16.8065 45.8371 16.8065 45.8372 16.8065C45.8372 16.8065 45.8372 16.8065 45.8372 16.8065C45.8373 16.8065 45.8373 16.8065 45.8373 16.8065C45.8374 16.8065 45.8374 16.8065 45.8374 16.8065C45.8375 16.8065 45.8375 16.8065 45.8375 16.8065C45.8376 16.8065 45.8376 16.8065 45.8376 16.8065C45.8377 16.8065 45.8377 16.8065 45.8377 16.8065C45.8377 16.8065 45.8378 16.8065 45.8378 16.8065C45.8378 16.8065 45.8379 16.8065 45.8379 16.8065C45.8379 16.8065 45.838 16.8065 45.838 16.8065C45.838 16.8065 45.8381 16.8065 45.8381 16.8065C45.8381 16.8065 45.8381 16.8065 45.8382 16.8065C45.8382 16.8065 45.8382 16.8065 45.8383 16.8065C45.8383 16.8065 45.8383 16.8065 45.8384 16.8065C45.8384 16.8065 45.8384 16.8065 45.8385 16.8065C45.8385 16.8065 45.8385 16.8065 45.8386 16.8065C45.8386 16.8065 45.8386 16.8065 45.8386 16.8065C45.8387 16.8065 45.8387 16.8065 45.8387 16.8065C45.8388 16.8065 45.8388 16.8065 45.8388 16.8065C45.8389 16.8065 45.8389 16.8065 45.8389 16.8065C45.839 16.8065 45.839 16.8065 45.839 16.8065C45.839 16.8065 45.8391 16.8065 45.8391 16.8065C45.8391 16.8065 45.8392 16.8065 45.8392 16.8065C45.8392 16.8065 45.8393 16.8065 45.8393 16.8065C45.8393 16.8065 45.8394 16.8065 45.8394 16.8065C45.8394 16.8065 45.8395 16.8065 45.8395 16.8065C45.8395 16.8065 45.8395 16.8065 45.8396 16.8065C45.8396 16.8065 45.8396 16.8065 45.8397 16.8065C45.8397 16.8065 45.8397 16.8065 45.8398 16.8065C45.8398 16.8065 45.8398 16.8065 45.8399 16.8065C45.8399 16.8065 45.8399 16.8065 45.8399 16.8065C45.84 16.8065 45.84 16.8065 45.84 16.8065C45.8401 16.8065 45.8401 16.8065 45.8401 16.8065C45.8402 16.8065 45.8402 16.8065 45.8402 16.8065C45.8403 16.8065 45.8403 16.8065 45.8403 16.8065C45.8404 16.8065 45.8404 16.8065 45.8404 16.8065C45.8404 16.8065 45.8405 16.8065 45.8405 16.8065C45.8405 16.8065 45.8406 16.8065 45.8406 16.8065C45.8406 16.8065 45.8407 16.8065 45.8407 16.8065C45.8407 16.8065 45.8408 16.8065 45.8408 16.8065C45.8408 16.8065 45.8408 16.8065 45.8409 16.8065C45.8409 16.8065 45.8409 16.8065 45.841 16.8065C45.841 16.8065 45.841 16.8065 45.8411 16.8065C45.8411 16.8065 45.8411 16.8065 45.8412 16.8065C45.8412 16.8065 45.8412 16.8065 45.8413 16.8065C45.8413 16.8065 45.8413 16.8065 45.8413 16.8065C45.8414 16.8065 45.8414 16.8065 45.8414 16.8065C45.8415 16.8065 45.8415 16.8065 45.8415 16.8065C45.8416 16.8065 45.8416 16.8065 45.8416 16.8065C45.8417 16.8065 45.8417 16.8065 45.8417 16.8065C45.8417 16.8065 45.8418 16.8065 45.8418 16.8065C45.8418 16.8065 45.8419 16.8065 45.8419 16.8065C45.8419 16.8065 45.842 16.8065 45.842 16.8065C45.842 16.8065 45.8421 16.8065 45.8421 16.8065C45.8421 16.8065 45.8422 16.8065 45.8422 16.8065C45.8422 16.8065 45.8422 16.8065 45.8423 16.8065C45.8423 16.8065 45.8423 16.8065 45.8424 16.8065C45.8424 16.8065 45.8424 16.8065 45.8425 16.8065C45.8425 16.8065 45.8425 16.8065 45.8426 16.8065C45.8426 16.8065 45.8426 16.8065 45.8426 16.8065C45.8427 16.8065 45.8427 16.8065 45.8427 16.8065C45.8428 16.8065 45.8428 16.8065 45.8428 16.8065C45.8429 16.8065 45.8429 16.8065 45.8429 16.8065C45.843 16.8065 45.843 16.8065 45.843 16.8065C45.8431 16.8065 45.8431 16.8065 45.8431 16.8065C45.8431 16.8065 45.8432 16.8065 45.8432 16.8065C45.8432 16.8065 45.8433 16.8065 45.8433 16.8065C45.8433 16.8065 45.8434 16.8065 45.8434 16.8065C45.8434 16.8065 45.8435 16.8065 45.8435 16.8065C45.8435 16.8065 45.8435 16.8065 45.8436 16.8065C45.8436 16.8065 45.8436 16.8065 45.8437 16.8065C45.8437 16.8065 45.8437 16.8065 45.8438 16.8065C45.8438 16.8065 45.8438 16.8065 45.8439 16.8065C45.8439 16.8065 45.8439 16.8065 45.844 16.8065C45.844 16.8065 45.844 16.8065 45.844 16.8065C45.8441 16.8065 45.8441 16.8065 45.8441 16.8065C45.8442 16.8065 45.8442 16.8065 45.8442 16.8065C45.8443 16.8065 45.8443 16.8065 45.8443 16.8065C45.8444 16.8065 45.8444 16.8065 45.8444 16.8065C45.8445 16.8065 45.8445 16.8065 45.8445 16.8065C45.8445 16.8065 45.8446 16.8065 45.8446 16.8065C45.8446 16.8065 45.8447 16.8065 45.8447 16.8065C45.8447 16.8065 45.8448 16.8065 45.8448 16.8065C45.8448 16.8065 45.8449 16.8065 45.8449 16.8065C45.8449 16.8065 45.8449 16.8065 45.845 16.8065C45.845 16.8065 45.845 16.8065 45.8451 16.8065C45.8451 16.8065 45.8451 16.8065 45.8452 16.8065C45.8452 16.8065 45.8452 16.8065 45.8453 16.8065C45.8453 16.8065 45.8453 16.8065 45.8454 16.8065C45.8454 16.8065 45.8454 16.8065 45.8454 16.8065C45.8455 16.8065 45.8455 16.8065 45.8455 16.8065C45.8456 16.8065 45.8456 16.8065 45.8456 16.8065C45.8457 16.8065 45.8457 16.8065 45.8457 16.8065C45.8458 16.8065 45.8458 16.8065 45.8458 16.8065C45.8458 16.8065 45.8459 16.8065 45.8459 16.8065C45.8459 16.8065 45.846 16.8065 45.846 16.8065C45.846 16.8065 45.8461 16.8065 45.8461 16.8065C45.8461 16.8065 45.8462 16.8065 45.8462 16.8065C45.8462 16.8065 45.8463 16.8065 45.8463 16.8065C45.8463 16.8065 45.8463 16.8065 45.8464 16.8065C45.8464 16.8065 45.8464 16.8065 45.8465 16.8065C45.8465 16.8065 45.8465 16.8065 45.8466 16.8065C45.8466 16.8065 45.8466 16.8065 45.8467 16.8065C45.8467 16.8065 45.8467 16.8065 45.8467 16.8065C45.8468 16.8065 45.8468 16.8065 45.8468 16.8065C45.8469 16.8065 45.8469 16.8065 45.8469 16.8065C45.847 16.8065 45.847 16.8065 45.847 16.8065C45.8471 16.8065 45.8471 16.8065 45.8471 16.8065C45.8472 16.8065 45.8472 16.8065 45.8472 16.8065C45.8472 16.8065 45.8473 16.8065 45.8473 16.8065C45.8473 16.8065 45.8474 16.8065 45.8474 16.8065C45.8474 16.8065 45.8475 16.8065 45.8475 16.8065C45.8475 16.8065 45.8476 16.8065 45.8476 16.8065C45.8476 16.8065 45.8476 16.8065 45.8477 16.8065C45.8477 16.8065 45.8477 16.8065 45.8478 16.8065C45.8478 16.8065 45.8478 16.8065 45.8479 16.8065C45.8479 16.8065 45.8479 16.8065 45.848 16.8065C45.848 16.8065 45.848 16.8065 45.8481 16.8065C45.8481 16.8065 45.8481 16.8065 45.8481 16.8065C45.8482 16.8065 45.8482 16.8065 45.8482 16.8065C45.8483 16.8065 45.8483 16.8065 45.8483 16.8065C45.8484 16.8065 45.8484 16.8065 45.8484 16.8065C45.8485 16.8065 45.8485 16.8065 45.8485 16.8065C45.8485 16.8065 45.8486 16.8065 45.8486 16.8065C45.8486 16.8065 45.8487 16.8065 45.8487 16.8065C45.8487 16.8065 45.8488 16.8065 45.8488 16.8065C45.8488 16.8065 45.8489 16.8065 45.8489 16.8065C45.8489 16.8065 45.849 16.8065 45.849 16.8065C45.849 16.8065 45.849 16.8065 45.8491 16.8065C45.8491 16.8065 45.8491 16.8065 45.8492 16.8065C45.8492 16.8065 45.8492 16.8065 45.8493 16.8065C45.8493 16.8065 45.8493 16.8065 45.8494 16.8065C45.8494 16.8065 45.8494 16.8065 45.8494 16.8065C45.8495 16.8065 45.8495 16.8065 45.8495 16.8065C45.8496 16.8065 45.8496 16.8065 45.8496 16.8065C45.8497 16.8065 45.8497 16.8065 45.8497 16.8065C45.8498 16.8065 45.8498 16.8065 45.8498 16.8065C45.8499 16.8065 45.8499 16.8065 45.8499 16.8065C45.8499 16.8065 45.85 16.8065 45.85 16.8065C45.85 16.8065 45.8501 16.8065 45.8501 16.8065C45.8501 16.8065 45.8502 16.8065 45.8502 16.8065C45.8502 16.8065 45.8503 16.8065 45.8503 16.8065C45.8503 16.8065 45.8503 16.8065 45.8504 16.8065C45.8504 16.8065 45.8504 16.8065 45.8505 16.8065C45.8505 16.8065 45.8505 16.8065 45.8506 16.8065C45.8506 16.8065 45.8506 16.8065 45.8507 16.8065C45.8507 16.8065 45.8507 16.8065 45.8508 16.8065C45.8508 16.8065 45.8508 16.8065 45.8508 16.8065C45.8509 16.8065 45.8509 16.8065 45.8509 16.8065C45.851 16.8065 45.851 16.8065 45.851 16.8065C45.8511 16.8065 45.8511 16.8065 45.8511 16.8065C45.8512 16.8065 45.8512 16.8065 45.8512 16.8065C45.8512 16.8065 45.8513 16.8065 45.8513 16.8065C45.8513 16.8065 45.8514 16.8065 45.8514 16.8065C45.8514 16.8065 45.8515 16.8065 45.8515 16.8065C45.8515 16.8065 45.8516 16.8065 45.8516 16.8065C45.8516 16.8065 45.8517 16.8065 45.8517 16.8065C45.8517 16.8065 45.8517 16.8065 45.8518 16.8065C45.8518 16.8065 45.8518 16.8065 45.8519 16.8065C45.8519 16.8065 45.8519 16.8065 45.852 16.8065C45.852 16.8065 45.852 16.8065 45.8521 16.8065C45.8521 16.8065 45.8521 16.8065 45.8521 16.8065C45.8522 16.8065 45.8522 16.8065 45.8522 16.8065C45.8523 16.8065 45.8523 16.8065 45.8523 16.8065C45.8524 16.8065 45.8524 16.8065 45.8524 16.8065C45.8525 16.8065 45.8525 16.8065 45.8525 16.8065C45.8526 16.8065 45.8526 16.8065 45.8526 16.8065C45.8526 16.8065 45.8527 16.8065 45.8527 16.8065C45.8527 16.8065 45.8528 16.8065 45.8528 16.8065C45.8528 16.8065 45.8529 16.8065 45.8529 16.8065C45.8529 16.8065 45.853 16.8065 45.853 16.8065C45.853 16.8065 45.853 16.8065 45.8531 16.8065C45.8531 16.8065 45.8531 16.8065 45.8532 16.8065C45.8532 16.8065 45.8532 16.8065 45.8533 16.8065C45.8533 16.8065 45.8533 16.8065 45.8534 16.8065C45.8534 16.8065 45.8534 16.8065 45.8535 16.8065C45.8535 16.8065 45.8535 16.8065 45.8535 16.8065C45.8536 16.8065 45.8536 16.8065 45.8536 16.8065C45.8537 16.8065 45.8537 16.8065 45.8537 16.8065C45.8538 16.8065 45.8538 16.8065 45.8538 16.8065C45.8539 16.8065 45.8539 16.8065 45.8539 16.8065C45.8539 16.8065 45.854 16.8065 45.854 16.8065C45.854 16.8065 45.8541 16.8065 45.8541 16.8065C45.8541 16.8065 45.8542 16.8065 45.8542 16.8065C45.8542 16.8065 45.8543 16.8065 45.8543 16.8065C45.8543 16.8065 45.8544 16.8065 45.8544 16.8065C45.8544 16.8065 45.8544 16.8065 45.8545 16.8065C45.8545 16.8065 45.8545 16.8065 45.8546 16.8065C45.8546 16.8065 45.8546 16.8065 45.8547 16.8065C45.8547 16.8065 45.8547 16.8065 45.8548 16.8065C45.8548 16.8065 45.8548 16.8065 45.8548 16.8065C45.8549 16.8065 45.8549 16.8065 45.8549 16.8065C45.855 16.8065 45.855 16.8065 45.855 16.8065C45.8551 16.8065 45.8551 16.8065 45.8551 16.8065C45.8552 16.8065 45.8552 16.8065 45.8552 16.8065C45.8553 16.8065 45.8553 16.8065 45.8553 16.8065C45.8553 16.8065 45.8554 16.8065 45.8554 16.8065C45.8554 16.8065 45.8555 16.8065 45.8555 16.8065C45.8555 16.8065 45.8556 16.8065 45.8556 16.8065C45.8556 16.8065 45.8557 16.8065 45.8557 16.8065C45.8557 16.8065 45.8557 16.8065 45.8558 16.8065C45.8558 16.8065 45.8558 16.8065 45.8559 16.8065C45.8559 16.8065 45.8559 16.8065 45.856 16.8065C45.856 16.8065 45.856 16.8065 45.8561 16.8065C45.8561 16.8065 45.8561 16.8065 45.8562 16.8065C45.8562 16.8065 45.8562 16.8065 45.8562 16.8065C45.8563 16.8065 45.8563 16.8065 45.8563 16.8065C45.8564 16.8065 45.8564 16.8065 45.8564 16.8065C45.8565 16.8065 45.8565 16.8065 45.8565 16.8065C45.8566 16.8065 45.8566 16.8065 45.8566 16.8065C45.8566 16.8065 45.8567 16.8065 45.8567 16.8065C45.8567 16.8065 45.8568 16.8065 45.8568 16.8065C45.8568 16.8065 45.8569 16.8065 45.8569 16.8065C45.8569 16.8065 45.857 16.8065 45.857 16.8065C45.857 16.8065 45.8571 16.8065 45.8571 16.8065C45.8571 16.8065 45.8571 16.8065 45.8572 16.8065C45.8572 16.8065 45.8572 16.8065 45.8573 16.8065C45.8573 16.8065 45.8573 16.8065 45.8574 16.8065C45.8574 16.8065 45.8574 16.8065 45.8575 16.8065C45.8575 16.8065 45.8575 16.8065 45.8575 16.8065C45.8576 16.8065 45.8576 16.8065 45.8576 16.8065C45.8577 16.8065 45.8577 16.8065 45.8577 16.8065C45.8578 16.8065 45.8578 16.8065 45.8578 16.8065C45.8579 16.8065 45.8579 16.8065 45.8579 16.8065C45.858 16.8065 45.858 16.8065 45.858 16.8065C45.858 16.8065 45.8581 16.8065 45.8581 16.8065C45.8581 16.8065 45.8582 16.8065 45.8582 16.8065C45.8582 16.8065 45.8583 16.8065 45.8583 16.8065C45.8583 16.8065 45.8584 16.8065 45.8584 16.8065C45.8584 16.8065 45.8584 16.8065 45.8585 16.8065C45.8585 16.8065 45.8585 16.8065 45.8586 16.8065C45.8586 16.8065 45.8586 16.8065 45.8587 16.8065C45.8587 16.8065 45.8587 16.8065 45.8588 16.8065C45.8588 16.8065 45.8588 16.8065 45.8589 16.8065C45.8589 16.8065 45.8589 16.8065 45.8589 16.8065C45.859 16.8065 45.859 16.8065 45.859 16.8065C45.8591 16.8065 45.8591 16.8065 45.8591 16.8065C45.8592 16.8065 45.8592 16.8065 45.8592 16.8065C45.8593 16.8065 45.8593 16.8065 45.8593 16.8065C45.8593 16.8065 45.8594 16.8065 45.8594 16.8065C45.8594 16.8065 45.8595 16.8065 45.8595 16.8065C45.8595 16.8065 45.8596 16.8065 45.8596 16.8065C45.8596 16.8065 45.8597 16.8065 45.8597 16.8065C45.8597 16.8065 45.8598 16.8065 45.8598 16.8065C45.8598 16.8065 45.8598 16.8065 45.8599 16.8065C45.8599 16.8065 45.8599 16.8065 45.86 16.8065C45.86 16.8065 45.86 16.8065 45.8601 16.8065C45.8601 16.8065 45.8601 16.8065 45.8602 16.8065C45.8602 16.8065 45.8602 16.8065 45.8602 16.8065C45.8603 16.8065 45.8603 16.8065 45.8603 16.8065C45.8604 16.8065 45.8604 16.8065 45.8604 16.8065C45.8605 16.8065 45.8605 16.8065 45.8605 16.8065C45.8606 16.8065 45.8606 16.8065 45.8606 16.8065C45.8607 16.8065 45.8607 16.8065 45.8607 16.8065C45.8607 16.8065 45.8608 16.8065 45.8608 16.8065C45.8608 16.8065 45.8609 16.8065 45.8609 16.8065C45.8609 16.8065 45.861 16.8065 45.861 16.8065C45.861 16.8065 45.8611 16.8065 45.8611 16.8065C45.8611 16.8065 45.8612 16.8065 45.8612 16.8065C45.8612 16.8065 45.8612 16.8065 45.8613 16.8065C45.8613 16.8065 45.8613 16.8065 45.8614 16.8065C45.8614 16.8065 45.8614 16.8065 45.8615 16.8065C45.8615 16.8065 45.8615 16.8065 45.8616 16.8065C45.8616 16.8065 45.8616 16.8065 45.8616 16.8065C45.8617 16.8065 45.8617 16.8065 45.8617 16.8065C45.8618 16.8065 45.8618 16.8065 45.8618 16.8065C45.8619 16.8065 45.8619 16.8065 45.8619 16.8065C45.862 16.8065 45.862 16.8065 45.862 16.8065C45.8621 16.8065 45.8621 16.8065 45.8621 16.8065C45.8621 16.8065 45.8622 16.8065 45.8622 16.8065C45.8622 16.8065 45.8623 16.8065 45.8623 16.8065C45.8623 16.8065 45.8624 16.8065 45.8624 16.8065C45.8624 16.8065 45.8625 16.8065 45.8625 16.8065C45.8625 16.8065 45.8625 16.8065 45.8626 16.8065C45.8626 16.8065 45.8626 16.8065 45.8627 16.8065C45.8627 16.8065 45.8627 16.8065 45.8628 16.8065C45.8628 16.8065 45.8628 16.8065 45.8629 16.8065C45.8629 16.8065 45.8629 16.8065 45.863 16.8065C45.863 16.8065 45.863 16.8065 45.863 16.8065C45.8631 16.8065 45.8631 16.8065 45.8631 16.8065C45.8632 16.8065 45.8632 16.8065 45.8632 16.8065C45.8633 16.8065 45.8633 16.8065 45.8633 16.8065C45.8634 16.8065 45.8634 16.8065 45.8634 16.8065C45.8634 16.8065 45.8635 16.8065 45.8635 16.8065C45.8635 16.8065 45.8636 16.8065 45.8636 16.8065C45.8636 16.8065 45.8637 16.8065 45.8637 16.8065C45.8637 16.8065 45.8638 16.8065 45.8638 16.8065C45.8638 16.8065 45.8639 16.8065 45.8639 16.8065C45.8639 16.8065 45.8639 16.8065 45.864 16.8065C45.864 16.8065 45.864 16.8065 45.8641 16.8065C45.8641 16.8065 45.8641 16.8065 45.8642 16.8065C45.8642 16.8065 45.8642 16.8065 45.8643 16.8065C45.8643 16.8065 45.8643 16.8065 45.8643 16.8065C45.8644 16.8065 45.8644 16.8065 45.8644 16.8065C45.8645 16.8065 45.8645 16.8065 45.8645 16.8065C45.8646 16.8065 45.8646 16.8065 45.8646 16.8065C45.8647 16.8065 45.8647 16.8065 45.8647 16.8065C45.8648 16.8065 45.8648 16.8065 45.8648 16.8065C45.8648 16.8065 45.8649 16.8065 45.8649 16.8065C45.8649 16.8065 45.865 16.8065 45.865 16.8065C45.865 16.8065 45.8651 16.8065 45.8651 16.8065C45.8651 16.8065 45.8652 16.8065 45.8652 16.8065C45.8652 16.8065 45.8652 16.8065 45.8653 16.8065C45.8653 16.8065 45.8653 16.8065 45.8654 16.8065C45.8654 16.8065 45.8654 16.8065 45.8655 16.8065C45.8655 16.8065 45.8655 16.8065 45.8656 16.8065C45.8656 16.8065 45.8656 16.8065 45.8657 16.8065C45.8657 16.8065 45.8657 16.8065 45.8657 16.8065C45.8658 16.8065 45.8658 16.8065 45.8658 16.8065C45.8659 16.8065 45.8659 16.8065 45.8659 16.8065C45.866 16.8065 45.866 16.8065 45.866 16.8065C45.8661 16.8065 45.8661 16.8065 45.8661 16.8065C45.8661 16.8065 45.8662 16.8065 45.8662 16.8065C45.8662 16.8065 45.8663 16.8065 45.8663 16.8065C45.8663 16.8065 45.8664 16.8065 45.8664 16.8065C45.8664 16.8065 45.8665 16.8065 45.8665 16.8065C45.8665 16.8065 45.8666 16.8065 45.8666 16.8065C45.8666 16.8065 45.8666 16.8065 45.8667 16.8065C45.8667 16.8065 45.8667 16.8065 45.8668 16.8065C45.8668 16.8065 45.8668 16.8065 45.8669 16.8065C45.8669 16.8065 45.8669 16.8065 45.867 16.8065C45.867 16.8065 45.867 16.8065 45.867 16.8065C45.8671 16.8065 45.8671 16.8065 45.8671 16.8065C45.8672 16.8065 45.8672 16.8065 45.8672 16.8065C45.8673 16.8065 45.8673 16.8065 45.8673 16.8065C45.8674 16.8065 45.8674 16.8065 45.8674 16.8065C45.8675 16.8065 45.8675 16.8065 45.8675 16.8065C45.8675 16.8065 45.8676 16.8065 45.8676 16.8065C45.8676 16.8065 45.8677 16.8065 45.8677 16.8065C45.8677 16.8065 45.8678 16.8065 45.8678 16.8065C45.8678 16.8065 45.8679 16.8065 45.8679 16.8065C45.8679 16.8065 45.8679 16.8065 45.868 16.8065C45.868 16.8065 45.868 16.8065 45.8681 16.8065C45.8681 16.8065 45.8681 16.8065 45.8682 16.8065C45.8682 16.8065 45.8682 16.8065 45.8683 16.8065C45.8683 16.8065 45.8683 16.8065 45.8684 16.8065C45.8684 16.8065 45.8684 16.8065 45.8684 16.8065C45.8685 16.8065 45.8685 16.8065 45.8685 16.8065C45.8686 16.8065 45.8686 16.8065 45.8686 16.8065C45.8687 16.8065 45.8687 16.8065 45.8687 16.8065C45.8688 16.8065 45.8688 16.8065 45.8688 16.8065C45.8688 16.8065 45.8689 16.8065 45.8689 16.8065C45.8689 16.8065 45.869 16.8065 45.869 16.8065C45.869 16.8065 45.8691 16.8065 45.8691 16.8065C45.8691 16.8065 45.8692 16.8065 45.8692 16.8065C45.8692 16.8065 45.8693 16.8065 45.8693 16.8065C45.8693 16.8065 45.8693 16.8065 45.8694 16.8065C45.8694 16.8065 45.8694 16.8065 45.8695 16.8065C45.8695 16.8065 45.8695 16.8065 45.8696 16.8065C45.8696 16.8065 45.8696 16.8065 45.8697 16.8065C45.8697 16.8065 45.8697 16.8065 45.8697 16.8065C45.8698 16.8065 45.8698 16.8065 45.8698 16.8065C45.8699 16.8065 45.8699 16.8065 45.8699 16.8065C45.87 16.8065 45.87 16.8065 45.87 16.8065C45.8701 16.8065 45.8701 16.8065 45.8701 16.8065C45.8702 16.8065 45.8702 16.8065 45.8702 16.8065C45.8702 16.8065 45.8703 16.8065 45.8703 16.8065C45.8703 16.8065 45.8704 16.8065 45.8704 16.8065C45.8704 16.8065 45.8705 16.8065 45.8705 16.8065V14.8065ZM45.9712 14.8176C46.3885 14.8802 46.6189 15.2565 46.5654 15.6131L44.5875 15.3164C44.4863 15.991 44.9393 16.6852 45.6745 16.7954L45.9712 14.8176ZM46.5629 15.6292L46.8648 13.8173L44.8921 13.4885L44.5901 15.3004L46.5629 15.6292ZM46.8674 13.8012C46.8132 14.1624 46.464 14.471 46.033 14.3889L46.4073 12.4242C45.6425 12.2785 44.9914 12.8255 44.8895 13.5045L46.8674 13.8012ZM46.0718 14.3955C45.6545 14.3329 45.4241 13.9566 45.4776 13.5999L47.4555 13.8966C47.5566 13.222 47.1037 12.5279 46.3685 12.4176L46.0718 14.3955ZM45.4801 13.5838L45.1781 15.3957L47.1509 15.7245L47.4529 13.9126L45.4801 13.5838ZM45.1781 15.3957C45.2375 15.0396 45.5422 14.8065 45.8705 14.8065V16.8065C46.4849 16.8065 47.0439 16.3668 47.1509 15.7245L45.1781 15.3957Z" fill="black" mask="url(#path-12-inside-6_6155_12409)"/>
<mask id="path-14-inside-7_6155_12409" fill="white">
<path d="M54.1023 25.0168C53.9911 25.0168 53.8798 24.9533 53.8321 24.842C53.7685 24.691 53.8321 24.5162 53.9831 24.4447L55.5725 23.7374C55.7235 23.6738 55.8983 23.7374 55.9699 23.8884C56.0334 24.0394 55.9698 24.2142 55.8189 24.2857L54.2295 24.993C54.1818 25.0089 54.1421 25.0168 54.1023 25.0168Z"/>
</mask>
<path d="M54.1023 25.0168C53.9911 25.0168 53.8798 24.9533 53.8321 24.842C53.7685 24.691 53.8321 24.5162 53.9831 24.4447L55.5725 23.7374C55.7235 23.6738 55.8983 23.7374 55.9699 23.8884C56.0334 24.0394 55.9698 24.2142 55.8189 24.2857L54.2295 24.993C54.1818 25.0089 54.1421 25.0168 54.1023 25.0168Z" fill="#231C1A"/>
<path d="M53.8321 24.842L52.9105 25.2301L52.913 25.2359L53.8321 24.842ZM53.9831 24.4447L53.5766 23.531L53.5657 23.5359L53.555 23.5409L53.9831 24.4447ZM55.5725 23.7374L55.1844 22.8158L55.1752 22.8197L55.1659 22.8238L55.5725 23.7374ZM55.9699 23.8884L56.8915 23.5003L56.883 23.4801L56.8736 23.4603L55.9699 23.8884ZM55.8189 24.2857L56.2254 25.1994L56.2362 25.1945L56.2469 25.1895L55.8189 24.2857ZM54.2295 24.993L54.5457 25.9417L54.5917 25.9264L54.636 25.9066L54.2295 24.993ZM54.1023 24.0168C54.3514 24.0168 54.6263 24.1565 54.7513 24.4481L52.913 25.2359C53.1333 25.75 53.6308 26.0168 54.1023 26.0168V24.0168ZM54.7538 24.454C54.8934 24.7857 54.7542 25.1859 54.4112 25.3484L53.555 23.5409C52.9101 23.8464 52.6436 24.5963 52.9105 25.2301L54.7538 24.454ZM54.3897 25.3583L55.9791 24.651L55.1659 22.8238L53.5766 23.531L54.3897 25.3583ZM55.9606 24.659C55.6288 24.7987 55.2286 24.6595 55.0661 24.3165L56.8736 23.4603C56.5681 22.8153 55.8182 22.5489 55.1844 22.8158L55.9606 24.659ZM55.0482 24.2764C54.9085 23.9447 55.0478 23.5445 55.3908 23.382L56.2469 25.1895C56.8919 24.884 57.1583 24.1341 56.8915 23.5003L55.0482 24.2764ZM55.4123 23.3721L53.8229 24.0794L54.636 25.9066L56.2254 25.1994L55.4123 23.3721ZM53.9132 24.0443C53.9295 24.0389 54.0007 24.0168 54.1023 24.0168V26.0168C54.2834 26.0168 54.4341 25.9789 54.5457 25.9417L53.9132 24.0443Z" fill="black" mask="url(#path-14-inside-7_6155_12409)"/>
<mask id="path-16-inside-8_6155_12409" fill="white">
<path d="M54.8979 25.4223C54.7548 25.4223 54.6276 25.319 54.6038 25.168C54.58 25.0011 54.6912 24.8501 54.8581 24.8342L57.8303 24.4051C57.9971 24.3812 58.1402 24.4925 58.164 24.6594C58.1879 24.8263 58.0766 24.9772 57.9097 24.9931L54.9376 25.4223C54.9217 25.4143 54.9137 25.4223 54.8979 25.4223Z"/>
</mask>
<path d="M54.8979 25.4223C54.7548 25.4223 54.6276 25.319 54.6038 25.168C54.58 25.0011 54.6912 24.8501 54.8581 24.8342L57.8303 24.4051C57.9971 24.3812 58.1402 24.4925 58.164 24.6594C58.1879 24.8263 58.0766 24.9772 57.9097 24.9931L54.9376 25.4223C54.9217 25.4143 54.9137 25.4223 54.8979 25.4223Z" fill="#231C1A"/>
<path d="M54.6038 25.168L53.6138 25.3094L53.6149 25.3167L53.616 25.3239L54.6038 25.168ZM54.8581 24.8342L54.9529 25.8297L54.977 25.8274L55.001 25.8239L54.8581 24.8342ZM57.8303 24.4051L57.6888 23.4151L57.6874 23.4153L57.8303 24.4051ZM57.9097 24.9931L57.8149 23.9976L57.7908 23.9999L57.7668 24.0034L57.9097 24.9931ZM54.9376 25.4223L54.4904 26.3167L54.7705 26.4568L55.0805 26.412L54.9376 25.4223ZM54.8979 24.4223C55.2413 24.4223 55.5378 24.6714 55.5916 25.012L53.616 25.3239C53.7175 25.9665 54.2684 26.4223 54.8979 26.4223V24.4223ZM55.5937 25.0266C55.6449 25.3844 55.3938 25.7877 54.9529 25.8297L54.7633 23.8387C53.9886 23.9125 53.515 24.6178 53.6138 25.3094L55.5937 25.0266ZM55.001 25.8239L57.9732 25.3948L57.6874 23.4153L54.7152 23.8445L55.001 25.8239ZM57.9717 25.395C57.5722 25.4521 57.2255 25.1608 57.1741 24.8008L59.154 24.5179C59.0549 23.8241 58.4221 23.3104 57.6888 23.4151L57.9717 25.395ZM57.1741 24.8008C57.123 24.4429 57.374 24.0396 57.8149 23.9976L58.0045 25.9886C58.7792 25.9149 59.2528 25.2096 59.154 24.5179L57.1741 24.8008ZM57.7668 24.0034L54.7947 24.4325L55.0805 26.412L58.0526 25.9829L57.7668 24.0034ZM55.3848 24.5278C55.2873 24.4791 55.1719 24.4406 55.0416 24.4255C54.914 24.4108 54.811 24.4233 54.7533 24.4329C54.7273 24.4372 54.7065 24.4418 54.7036 24.4424C54.695 24.4442 54.7079 24.4414 54.7196 24.4392C54.7519 24.433 54.816 24.4223 54.8979 24.4223V26.4223C54.9876 26.4223 55.0587 26.4106 55.0974 26.4032C55.1124 26.4003 55.1284 26.3968 55.1228 26.398C55.1222 26.3981 55.1175 26.3991 55.1112 26.4004C55.1046 26.4017 55.0946 26.4036 55.0822 26.4057C55.0304 26.4143 54.9333 26.4263 54.8122 26.4123C54.6884 26.398 54.5799 26.3615 54.4904 26.3167L55.3848 24.5278Z" fill="black" mask="url(#path-16-inside-8_6155_12409)"/>
<mask id="path-18-inside-9_6155_12409" fill="white">
<path d="M9.76641 24.6035H8.23265C8.06577 24.6035 7.93066 24.4684 7.93066 24.3015C7.93066 24.1346 8.06577 23.9995 8.23265 23.9995H9.76641C9.93329 23.9995 10.0684 24.1346 10.0684 24.3015C10.0604 24.4684 9.92535 24.6035 9.76641 24.6035Z"/>
</mask>
<path d="M9.76641 24.6035H8.23265C8.06577 24.6035 7.93066 24.4684 7.93066 24.3015C7.93066 24.1346 8.06577 23.9995 8.23265 23.9995H9.76641C9.93329 23.9995 10.0684 24.1346 10.0684 24.3015C10.0604 24.4684 9.92535 24.6035 9.76641 24.6035Z" fill="#231C1A"/>
<path d="M10.0684 24.3015L11.0673 24.3491L11.0684 24.3253V24.3015H10.0684ZM9.76641 23.6035H8.23265V25.6035H9.76641V23.6035ZM8.23265 23.6035C8.61804 23.6035 8.93066 23.9161 8.93066 24.3015H6.93066C6.93066 25.0207 7.51349 25.6035 8.23265 25.6035V23.6035ZM8.93066 24.3015C8.93066 24.6869 8.61804 24.9995 8.23265 24.9995V22.9995C7.51349 22.9995 6.93066 23.5823 6.93066 24.3015H8.93066ZM8.23265 24.9995H9.76641V22.9995H8.23265V24.9995ZM9.76641 24.9995C9.38102 24.9995 9.0684 24.6869 9.0684 24.3015H11.0684C11.0684 23.5823 10.4856 22.9995 9.76641 22.9995V24.9995ZM9.06953 24.2539C9.08486 23.9319 9.34829 23.6035 9.76641 23.6035V25.6035C10.5024 25.6035 11.036 25.0048 11.0673 24.3491L9.06953 24.2539Z" fill="black" mask="url(#path-18-inside-9_6155_12409)"/>
<mask id="path-20-inside-10_6155_12409" fill="white">
<path d="M7.39938 25.7639C7.28017 25.7639 7.16891 25.6924 7.12123 25.5732C7.0656 25.4222 7.13713 25.2474 7.29606 25.1917L9.65631 24.2858C9.8073 24.2302 9.98215 24.3017 10.0378 24.4606C10.0934 24.6116 10.0219 24.7864 9.86294 24.8421L7.50269 25.748C7.47091 25.756 7.43911 25.7639 7.39938 25.7639Z"/>
</mask>
<path d="M7.39938 25.7639C7.28017 25.7639 7.16891 25.6924 7.12123 25.5732C7.0656 25.4222 7.13713 25.2474 7.29606 25.1917L9.65631 24.2858C9.8073 24.2302 9.98215 24.3017 10.0378 24.4606C10.0934 24.6116 10.0219 24.7864 9.86294 24.8421L7.50269 25.748C7.47091 25.756 7.43911 25.7639 7.39938 25.7639Z" fill="#231C1A"/>
<path d="M7.12123 25.5732L6.18289 25.9189L6.18764 25.9318L6.19275 25.9446L7.12123 25.5732ZM7.29606 25.1917L7.62642 26.1356L7.64049 26.1307L7.65441 26.1253L7.29606 25.1917ZM9.65631 24.2858L9.31057 23.3474L9.29796 23.3522L9.65631 24.2858ZM10.0378 24.4606L9.09392 24.791L9.09661 24.7987L9.09943 24.8063L10.0378 24.4606ZM9.86294 24.8421L9.53259 23.8982L9.51851 23.9031L9.50459 23.9085L9.86294 24.8421ZM7.50269 25.748L7.74523 26.7182L7.80425 26.7034L7.86104 26.6816L7.50269 25.748ZM7.39938 24.7639C7.68512 24.7639 7.94406 24.9377 8.04971 25.2018L6.19275 25.9446C6.39376 26.4471 6.87523 26.7639 7.39938 26.7639V24.7639ZM8.05957 25.2275C8.18135 25.558 8.03674 25.992 7.62642 26.1356L6.96571 24.2479C6.23751 24.5027 5.94986 25.2864 6.18289 25.9189L8.05957 25.2275ZM7.65441 26.1253L10.0147 25.2194L9.29796 23.3522L6.93772 24.2581L7.65441 26.1253ZM10.002 25.2241C9.67151 25.3459 9.23754 25.2013 9.09392 24.791L10.9816 24.1303C10.7268 23.402 9.94309 23.1144 9.31061 23.3474L10.002 25.2241ZM9.09943 24.8063C8.97766 24.4758 9.12226 24.0418 9.53259 23.8982L10.1933 25.7859C10.9215 25.5311 11.2091 24.7474 10.9761 24.1149L9.09943 24.8063ZM9.50459 23.9085L7.14435 24.8144L7.86104 26.6816L10.2213 25.7757L9.50459 23.9085ZM7.26016 24.7779C7.22531 24.7866 7.30214 24.7639 7.39938 24.7639V26.7639C7.57609 26.7639 7.7165 26.7253 7.74523 26.7182L7.26016 24.7779Z" fill="black" mask="url(#path-20-inside-10_6155_12409)"/>
<path d="M28.7882 18.8491C28.7842 18.8492 28.7802 18.8492 28.7763 18.8491C28.6551 18.8458 28.5887 18.7742 28.5736 18.7534C28.5692 18.7473 28.5664 18.7424 28.5646 18.7388C28.5644 18.7384 28.5642 18.7381 28.5641 18.7378C28.566 18.7334 28.5695 18.7269 28.5756 18.7185C28.5933 18.6943 28.6587 18.6282 28.7763 18.6282C28.781 18.6282 28.7857 18.6283 28.7903 18.6285C28.8992 18.6334 28.96 18.6953 28.9771 18.7185C28.9836 18.7275 28.9871 18.7344 28.989 18.7388C28.989 18.7388 28.989 18.7388 28.989 18.7388C28.9897 18.7407 28.9902 18.7421 28.9905 18.7431L28.7882 18.8491ZM28.9907 18.733C28.9908 18.733 28.9907 18.7335 28.9905 18.7345L28.9907 18.733ZM28.5616 18.7312C28.5617 18.7312 28.5618 18.7317 28.562 18.7328L28.5616 18.7312ZM28.5622 18.7431C28.5621 18.744 28.562 18.7445 28.5619 18.7445L28.5622 18.7431Z" fill="#231C1A" stroke="black"/>
<path d="M30.4272 28.7711C30.4204 28.7803 30.4169 28.7873 30.4152 28.7917C30.4152 28.7917 30.4152 28.7917 30.4152 28.7917M30.4272 28.7711L30.4152 28.7917M30.4272 28.7711C30.4446 28.7474 30.5097 28.6811 30.6279 28.6811C30.746 28.6811 30.8111 28.7474 30.8285 28.771C30.8353 28.7803 30.8389 28.7873 30.8406 28.7917C30.8406 28.7917 30.8406 28.7917 30.8406 28.7917M30.4272 28.7711L30.8406 28.7917M30.4152 28.7917C30.4169 28.7962 30.4204 28.8032 30.4272 28.8124C30.4446 28.8361 30.5098 28.9023 30.6279 28.9023C30.746 28.9023 30.8111 28.8361 30.8285 28.8124C30.8353 28.8032 30.8389 28.7962 30.8406 28.7917M30.4152 28.7917L30.8406 28.7917M30.8406 28.7917C30.8413 28.7935 30.8418 28.7949 30.842 28.7958C30.8421 28.7967 30.8422 28.7972 30.8423 28.7972L30.8406 28.7917ZM30.4138 28.7877C30.4135 28.7868 30.4135 28.7863 30.4135 28.7863L30.4138 28.7877ZM30.4135 28.7972C30.4135 28.7972 30.4135 28.7967 30.4138 28.7958L30.4135 28.7972ZM30.8423 28.7863C30.8423 28.7863 30.8422 28.7868 30.842 28.7877L30.8423 28.7863Z" fill="#231C1A" stroke="black"/>
<path d="M30.4152 38.3044C30.4144 38.3062 30.414 38.3076 30.4138 38.3085C30.4137 38.3094 30.4136 38.3099 30.4135 38.3099L30.4152 38.3044ZM30.4152 38.3044C30.4169 38.3089 30.4204 38.3159 30.4272 38.3251C30.4446 38.3488 30.5097 38.415 30.6279 38.415C30.746 38.415 30.8111 38.3488 30.8285 38.3251C30.8353 38.3159 30.8389 38.3089 30.8406 38.3044M30.4152 38.3044H30.8406M30.4152 38.3044C30.4152 38.3044 30.4152 38.3044 30.4152 38.3044M30.4152 38.3044L30.4152 38.3044M30.4152 38.3044C30.4169 38.3 30.4204 38.293 30.4272 38.2838C30.4446 38.2601 30.5098 38.1938 30.6279 38.1938C30.746 38.1938 30.8111 38.2601 30.8285 38.2837C30.8353 38.293 30.8389 38.3 30.8406 38.3044C30.8406 38.3044 30.8406 38.3044 30.8406 38.3044M30.4152 38.3044L30.8423 38.3099C30.8422 38.3099 30.8421 38.3094 30.842 38.3085M30.8406 38.3044C30.8413 38.3062 30.8418 38.3076 30.842 38.3085M30.842 38.3085C30.8419 38.3076 30.8418 38.3062 30.8418 38.3044C30.8418 38.3026 30.8419 38.3013 30.842 38.3004C30.8422 38.2995 30.8423 38.299 30.8423 38.299L30.842 38.3085ZM30.4138 38.3004C30.4135 38.2995 30.4135 38.299 30.4135 38.299L30.4138 38.3004Z" fill="#231C1A" stroke="black"/>
<path d="M30.1274 48.1722C30.1274 48.1722 30.1274 48.1717 30.1276 48.1708L30.1274 48.1722ZM30.1411 48.1874C30.1343 48.1782 30.1308 48.1712 30.129 48.1667C30.1308 48.1623 30.1343 48.1553 30.1411 48.146C30.1585 48.1224 30.2236 48.0561 30.3417 48.0561C30.4599 48.0561 30.525 48.1224 30.5424 48.1461C30.5492 48.1553 30.5527 48.1623 30.5545 48.1667C30.5527 48.1712 30.5492 48.1782 30.5424 48.1874C30.525 48.2111 30.4599 48.2773 30.3417 48.2773C30.2236 48.2773 30.1585 48.2111 30.1411 48.1874ZM30.5561 48.1722C30.5561 48.1722 30.556 48.1717 30.5559 48.1708L30.5561 48.1722ZM30.5559 48.1627C30.556 48.1618 30.5561 48.1613 30.5561 48.1613L30.5559 48.1627ZM30.1276 48.1627C30.1274 48.1618 30.1274 48.1613 30.1274 48.1613L30.1276 48.1627Z" fill="#231C1A" stroke="black"/>
</svg>
