<svg width="70" height="50" viewBox="0 0 70 50" fill="none" xmlns="http://www.w3.org/2000/svg">
<path d="M18.7759 20.4821L19.0331 18.8993L17.9219 20.0554C16.5396 21.4935 15.163 22.9279 13.7855 24.3632C12.353 25.8558 10.9196 27.3494 9.47801 28.849L9.2216 29.1157L9.40171 29.4389C10.3335 31.1109 11.2569 32.8531 12.1718 34.6655C14.0945 38.4771 15.7125 42.1654 17.09 45.6746C16.0954 46.7363 15.1008 47.8038 14.1068 48.8715C11.8576 46.7417 9.44694 44.1792 7.05975 41.117C5.44551 39.0427 4.06555 37.0292 2.88513 35.1371L2.86008 35.0969L2.82792 35.0622C1.98116 34.147 0.407855 32.1436 0.504244 29.6003C0.544697 28.6579 0.79358 27.9482 0.968643 27.498C2.30324 24.0842 5.08505 20.9314 7.70268 17.9647C8.10937 17.5038 8.51209 17.0474 8.90481 16.5952L8.90487 16.5951C10.6228 14.6161 11.8017 13.1019 12.7033 11.9439C13.1279 11.3985 13.4911 10.9321 13.82 10.5333C14.8468 9.28873 15.5931 8.62671 17.012 8.01145C18.2031 7.49792 19.4209 7.05002 20.3432 6.72995C20.8038 6.57009 21.1894 6.44254 21.4595 6.35507C21.5946 6.31135 21.7007 6.27766 21.7727 6.25498L21.8547 6.22935L21.8753 6.22297L21.8803 6.22142L21.8815 6.22106L21.8818 6.22098L21.8818 6.22098L21.8823 6.22081C22.6129 5.99584 23.2478 5.82012 23.8149 5.66313L23.831 5.6587C24.3988 5.50153 24.9071 5.36071 25.3648 5.20907C26.2929 4.90162 27.0444 4.53991 27.7744 3.86313L27.7758 3.86182C28.85 2.85812 29.3864 1.63658 29.6695 0.681005C30.9274 1.17299 32.8183 1.71685 35.1495 1.7325L35.1509 1.7325C37.2187 1.74064 38.927 1.33781 40.1053 0.946762C40.3707 1.33261 40.6372 1.71947 40.9036 2.10619L40.9048 2.10787C41.2432 2.59903 41.5814 3.08996 41.9173 3.57869L42.0236 3.73318L42.2052 3.77975C44.9067 4.47245 47.902 5.46802 51.0528 6.92222C52.0666 7.39139 53.0238 7.87691 53.9325 8.37104C56.1588 11.1788 58.3831 13.9844 60.6074 16.7901L60.6437 16.8358L60.686 16.8892C62.9293 19.7188 65.1726 22.5485 67.4181 25.3803L67.4807 25.4592L67.5689 25.5078C67.7377 25.6006 69.245 26.4389 69.473 28.1581C69.6326 29.3966 69.0367 30.333 68.8707 30.567L68.8412 30.6085L68.8207 30.6551C67.9369 32.6653 66.8455 34.8307 65.4859 37.0649L65.4858 37.0651C62.4797 42.0114 59.1212 45.8055 56.1714 48.6169C55.6394 48.0736 55.1073 47.5289 54.575 46.984L54.5718 46.9808C54.0054 46.4009 53.4387 45.8208 52.8719 45.2421C53.9927 42.7275 55.1114 40.2129 56.2301 37.6985L56.2347 37.6882C57.398 35.0736 58.5611 32.4592 59.7264 29.8449L59.803 29.6731L59.7474 29.4935C59.6343 29.1282 59.5212 28.7539 59.4074 28.3777L59.3732 28.2646L59.292 28.1787C57.8257 26.6296 56.3616 25.0782 54.8972 23.5265L54.8913 23.5202C53.425 21.9665 51.9584 20.4125 50.4896 18.8606L49.6466 19.3446C50.131 21.0018 50.4965 23.3206 49.656 25.6785C49.2183 26.8862 48.6553 27.6109 48.0409 28.4017C47.8274 28.6765 47.6077 28.9594 47.3849 29.2732L47.3848 29.2733C46.0653 31.133 44.7358 34.0921 44.7038 38.8921C41.3143 38.8633 37.9249 38.8363 34.5356 38.8093L34.51 38.809C31.1107 38.782 27.7115 38.7549 24.3124 38.7259C24.3211 33.7934 22.9463 30.9364 21.5673 29.1993L21.5669 29.1988C21.411 29.003 21.2483 28.8115 21.0824 28.6164C20.4431 27.8643 19.7572 27.0574 19.2375 25.7352C18.461 23.7526 18.5563 21.8336 18.7759 20.4821Z" fill="white" stroke="black"/>
</svg>
