<svg width="112" height="72" viewBox="0 0 112 72" fill="none" xmlns="http://www.w3.org/2000/svg">
<g clip-path="url(#clip0_376_54891)">
<path fill-rule="evenodd" clip-rule="evenodd" d="M62.5584 0.380495C62.1618 1.28853 61.5037 4.24441 58.7762 17.3693C57.8967 21.6017 57.1559 25.1349 57.1301 25.2211C57.0877 25.3624 56.9331 25.3777 55.545 25.3777H54.0069L54.0427 13.9467C54.0755 3.49922 54.0437 2.05743 53.8785 6.4975C53.8464 7.35874 53.8026 8.40566 53.781 8.82397C53.7595 9.24229 53.7207 10.1281 53.6947 10.7925C53.6687 11.4569 53.6287 12.4032 53.6058 12.8953C53.5828 13.3874 53.5425 14.3135 53.5159 14.9533C53.4895 15.5931 53.4109 17.4655 53.3413 19.1141C53.2716 20.7628 53.1902 22.8566 53.1602 23.7671C53.1303 24.6775 53.0902 25.4728 53.0711 25.5343C53.0452 25.6177 52.6743 25.6461 51.6131 25.6461H50.1899L49.9399 25.3928C49.4499 24.8967 49.1813 23.6533 47.9535 16.1974C46.6455 8.25372 45.8051 3.71898 45.6015 3.50441C45.5508 3.45099 45.4817 3.45904 45.4155 3.52606C45.2146 3.72954 45.4638 5.50526 47.0568 15.2218C48.5502 24.3298 48.6575 25.4304 48.1068 25.9881C47.911 26.1864 47.8473 26.1997 47.3475 26.1454C46.6378 26.0684 46.2283 25.782 45.6943 24.9887C45.1055 24.1141 44.0633 21.9786 42.7401 18.9352C42.387 18.1231 42.0155 17.2776 41.9144 17.0561C41.8134 16.8346 41.3076 15.6669 40.7904 14.4612C40.2732 13.2555 39.7781 12.1079 39.6902 11.911C39.6023 11.7142 39.2335 10.8686 38.8707 10.0319C38.5078 9.19531 38.0117 8.06787 37.7681 7.52652C37.5245 6.98517 37.2359 6.34091 37.1267 6.09484C36.0399 3.64614 35.0926 1.72985 34.9134 1.61773C34.6029 1.42329 35.2114 3.28733 36.1203 5.31458C36.2368 5.57434 36.3321 5.80529 36.3321 5.82766C36.3321 5.88761 38.4946 10.9885 40.0682 14.6401C42.3314 19.8924 43.8822 23.7277 44.5522 25.7301L44.9247 26.8431L44.7263 27.0058C44.4775 27.2099 43.6456 27.4603 43.1795 27.4714C42.6827 27.4833 42.2723 27.1962 41.4823 26.2834C39.7356 24.2655 36.6167 19.7474 27.9473 6.67646C26.5275 4.53566 25.2483 2.67341 25.1046 2.53803C24.7617 2.21492 24.5532 2.20561 24.6707 2.5187C25.0676 3.57599 30.7011 12.2367 38.8273 24.2822C40.3298 26.5095 41.5461 28.3699 41.53 28.4164C41.4811 28.5577 38.3576 30.6634 38.2742 30.6113C38.2079 30.5698 37.2005 29.4455 33.5448 25.333C33.1947 24.9393 31.2469 22.7448 29.2162 20.4563C27.1854 18.1679 25.2373 15.9734 24.887 15.5797C24.3064 14.9271 22.9553 13.4021 18.7057 8.60269C16.4385 6.04214 14.8624 4.52215 14.8624 4.89617C14.8624 5.12059 17.2189 8.05364 19.6359 10.8373C20.1059 11.3786 20.8223 12.2041 21.2279 12.6716C21.6336 13.1391 22.8422 14.5061 23.9139 15.7093C32.8035 25.6905 36.9448 30.4933 37.3562 31.2992C37.4803 31.5421 37.4728 31.5607 37.1017 31.9309C36.8914 32.1408 36.4882 32.4734 36.2058 32.6703C35.0251 33.4931 34.5159 33.2362 28.3362 28.6997C27.3643 27.9863 26.2113 27.1355 25.774 26.8091C23.1824 24.8748 18.3484 21.498 17.4458 20.9915C17.0588 20.7743 16.8129 20.8278 16.9183 21.1062C16.9742 21.2533 18.3542 22.3221 20.8704 24.1669C23.1938 25.8703 24.1237 26.5546 24.8904 27.1255C25.2306 27.3787 26.6221 28.4039 27.9828 29.4037C34.1555 33.9394 34.3 34.052 34.3 34.3242C34.3 34.9907 33.0783 36.7416 32.6133 36.7416C32.4925 36.7416 29.1747 35.5993 25.2404 34.2033C15.5692 30.7713 10.0188 28.9257 8.75154 28.7205C7.16252 28.4631 11.5225 30.2002 19.8985 33.1616C25.9662 35.307 30.0806 36.8299 31.2986 37.3815C31.8501 37.6312 31.9162 37.6889 31.9673 37.9651C32.0554 38.4402 31.8706 39.2224 31.1906 41.2522C30.4198 43.5532 30.3556 43.405 32.0912 43.3303C34.6379 43.2205 39.0847 42.3753 41.6005 41.5229C43.5884 40.8493 46.9555 39.2377 49.7705 37.6124C53.1802 35.6437 53.725 35.4401 55.5489 35.4527C57.4271 35.4656 59.2659 35.8595 60.1199 36.4318C60.5056 36.6903 60.9826 37.3167 60.9826 37.5648C60.9826 37.8267 60.7535 38.2175 60.2418 38.8283C58.9365 40.3866 58.884 40.5645 59.5186 41.2793C60.3443 42.2093 62.1509 42.7602 65.4885 43.0995C65.9988 43.1514 67.7879 43.2172 69.4644 43.2458C72.5636 43.2986 74.503 43.2078 75.1895 42.9776L75.5166 42.8679L75.5099 42.1984C75.5043 41.6375 75.4289 41.3079 75.046 40.1686C74.7946 39.4205 74.5889 38.6664 74.5889 38.4929C74.5889 37.9442 74.2646 38.0408 80.7736 36.6516C82.5959 36.2626 85.538 35.6427 87.3117 35.274C90.3617 34.6398 92.7035 34.1455 95.6169 33.5206C98.3459 32.9353 101.323 32.2461 101.473 32.1648C101.559 32.118 101.603 32.0362 101.571 31.9829C101.367 31.6499 96.8046 32.5061 81.4804 35.7527C77.52 36.5917 74.2342 37.2783 74.1785 37.2784C74.0503 37.2785 72.761 35.5265 72.376 34.8293L72.086 34.3038L72.2951 34.1441C72.9493 33.6444 76.3217 31.6316 79.6692 29.7431C80.5925 29.2222 82.5293 28.1274 83.9733 27.3102C88.2609 24.8838 91.3661 22.9734 91.1442 22.8984C91.0927 22.881 90.7362 23.0035 90.3518 23.1705C89.6009 23.4968 84.5979 26.0305 83.0708 26.8578C74.158 31.6865 72.0321 32.715 70.9647 32.715C70.457 32.715 70.0829 32.4205 70.0829 32.0206C70.0829 31.3512 71.494 29.573 75.2126 25.5567C76.7667 23.878 78.8858 21.6191 81.2142 19.1589C86.0574 14.0415 91.7293 7.81214 91.7293 7.61036C91.7293 7.44518 90.8025 8.33157 87.7966 11.3715C84.3828 14.8239 83.1073 16.1406 78.5198 20.9485C77.111 22.4249 74.4078 25.2168 72.5126 27.1528L69.0668 30.6728L68.7428 30.6296C68.3138 30.5725 67.5099 30.1542 66.3573 29.3882L65.4149 28.7618L66.7067 27.0027C69.5879 23.0791 71.2354 20.8365 72.8303 18.6667C79.0079 10.2632 83.2703 4.25988 83.4822 3.66458C83.6572 3.17298 82.2405 4.84938 79.7992 8.02268C78.36 9.89352 75.4938 13.7519 68.3696 23.4092C66.0225 26.5908 64.8809 27.9018 64.3724 28C63.9837 28.075 63.568 27.9383 62.9447 27.5302C61.9856 26.9024 61.9868 26.9723 62.9065 25.1787C63.7694 23.496 65.0946 21.0768 66.9885 17.7272C69.5744 13.1536 71.8715 8.9598 72.3397 7.95763C72.6054 7.3889 72.7176 6.85542 72.5715 6.85542C72.3314 6.85542 70.4355 10.0337 66.3264 17.3252C62.6787 23.7979 61.8998 25.0773 61.0845 25.936C60.5161 26.5346 60.2682 26.5983 59.4168 26.3645C59.0388 26.2608 58.5605 26.1116 58.3541 26.0331C58.0219 25.9068 57.9786 25.8578 57.9786 25.6094C57.9786 24.7727 59.3119 18.1532 61.8101 6.58698C62.5149 3.32393 62.8282 1.64529 62.8973 0.76132C62.964 -0.0912417 62.8302 -0.241657 62.5584 0.380495ZM54.1133 1.62086C54.1143 1.81772 54.1324 1.88769 54.1535 1.77638C54.1746 1.66506 54.1738 1.504 54.1517 1.41846C54.1296 1.33292 54.1123 1.42401 54.1133 1.62086ZM54.6841 36.9214C54.1246 37.0917 52.5375 38.007 50.0268 39.6076C45.6088 42.4239 41.0033 43.9894 35.0002 44.7152C33.0703 44.9485 29.6434 44.9976 28.3362 44.8107C26.0956 44.4902 24.7579 43.9067 24.7579 43.2497C24.7579 43.1512 24.9567 42.8726 25.1997 42.6304C25.559 42.2722 25.6414 42.1329 25.6414 41.8838C25.6414 41.6495 25.5851 41.5404 25.4018 41.419C25.1956 41.2824 24.959 41.2614 23.701 41.2678C21.5709 41.2786 19.5287 41.6473 17.027 42.4729C15.0726 43.1179 11.7376 43.8791 8.41262 44.4392C5.27618 44.9676 1.44043 45.8557 0.753666 46.2124C0.455299 46.3675 0.442488 46.3891 0.599579 46.4743C0.819843 46.5937 2.35232 46.7412 4.03915 46.8054C4.76807 46.8331 5.84155 46.8745 6.42468 46.8972C7.00781 46.92 8.99575 46.9599 10.8423 46.986C12.6889 47.012 15.1341 47.0528 16.276 47.0765C17.418 47.1003 22.0499 47.1409 26.5691 47.1666C31.0884 47.1924 36.0383 47.2322 37.5691 47.2551C42.826 47.3336 73.678 47.4344 92.4551 47.4344C110.025 47.4344 111.259 47.4245 111.399 47.2823C111.523 47.1567 111.53 47.1061 111.436 46.9918C111.19 46.6919 109.382 46.3273 107.014 46.1001C105.746 45.9783 105.138 45.9331 103.259 45.82C98.1989 45.5157 96.8488 45.3664 95.586 44.9714C94.5259 44.6398 94.2702 44.2739 94.3096 43.1455C94.3313 42.5251 94.3085 42.3676 94.1756 42.2187C93.9435 41.9586 93.3309 41.8262 92.1269 41.7758C90.4262 41.7045 88.0819 42.0524 84.4402 42.9165C81.0865 43.7124 77.9495 44.244 74.5889 44.5861C72.3469 44.8144 66.8487 44.8151 65.0477 44.5873C60.705 44.0381 58.5269 43.2812 57.7146 42.0392C57.1946 41.2442 57.268 40.4021 57.9848 38.9379C58.5384 37.8071 58.576 37.4948 58.1867 37.261C58.034 37.1692 57.6364 37.0357 57.3032 36.9642C56.6519 36.8245 55.0869 36.7989 54.6841 36.9214ZM99.1951 50.1247C99.1466 50.1375 98.9994 50.1718 98.8682 50.2011C98.5255 50.2774 97.6104 51.1705 97.1221 51.905C96.8919 52.2514 96.2157 53.4609 95.6197 54.5928C94.2618 57.1713 94.2248 57.2325 94.0229 57.2325C93.6974 57.2325 93.3736 56.7068 92.1563 54.2025C91.478 52.8067 90.7865 51.4578 90.62 51.2049C90.0771 50.381 89.5223 50.145 88.2836 50.2113C87.3851 50.2594 86.9539 50.3395 86.9054 50.4673C86.8645 50.5753 87.1484 51.3188 87.6504 52.4185C87.801 52.7484 87.9803 53.151 88.0487 53.3133C88.1172 53.4757 88.739 54.8366 89.4307 56.3377C92.0932 62.1163 92.0111 61.7778 92.0775 67.2542L92.1269 71.3255L93.6862 71.3499L95.2453 71.3743L95.2894 67.4128C95.3495 62.0067 95.2844 62.2786 97.7383 57.1877C99.2713 54.0075 100.3 51.4915 100.3 50.9209C100.3 50.5946 99.5272 50.0378 99.1951 50.1247ZM32.7096 60.7698V71.3952L33.7281 71.3497C34.5392 71.3134 34.7821 71.2715 34.9212 71.144C35.2956 70.801 35.3539 70.1046 35.3575 65.9344L35.3602 62.7802H37.9666H40.5731L40.5781 63.5631C40.5809 63.9938 40.5972 64.5072 40.6143 64.704C40.6315 64.9009 40.6701 65.8471 40.7001 66.8068C40.7953 69.8484 40.8894 70.7697 41.1583 71.3004C41.3208 71.621 41.4879 71.7021 42.2169 71.8145C42.5519 71.8662 42.9155 71.929 43.0248 71.9543L43.2236 72V61.0721V50.1442L42.2094 50.1769C41.0578 50.2139 40.8969 50.2966 40.7388 50.933C40.6912 51.125 40.6171 52.7518 40.5744 54.5481C40.4993 57.704 40.4152 58.726 40.1913 59.2001C40.0474 59.5048 39.5361 59.5656 38.0108 59.4599C36.8667 59.3805 35.4446 59.2278 35.3987 59.1794C35.3866 59.1667 35.3587 57.3644 35.3368 55.1744C35.3103 52.5348 35.2627 51.084 35.1955 50.8705C35.0129 50.2901 34.8487 50.213 33.7168 50.1766L32.7096 50.1442V60.7698ZM46.4891 50.5336C46.487 50.7484 46.4674 51.1456 46.4455 51.4163C46.2655 53.6379 46.0159 61.7976 46.0117 65.5988C46.0068 69.9096 46.0099 69.9904 46.1978 70.402C46.4285 70.9075 46.7046 71.0703 47.5256 71.185C48.5089 71.3224 52.595 71.3893 54.4003 71.2977C56.3938 71.1965 56.6812 71.1131 56.8233 70.5945C56.9269 70.2168 56.9346 69.5696 56.8395 69.2237C56.7604 68.936 56.3175 68.6364 55.8622 68.5626C55.3152 68.4741 53.1146 68.3446 50.9987 68.2764C48.909 68.2091 48.9081 68.209 48.8259 68.1259C48.7341 68.0328 48.7478 62.607 48.8401 62.523C48.8854 62.4819 49.6915 62.4 50.6315 62.341C52.5959 62.2179 53.2094 62.1145 53.478 61.8611C53.653 61.696 53.6662 61.6112 53.6335 60.8659C53.592 59.9181 53.3936 59.4034 52.996 59.2124C52.8554 59.1447 52.259 59.0553 51.6707 59.0136C49.7533 58.8775 49.0907 58.6274 48.7562 57.9134C48.5374 57.4462 48.5632 56.3523 48.8272 54.9173C48.9484 54.259 49.059 53.7104 49.0732 53.698C49.0874 53.6856 50.1925 53.6283 51.5288 53.5707C55.7884 53.3872 56.2834 53.3029 56.5239 52.7198C56.6771 52.3486 56.693 51.5584 56.5554 51.1585C56.3378 50.5267 56.0523 50.4844 50.7336 50.2976C50.0776 50.2745 48.855 50.2303 48.0168 50.1994L46.4927 50.1431L46.4891 50.5336ZM61.1593 50.2257C60.1438 50.2856 59.4803 50.4387 59.3477 50.6437C59.071 51.0713 59.0113 52.4854 59.0728 57.143C59.1057 59.6283 59.1499 61.8832 59.1713 62.1538C59.1927 62.4245 59.2533 63.5117 59.3061 64.5698C59.4399 67.2551 59.6414 69.7933 59.7598 70.2844C59.9727 71.1677 60.1602 71.326 60.9826 71.3168C61.6023 71.3099 61.861 71.2127 61.9772 70.9427C62.0489 70.7764 62.0996 69.5929 62.1371 67.2094C62.1805 64.4446 62.2206 63.6185 62.3297 63.2327C62.6213 62.202 63.2495 62.2765 64.1875 63.4534C64.8794 64.3216 65.5754 65.6129 66.7904 68.2832C67.171 69.1198 67.6516 70.056 67.8582 70.3634C68.3847 71.1471 68.699 71.2938 69.9716 71.3507C70.6848 71.3826 70.9664 71.3662 70.9664 71.2928C70.9664 71.2366 70.0532 69.341 68.937 67.0806L66.9075 62.9707L68.1356 61.7765C70.3176 59.6548 70.444 59.416 70.505 57.3019C70.5695 55.0663 70.2871 53.7311 69.5027 52.5639C68.9073 51.6779 67.9422 50.9244 67.0612 50.6578C66.1113 50.3702 62.8076 50.1283 61.1593 50.2257ZM72.117 51.073C72.1195 52.2928 72.2664 52.6486 72.8767 52.9138C73.1138 53.0169 74.1029 53.2376 75.0748 53.4043L76.8419 53.7076L76.8644 62.5389L76.8869 71.3702H78.4264H79.9659L79.9972 70.5426C80.0145 70.0874 80.039 68.5504 80.0517 67.1271C80.0645 65.7038 80.0883 64.5159 80.1047 64.4875C80.1211 64.4589 80.1632 62.08 80.1981 59.201C80.2332 56.322 80.2747 53.9526 80.2904 53.9358C80.306 53.9188 80.9679 53.8287 81.7611 53.7355C84.1662 53.4529 84.715 53.2762 84.9249 52.717C84.9742 52.5857 85.0145 52.0389 85.0145 51.5016C85.0145 50.5608 85.0072 50.5234 84.8157 50.4831C84.7064 50.4601 83.2055 50.418 81.4804 50.3894C79.7553 50.361 77.8668 50.3193 77.2837 50.2968C76.7005 50.2743 75.2991 50.2318 74.1692 50.202L72.115 50.1481L72.117 51.073ZM6.93686 61.3262C6.93518 67.1211 6.94676 71.886 6.96266 71.9149C6.99297 71.9698 8.63942 71.7869 9.04478 71.6834C9.36621 71.6014 9.61546 71.3059 9.72899 70.8723C9.85374 70.396 9.97956 68.4175 10.0444 65.912C10.0731 64.8047 10.1195 63.6508 10.1475 63.3479L10.1985 62.7972L12.1549 62.7605C14.2072 62.7219 14.5026 62.6702 14.7018 62.3147C14.8661 62.0212 14.8603 60.1138 14.6941 59.7988C14.4684 59.3714 14.3492 59.3577 10.2901 59.2936L10.0913 59.2905V56.4719V53.6533L12.8523 53.6509C16.8292 53.6475 17.5617 53.5763 17.8263 53.1674C17.9219 53.0196 17.9758 52.6348 18.0076 51.8734L18.0527 50.7899H12.4964H6.93995L6.93686 61.3262ZM22.77 50.9251C22.3439 51.1505 22.2159 51.4165 21.8361 52.865C21.3083 54.8781 20.5709 57.469 19.1939 62.1491C16.8508 70.1127 16.6556 71.1161 17.3645 71.554C17.7031 71.7632 18.1412 71.857 18.4332 71.7827C18.9938 71.6403 19.5909 70.6183 20.0337 69.0438C20.409 67.7092 20.7604 67.0497 21.1354 66.9758C21.2083 66.9614 21.4668 66.9989 21.7097 67.059C22.3221 67.2106 23.4595 67.3152 24.7137 67.3353C26.6762 67.3667 26.8728 67.5087 27.4513 69.3122C27.7478 70.2363 28.051 70.8233 28.3451 71.0421C28.9661 71.5041 31.0332 71.3589 31.03 70.8534C31.0294 70.7686 30.9074 70.2965 30.7589 69.8043C30.6104 69.3122 30.377 68.527 30.2402 68.0595C25.6739 52.4471 25.4592 51.7832 24.7581 51.1031C24.5028 50.8555 24.4252 50.8327 23.7582 50.8098C23.2341 50.7917 22.962 50.8235 22.77 50.9251ZM65.1858 53.1619C66.6497 53.4221 67.4803 54.0928 67.7891 55.2639C67.9236 55.7738 67.9219 57.2547 67.7863 57.7753C67.6023 58.4815 67.3018 58.8965 66.7918 59.1488C66.1509 59.466 65.6246 59.5389 63.6219 59.5885L61.8878 59.6314L61.8293 58.499C61.6981 55.9607 61.6033 53.8525 61.6023 53.4485L61.601 53.0201L63.0809 53.0354C63.8948 53.0438 64.8421 53.1007 65.1858 53.1619ZM24.267 57.9363C24.39 58.2628 24.7293 59.456 25.021 60.5879C25.3127 61.7199 25.5981 62.811 25.6552 63.0126C25.8627 63.7454 25.6526 63.8514 23.9797 63.8585C22.7299 63.8638 21.9254 63.7501 21.7568 63.5444C21.6423 63.4047 21.8301 62.4585 22.3718 60.4454C22.8492 58.6716 23.2532 57.5984 23.5901 57.2094C23.716 57.064 23.7383 57.063 23.8849 57.1974C23.9721 57.2773 24.144 57.6098 24.267 57.9363Z" fill="#1F1E2C"/>
</g>
<defs>
<clipPath id="clip0_376_54891">
<rect width="111" height="72" fill="white" transform="translate(0.5)"/>
</clipPath>
</defs>
</svg>
