<svg width="190" height="42" viewBox="0 0 190 42" fill="none" xmlns="http://www.w3.org/2000/svg">
<g clip-path="url(#clip0_376_54894)">
<path fill-rule="evenodd" clip-rule="evenodd" d="M99.1375 0.0633005C95.3812 0.380282 91.4724 1.63664 88.2211 3.57188C86.3202 4.70338 85.0453 5.6967 83.2638 7.43439C79.5574 11.0496 77.2281 15.5946 76.4209 20.7864C76.1432 22.5728 76.1458 25.7121 76.4266 27.5408C77.2079 32.6296 79.548 37.2527 83.1193 40.7628L84.0457 41.6734L85.5124 40.2014C86.319 39.3918 86.995 38.6914 87.0147 38.6449C87.0344 38.5985 86.7145 38.2079 86.3039 37.7769C84.7262 36.1211 83.7794 34.8093 82.822 32.9528C81.8839 31.1338 81.2538 29.2811 80.9382 27.4137C80.7529 26.3177 80.6435 26.4266 81.9294 26.4266H83.0343L83.0835 26.7615C83.4572 29.3038 84.5968 32.0754 86.1316 34.1745C87.6047 36.189 89.9431 38.2782 92.0841 39.4927C94.3424 40.7736 96.9707 41.6207 99.5848 41.9102C100.988 42.0655 103.483 42.0131 104.785 41.8011C112.253 40.5843 117.939 35.7576 119.533 29.282C119.912 27.7442 119.968 27.1811 120.007 24.5407L120.044 22.0554H111.233H102.423V24.241V26.4266H108.71C114.684 26.4266 114.997 26.4329 114.997 26.5518C114.997 26.7982 114.84 27.8814 114.728 28.4007C113.544 33.9135 108.257 37.7025 101.742 37.7065C95.7105 37.7102 90.5273 34.0904 88.6672 28.5751C88.4308 27.8741 88.1517 26.7843 88.1488 26.55C88.1471 26.4346 88.335 26.4266 91.0689 26.4266H93.9906V24.241V22.0554H91.0689C88.3199 22.0554 88.1471 22.048 88.1471 21.9303C88.1471 21.8615 88.2466 21.4169 88.3682 20.9424C89.5272 16.4183 92.8961 12.8756 97.3931 11.4519C100.112 10.5911 103.367 10.5732 105.976 11.4045C107.917 12.0233 109.666 13.0604 112.443 15.2412L113.402 15.9943L113.633 15.7641C113.76 15.6375 114.492 14.887 115.26 14.0965L116.656 12.659L115.955 12.0167C111.52 7.95174 107.216 6.33306 101.276 6.49564C98.4073 6.57418 96.1293 7.09872 93.5795 8.26801C91.6517 9.15191 90.2188 10.0971 88.7195 11.4731C86.4933 13.5163 84.9699 15.7228 83.9653 18.3584C83.6962 19.0645 83.2463 20.7497 83.1147 21.5443L83.03 22.0554H81.9016H80.7732L80.8685 21.3993C81.6536 15.9922 84.862 11.0032 89.5758 7.85952C94.2729 4.727 99.9709 3.57386 105.64 4.60842C105.925 4.66038 106.18 4.6811 106.207 4.65445C106.252 4.6106 107.008 1.44657 107.123 0.820996C107.17 0.566692 107.165 0.559712 106.887 0.490619C106.391 0.367662 104.785 0.136553 103.902 0.0611855C102.936 -0.0213735 100.126 -0.0201045 99.1375 0.0633005ZM187.017 10.8734C186.411 11.0332 186.016 11.4151 185.85 12.0014C185.595 12.9063 186.435 13.875 187.477 13.8767C188.212 13.8779 188.875 13.4021 189.037 12.7558C189.188 12.1584 189.048 11.6485 188.622 11.2428C188.202 10.8424 187.632 10.7112 187.017 10.8734ZM188.167 11.3061C188.481 11.5276 188.669 11.9095 188.669 12.325C188.669 13.0646 188.282 13.4664 187.526 13.5107C187.151 13.5327 187.038 13.5104 186.827 13.3721C186.382 13.0816 186.265 12.8659 186.265 12.3385C186.265 11.8098 186.427 11.5104 186.849 11.2577C187.153 11.0757 187.878 11.1023 188.167 11.3061ZM186.869 11.5975C186.81 11.6541 186.802 13.0614 186.861 13.1174C186.884 13.139 186.967 13.1406 187.046 13.1209C187.158 13.0931 187.19 13.0231 187.19 12.8069C187.19 12.5354 187.196 12.5291 187.43 12.5507C187.64 12.57 187.679 12.6067 187.739 12.8372C187.798 13.0654 187.836 13.1016 188.018 13.1016C188.209 13.1016 188.224 13.0839 188.182 12.9077C188.157 12.8011 188.077 12.6321 188.003 12.5324C187.875 12.3566 187.875 12.3484 188.015 12.2648C188.227 12.139 188.174 11.7587 187.929 11.6413C187.736 11.5485 186.954 11.5162 186.869 11.5975ZM187.755 11.9392C187.819 12.0982 187.644 12.2555 187.403 12.2555C187.215 12.2555 187.19 12.23 187.19 12.044C187.19 11.8489 187.21 11.8325 187.451 11.8325C187.616 11.8325 187.728 11.8718 187.755 11.9392ZM1.35806 14.6253C1.25177 14.7266 1.14607 14.909 1.12314 15.0307C1.10013 15.1523 1.09104 18.1145 1.1028 21.6132L1.12425 27.9745L1.32766 28.1684C1.63033 28.4568 2.06304 28.4422 2.35225 28.1336L2.56661 27.9049V25.0216V22.1381L5.58079 22.1117C7.88673 22.0915 8.64083 22.0634 8.79024 21.9921C8.99713 21.8933 9.14973 21.648 9.14973 21.4141C9.14973 21.2131 8.95135 20.8739 8.78396 20.7885C8.69298 20.742 7.54604 20.7159 5.60416 20.7159H2.56661V18.2927V15.8695L6.70044 15.8384C10.4715 15.8101 10.8516 15.7965 11.0309 15.6846C11.4201 15.4415 11.4492 14.96 11.0951 14.6225L10.9048 14.4411H6.22801H1.55126L1.35806 14.6253ZM13.1004 14.6049L12.8851 14.7814L12.8655 21.3469C12.8516 26.0047 12.8695 27.9543 12.9269 28.0568C13.0374 28.2535 13.4779 28.4195 13.7425 28.364C13.8599 28.3395 14.0228 28.2382 14.1047 28.139C14.2476 27.9658 14.2535 27.8571 14.2535 25.3948V22.831H15.9046H17.5556L18.9507 24.9637C20.9922 28.0846 21.1509 28.302 21.428 28.3548C21.7099 28.4085 22.1251 28.2565 22.2361 28.0588C22.4412 27.6934 22.3636 27.5385 20.6853 24.9634C19.7885 23.5873 19.0645 22.4554 19.0765 22.4481C19.0886 22.4407 19.2688 22.3329 19.4769 22.2085C19.8336 21.9953 20.5075 21.3891 20.8226 20.9979C21.0606 20.7026 21.3373 20.1297 21.4599 19.6784C21.6077 19.1348 21.6095 18.1199 21.4638 17.5757C21.117 16.2811 20.0421 15.1498 18.6927 14.6595C18.2216 14.4883 18.1558 14.4838 15.7632 14.4564L13.3157 14.4284L13.1004 14.6049ZM29.2015 14.635C29.0261 14.7912 28.6606 15.6236 27.3209 18.9181C24.075 26.8994 23.77 27.6938 23.8626 27.9247C23.9735 28.201 24.227 28.3623 24.5504 28.3623C24.7961 28.3623 24.8848 28.3223 25.0439 28.1401C25.1576 28.0097 25.6043 27.0134 26.1253 25.7279L27.0129 23.5378L29.6632 23.5545L32.3135 23.5712L33.1102 25.5101C34.1914 28.1415 34.2416 28.2378 34.5807 28.3341C34.9175 28.4297 35.2009 28.3412 35.3767 28.0855C35.6242 27.7254 36.0283 28.792 30.5887 15.4473C30.3986 14.9808 30.2276 14.6757 30.1047 14.5836C29.8307 14.3782 29.4666 14.3989 29.2015 14.635ZM37.2158 14.6573L36.9986 14.8736V21.3375C36.9986 28.4116 36.9802 28.1128 37.4272 28.317C37.6928 28.4383 38.0087 28.3705 38.2502 28.1403L38.44 27.9594L38.459 22.5793L38.4779 17.1993L41.7325 21.1904C46.378 26.8871 47.2257 27.9158 47.4698 28.1523C47.7848 28.4576 48.2116 28.4499 48.5081 28.1336L48.7224 27.9049V21.4222V14.9396L48.4859 14.6827C48.2665 14.4446 48.2256 14.4285 47.9228 14.461C47.7264 14.4821 47.5333 14.5561 47.4382 14.6468C47.2801 14.7974 47.2801 14.7979 47.2431 20.2042L47.2061 25.611L43.5858 21.1717C37.9189 14.2229 38.1098 14.4411 37.7001 14.4411C37.4986 14.4411 37.3797 14.4942 37.2158 14.6573ZM50.4463 14.6112L50.2388 14.7814L50.2192 21.3469C50.2053 26.0047 50.2231 27.9543 50.2806 28.0568C50.391 28.2535 50.8315 28.4195 51.0961 28.364C51.2135 28.3395 51.3765 28.2382 51.4583 28.139C51.6045 27.9619 51.6072 27.8627 51.6072 22.6041C51.6072 19.4723 51.6348 17.2593 51.6735 17.273C51.7101 17.2859 53.5131 19.4697 55.6803 22.1259C60.3826 27.8891 60.734 28.3071 60.9282 28.3658C61.1772 28.4411 61.5038 28.3323 61.7017 28.1081L61.8887 27.8964V21.3748V14.8533L61.6725 14.6472C61.3874 14.3755 60.965 14.3614 60.679 14.614C60.4891 14.7817 60.483 14.8128 60.4727 15.6539C60.4669 16.1308 60.4419 18.5615 60.4172 21.0555L60.3723 25.59L56.1807 20.4562C53.8754 17.6326 51.8006 15.1241 51.57 14.8818C51.2145 14.5079 51.1133 14.4411 50.9024 14.4411C50.7463 14.4411 50.5767 14.5044 50.4463 14.6112ZM63.6125 14.6112L63.405 14.7814L63.3847 21.3266C63.3702 25.9942 63.3878 27.914 63.446 28.0186C63.4909 28.0993 63.6216 28.2183 63.7366 28.283C63.9257 28.3896 64.382 28.4007 68.5443 28.4007H73.1431L73.3593 28.1946C73.5289 28.033 73.5755 27.9254 73.5755 27.6957C73.5755 27.466 73.5289 27.3584 73.3593 27.1967L73.1431 26.9906H68.9952H64.8474V24.5605V22.1304L67.9154 22.1106L70.9834 22.0907L71.1867 21.8968C71.4893 21.6083 71.474 21.1959 71.1502 20.9202L70.9103 20.7159H67.8788H64.8474V18.2835V15.8512H68.8738C71.2038 15.8512 72.9771 15.8233 73.0828 15.785C73.6073 15.5949 73.7477 15.0174 73.3593 14.6472L73.1431 14.4411H68.4816H63.8201L63.6125 14.6112ZM128.422 14.4869C127.419 14.6416 126.323 15.0416 125.524 15.5443C124.865 15.9581 123.832 16.9459 123.38 17.5932C122.918 18.2558 122.51 19.1544 122.355 19.8519C122.289 20.1467 122.248 20.7444 122.248 21.4209C122.247 23.0344 122.51 23.9467 123.314 25.1223C124.874 27.402 127.415 28.5961 130.159 28.3396C130.608 28.2977 131.183 28.2137 131.437 28.1529C132.096 27.9953 133.458 27.3348 133.917 26.95L134.308 26.6226L134.287 24.1918L134.266 21.7611L134.058 21.591L133.851 21.4209H131.79H129.728L129.509 21.597C129.232 21.8192 129.168 22.0584 129.303 22.3664C129.473 22.756 129.597 22.784 131.289 22.8179L132.824 22.8485V24.4535V26.0584L132.25 26.3417C131.249 26.8366 130.722 26.955 129.532 26.9533C128.685 26.952 128.392 26.9231 127.919 26.794C126.284 26.3476 124.864 25.1844 124.168 23.7214C123.793 22.9314 123.696 22.461 123.694 21.4209C123.693 20.3596 123.792 19.8858 124.186 19.0702C124.832 17.7347 126.133 16.6155 127.631 16.107C128.247 15.898 128.324 15.8887 129.458 15.8876C130.496 15.8866 130.709 15.9068 131.195 16.0522C131.877 16.2561 132.192 16.4049 132.877 16.8465C133.478 17.2343 133.788 17.2848 134.105 17.0467C134.329 16.879 134.419 16.5308 134.31 16.2574C134.138 15.8261 132.522 14.9401 131.381 14.6514C130.944 14.5407 130.51 14.4952 129.717 14.4771C129.127 14.4636 128.545 14.468 128.422 14.4869ZM141.873 14.5454C139.663 14.9277 137.691 16.3654 136.671 18.3383C136.095 19.4508 135.98 19.9537 135.974 21.3857C135.969 22.4279 135.99 22.6618 136.138 23.1788C136.849 25.6628 138.98 27.642 141.57 28.2242C142.296 28.3873 144.236 28.3666 145.02 28.1874C147.098 27.7126 148.961 26.2282 149.909 24.2923C150.365 23.3628 150.44 23.0123 150.481 21.6324C150.513 20.5422 150.499 20.3253 150.359 19.7683C150.192 19.0971 149.712 18.055 149.312 17.4954C148.994 17.0499 148.13 16.1959 147.612 15.8137C146.084 14.6875 143.875 14.1992 141.873 14.5454ZM152.3 14.6112L152.092 14.7814L152.073 21.3704C152.05 29.0193 151.961 28.2524 152.878 28.3399C153.6 28.4088 160.338 28.4056 160.851 28.3362C161.333 28.2709 161.523 28.089 161.523 27.6918C161.523 27.5078 161.466 27.3584 161.345 27.2237L161.166 27.0259L157.314 27.0064L153.463 26.987L153.443 20.8842L153.424 14.7814L153.216 14.6112C152.942 14.3863 152.574 14.3863 152.3 14.6112ZM163.369 14.5315C163.306 14.5787 163.198 14.6958 163.128 14.7917C163.012 14.9528 163.002 15.4561 163.002 21.4437V27.9213L163.264 28.1708L163.526 28.4204L165.687 28.3711C168.143 28.315 168.657 28.2385 169.696 27.7743C171.622 26.9139 173.023 25.406 173.699 23.4655C173.9 22.8886 173.908 22.8136 173.909 21.4562C173.91 19.8643 173.852 19.5591 173.357 18.5495C172.323 16.4388 170.298 14.9317 167.98 14.5463C167.16 14.41 163.546 14.3983 163.369 14.5315ZM175.72 14.6363L175.49 14.8316L175.454 20.0474C175.433 22.9162 175.445 25.8898 175.48 26.6555C175.54 27.9644 175.553 28.0571 175.71 28.2065L175.877 28.3654L180.534 28.3904L185.192 28.4154L185.451 28.1683C185.801 27.8353 185.803 27.5581 185.459 27.2304L185.207 26.9906H181.058H176.908V24.5583V22.1259H179.938H182.968L183.23 21.9071C183.56 21.6311 183.592 21.2583 183.313 20.949L183.134 20.7511L180.021 20.726L176.908 20.7009V18.2761V15.8512L180.477 15.845C182.44 15.8417 184.341 15.8175 184.701 15.7913C185.295 15.7481 185.371 15.7257 185.533 15.5467C185.787 15.2647 185.772 14.9121 185.494 14.6472L185.278 14.4411H180.614H175.949L175.72 14.6363ZM167.81 15.9268C169.192 16.143 170.596 17.0317 171.513 18.2701C172.624 19.7711 172.839 21.8036 172.076 23.6028C171.524 24.9054 170.077 26.2019 168.647 26.675C167.89 26.9254 167.316 26.9895 165.832 26.9901L164.482 26.9906V21.4033V15.8159L165.905 15.8338C166.689 15.8436 167.546 15.8854 167.81 15.9268ZM18.4144 16.0765C20.6739 17.0858 20.7008 20.0431 18.4604 21.1493L17.9889 21.3821L16.1397 21.3839L14.2905 21.3857L14.2711 18.615L14.2518 15.8444L16.1203 15.8654C17.9736 15.8863 17.9924 15.888 18.4144 16.0765ZM145.065 16.091C145.975 16.3852 146.605 16.7748 147.402 17.5375C148.006 18.1151 148.163 18.3155 148.456 18.8843C148.952 19.846 149.055 20.284 149.054 21.4209C149.052 22.7595 148.773 23.6315 148.029 24.6258C146.834 26.222 144.973 27.0751 142.92 26.9682C141.981 26.9192 141.468 26.7897 140.59 26.3797C139.978 26.0941 139.792 25.9596 139.148 25.3402C138.314 24.5388 138.011 24.0947 137.685 23.2019C137.488 22.6634 137.455 22.4617 137.425 21.6289C137.386 20.5264 137.521 19.8533 137.954 18.9886C138.599 17.7029 139.975 16.5422 141.372 16.1062C142.048 15.8953 142.388 15.8579 143.438 15.879C144.334 15.897 144.553 15.9256 145.065 16.091ZM30.6803 19.5556C31.2158 20.8723 31.6701 21.9894 31.6898 22.0378C31.718 22.107 31.2854 22.1259 29.675 22.1259C27.7579 22.1259 27.6267 22.1179 27.6596 22.0026C27.6791 21.9347 28.103 20.8798 28.6018 19.6583C29.1005 18.4369 29.5388 17.3617 29.5758 17.2691C29.6127 17.1765 29.6573 17.1144 29.6749 17.1311C29.6924 17.1479 30.1449 18.2388 30.6803 19.5556Z" fill="#1F1E2C"/>
</g>
<defs>
<clipPath id="clip0_376_54894">
<rect width="189" height="42" fill="white" transform="translate(0.5)"/>
</clipPath>
</defs>
</svg>
