<svg width="204" height="42" viewBox="0 0 204 42" fill="none" xmlns="http://www.w3.org/2000/svg">
<g clip-path="url(#clip0_376_54903)">
<path fill-rule="evenodd" clip-rule="evenodd" d="M92.2665 0.354101C92.0873 0.626402 91.5259 1.02885 91.0189 1.24872C90.5116 1.46837 90.0674 1.66675 90.0315 1.68928C89.9957 1.71203 90.1021 2.05446 90.2684 2.45017C90.5645 3.15609 90.5089 3.33868 87.3738 11.9498L84.1772 20.7297H83.171C82.6174 20.7297 82.1646 20.8245 82.1646 20.9403C82.1646 21.0707 83.2926 21.1509 85.1259 21.1509C88.3536 21.1509 89.2835 20.7872 86.3162 20.6853L84.5453 20.6244L85.9712 16.7284L87.3973 12.8324L90.7818 12.7747L94.1662 12.717L95.6539 16.6707L97.1415 20.6244L95.6816 20.6864C94.8786 20.7203 94.2216 20.8388 94.2216 20.9496C94.2216 21.0709 95.9066 21.1509 98.4646 21.1509C101.239 21.1509 102.662 21.0781 102.576 20.9403C102.505 20.8245 102.042 20.7297 101.549 20.7297H100.653L96.7686 10.4632C94.6322 4.81664 92.8185 0.120549 92.7382 0.0278865C92.658 -0.0649866 92.4456 0.0817993 92.2665 0.354101ZM2.84184 0.265229C2.84184 0.37137 3.29472 0.517945 3.84849 0.591232L4.85494 0.724119L5.3973 2.12206L5.93944 3.52L4.71047 11.9668C4.03443 16.6128 3.48023 20.485 3.47874 20.5718C3.47748 20.6586 2.8577 20.7297 2.10149 20.7297C1.32582 20.7297 0.726562 20.8216 0.726562 20.9403C0.726562 21.0722 2.03507 21.1509 4.22924 21.1509C6.51056 21.1509 7.68644 21.0774 7.6012 20.9403C7.52928 20.8245 6.6544 20.7297 5.65705 20.7297H3.84384L3.95214 19.94C5.21898 10.7146 6.14568 4.5138 6.25716 4.5138C6.33457 4.5138 6.55097 4.96385 6.73774 5.51414C8.00458 9.24549 12.6736 21.3419 12.7957 21.2091C12.9503 21.0404 19.0283 3.05247 19.184 2.30254C19.2456 2.00644 19.3099 2.10037 19.401 2.61844C19.5375 3.39596 21.2593 20.0148 21.25 20.4665C21.2464 20.6514 20.8073 20.7297 19.7765 20.7297C18.9689 20.7297 18.2643 20.8007 18.2104 20.8877C18.1564 20.9745 21.625 21.0576 25.9186 21.0724C30.212 21.0871 33.7248 21.0197 33.7248 20.9224C33.7248 20.8251 32.8914 20.7184 31.8729 20.6851L30.021 20.6244L31.1854 12.3598L32.3499 4.09514L35.4995 12.5704C37.2319 17.2317 38.7177 21.1223 38.8015 21.216C39.0392 21.4826 45.4807 2.45564 45.3176 1.96853C45.2808 1.85881 44.1709 4.99902 42.851 8.94686C41.5312 12.8947 40.4167 16.0901 40.3742 16.048C40.2481 15.9222 34.7825 1.29463 34.7825 1.08276C34.7825 0.975571 35.0145 0.946088 35.2984 1.01685C35.582 1.08782 35.8663 1.06171 35.93 0.959145C35.9939 0.856374 35.2144 0.708745 34.198 0.630825C33.1814 0.552904 31.5958 0.400221 30.674 0.291553C28.4098 0.024517 28.1872 0.200786 30.2268 0.645566C31.012 0.816781 31.0985 0.912813 31.5867 2.15554L32.1079 3.48293L30.8591 12.1126L29.61 20.7424L27.1817 20.6834L24.7533 20.6244L23.6468 11.2529C23.0385 6.09854 22.5346 1.62758 22.5272 1.31737C22.5147 0.789404 22.5881 0.744126 23.6773 0.608712C24.3171 0.529106 24.8407 0.371791 24.8407 0.259122C24.8407 0.140345 24.5069 0.107071 24.0475 0.179937C23.1379 0.324196 18.6429 0.718643 17.8778 0.721171C17.5967 0.722224 17.4343 0.790246 17.5168 0.872379C17.5993 0.954512 18.0433 0.994736 18.5033 0.961672C19.122 0.917236 19.3162 0.974308 19.2485 1.1809C17.2335 7.32253 14.394 15.8285 14.3119 15.9688C14.2281 16.1122 9.29955 3.35805 8.63239 1.27104C8.52028 0.920395 8.58544 0.887542 9.16354 1.00253C9.54048 1.07771 9.82224 1.04591 9.82224 0.928398C9.82224 0.815518 9.60796 0.723066 9.3463 0.722855C8.65566 0.722645 4.3367 0.326302 3.5293 0.188993C3.15109 0.124761 2.84184 0.159088 2.84184 0.265229ZM48.849 0.309033C48.0346 0.398958 46.5288 0.537741 45.5024 0.617768C44.4761 0.697794 43.696 0.822468 43.7688 0.894913C43.8413 0.967358 44.2193 0.999158 44.6087 0.965673C45.2799 0.90818 45.3235 0.94693 45.4464 1.70908C45.5433 2.30991 47.4741 20.3698 47.4741 20.6746C47.4741 20.7049 46.7602 20.7297 45.8876 20.7297C45.0151 20.7297 44.3012 20.8138 44.3012 20.9165C44.3012 21.0195 46.3365 21.1 48.8423 21.096C51.3398 21.092 53.3332 21.0079 53.2718 20.9092C53.2105 20.8106 52.6425 20.7297 52.0094 20.7297C51.1011 20.7297 50.8585 20.6596 50.8585 20.3968C50.8585 19.9676 48.7864 2.06499 48.6495 1.31189C48.5489 0.756761 48.5781 0.738861 49.8081 0.600288C50.5021 0.521946 51.0701 0.375582 51.0701 0.274706C51.0701 0.072533 50.984 0.0737966 48.849 0.309033ZM63.6559 0.512469C63.7278 0.628297 64.4948 0.723066 65.3606 0.723066H66.9346V10.7264V20.7297H65.3606C64.4948 20.7297 63.7278 20.8245 63.6559 20.9403C63.5696 21.0793 66.4375 21.1509 72.1005 21.1509H80.6758L80.782 20.6771C81.1685 18.9534 81.762 15.4151 81.6787 15.3322C81.6235 15.2772 80.7112 16.4115 79.6512 17.8528C78.5912 19.2943 77.5729 20.5312 77.3887 20.6017C77.2042 20.672 75.538 20.7297 73.6861 20.7297H70.319V12.6542C70.319 8.21251 70.3808 3.71101 70.4565 2.65087L70.5938 0.723066H72.1363C72.9845 0.723066 73.7373 0.628297 73.8092 0.512469C73.8951 0.374318 72.1502 0.301873 68.7326 0.301873C65.3149 0.301873 63.57 0.374318 63.6559 0.512469ZM103.528 0.509942C103.528 0.635879 104.22 0.723066 105.221 0.723066H106.913V10.7264V20.7297H105.221C104.29 20.7297 103.528 20.8148 103.528 20.9186C103.528 21.025 105.884 21.1095 108.924 21.112C112.147 21.1145 114.271 21.0385 114.2 20.9231C114.134 20.8167 113.229 20.7297 112.188 20.7297H110.297V15.7807V10.8317H113.669H117.04L117.159 11.7267C117.224 12.2191 117.309 13.0008 117.348 13.4642C117.386 13.9275 117.42 12.6481 117.422 10.6211C117.424 8.59411 117.392 7.21997 117.351 7.56746C117.31 7.91494 117.222 8.69667 117.156 9.30488L117.036 10.4105H113.666H110.297V5.56679V0.723066H113.378C115.133 0.723066 116.639 0.818677 116.876 0.945035C117.105 1.06718 118.064 2.13343 119.006 3.31425C119.949 4.49527 120.801 5.49287 120.9 5.53099C121 5.56931 121.03 5.33239 120.968 5.00449C120.905 4.67681 120.689 3.50821 120.488 2.40784L120.122 0.407171L111.825 0.351995C106.335 0.315561 103.528 0.369053 103.528 0.509942ZM122.037 0.512469C122.109 0.628297 122.876 0.723066 123.742 0.723066H125.316V10.7264V20.7297H123.742C122.876 20.7297 122.109 20.8245 122.037 20.9403C121.951 21.0793 124.815 21.1509 130.471 21.1509C138.447 21.1509 139.044 21.1257 139.143 20.7824C139.413 19.8463 140.16 15.4324 140.065 15.337C140.005 15.278 139.125 16.3759 138.108 17.777C137.09 19.1779 136.087 20.4153 135.878 20.5269C135.668 20.6383 133.967 20.7297 132.098 20.7297H128.7L128.701 13.7274C128.701 9.87602 128.764 5.37472 128.839 3.72407L128.977 0.723066H130.519C131.366 0.723066 132.118 0.628297 132.19 0.512469C132.276 0.374318 130.531 0.301873 127.114 0.301873C123.696 0.301873 121.951 0.374318 122.037 0.512469ZM140.651 0.512469C140.723 0.628297 141.49 0.723066 142.356 0.723066H143.93V10.7264V20.7297H142.356C141.49 20.7297 140.723 20.8245 140.651 20.9403C140.565 21.0793 143.457 21.1509 149.169 21.1509H157.818L158.299 18.5054C158.565 17.0504 158.736 15.8153 158.681 15.7605C158.626 15.706 157.842 16.6357 156.939 17.8269C156.035 19.018 155.108 20.1586 154.878 20.3612C154.515 20.6813 153.989 20.7297 150.887 20.7297H147.314V15.7807V10.8317H150.593H153.872L153.887 11.6214C153.896 12.0559 153.979 12.8376 154.073 13.3589C154.187 14.0018 154.243 13.1213 154.244 10.6211C154.246 8.14344 154.189 7.21176 154.071 7.77805C153.975 8.24137 153.891 9.02331 153.884 9.51547L153.872 10.4105H150.593H147.314V5.56679V0.723066H150.459C153.287 0.723066 153.658 0.765606 154.143 1.14594C154.545 1.46036 156.844 4.20907 157.826 5.54931C158.082 5.89785 158.034 5.102 157.676 3.02699C157.447 1.70192 157.258 0.546797 157.258 0.45982C157.257 0.372844 153.491 0.301873 148.888 0.301873C143.364 0.301873 140.565 0.373476 140.651 0.512469ZM159.16 0.512469C159.16 0.635247 159.86 0.723066 160.836 0.723066H162.512L162.588 8.35719C162.663 15.7906 162.678 16.0246 163.164 17.2549C163.829 18.9378 165.207 20.305 166.881 20.9403C167.891 21.324 168.603 21.4266 170.371 21.4435C173.064 21.4689 174.341 21.0913 175.757 19.8503C177.922 17.953 178.189 16.6128 178.194 7.62011L178.197 0.723066H179.784C180.7 0.723066 181.37 0.634194 181.37 0.512469C181.37 0.380636 180.066 0.301873 177.88 0.301873C175.694 0.301873 174.39 0.380636 174.39 0.512469C174.39 0.635247 175.095 0.723066 176.082 0.723066H177.774V7.63443C177.774 13.1457 177.71 14.7602 177.459 15.6032C176.97 17.2425 176.336 18.0234 174.926 18.7247C173.794 19.2876 173.457 19.3524 171.647 19.3564C169.881 19.3602 169.515 19.2954 168.698 18.8344C168.185 18.5448 167.484 17.9598 167.14 17.5342C166.075 16.2143 165.936 15.0632 165.932 7.51481L165.929 0.723066H167.621C168.608 0.723066 169.313 0.635247 169.313 0.512469C169.313 0.377898 167.48 0.301873 164.237 0.301873C160.993 0.301873 159.16 0.377898 159.16 0.512469ZM182.31 0.492673C182.393 0.625981 183.116 0.723066 184.027 0.723066H185.601V10.7264V20.7297H184.027C183.161 20.7297 182.4 20.8155 182.335 20.9201C182.266 21.0315 184.365 21.1105 187.399 21.1105C190.432 21.1105 192.532 21.0315 192.463 20.9201C192.398 20.8155 191.637 20.7297 190.771 20.7297H189.197V15.7807C189.197 12.9 189.278 10.8317 189.392 10.8317C189.499 10.8317 189.999 11.143 190.502 11.5233C191.358 12.1694 192.565 13.8375 195.398 18.2875C195.958 19.1673 196.656 20.1715 196.95 20.5189L197.484 21.1509H200.122C201.826 21.1509 202.713 21.0764 202.629 20.9403C202.557 20.8245 202.294 20.7297 202.045 20.7297C201.334 20.7297 199.416 18.5718 197.67 15.807C195.805 12.8551 195.045 11.868 194.107 11.1805L193.413 10.6708L194.169 10.5295C196.112 10.1664 197.834 8.94434 198.442 7.49648C198.827 6.57807 198.828 4.34743 198.444 3.43281C198.014 2.41142 196.591 1.22492 195.291 0.80583C194.37 0.508679 193.087 0.427178 188.167 0.353048C183.858 0.287973 182.207 0.327355 182.31 0.492673ZM192.739 1.04696C194.5 1.77984 195.116 2.95771 195.099 5.56679C195.076 9.0709 194.089 10.1862 190.73 10.5023L189.197 10.6466V5.68493V0.723066H190.579C191.343 0.723066 192.308 0.867746 192.739 1.04696ZM92.4105 8.09395L93.979 12.2006L90.8979 12.2591C89.2033 12.2911 87.7791 12.2798 87.7328 12.2336C87.6865 12.1875 88.163 10.7399 88.7917 9.01636C89.4204 7.29284 90.1059 5.36146 90.3151 4.7244C90.5243 4.08735 90.7284 3.66089 90.7689 3.77672C90.809 3.89254 91.5479 5.8353 92.4105 8.09395ZM57.7332 17.7654C56.4775 18.2904 56.0822 19.8699 56.9706 20.8115C57.9273 21.8253 59.4616 21.6711 60.0699 20.5C60.5175 19.6382 60.4504 19.1307 59.7956 18.4239C59.1582 17.7363 58.3895 17.491 57.7332 17.7654ZM114.311 31.7852C113.208 32.1329 112.153 33.0774 111.5 34.3021C111.144 34.9707 111.045 35.5206 111.045 36.8404C111.045 38.745 111.432 39.7152 112.658 40.8815C113.568 41.7464 114.272 42 115.766 42C118.09 42 119.734 40.6598 120.348 38.2653C120.877 36.2031 120.375 34.1481 119.042 32.9157C117.723 31.6968 115.941 31.2709 114.311 31.7852ZM66.3 36.8284V41.7894H67.1408H67.9817L68.0398 38.3685L68.098 34.9475L70.2133 38.3611L72.3285 41.7747L73.2275 41.782L74.1265 41.7894V36.8404V31.8914H73.2855H72.4445L72.3865 35.3525L72.3285 38.8135L70.1966 35.4052L68.0646 31.9967L67.1823 31.932L66.3 31.8671V36.8284ZM75.6072 36.8404V41.7894H79.4274H83.2478L83.182 40.9997L83.1164 40.2099L80.3137 40.1512L77.511 40.0924V38.7296V37.3669H79.9435H82.3761V36.6298V35.8927H79.9435H77.511V34.6291V33.3655H80.155H82.7991V32.6285V31.8914H79.2032H75.6072V36.8404ZM84.4901 32.0493C84.4892 32.1361 84.9381 34.3633 85.4874 36.9983L86.4863 41.7894H87.5866H88.6868L88.8966 40.7891C89.0119 40.2388 89.3248 38.7214 89.5917 37.417C89.8589 36.1126 90.1402 35.1649 90.2172 35.311C90.2942 35.4572 90.6275 36.9745 90.9582 38.6831L91.5589 41.7894H92.6787C93.2947 41.7894 93.7986 41.7467 93.7986 41.6942C93.7986 41.6418 94.2745 39.4482 94.8562 36.8195C95.4379 34.1909 95.9138 32.0068 95.9138 31.9657C95.9138 31.9248 95.4961 31.8914 94.9854 31.8914H94.0568L93.5151 34.7871C93.2171 36.3798 92.9097 38.0425 92.8317 38.4824C92.7538 38.9221 92.6576 39.2496 92.618 39.21C92.5552 39.1475 91.0487 32.2047 91.0487 31.9775C91.0487 31.9301 90.6396 31.8914 90.1396 31.8914H89.2304L88.5099 35.5791C88.1135 37.6074 87.7279 39.1473 87.6528 39.0013C87.5778 38.8552 87.2465 37.1959 86.9167 35.3136L86.3173 31.8914H85.4043C84.9021 31.8914 84.4907 31.9625 84.4901 32.0493ZM102.496 32.3652C102.634 32.6259 103.399 33.9994 104.195 35.4178L105.644 37.9966V39.893V41.7894H106.49H107.336V39.8549V37.9201L108.531 35.8009C109.189 34.6352 109.959 33.2788 110.244 32.7864L110.76 31.8914H109.685H108.609L107.661 33.7705C107.14 34.8041 106.634 35.6987 106.537 35.7583C106.44 35.8179 105.914 34.9724 105.369 33.879L104.377 31.8914H103.311C102.271 31.8914 102.251 31.9034 102.496 32.3652ZM122.354 36.8404V41.7894H123.2H124.046V39.9993V38.2093H124.996H125.946L126.801 39.9033C127.272 40.8352 127.785 41.6466 127.943 41.7066C128.1 41.7669 128.609 41.7862 129.074 41.75L129.92 41.6841L128.893 39.894C128.328 38.9095 127.864 38.0092 127.861 37.8934C127.859 37.7775 128.146 37.5191 128.499 37.3191C129.719 36.6275 130.095 34.5476 129.236 33.2421C128.5 32.1237 127.767 31.893 124.945 31.8922L122.354 31.8914V36.8404ZM131.661 36.8404V41.7894H132.613H133.565L133.566 40.3679C133.566 39.0226 133.61 38.896 134.38 38.0073L135.193 37.0682L136.521 39.4288L137.848 41.7894H138.88C139.447 41.7894 139.911 41.7536 139.911 41.7096C139.911 41.6658 139.145 40.2834 138.208 38.6376C136.75 36.0749 136.544 35.5951 136.777 35.2952C136.927 35.1025 137.657 34.258 138.4 33.4182L139.751 31.8914L138.615 31.8973L137.478 31.9034L135.575 34.107L133.671 36.3107L133.611 34.1009L133.551 31.8914H132.606H131.661V36.8404ZM117.235 33.7134C118.322 34.3998 118.927 36.1709 118.644 37.8401C118.537 38.4715 118.258 38.9672 117.698 39.5249C116.989 40.231 116.79 40.3152 115.829 40.3152C114.002 40.3152 112.84 38.9061 112.837 36.6866C112.833 34.0085 115.184 32.4193 117.235 33.7134ZM127.456 33.9763C128.033 34.6858 127.967 35.5629 127.297 36.0879C126.865 36.4257 126.435 36.5245 125.393 36.5245H124.046V34.9212V33.3179L125.553 33.4028C126.814 33.4738 127.123 33.5669 127.456 33.9763Z" fill="#1F1E2C"/>
</g>
<defs>
<clipPath id="clip0_376_54903">
<rect width="203" height="42" fill="white" transform="translate(0.5)"/>
</clipPath>
</defs>
</svg>
