<svg width="123" height="74" viewBox="0 0 123 74" fill="none" xmlns="http://www.w3.org/2000/svg">
<g clip-path="url(#clip0_376_54888)">
<path fill-rule="evenodd" clip-rule="evenodd" d="M59.5982 0.341155C58.3104 0.969006 57.0827 1.30226 54.2371 1.7961C52.0977 2.16738 51.9817 2.19731 51.8009 2.42538C51.6012 2.67704 51.6216 2.94942 51.8597 3.21369C52.0892 3.46848 52.0647 3.46644 53.7254 3.37176C55.2818 3.28308 55.7784 3.47053 56.1901 4.30191C56.4938 4.91525 56.6086 5.61685 56.6789 7.28821C56.7562 9.12903 56.7659 27.1237 56.6895 27.1237C56.6585 27.1237 56.4652 26.9984 56.26 26.8453C56.0547 26.6922 55.5465 26.3655 55.1306 26.1193C52.7876 24.7319 50.4063 24.1076 47.8823 24.2188C44.4885 24.3684 41.2949 25.423 38.3603 27.3631C33.9129 30.3033 31.0114 34.8641 30.2734 40.0747C30.1346 41.055 30.1533 43.793 30.3057 44.778C30.6232 46.8302 31.2878 48.8176 32.1758 50.3696C32.3481 50.6708 32.4724 50.944 32.452 50.9766C32.3792 51.0936 31.314 51.6744 30.7529 51.9032C29.9003 52.2507 29.3017 52.3639 28.4759 52.3335C27.8747 52.3114 27.7164 52.2798 27.3728 52.1131C26.683 51.7784 26.3814 51.1333 26.3177 49.856C26.2972 49.4435 26.367 46.7903 26.4728 43.9599C26.6422 39.4343 26.6556 38.6657 26.5842 37.5868C26.4546 35.6312 26.1266 33.8009 25.6328 32.2792C23.9431 27.072 20.0888 23.3071 15.1854 22.0744C13.8909 21.7489 12.9725 21.652 11.2115 21.6553C7.70179 21.6617 4.70608 22.1406 2.49988 23.0479C2.13127 23.1994 1.83016 23.3426 1.83064 23.3661C1.83195 23.4292 4.08756 26.3297 4.18887 26.3987C4.24551 26.4372 4.42854 26.3585 4.71927 26.1705C5.44961 25.6984 7.02527 24.968 8.03087 24.6353C9.54934 24.133 10.3803 23.9827 11.8782 23.9395C13.3423 23.8971 14.1119 23.97 15.2772 24.2611C19.7237 25.3721 22.3186 28.644 22.2276 33.0252L22.2085 33.9449L18.0846 35.5699C13.5329 37.3635 12.4734 37.8118 10.4773 38.7893C7.20644 40.3911 4.8258 41.9358 3.30245 43.4447C1.87271 44.861 1.10368 46.1114 0.645997 47.7637C0.526336 48.1958 0.500562 48.4809 0.500012 49.379C0.499463 50.3699 0.516439 50.5257 0.685792 51.0831C1.292 53.0782 2.52538 54.6027 4.20097 55.428C5.37366 56.0056 5.99128 56.1272 7.74062 56.125C8.93997 56.1235 9.25442 56.1005 9.85403 55.9706C12.0898 55.4859 14.0273 54.4693 15.744 52.8799C16.0421 52.6039 17.3976 51.0804 18.7563 49.4942C20.1149 47.908 21.2353 46.6198 21.2459 46.6313C21.2566 46.643 21.2349 47.1126 21.1977 47.6749C21.1249 48.777 21.1695 50.991 21.2801 51.7647C21.4035 52.6272 21.5651 53.187 21.878 53.8361C22.42 54.9605 23.3664 55.7245 24.6484 56.0725C24.9808 56.1627 25.3504 56.1939 26.0918 56.1941C27.2139 56.1944 27.6927 56.0936 28.6736 55.6502C29.9176 55.0879 31.4897 53.8028 32.5823 52.4548C32.8443 52.1315 33.0803 51.867 33.1066 51.867C33.133 51.867 33.2773 52.0281 33.4273 52.2251C33.8656 52.8009 34.7381 53.6909 35.4048 54.2426C38.8196 57.0675 43.2268 57.9114 47.7581 56.6078C49.5984 56.0784 51.7555 54.9605 53.3093 53.7309C54.3475 52.9094 55.5313 51.6983 56.348 50.6223L56.5943 50.2979L56.6405 50.7927C56.7675 52.1515 57.028 53.3201 57.3404 53.9329C57.4397 54.1277 57.7603 54.5245 58.0536 54.8158C58.4945 55.2534 58.6976 55.3966 59.2298 55.6445C61.6832 56.7875 64.1899 56.1537 66.6834 53.76L67.1019 53.3584L67.4878 53.8262C68.4353 54.9747 69.7805 55.754 71.4199 56.1043C71.6732 56.1584 72.3227 56.1923 73.1038 56.1923C74.1488 56.1923 74.5129 56.1649 75.147 56.0387C77.3745 55.5953 79.419 54.5325 81.1313 52.9277C81.4539 52.6255 82.7533 51.1666 84.0191 49.6857C85.2849 48.2049 86.3871 46.9234 86.4685 46.8379L86.6166 46.6826L86.5873 48.6848C86.5564 50.8042 86.6112 51.6083 86.8558 52.624C87.3288 54.588 88.7238 55.8122 90.8576 56.136C92.2035 56.3402 93.438 56.1808 94.586 55.6548C96.3189 54.8608 97.8718 53.1097 98.8379 50.8603L99.08 50.2966L98.6181 50.6648C97.6178 51.4621 96.5661 52.0466 95.5787 52.3541C95.1526 52.4868 94.9147 52.5145 94.2042 52.5145C93.3841 52.5145 93.3245 52.5048 92.8908 52.3011C92.351 52.0473 92.1146 51.7709 91.9272 51.1739C91.6397 50.2578 91.632 49.769 91.827 44.8121C91.9272 42.2628 92.0288 38.4194 92.0527 36.2712L92.096 32.3655L91.7239 32.5111C91.5193 32.5913 88.893 33.5926 85.8878 34.7364C82.8825 35.8801 80.0989 36.9486 79.702 37.1106C77.7981 37.8883 75.2851 39.0835 73.5849 40.0198C72.4349 40.6532 70.3335 42.0533 69.5115 42.7336C67.6088 44.3087 66.3223 46.2824 65.9479 48.2007C65.8383 48.7619 65.8389 50.0888 65.9489 50.6059C65.9968 50.8309 66.1285 51.2861 66.2416 51.6175C66.3548 51.949 66.4373 52.2284 66.4249 52.2387C66.4126 52.2489 66.2015 52.3346 65.9558 52.4291C65.2384 52.705 64.8299 52.7739 64.1262 52.7373C63.5852 52.7093 63.4125 52.67 63.0474 52.4917C62.0051 51.9828 61.6917 51.3146 61.5555 49.3108C61.5125 48.6786 61.465 39.1586 61.431 24.3631C61.3898 6.39793 61.3562 0.401411 61.2962 0.2916C61.2008 0.11717 60.8744 -0.0073639 60.533 0.000338549C60.3848 0.00374671 60.0097 0.140482 59.5982 0.341155ZM80.8017 19.2579C79.6366 19.3963 79.284 19.4497 78.5336 19.6014C76.8401 19.9435 74.794 20.7493 73.4646 21.5976L73.0351 21.8717V24.1692V26.4668L73.6365 25.8865C76.5942 23.033 80.5535 21.3904 84.0664 21.5594C87.8126 21.7397 90.3873 23.5408 92.9298 27.7598C94.4428 30.2705 95.2234 31.9885 99.2833 41.7436L103.056 50.8083L102.922 51.1502C102.114 53.2132 100.257 57.0173 99.1123 58.9559C97.3236 61.9844 95.456 64.459 93.4754 66.4249C90.9512 68.9304 88.7876 70.1973 86.0857 70.7522C84.0652 71.1671 81.2237 70.4303 78.8995 68.8889C77.8381 68.185 77.2258 67.6783 76.0077 66.4956L74.9595 65.4781V68.3397V71.2013L75.664 71.6621C76.5315 72.2294 78.0602 72.9807 78.9883 73.2958C81.7124 74.2207 84.6702 74.2348 87.4983 73.3364C90.2655 72.4573 92.2936 71.154 94.8603 68.6055C97.3755 66.1083 99.4989 63.2337 101.661 59.399C102.425 58.0438 103.769 55.3232 104.405 53.8437C104.703 53.1501 107.109 47.7516 109.751 41.847C112.393 35.9423 114.696 30.7892 114.869 30.3955C115.932 27.9687 117.268 25.8334 118.484 24.6135C119.494 23.601 120.372 23.1433 121.503 23.0398C121.999 22.9945 122.147 22.9541 122.283 22.8276C122.504 22.6219 122.564 22.2904 122.428 22.0293C122.228 21.6459 122.192 21.6429 118.822 21.7225C116.931 21.7672 115.052 21.7728 113.93 21.7369C112.928 21.7049 111.562 21.6769 110.894 21.6747C109.696 21.6707 109.676 21.673 109.475 21.8409C109.216 22.0575 109.158 22.2868 109.287 22.5928C109.434 22.9407 109.71 23.0339 110.597 23.0339C111.452 23.0339 111.676 23.1078 112.015 23.5011C112.61 24.1904 112.853 24.934 112.851 26.0672C112.85 27.2365 112.594 28.4207 112.011 29.9536C111.596 31.0482 104.627 46.5538 104.576 46.4982C104.551 46.4706 102.976 42.8132 101.076 38.3706C97.2135 29.3374 97.2738 29.4734 96.6797 28.4461C94.7736 25.1499 91.7674 22.3286 88.4996 20.7691C86.3859 19.7604 84.4578 19.2926 82.245 19.2516C81.5835 19.2393 80.934 19.2421 80.8017 19.2579ZM47.6145 26.3094C49.6042 26.5101 51.4265 27.2993 53.4115 28.8198C54.1893 29.4156 55.6237 30.7203 56.2098 31.365L56.7074 31.9124L56.4611 39.5986L56.2147 47.2848L55.8196 47.8858C54.5797 49.7723 52.9431 51.5502 51.4021 52.6851C50.165 53.5959 49.1204 54.1174 47.901 54.4328C47.3187 54.5834 47.0857 54.6069 46.1956 54.6046C42.4788 54.5951 39.533 52.9621 37.5633 49.8194C35.8424 47.0737 34.9562 42.8342 35.227 38.6441C35.4721 34.8531 36.391 32.1192 38.1289 30.0096C39.7702 28.0173 42.3538 26.7158 45.3365 26.3789C46.7073 26.224 46.7543 26.2226 47.6145 26.3094ZM22.1741 35.8711C22.1741 36.1548 21.4395 43.3085 21.3812 43.5922C21.3428 43.7793 20.128 45.3998 19.2154 46.4813C16.9075 49.2163 14.2024 51.2964 12.0019 52.0281C9.90839 52.7242 7.64934 52.2335 6.28627 50.7864C5.53724 49.9911 5.13599 49.1508 4.97873 48.0478C4.74683 46.4217 5.67786 44.6492 7.60707 43.044C8.33494 42.4383 10.3519 41.0998 11.8301 40.2415C13.0203 39.5504 15.4042 38.3379 16.5038 37.8643C18.8223 36.8656 21.8827 35.6498 22.0882 35.6458C22.1401 35.6448 22.1741 35.734 22.1741 35.8711ZM87.5779 35.9338C87.5591 36.0557 87.525 36.3854 87.5021 36.6666C87.4793 36.9477 87.3078 38.6254 87.1209 40.3947C86.9341 42.164 86.7813 43.6414 86.7813 43.6779C86.7813 43.7684 85.2801 45.7454 84.5743 46.5843C83.7812 47.5272 82.1478 49.1323 81.2828 49.8189C78.3755 52.1265 75.9526 52.8497 73.6537 52.0962C71.6934 51.4537 70.3546 49.6369 70.3546 47.6193C70.3546 46.8547 70.4907 46.3254 70.8707 45.6135C71.4107 44.6017 72.317 43.5866 73.4314 42.7452C75.2996 41.3348 78.8635 39.2761 81.4203 38.1302C83.6524 37.1299 87.1937 35.7203 87.4889 35.7147C87.5896 35.7127 87.606 35.753 87.5779 35.9338Z" fill="#1F1E2C"/>
</g>
<defs>
<clipPath id="clip0_376_54888">
<rect width="122" height="74" fill="white" transform="translate(0.5)"/>
</clipPath>
</defs>
</svg>
