<svg width="126" height="70" viewBox="0 0 126 70" fill="none" xmlns="http://www.w3.org/2000/svg">
<g clip-path="url(#clip0_376_54897)">
<path fill-rule="evenodd" clip-rule="evenodd" d="M17.8676 7.35097L17.8888 14.7019L19.4036 14.7244L20.9183 14.7468V11.5328V8.31875H26.2719H31.6255V11.5309V14.7431H33.1195H34.6135V7.37156V0H33.1195H31.6255V2.80037V5.60074H26.2719H20.9183V2.80037V0H19.3824H17.8464L17.8676 7.35097ZM49.9688 7.37156V14.7431H51.4628H52.9568V7.37156V0H51.4628H49.9688V7.37156ZM68.2291 7.37156V14.7431H75.5351H82.8411L82.8185 13.24L82.7958 11.7368L77.048 11.7157L71.3001 11.6945V5.84726V0H69.7646H68.2291V7.37156ZM94.4575 7.37156V14.7431H101.764H109.069L109.047 13.24L109.024 11.7368L103.235 11.7157L97.4456 11.6945V5.84726V0H95.9515H94.4575V7.37156ZM35.7341 33.4974C32.3005 33.8069 29.488 35.4946 28.2405 37.9944C27.7793 38.9183 27.5543 39.8005 27.4992 40.9003C27.4031 42.8189 27.9992 44.5949 29.2238 46.0391C30.074 47.0417 31.622 48.0267 33.1018 48.5066C34.4836 48.9547 35.1451 49.0451 37.0206 49.0424C38.5571 49.0402 38.8108 49.0192 39.6365 48.8262C41.5863 48.3702 42.9466 47.6947 44.1165 46.6012C45.8446 44.9861 46.6355 42.8505 46.3895 40.4626C46.0581 37.2434 43.7024 34.7501 40.135 33.8422C38.8384 33.5123 37.0891 33.3751 35.7341 33.4974ZM89.0671 33.5255C86.6852 33.7533 85.1589 34.29 84.1168 35.2664C83.38 35.9566 83.0033 36.8895 83.0033 38.0242C83.0033 39.9853 84.0011 41.3678 85.8805 42.0105C86.9043 42.3605 87.6479 42.4331 90.8884 42.4991C93.6082 42.5544 94.0703 42.5826 94.5498 42.7228C95.636 43.0401 96.0345 43.4377 96.0345 44.2037C96.0345 45.2658 95.1786 45.9762 93.4541 46.3451C92.4666 46.5562 89.8174 46.5553 88.8185 46.3434C87.1355 45.9864 86.1832 45.3244 85.9114 44.3228L85.819 43.9823H84.2451H82.6713L82.6726 44.25C82.6732 44.3972 82.7302 44.7553 82.7992 45.0458C83.2511 46.948 84.8368 48.3371 87.0756 48.7918C88.6706 49.1156 91.951 49.1645 93.7105 48.8906C95.9239 48.5461 97.5483 47.7573 98.395 46.616C98.9384 45.8834 99.1206 45.3405 99.1682 44.3108C99.2546 42.444 98.6468 41.3233 97.1565 40.6015C95.9806 40.032 94.0189 39.7835 90.6809 39.7813C87.2519 39.7791 86.1574 39.3609 86.1574 38.0529C86.1574 37.3125 86.5618 36.8043 87.4392 36.442C88.7367 35.9064 92.2082 35.7984 93.675 36.2479C94.6912 36.5594 95.4426 37.184 95.7213 37.949L95.827 38.2393L97.3202 38.1808C98.1415 38.1486 98.8226 38.1132 98.8339 38.1021C98.8451 38.0909 98.7776 37.807 98.6838 37.4712C98.0809 35.3123 96.5416 34.0873 93.8765 33.6451C92.9295 33.4881 90.1751 33.4195 89.0671 33.5255ZM0.5 41.3172V48.7005L1.01021 48.6475C1.29075 48.6185 1.94439 48.5947 2.46273 48.5947H3.40505V45.4237V42.2526H8.75863H14.1122V45.4237V48.5947H15.6062H17.1003V41.2643V33.9339H15.6062H14.1122V36.7348V39.5359L8.77938 39.5146L3.44655 39.4935L3.42472 36.7137L3.40281 33.9339H1.95144H0.5V41.3172ZM55.6975 38.2786C55.6995 43.5962 55.7499 44.0506 56.5037 45.5472C57.1986 46.927 58.5119 48.0226 60.095 48.5431C61.3673 48.9614 62.0029 49.0469 63.83 49.0454C65.7542 49.0439 66.4665 48.9406 67.7896 48.4713C70.0527 47.6686 71.4602 46.156 72.0642 43.8774C72.236 43.2292 72.2451 42.9989 72.275 38.5669L72.3062 33.9339H70.8118H69.3174L69.288 38.3198C69.256 43.1069 69.2576 43.089 68.7472 44.13C68.2595 45.1246 67.1753 45.8712 65.7805 46.173C64.7864 46.3881 62.7629 46.3691 61.894 46.1365C60.3206 45.7152 59.4251 44.8186 58.9608 43.1998C58.8372 42.769 58.815 42.1437 58.7872 38.3198L58.7553 33.9339H57.2256H55.6959L55.6975 38.2786ZM109.647 41.2643V48.5947H117.442C121.729 48.5947 125.296 48.6171 125.369 48.6447C125.485 48.6891 125.5 48.533 125.5 47.2445V45.7943H119.067H112.635V44.1064V42.4185L118.217 42.3974L123.798 42.3762L123.821 41.079L123.844 39.7817H118.239H112.635V38.1345V36.4872H118.943H125.251V35.2105V33.9339H117.449H109.647V41.2643ZM38.6075 36.2784C40.2756 36.5676 41.4811 37.2135 42.3274 38.2716C43.5076 39.7473 43.6319 42.1546 42.6169 43.8779C42.1206 44.7204 41.0828 45.5248 39.9792 45.9224C38.606 46.417 36.5109 46.5372 34.949 46.2111C33.752 45.9612 32.7473 45.4456 32.0071 44.7012C31.6815 44.3737 31.3123 43.914 31.1865 43.6796C30.4563 42.3184 30.456 40.2141 31.1858 38.849C31.5154 38.2322 32.4644 37.3285 33.161 36.9679C33.8203 36.6265 34.6709 36.3538 35.4021 36.2491C36.2119 36.1332 37.857 36.1483 38.6075 36.2784ZM55.3974 64.8275C54.7654 64.9324 54.2476 65.1831 53.7951 65.6032C52.747 66.576 52.747 68.1712 53.7951 69.144C55.2983 70.5394 58.2283 70.1681 59.1017 68.4715C59.3968 67.8981 59.3968 66.8491 59.1017 66.2757C58.5181 65.142 57.0232 64.5575 55.3974 64.8275ZM39.5106 67.3736V69.8445H40.0086H40.5066V68.7738V67.7031H42.3327H44.1587V68.7738V69.8445H44.6567H45.1547V67.3736V64.9027H44.6567H44.1587V65.8515V66.8003L42.3534 66.7781L40.5481 66.7559L40.5247 65.8293L40.5012 64.9027H40.0059H39.5106V67.3736ZM66.4031 67.3736V69.8445H66.9426H67.4821L67.4866 67.8884L67.491 65.9323L68.4849 67.8924L69.4788 69.8526L69.9498 69.828L70.4207 69.8034L71.4207 67.8883L72.4207 65.9734L72.4429 67.9089L72.4651 69.8445H73.0032H73.5412V67.3707V64.8969L72.7012 64.9204L71.8613 64.9439L70.9374 66.693C70.4294 67.655 69.9949 68.442 69.9721 68.4418C69.9493 68.4416 69.5235 67.6453 69.0258 66.6721L68.121 64.9027H67.262H66.4031V67.3736ZM81.0943 67.3736V69.8445H83.7503H86.4064V69.3929V68.9413L84.2691 68.9193L82.1318 68.8973L82.1072 68.3414L82.0828 67.7854H83.954H85.8254V67.334V66.8826L83.9786 66.8604L82.1318 66.8383L82.1071 66.3235L82.0824 65.8087H84.2029H86.3234V65.3557V64.9027H83.7088H81.0943V67.3736ZM57.3212 65.8748C58.0876 66.2658 58.4392 67.0039 58.2337 67.7902C58.037 68.5424 57.404 68.9989 56.4471 69.0785C55.0369 69.1958 54.0395 68.4896 54.0395 67.3736C54.0395 66.6071 54.5474 65.9787 55.349 65.7535C55.8914 65.6012 56.9074 65.6637 57.3212 65.8748Z" fill="#1F1E2C"/>
</g>
<defs>
<clipPath id="clip0_376_54897">
<rect width="125" height="70" fill="white" transform="translate(0.5)"/>
</clipPath>
</defs>
</svg>
