<svg width="237" height="26" viewBox="0 0 237 26" fill="none" xmlns="http://www.w3.org/2000/svg">
<g clip-path="url(#clip0_376_54900)">
<path fill-rule="evenodd" clip-rule="evenodd" d="M0.679688 12.947C0.679688 25.2527 0.695168 25.8535 1.01143 25.8535C1.70588 25.8535 1.7855 25.5083 1.7855 22.5012C1.7855 20.6837 1.8548 19.5909 1.96981 19.5909C2.07117 19.5909 2.15411 19.3837 2.15411 19.1304C2.15411 18.8771 2.23705 18.6699 2.33841 18.6699C2.43978 18.6699 2.52272 18.5456 2.52272 18.3936C2.52272 18.2417 2.60565 18.1173 2.70702 18.1173C2.80839 18.1173 2.89132 18.0092 2.89132 17.877C2.89132 17.7449 3.16096 17.3419 3.49031 16.9814C3.81984 16.6209 4.32078 16.0453 4.60369 15.7022C7.44767 12.2526 8.60473 11.2592 8.60473 12.2673C8.60473 12.3712 8.75383 12.5902 8.93592 12.7541C9.1182 12.9179 9.46892 13.3421 9.71534 13.6967C9.96175 14.0512 10.3517 14.5316 10.5819 14.7641C10.8123 14.9967 11.0006 15.2535 11.0006 15.3345C11.0006 15.4157 11.165 15.6814 11.3658 15.9249C11.9642 16.6502 11.9966 16.6918 12.8512 17.837C13.3033 18.4426 13.901 19.1801 14.1799 19.4759C14.4587 19.7719 14.6867 20.0926 14.6867 20.189C14.6867 20.2853 14.9355 20.5964 15.2396 20.8802C15.5437 21.1641 15.7925 21.4956 15.7925 21.617C15.7925 21.7384 16.0413 22.07 16.3454 22.3538C16.6495 22.6376 16.8985 22.9403 16.8985 23.0263C16.8987 23.1123 17.1144 23.4313 17.3779 23.7353C17.6413 24.0392 18.1114 24.64 18.4225 25.0707C18.8586 25.6741 19.1078 25.8535 19.5099 25.8535C19.9969 25.8535 20.2661 25.4241 19.8758 25.2702C19.7901 25.2364 19.3966 24.7529 19.0014 24.1957C18.6063 23.6386 18.0958 22.9924 17.8671 22.76C17.6383 22.5273 17.4513 22.2683 17.4513 22.1843C17.4513 22.1003 17.161 21.715 16.8062 21.3278C16.4514 20.9408 16.1611 20.5463 16.1611 20.4514C16.1611 20.3564 16.012 20.1448 15.8299 19.9808C15.6477 19.8171 15.2964 19.3929 15.0492 19.0383C14.6008 18.3951 14.348 18.0733 13.6979 17.319C13.5088 17.0997 13.2186 16.7128 13.0529 16.4596C12.7641 16.0184 12.594 15.8046 11.7491 14.8197C11.5401 14.5762 11.3693 14.3156 11.3693 14.2406C11.3693 14.1654 11.1204 13.8377 10.8163 13.5125C10.5122 13.1872 10.2635 12.8573 10.2635 12.7794C10.2635 12.7015 9.97318 12.3211 9.61839 11.9339C8.78018 11.0194 8.79179 10.9485 9.987 9.6954C10.5445 9.11095 11.0006 8.57568 11.0006 8.50605C11.0006 8.43661 11.3947 7.96876 11.8761 7.46646C12.3575 6.96435 13.1662 6.08076 13.673 5.50295C14.1799 4.92513 15.1545 3.87577 15.8386 3.17123C16.5229 2.46668 17.0827 1.82863 17.0827 1.7533C17.0827 1.67815 17.3729 1.30902 17.7277 0.93308C18.5235 0.0898374 18.5235 0.0662603 17.7277 0.0662603C17.3729 0.0662603 17.0827 0.145095 17.0827 0.241429C17.0827 0.337763 16.5229 0.992759 15.8386 1.69675C15.1545 2.40093 14.1799 3.45894 13.673 4.04781C13.1662 4.63668 12.4198 5.49208 12.0143 5.9487C11.6088 6.4055 11.1942 6.89012 11.0928 7.02587C10.9914 7.16162 10.3903 7.80483 9.75662 8.45522C9.12317 9.10542 8.60473 9.69153 8.60473 9.75747C8.60473 9.82341 8.45802 10.0115 8.27888 10.1754C8.09955 10.3392 7.33248 11.1765 6.57407 12.036C4.77398 14.0759 4.24448 14.6596 3.33752 15.604C2.92413 16.0346 2.46853 16.6519 2.32496 16.9757C1.66202 18.4726 1.60655 17.8865 1.55697 8.86155L1.50905 0.158357L1.09437 0.0994153L0.679688 0.0406572V12.947ZM23.349 12.9599V25.8535H31.2797C38.1891 25.8535 39.2245 25.8176 39.3176 25.5748C39.6242 24.7763 39.367 24.7483 31.7123 24.7483H24.4548V19.0383V13.3283H30.1682C35.7587 13.3283 35.8816 13.3203 35.8816 12.9599C35.8816 12.7573 35.778 12.588 35.6512 12.5836C35.5246 12.5791 33.0935 12.5826 30.2487 12.5909C27.404 12.5994 24.9367 12.5526 24.7657 12.4871C24.4835 12.3789 24.4548 11.8518 24.4548 6.76965V1.17143H31.6557C39.2468 1.17143 39.6194 1.1309 39.315 0.337763C39.2252 0.104389 38.098 0.0662603 31.2797 0.0662603H23.349V12.9599ZM43.0694 12.9599C43.0694 25.7306 43.0729 25.8535 43.438 25.8535C43.8028 25.8535 43.8066 25.7306 43.8066 14.065C43.8066 2.39945 43.8105 2.27659 44.1752 2.27659C44.4058 2.27659 44.5439 2.39945 44.5439 2.60428C44.5439 2.7846 44.7097 3.0515 44.9125 3.19757C45.1152 3.34363 45.2811 3.52396 45.2811 3.59819C45.2811 3.67242 45.6926 4.28358 46.1956 4.95589C46.6985 5.62838 47.1602 6.3368 47.2216 6.53002C47.283 6.72324 47.405 6.88146 47.4927 6.88146C47.5804 6.88146 47.7056 7.04981 47.771 7.25574C47.8364 7.46167 48.0908 7.8308 48.3364 8.07633C48.5819 8.32168 48.7828 8.63223 48.7828 8.76651C48.7828 8.9006 48.9487 9.12992 49.1514 9.27599C49.3542 9.42205 49.52 9.64751 49.52 9.77718C49.52 9.90667 49.603 10.0128 49.7043 10.0128C49.8057 10.0128 49.8886 10.1371 49.8886 10.2891C49.8886 10.441 49.9716 10.5654 50.0729 10.5654C50.1743 10.5654 50.2573 10.6897 50.2573 10.8416C50.2573 10.9936 50.3402 11.1179 50.4416 11.1179C50.5429 11.1179 50.6259 11.224 50.6259 11.3535C50.6259 11.4832 50.7917 11.7086 50.9945 11.8547C51.1972 12.0008 51.3631 12.2262 51.3631 12.3559C51.3631 12.4854 51.4359 12.5915 51.5251 12.5915C51.6141 12.5915 51.7901 12.8402 51.916 13.1441C52.0419 13.448 52.2046 13.6967 52.2774 13.6967C52.3502 13.6967 52.5056 13.907 52.6228 14.1641C52.74 14.4211 52.9208 14.732 53.0244 14.8549C53.7327 15.6939 53.9433 15.9807 53.9433 16.1063C53.9433 16.1848 54.051 16.3586 54.1825 16.4925C54.314 16.6263 54.7032 17.1503 55.0471 17.6568C55.3912 18.1634 55.7397 18.6054 55.8217 18.6391C55.9036 18.673 55.9707 18.818 55.9707 18.9615C55.9707 19.1052 56.0536 19.2225 56.155 19.2225C56.2563 19.2225 56.3393 19.3286 56.3393 19.4581C56.3393 19.5878 56.5051 19.8132 56.7079 19.9593C56.9106 20.1053 57.0765 20.354 57.0765 20.5119C57.0765 20.6697 57.2423 20.9184 57.4451 21.0644C57.6478 21.2105 57.8137 21.4367 57.8137 21.5673C57.8137 21.6977 58.0625 22.0648 58.3666 22.3827C58.6707 22.7008 58.9195 23.0661 58.9195 23.1946C58.9195 23.3232 58.9851 23.4558 59.0655 23.4897C59.1456 23.5234 59.5725 24.0692 60.0137 24.7023C60.6125 25.5615 60.926 25.8535 61.25 25.8535H61.6841V14.065C61.6841 3.40147 61.7121 2.27659 61.9778 2.27659C62.1393 2.27659 62.3149 2.44237 62.3678 2.64498C62.4209 2.8476 62.518 3.01337 62.5836 3.01337C62.6493 3.01337 62.9078 3.34492 63.1585 3.75015C63.4091 4.15538 63.6775 4.48693 63.7549 4.48693C63.8323 4.48693 63.8957 4.61126 63.8957 4.76322C63.8957 4.91518 63.9786 5.03951 64.08 5.03951C64.1814 5.03951 64.2643 5.16384 64.2643 5.31581C64.2643 5.46777 64.3472 5.5921 64.4486 5.5921C64.55 5.5921 64.6329 5.71643 64.6329 5.86839C64.6329 6.02035 64.695 6.14486 64.7711 6.14505C64.8473 6.14523 65.1561 6.53886 65.4579 7.01997C65.9822 7.85603 66.1481 8.08978 66.5734 8.59171C66.6779 8.71475 67.0097 9.20913 67.3106 9.69006C67.6118 10.1712 67.9203 10.5648 67.9964 10.565C68.0726 10.5652 68.1347 10.6768 68.1347 10.8131C68.1347 10.9494 68.3005 11.211 68.5033 11.3942C68.706 11.5775 68.8719 11.8391 68.8719 11.9754C68.8719 12.1117 68.9408 12.2231 69.025 12.2231C69.1093 12.2231 69.2954 12.4509 69.4384 12.7296C69.5816 13.0083 69.8445 13.3703 70.0225 13.534C70.2005 13.6979 70.3463 13.9258 70.3463 14.0405C70.3463 14.1553 70.4292 14.2492 70.5306 14.2492C70.632 14.2492 70.7149 14.3553 70.7149 14.4848C70.7149 14.6145 70.8808 14.84 71.0835 14.986C71.2863 15.1321 71.4521 15.3634 71.4521 15.5003C71.4521 15.6371 71.5559 15.8573 71.6825 15.9895C71.8093 16.1218 72.5764 17.2 73.3873 18.3857C74.1983 19.5714 75.007 20.7132 75.1843 20.9232C75.3616 21.1331 75.5068 21.3715 75.5068 21.4527C75.5068 21.5338 75.6935 21.7905 75.9215 22.0232C76.1497 22.2556 76.4539 22.6739 76.5977 22.9524C76.7415 23.2309 76.9282 23.459 77.0124 23.459C77.0966 23.459 77.1655 23.5833 77.1655 23.7353C77.1655 23.8872 77.2485 24.0116 77.3498 24.0116C77.4512 24.0116 77.5341 24.1359 77.5341 24.2878C77.5341 24.4398 77.6171 24.5641 77.7184 24.5641C77.8198 24.5641 77.9027 24.6507 77.9027 24.7566C77.9027 25.1425 78.8303 25.8784 79.2428 25.8198L79.6536 25.7614V12.9599V0.158357L79.1468 0.100152L78.64 0.0417625V11.8623C78.64 22.5651 78.6123 23.6721 78.3484 23.5708C78.188 23.5093 78.0222 23.459 77.9798 23.459C77.9374 23.459 77.9027 23.331 77.9027 23.1744C77.9027 23.0178 77.6954 22.6824 77.442 22.4291C77.1886 22.1759 76.9812 21.9025 76.9812 21.8215C76.9812 21.7406 76.7741 21.4336 76.5207 21.1392C76.2674 20.8447 76.0601 20.5072 76.0599 20.389C76.0599 20.2709 75.9928 20.1466 75.9112 20.1127C75.8295 20.079 75.1894 19.2225 74.4885 18.2094C73.7878 17.1964 73.1083 16.2579 72.9784 16.1242C72.8484 15.9902 72.7423 15.8075 72.7423 15.718C72.7423 15.6285 72.5349 15.3481 72.2815 15.0949C72.0281 14.8416 71.8207 14.5246 71.8207 14.3903C71.8207 14.2562 71.6549 14.0269 71.4521 13.8809C71.2494 13.7348 71.0835 13.4861 71.0835 13.3283C71.0835 13.1704 70.9177 12.9218 70.7149 12.7757C70.5122 12.6296 70.3463 12.4042 70.3463 12.2745C70.3463 12.145 70.2634 12.0389 70.162 12.0389C70.0606 12.0389 69.9777 11.9214 69.9777 11.7779C69.9777 11.6344 69.9106 11.4895 69.8288 11.4556C69.7468 11.4219 69.3983 10.9798 69.0542 10.4733C68.7103 9.96672 68.321 9.44268 68.1896 9.30896C68.058 9.17505 67.9504 9.00117 67.9504 8.9227C67.9504 8.79708 67.7397 8.51029 67.0314 7.67129C66.9279 7.54843 66.7471 7.23751 66.6298 6.98056C66.5126 6.72342 66.3573 6.51307 66.2845 6.51307C66.2117 6.51307 66.0489 6.26441 65.923 5.96049C65.7972 5.65657 65.6407 5.4079 65.5756 5.4079C65.5104 5.4079 65.2522 5.07635 65.0015 4.67112C64.7509 4.2659 64.4825 3.93435 64.4051 3.93435C64.3277 3.93435 64.2643 3.81001 64.2643 3.65805C64.2643 3.50609 64.1814 3.38176 64.08 3.38176C63.9786 3.38176 63.8957 3.25743 63.8957 3.10547C63.8957 2.95351 63.8128 2.82918 63.7114 2.82918C63.61 2.82918 63.5271 2.72308 63.5271 2.59359C63.5271 2.46392 63.3612 2.23847 63.1585 2.0924C62.9558 1.94633 62.7899 1.70983 62.7899 1.56689C62.7899 1.42377 62.6389 1.17272 62.4546 1.00878C62.2701 0.845035 62.0632 0.56027 61.9948 0.37626C61.9073 0.140675 61.72 0.0588926 61.3626 0.099968L60.8547 0.158357L60.8073 11.9008C60.7607 23.4043 60.7163 24.221 60.1906 23.2392C60.0716 23.0171 59.7774 22.6233 59.5371 22.3643C59.2966 22.1053 59.0537 21.7484 58.9973 21.571C58.9409 21.3936 58.8274 21.2486 58.7452 21.2486C58.663 21.2486 58.4925 21 58.3666 20.6961C58.2407 20.3921 58.0787 20.1435 58.0068 20.1435C57.9348 20.1435 57.7588 19.9154 57.6157 19.6369C57.4725 19.3584 57.23 19.0061 57.0765 18.8541C56.923 18.7021 56.6804 18.35 56.5372 18.0713C56.3942 17.7926 56.208 17.5647 56.1238 17.5647C56.0396 17.5647 55.9707 17.4404 55.9707 17.2885C55.9707 17.1365 55.8932 17.0122 55.7987 17.0122C55.7042 17.0122 55.5744 16.8469 55.5103 16.6449C55.4461 16.4428 55.2954 16.1735 55.1752 16.0462C55.0552 15.919 54.7084 15.4419 54.4046 14.986C54.1007 14.5301 53.8104 14.1157 53.7596 14.065C53.7085 14.0144 53.2972 13.4342 52.8452 12.7757C52.3933 12.1172 51.9578 11.5508 51.8776 11.5171C51.7973 11.4832 51.7317 11.3382 51.7317 11.1947C51.7317 11.0513 51.6487 10.9337 51.5474 10.9337C51.446 10.9337 51.3631 10.8094 51.3631 10.6574C51.3631 10.5055 51.2801 10.3812 51.1788 10.3812C51.0774 10.3812 50.9945 10.2751 50.9945 10.1456C50.9945 10.0159 50.8286 9.79044 50.6259 9.64438C50.4231 9.49831 50.2573 9.26899 50.2573 9.1349C50.2573 9.00062 50.0499 8.68362 49.7965 8.43035C49.5431 8.17708 49.3357 7.90374 49.3357 7.82269C49.3357 7.74183 49.1286 7.43478 48.8752 7.14044C48.6219 6.84591 48.4146 6.50847 48.4144 6.39021C48.4144 6.27214 48.3473 6.14781 48.2657 6.11392C48.184 6.08021 47.5439 5.22371 46.843 4.21064C46.1423 3.19757 45.4628 2.2591 45.3329 2.12537C45.2029 1.99146 45.0968 1.80874 45.0968 1.71922C45.0968 1.6297 44.8894 1.34936 44.636 1.09609C44.3826 0.842824 44.1752 0.507406 44.1752 0.350841C44.1752 0.157436 43.9981 0.0662603 43.6223 0.0662603H43.0694V12.9599ZM83.5548 0.189118C83.4013 0.342552 83.3904 25.163 83.5437 25.5621C83.6432 25.8216 84.5224 25.8535 91.5609 25.8535H99.4662V25.4129C99.4662 24.7568 99.2091 24.7349 91.6693 24.7485C87.899 24.7553 84.7105 24.7581 84.5837 24.7546C84.1947 24.7439 84.2549 13.5896 84.6449 13.4401C84.8053 13.3786 87.3763 13.3283 90.3583 13.3283C95.6572 13.3283 95.7802 13.32 95.7802 12.9599C95.7802 12.7573 95.6766 12.588 95.5498 12.5836C95.4232 12.5791 92.974 12.5826 90.1073 12.5911C83.5926 12.6106 84.3534 13.4003 84.3534 6.61824V1.17143H91.6464C99.3197 1.17143 99.4662 1.15614 99.4662 0.35563C99.4662 0.0533666 83.8541 -0.110014 83.5548 0.189118ZM102.968 12.9599V25.8535H107.687C113.137 25.8535 115.292 25.4704 117.188 24.1642C117.457 23.9789 117.73 23.8274 117.795 23.8274C117.86 23.8274 118.121 23.6201 118.374 23.3669C118.628 23.1136 118.912 22.9064 119.006 22.9064C119.229 22.9064 120.845 21.2908 120.845 21.0679C120.845 20.974 121.032 20.7067 121.26 20.4741C124.31 17.3642 124.383 9.49923 121.398 5.50939C120.783 4.6866 118.238 2.27659 117.984 2.27659C117.834 2.27659 117.712 2.19371 117.712 2.0924C117.712 1.99109 117.588 1.90821 117.436 1.90821C117.284 1.90821 117.159 1.84613 117.158 1.77006C117.156 1.60465 116.264 1.17143 115.925 1.17143C115.793 1.17143 115.685 1.08854 115.685 0.987233C115.685 0.885926 115.436 0.803038 115.132 0.803038C114.828 0.803038 114.579 0.720151 114.579 0.618844C114.579 0.517537 114.413 0.434649 114.21 0.434649C114.008 0.434649 113.842 0.351762 113.842 0.250455C113.842 0.131833 111.907 0.0662603 108.405 0.0662603H102.968V12.9599ZM122.688 0.434649C122.688 0.637263 122.761 0.803038 122.85 0.803038C122.939 0.803038 123.115 1.0517 123.241 1.35562C123.367 1.65954 123.543 1.90821 123.632 1.90821C123.721 1.90821 123.794 2.03604 123.794 2.19223C123.794 2.34843 123.96 2.65419 124.163 2.87154C124.366 3.08908 124.531 3.37568 124.531 3.50867C124.531 3.64148 124.614 3.75015 124.716 3.75015C124.817 3.75015 124.9 3.91593 124.9 4.11854C124.9 4.32115 124.983 4.48693 125.084 4.48693C125.186 4.48693 125.269 4.61126 125.269 4.76322C125.269 4.91518 125.352 5.03951 125.453 5.03951C125.554 5.03951 125.637 5.16384 125.637 5.31581C125.637 5.46777 125.705 5.5921 125.787 5.5921C125.87 5.5921 126.051 5.8822 126.19 6.23678C126.329 6.59135 126.511 6.88146 126.593 6.88146C126.676 6.88146 126.743 7.04723 126.743 7.24985C126.743 7.45246 126.812 7.61824 126.896 7.61824C126.981 7.61824 127.167 7.84609 127.311 8.12477C127.454 8.40346 127.614 8.67275 127.666 8.7234C127.717 8.77406 128.004 9.27138 128.302 9.82857C128.6 10.3858 129.242 11.49 129.728 12.2826C130.215 13.0752 130.613 13.8005 130.613 13.8943C130.613 13.9882 130.696 14.065 130.798 14.065C130.899 14.065 130.982 14.1929 130.982 14.3491C130.982 14.5053 131.148 14.811 131.351 15.0284C131.553 15.2459 131.719 15.5325 131.719 15.6655C131.719 15.7983 131.802 15.907 131.904 15.907C132.005 15.907 132.088 16.0728 132.088 16.2754C132.088 16.478 132.171 16.6438 132.272 16.6438C132.374 16.6438 132.457 16.7681 132.457 16.9201C132.457 17.072 132.539 17.1964 132.641 17.1964C132.758 17.1964 132.825 18.762 132.825 21.5249C132.825 25.7168 132.837 25.8535 133.19 25.8535C133.702 25.8535 133.734 25.584 133.79 20.9193C133.819 18.4507 133.912 16.7617 134.023 16.6828C134.124 16.6106 134.408 16.1787 134.654 15.7228C134.9 15.2669 135.159 14.8525 135.229 14.8018C135.3 14.7512 135.577 14.2953 135.846 13.7888C136.116 13.2822 136.488 12.6191 136.674 12.3152C137.616 10.7744 138.012 10.0752 138.107 9.78252C138.166 9.60514 138.286 9.46018 138.376 9.46018C138.465 9.46018 138.539 9.31264 138.539 9.1325C138.539 8.95217 138.704 8.68528 138.907 8.53921C139.11 8.39314 139.276 8.12625 139.276 7.94592C139.276 7.76578 139.359 7.61824 139.46 7.61824C139.561 7.61824 139.644 7.45246 139.644 7.24985C139.644 7.04723 139.713 6.88146 139.798 6.88146C139.882 6.88146 140.068 6.65361 140.212 6.37492C140.356 6.09624 140.515 5.82695 140.566 5.77629C140.679 5.66283 140.992 5.11651 141.831 3.56596C142.187 2.90746 142.569 2.27715 142.68 2.16553C142.791 2.05372 143.037 1.61847 143.226 1.1985C143.416 0.778356 143.641 0.434649 143.727 0.434649C143.813 0.434649 143.883 0.34642 143.883 0.23885C143.883 -0.316496 142.684 0.177145 142.289 0.895136C142.066 1.30036 141.795 1.73212 141.686 1.85442C141.577 1.97673 141.487 2.20476 141.487 2.36096C141.487 2.51715 141.418 2.64498 141.332 2.64498C141.247 2.64498 140.977 3.03861 140.733 3.51991C140.489 4.00102 140.227 4.42246 140.151 4.45617C140.075 4.49006 140.013 4.63502 140.013 4.77851C140.013 4.922 139.93 5.03951 139.829 5.03951C139.727 5.03951 139.644 5.20529 139.644 5.4079C139.644 5.61052 139.561 5.77629 139.46 5.77629C139.359 5.77629 139.276 5.90062 139.276 6.05258C139.276 6.20454 139.193 6.32888 139.091 6.32888C138.99 6.32888 138.907 6.45321 138.907 6.60517C138.907 6.75713 138.824 6.88146 138.723 6.88146C138.621 6.88146 138.539 7.04723 138.539 7.24985C138.539 7.45246 138.466 7.61824 138.377 7.61824C138.288 7.61824 138.111 7.8669 137.986 8.17082C137.86 8.47474 137.684 8.7234 137.595 8.7234C137.506 8.7234 137.433 8.88918 137.433 9.09179C137.433 9.29441 137.35 9.46018 137.248 9.46018C137.147 9.46018 137.064 9.53662 137.064 9.63001C137.064 9.85252 134.619 13.9545 134.438 14.0343C134.362 14.0682 134.3 14.2546 134.3 14.4487C134.3 14.643 134.237 14.8018 134.16 14.8018C134.084 14.8018 133.911 15.0505 133.776 15.3544C133.504 15.97 132.825 16.1304 132.825 15.5793C132.825 15.399 132.659 15.1321 132.457 14.986C132.254 14.84 132.088 14.5731 132.088 14.3927C132.088 14.2126 132.015 14.065 131.925 14.065C131.836 14.065 131.716 13.9201 131.66 13.7427C131.56 13.4272 130.98 12.4053 130.798 12.2231C130.69 12.115 130.389 11.5911 129.635 10.197C129.334 9.63977 128.995 9.05956 128.883 8.9076C128.692 8.64973 128.448 8.23621 127.958 7.34195C127.847 7.13933 127.715 6.93211 127.665 6.88146C127.614 6.83081 127.469 6.60296 127.342 6.37492C127.216 6.14708 127.008 5.77408 126.881 5.54605C126.755 5.3182 126.609 5.09017 126.558 5.03951C126.508 4.98886 126.342 4.69875 126.19 4.39483C126.039 4.09091 125.873 3.8008 125.822 3.75015C125.64 3.56872 125.06 2.54681 124.959 2.23055C124.903 2.05335 124.784 1.90821 124.694 1.90821C124.605 1.90821 124.531 1.78037 124.531 1.62418C124.531 1.46798 124.366 1.16222 124.163 0.944868C123.96 0.727334 123.794 0.440728 123.794 0.307739C123.794 0.162226 123.575 0.0662603 123.241 0.0662603C122.811 0.0662603 122.688 0.148043 122.688 0.434649ZM158.628 12.7388C158.628 22.3497 158.681 25.4648 158.849 25.6325C159.145 25.929 169.613 25.9397 171.329 25.6454C176.12 24.8235 178.544 19.6426 176.229 15.1719C175.847 14.4325 174.354 12.9599 173.988 12.9599C173.852 12.9599 173.74 12.877 173.74 12.7757C173.74 12.6744 173.61 12.5915 173.451 12.5915C172.817 12.5915 172.512 12.0174 172.971 11.6902C176.452 9.21097 176.939 4.36739 173.962 1.83545C173.83 1.72346 173.523 1.44532 173.279 1.21748C173.035 0.989443 172.728 0.801196 172.597 0.798986C172.466 0.796776 172.151 0.632843 171.897 0.434649C171.461 0.0931526 171.105 0.0741805 165.032 0.0703124L158.628 0.0662603V12.7388ZM180.928 12.9599V25.8535H188.129H195.33L195.271 25.4391L195.212 25.0246L188.439 24.9764L181.666 24.9279V12.4972C181.666 0.189117 181.662 0.0662603 181.297 0.0662603C180.932 0.0662603 180.928 0.189116 180.928 12.9599ZM198.296 9.58452C198.358 19.6194 198.478 20.9228 199.36 21.2179C199.46 21.2518 199.543 21.394 199.543 21.5341C199.543 21.7616 200.539 22.9861 201.164 23.528C201.296 23.6421 201.597 23.915 201.832 24.1348C204.793 26.8951 210.859 26.5367 213.862 23.4242C215.227 22.0095 215.393 21.8043 215.393 21.5332C215.393 21.3766 215.476 21.2486 215.577 21.2486C215.679 21.2486 215.762 21.0829 215.762 20.8802C215.762 20.6776 215.826 20.5119 215.906 20.5119C216.077 20.5119 216.41 19.3704 216.685 17.841C216.814 17.1262 216.865 13.8081 216.83 8.44711L216.775 0.158357L216.268 0.100152L215.762 0.0417625V9.43716C215.762 15.5019 215.696 18.8727 215.577 18.9462C215.476 19.0088 215.393 19.3037 215.393 19.6018C215.393 19.8998 215.31 20.1435 215.209 20.1435C215.107 20.1435 215.024 20.3092 215.024 20.5119C215.024 20.7145 214.947 20.8802 214.852 20.8802C214.758 20.8802 214.628 21.0464 214.563 21.2494C213.728 23.8793 208.486 25.869 205.055 24.8583C203.338 24.3529 200.28 21.9843 200.28 21.1606C200.28 21.0064 200.197 20.8802 200.096 20.8802C199.994 20.8802 199.912 20.7145 199.912 20.5119C199.912 20.3092 199.829 20.1435 199.727 20.1435C199.626 20.1435 199.543 19.9722 199.543 19.7629C199.543 19.5537 199.46 19.2278 199.359 19.0389C199.245 18.8265 199.157 15.1516 199.128 9.42666L199.082 0.158357L198.66 0.0984941L198.237 0.0386311L198.296 9.58452ZM220.738 12.9579V25.8535H228.399C234.374 25.8535 236.113 25.8016 236.297 25.6181C236.921 24.9942 236.243 24.9325 228.763 24.9325H221.475V19.1304V13.3283H227.202C232.557 13.3283 232.925 13.3073 232.867 13.0059C232.809 12.7086 232.366 12.6799 227.14 12.635L221.475 12.5861V6.69469V0.803038H228.953C235.975 0.803038 236.427 0.78333 236.369 0.480698C236.311 0.180645 235.767 0.155042 228.522 0.110283L220.738 0.0622081V12.9579ZM111.262 0.987233C111.262 1.09093 111.78 1.17143 112.449 1.17143C113.102 1.17143 113.687 1.25431 113.75 1.35562C113.812 1.45693 114.107 1.53982 114.406 1.53982C114.704 1.53982 114.948 1.6227 114.948 1.72401C114.948 1.82532 115.07 1.90821 115.219 1.90821C115.463 1.90821 115.852 2.09719 117.169 2.85791C118.1 3.39521 120.661 5.89989 120.661 6.2727C120.661 6.40495 120.727 6.51307 120.809 6.51307C121.005 6.51307 121.72 7.99731 122.183 9.36809C123.195 12.3664 122.407 17.8727 120.723 19.5551C120.588 19.6905 120.477 19.8744 120.477 19.9633C120.477 20.2497 117.925 22.7222 117.629 22.7222C117.472 22.7222 117.344 22.7953 117.344 22.8848C117.344 23.044 116.089 23.7025 114.72 24.2619C113.522 24.7513 111.28 24.9528 107.668 24.8957L104.166 24.8404L104.119 13.0918C104.081 3.86343 104.121 1.28655 104.303 1.08007C104.585 0.759753 111.262 0.670787 111.262 0.987233ZM170.423 0.987233C170.423 1.08854 170.755 1.17143 171.16 1.17143C171.566 1.17143 171.897 1.25431 171.897 1.35562C171.897 1.45693 172.028 1.53982 172.187 1.53982C172.346 1.53982 172.587 1.64352 172.721 1.77006C172.855 1.89679 173.222 2.2066 173.537 2.45876C173.852 2.71093 174.109 3.02166 174.109 3.14949C174.109 3.27732 174.192 3.38176 174.293 3.38176C174.395 3.38176 174.478 3.54754 174.478 3.75015C174.478 3.95277 174.552 4.11854 174.643 4.11854C174.824 4.11854 175.049 5.31617 175.059 6.32888C175.084 9.04353 173.582 10.9529 170.928 11.5782C169.421 11.9334 159.932 11.9798 159.586 11.6337C159.263 11.311 159.272 1.44569 159.595 1.07859C159.878 0.757174 170.423 0.668208 170.423 0.987233ZM171.854 12.7567C172.03 12.8477 172.538 13.0728 172.984 13.2572C174.948 14.0702 176.321 16.3021 176.321 18.6834C176.321 19.8674 175.972 21.617 175.736 21.617C175.652 21.617 175.583 21.7467 175.583 21.9053C175.583 22.3396 173.829 23.9592 172.851 24.4278C172.019 24.8264 171.775 24.8425 165.677 24.8975L159.365 24.9546V18.7731V12.5915H165.449C168.796 12.5915 171.678 12.6659 171.854 12.7567Z" fill="#1F1E2C"/>
</g>
<defs>
<clipPath id="clip0_376_54900">
<rect width="236" height="26" fill="white" transform="translate(0.5)"/>
</clipPath>
</defs>
</svg>
