<svg width="24" height="24" viewBox="0 0 24 24" fill="none" xmlns="http://www.w3.org/2000/svg">
<path d="M22.25 4C22.25 5.24264 21.2426 6.25 20 6.25C18.7574 6.25 17.75 5.24264 17.75 4C17.75 2.75736 18.7574 1.75 20 1.75C21.2426 1.75 22.25 2.75736 22.25 4Z" fill="#292D32" stroke="#3E1C01"/>
<path d="M18.9342 8.63867L18.9358 8.63902C19.6116 8.78303 20.2669 8.78311 20.8879 8.67221L20.8879 8.67227L20.895 8.67089C21.2199 8.608 21.5 8.84782 21.5 9.15V13.96C21.5 16.4439 19.4939 18.45 17.01 18.45H15.5C15.0187 18.45 14.5834 18.6771 14.3019 19.0475L14.3007 19.049L12.8007 21.039L12.8 21.04C12.5506 21.3726 12.2559 21.5 12 21.5C11.7441 21.5 11.4494 21.3726 11.2 21.04L11.1993 21.039L9.70146 19.0519C9.56135 18.8611 9.36088 18.7164 9.16861 18.6203C8.97412 18.523 8.73721 18.45 8.5 18.45H7C4.51614 18.45 2.5 16.4339 2.5 13.95V7C2.5 4.51614 4.51614 2.5 7 2.5H14.85C15.167 2.5 15.3966 2.7826 15.3306 3.09739L15.3306 3.09738L15.3294 3.10363C15.2052 3.7358 15.2182 4.39428 15.361 5.06422L15.3613 5.06583C15.7428 6.82747 17.1725 8.25717 18.9342 8.63867ZM6.5 11C6.5 11.8229 7.1606 12.5 8 12.5C8.8394 12.5 9.5 11.8229 9.5 11C9.5 10.1739 8.82614 9.5 8 9.5C7.1606 9.5 6.5 10.1771 6.5 11ZM10.5 11C10.5 11.8229 11.1606 12.5 12 12.5C12.8394 12.5 13.5 11.8229 13.5 11C13.5 10.1739 12.8261 9.5 12 9.5C11.1606 9.5 10.5 10.1771 10.5 11ZM14.5 11C14.5 11.8229 15.1606 12.5 16 12.5C16.8394 12.5 17.5 11.8229 17.5 11C17.5 10.1739 16.8261 9.5 16 9.5C15.1606 9.5 14.5 10.1771 14.5 11Z" fill="#3E1C01" stroke="#3E1C01"/>
</svg>
