<svg width="20" height="20" viewBox="0 0 20 20" fill="none" xmlns="http://www.w3.org/2000/svg">
<path d="M7.7998 4.60039C7.7998 3.38439 8.7838 2.40039 9.9998 2.40039C11.2158 2.40039 12.1998 3.38439 12.1998 4.60039C12.1998 5.81639 11.2158 6.80039 9.9998 6.80039C8.7838 6.80039 7.7998 5.81639 7.7998 4.60039ZM10.9998 4.60039C10.9998 4.04839 10.5518 3.60039 9.9998 3.60039C9.4478 3.60039 8.9998 4.04839 8.9998 4.60039C8.9998 5.15239 9.4478 5.60039 9.9998 5.60039C10.5518 5.60039 10.9998 5.15239 10.9998 4.60039Z" fill="#495057"/>
<path d="M7.7998 15.7996C7.7998 14.5836 8.7838 13.5996 9.9998 13.5996C11.2158 13.5996 12.1998 14.5836 12.1998 15.7996C12.1998 17.0156 11.2158 17.9996 9.9998 17.9996C8.7838 17.9996 7.7998 17.0156 7.7998 15.7996ZM10.9998 15.7996C10.9998 15.2476 10.5518 14.7996 9.9998 14.7996C9.4478 14.7996 8.9998 15.2476 8.9998 15.7996C8.9998 16.3516 9.4478 16.7996 9.9998 16.7996C10.5518 16.7996 10.9998 16.3516 10.9998 15.7996Z" fill="#495057"/>
<path d="M7.7998 10.2C7.7998 8.984 8.7838 8 9.9998 8C11.2158 8 12.1998 8.984 12.1998 10.2C12.1998 11.416 11.2158 12.4 9.9998 12.4C8.7838 12.4 7.7998 11.416 7.7998 10.2ZM10.9998 10.2C10.9998 9.648 10.5518 9.2 9.9998 9.2C9.4478 9.2 8.9998 9.648 8.9998 10.2C8.9998 10.752 9.4478 11.2 9.9998 11.2C10.5518 11.2 10.9998 10.752 10.9998 10.2Z" fill="#495057"/>
</svg>
