<svg width="24" height="21" viewBox="0 0 24 21" fill="none" xmlns="http://www.w3.org/2000/svg">
<path d="M11.9998 2.98835L20.7848 18.1667H3.21482L11.9998 2.98835ZM1.19648 17C0.298149 18.5517 1.41815 20.5 3.21482 20.5H20.7848C22.5815 20.5 23.7015 18.5517 22.8032 17L14.0181 1.82168C13.1198 0.270012 10.8798 0.270012 9.98148 1.82168L1.19648 17ZM10.8331 8.83335V11.1667C10.8331 11.8083 11.3581 12.3333 11.9998 12.3333C12.6415 12.3333 13.1665 11.8083 13.1665 11.1667V8.83335C13.1665 8.19168 12.6415 7.66668 11.9998 7.66668C11.3581 7.66668 10.8331 8.19168 10.8331 8.83335ZM10.8331 14.6667H13.1665V17H10.8331V14.6667Z" fill="#FFB020"/>
</svg>
