<svg width="48" height="48" viewBox="0 0 48 48" fill="none" xmlns="http://www.w3.org/2000/svg">
<rect width="48" height="48" rx="8" fill="#5DDAB4"/>
<path d="M29 16H19C16 16 14 17.5 14 21V24.56C14 24.93 14.38 25.16 14.71 25.01C15.69 24.56 16.82 24.39 18.01 24.6C20.64 25.07 22.57 27.51 22.5 30.18C22.49 30.6 22.43 31.01 22.32 31.41C22.24 31.72 22.49 32.01 22.81 32.01H29C32 32.01 34 30.51 34 27.01V21C34 17.5 32 16 29 16ZM24 26.5C22.62 26.5 21.5 25.38 21.5 24C21.5 22.62 22.62 21.5 24 21.5C25.38 21.5 26.5 22.62 26.5 24C26.5 25.38 25.38 26.5 24 26.5ZM31.25 26C31.25 26.41 30.91 26.75 30.5 26.75C30.09 26.75 29.75 26.41 29.75 26V22C29.75 21.59 30.09 21.25 30.5 21.25C30.91 21.25 31.25 21.59 31.25 22V26Z" fill="white"/>
<path d="M17 26C14.79 26 13 27.79 13 30C13 30.75 13.21 31.46 13.58 32.06C14.27 33.22 15.54 34 17 34C18.46 34 19.73 33.22 20.42 32.06C20.79 31.46 21 30.75 21 30C21 27.79 19.21 26 17 26ZM18.49 30.73H17.75V31.51C17.75 31.92 17.41 32.26 17 32.26C16.59 32.26 16.25 31.92 16.25 31.51V30.73H15.51C15.1 30.73 14.76 30.39 14.76 29.98C14.76 29.57 15.1 29.23 15.51 29.23H16.25V28.52C16.25 28.11 16.59 27.77 17 27.77C17.41 27.77 17.75 28.11 17.75 28.52V29.23H18.49C18.9 29.23 19.24 29.57 19.24 29.98C19.24 30.39 18.91 30.73 18.49 30.73Z" fill="white"/>
</svg>
