<svg width="24" height="25" viewBox="0 0 24 25" fill="none" xmlns="http://www.w3.org/2000/svg">
<path d="M21.0697 5.87307C19.4597 5.71307 17.8497 5.59307 16.2297 5.50307V5.49307L16.0097 4.19307C15.8597 3.27307 15.6397 1.89307 13.2997 1.89307H10.6797C8.34967 1.89307 8.12967 3.21307 7.96967 4.18307L7.75967 5.46307C6.82967 5.52307 5.89967 5.58307 4.96967 5.67307L2.92967 5.87307C2.50967 5.91307 2.20967 6.28307 2.24967 6.69307C2.28967 7.10307 2.64967 7.40307 3.06967 7.36307L5.10967 7.16307C10.3497 6.64307 15.6297 6.84307 20.9297 7.37307C20.9597 7.37307 20.9797 7.37307 21.0097 7.37307C21.3897 7.37307 21.7197 7.08307 21.7597 6.69307C21.7897 6.28307 21.4897 5.91307 21.0697 5.87307Z" fill="#ACB5BD"/>
<path d="M19.2297 8.78307C18.9897 8.53307 18.6597 8.39307 18.3197 8.39307H5.67975C5.33975 8.39307 4.99975 8.53307 4.76975 8.78307C4.53975 9.03307 4.40975 9.37307 4.42975 9.72307L5.04975 19.9831C5.15975 21.5031 5.29975 23.4031 8.78975 23.4031H15.2097C18.6997 23.4031 18.8398 21.5131 18.9497 19.9831L19.5697 9.73307C19.5897 9.37307 19.4597 9.03307 19.2297 8.78307ZM13.6597 18.3931H10.3297C9.91975 18.3931 9.57975 18.0531 9.57975 17.6431C9.57975 17.2331 9.91975 16.8931 10.3297 16.8931H13.6597C14.0697 16.8931 14.4097 17.2331 14.4097 17.6431C14.4097 18.0531 14.0697 18.3931 13.6597 18.3931ZM14.4997 14.3931H9.49975C9.08975 14.3931 8.74975 14.0531 8.74975 13.6431C8.74975 13.2331 9.08975 12.8931 9.49975 12.8931H14.4997C14.9097 12.8931 15.2497 13.2331 15.2497 13.6431C15.2497 14.0531 14.9097 14.3931 14.4997 14.3931Z" fill="#ACB5BD"/>
</svg>
