<svg width="50" height="50" viewBox="0 0 50 50" fill="none" xmlns="http://www.w3.org/2000/svg">
<circle cx="25" cy="25" r="25" fill="#DDE2E5"/>
<g clip-path="url(#clip0_1747_25832)">
<path fill-rule="evenodd" clip-rule="evenodd" d="M25 13C18.376 13 13 18.376 13 25C13 31.624 18.376 37 25 37C31.624 37 37 31.624 37 25C37 18.376 31.624 13 25 13ZM29.8 25C29.464 25 29.164 24.868 28.948 24.652L26.2 21.892V31C26.2 31.66 25.66 32.2 25 32.2C24.34 32.2 23.8 31.66 23.8 31V21.892L21.052 24.652C20.826 24.878 20.5196 25.0049 20.2 25.0049C19.8804 25.0049 19.574 24.878 19.348 24.652C19.122 24.426 18.9951 24.1196 18.9951 23.8C18.9951 23.6418 19.0263 23.4851 19.0868 23.3389C19.1474 23.1927 19.2361 23.0599 19.348 22.948L24.148 18.148C24.364 17.932 24.664 17.8 25 17.8C25.336 17.8 25.636 17.932 25.852 18.148L30.652 22.948C30.8195 23.1165 30.9333 23.3308 30.9792 23.5639C31.0251 23.797 31.001 24.0385 30.9099 24.2579C30.8188 24.4774 30.6647 24.6649 30.4672 24.797C30.2697 24.929 30.0376 24.9997 29.8 25Z" fill="#ACB5BD"/>
</g>
<defs>
<clipPath id="clip0_1747_25832">
<rect width="24" height="24" fill="white" transform="translate(13 13)"/>
</clipPath>
</defs>
</svg>
