<svg width="24" height="24" viewBox="0 0 24 24" fill="none" xmlns="http://www.w3.org/2000/svg">
<path d="M6.09689 12.1076L6.09796 12.1078C8.97875 12.6226 11.0759 15.2836 10.9998 18.1927C10.9891 18.6414 10.9262 19.0808 10.811 19.51H17C18.4234 19.51 19.5331 19.1541 20.2848 18.4561C21.0297 17.7643 21.5 16.6647 21.5 15.01V9C21.5 7.3453 21.0297 6.24565 20.2848 5.5539C19.5331 4.85591 18.4234 4.5 17 4.5H7C5.57665 4.5 4.4669 4.85591 3.71523 5.5539C2.97026 6.24565 2.5 7.3453 2.5 9V12.556L6.09689 12.1076ZM6.09689 12.1076C4.8058 11.8798 3.57332 12.0637 2.50274 12.555L6.09689 12.1076ZM9 12C9 13.6561 10.3439 15 12 15C13.6561 15 15 13.6561 15 12C15 10.3439 13.6561 9 12 9C10.3439 9 9 10.3439 9 12ZM18.5 15.25C19.1861 15.25 19.75 14.6861 19.75 14V10C19.75 9.31386 19.1861 8.75 18.5 8.75C17.8139 8.75 17.25 9.31386 17.25 10V14C17.25 14.6861 17.8139 15.25 18.5 15.25Z" fill="#ACB5BD" stroke="#ACB5BD"/>
<path d="M2.00972 19.8044L2.00978 19.8044L2.00559 19.7976C1.68368 19.2755 1.5 18.6563 1.5 18C1.5 16.0661 3.06614 14.5 5 14.5C6.93386 14.5 8.5 16.0661 8.5 18C8.5 18.6563 8.31632 19.2755 7.99441 19.7976L7.99436 19.7975L7.99028 19.8044C7.38707 20.8185 6.27725 21.5 5 21.5C3.72275 21.5 2.61293 20.8185 2.00972 19.8044ZM6.25 19.51V19.23H6.49C7.19048 19.23 7.74 18.6618 7.74 17.98C7.74 17.2939 7.17614 16.73 6.49 16.73H6.25V16.52C6.25 15.8339 5.68614 15.27 5 15.27C4.31386 15.27 3.75 15.8339 3.75 16.52V16.73H3.51C2.82386 16.73 2.26 17.2939 2.26 17.98C2.26 18.6661 2.82386 19.23 3.51 19.23H3.75V19.51C3.75 20.1961 4.31386 20.76 5 20.76C5.68614 20.76 6.25 20.1961 6.25 19.51Z" fill="#ACB5BD" stroke="#ACB5BD"/>
</svg>
