<svg width="22" height="66" viewBox="0 0 22 66" fill="none" xmlns="http://www.w3.org/2000/svg">
<path d="M11 26.8957C10.5829 26.8957 10.2038 26.7441 9.90048 26.4407L0.421911 16.583C-0.146803 15.9764 -0.146803 15.0285 0.459826 14.4219C1.06645 13.8532 2.01431 13.8532 2.62094 14.4598L11 23.1801L19.3791 14.4598C19.9478 13.8532 20.9335 13.8532 21.5402 14.4219C22.1468 14.9906 22.1468 15.9764 21.5781 16.583L12.0995 26.4407C11.7962 26.7441 11.4171 26.8957 11 26.8957Z" fill="#FCA311"/>
<path d="M11 45.8957C10.5829 45.8957 10.2038 45.7441 9.90048 45.4407L0.421911 35.583C-0.146803 34.9764 -0.146803 34.0285 0.459826 33.4219C1.06645 32.8532 2.01431 32.8532 2.62094 33.4598L11 42.1801L19.3791 33.4598C19.9478 32.8532 20.9335 32.8532 21.5402 33.4219C22.1468 33.9906 22.1468 34.9764 21.5781 35.583L12.0995 45.4407C11.7962 45.7441 11.4171 45.8957 11 45.8957Z" fill="#FCA311"/>
<path d="M11 65.8957C10.5829 65.8957 10.2038 65.7441 9.90048 65.4407L0.421911 55.583C-0.146803 54.9764 -0.146803 54.0285 0.459826 53.4219C1.06645 52.8532 2.01431 52.8532 2.62094 53.4598L11 62.1801L19.3791 53.4598C19.9478 52.8532 20.9335 52.8532 21.5402 53.4219C22.1468 53.9906 22.1468 54.9764 21.5781 55.583L12.0995 65.4407C11.7962 65.7441 11.4171 65.8957 11 65.8957Z" fill="#FCA311"/>
</svg>
